<svg xmlns="http://www.w3.org/2000/svg" viewBox="0 0 640 400">
  <defs>
    <pattern id="grid65" width="40" height="40" patternUnits="userSpaceOnUse">
      <rect width="40" height="40" fill="#F5F5F0"/>
      <path d="M 40 0 L 0 0 0 40" fill="none" stroke="#E0DDD0" stroke-width="0.5"/>
    </pattern>
  </defs>
  <rect width="640" height="400" fill="url(#grid65)"/>
  <!-- Streets -->
  <rect x="0" y="185" width="640" height="30" fill="#E8E4D8" opacity="0.8"/>
  <rect x="290" y="0" width="60" height="400" fill="#E8E4D8" opacity="0.8"/>
  <rect x="0" y="100" width="640" height="18" fill="#EBE7DB" opacity="0.6"/>
  <rect x="0" y="280" width="640" height="18" fill="#EBE7DB" opacity="0.6"/>
  <!-- Block fills -->
  <rect x="80" y="210" width="190" height="65" rx="2" fill="#DDD8C4" opacity="0.5"/>
  <rect x="370" y="210" width="190" height="65" rx="2" fill="#DDD8C4" opacity="0.5"/>
  <rect x="80" y="120" width="190" height="65" rx="2" fill="#DDD8C4" opacity="0.5"/>
  <rect x="370" y="120" width="190" height="65" rx="2" fill="#DDD8C4" opacity="0.5"/>
  <!-- Map pin -->
  <ellipse cx="320" cy="215" rx="14" ry="6" fill="rgba(0,0,0,0.2)"/>
  <path d="M320 140 C300 140 285 155 285 174 C285 200 320 225 320 225 C320 225 355 200 355 174 C355 155 340 140 320 140Z" fill="#FDB913"/>
  <circle cx="320" cy="174" r="10" fill="white"/>
  <circle cx="320" cy="174" r="5" fill="#FDB913"/>
  <!-- Label -->
  <rect x="230" y="232" width="180" height="26" rx="4" fill="white" opacity="0.9"/>
  <text x="320" y="250" text-anchor="middle" font-family="Arial,sans-serif" font-size="11" fill="#333" font-weight="600">Praxis PHB · Braunschweig</text>
</svg>