<svg xmlns="http://www.w3.org/2000/svg" viewBox="0 0 64 67">
        <path fill="currentColor" fill-rule="nonzero" d="M32.003 0c8.504 0 16.506 3.297 22.544 9.292C60.61 15.314 63.969 23.338 64 31.886c.023 6.625-1.95 12.959-5.712 18.365l-.327.46.461.24c.196.102.34.288.395.514a.835.835 0 0 1-.127.68c-6.238 8.813-16.01 14.152-26.222 14.352l-.487.005h-.117c-5.282 0-10.336-1.28-15.027-3.807-4.505-2.426-8.515-5.983-11.594-10.284a.836.836 0 0 1-.13-.68.788.788 0 0 1 .299-.457l.094-.059.652-.34C2.154 45.402.025 38.917 0 32.114-.062 14.645 13.957.351 31.357.005L31.885 0h.118Zm-.002 2.465h-.107C15.597 2.523 2.384 15.83 2.443 32.13c.022 6.22 1.943 12.137 5.56 17.153l.333.454 5.449-2.85-.27-.336-.04-.052c-.143-.18-.282-.364-.418-.549-.017-.022-.032-.045-.048-.067-.133-.18-.264-.364-.392-.549l-.056-.082-.184-.273-.18-.276-.062-.098-.171-.272-.168-.275-.067-.117c-.106-.18-.211-.36-.312-.543l-.073-.135a21.546 21.546 0 0 1-.286-.538 25.358 25.358 0 0 1-.338-.686l-.08-.178c-.08-.173-.16-.346-.236-.522l-.083-.2-.107-.255-.104-.257-.084-.222a19.432 19.432 0 0 1-.187-.5c-.03-.081-.055-.163-.083-.244a19.417 19.417 0 0 1-.166-.49l-.081-.27c-.049-.158-.098-.316-.143-.476-.028-.097-.052-.196-.078-.293-.042-.155-.084-.309-.123-.465-.026-.105-.048-.211-.073-.317-.035-.15-.07-.3-.102-.45-.025-.114-.046-.23-.068-.345-.028-.144-.057-.287-.083-.432-.022-.124-.04-.25-.06-.374-.022-.138-.045-.274-.065-.413-.019-.133-.034-.27-.05-.404-.017-.13-.035-.26-.049-.39-.016-.149-.027-.298-.04-.447-.01-.12-.023-.237-.032-.357l-.016-.262-.013-.262-.015-.288a23.703 23.703 0 0 1 .01-2.03c.584-12.43 10.825-22.348 23.408-22.393a22.701 22.701 0 0 1 3.74.296l.606.106.601.12.048.01.191.04-.108.2-.082.149a23.808 23.808 0 0 0-2.771-.432 22.426 22.426 0 0 0-2.223-.106 23.105 23.105 0 0 0-10.523 2.569 23.012 23.012 0 0 0-4.174 2.767 23.26 23.26 0 0 0-5.05 5.874 23.013 23.013 0 0 0-3.306 12.008c.006 1.826.227 3.602.634 5.304.012.05.022.103.035.153.057.234.119.466.184.698l.012.047c.06.211.123.421.19.63.01.034.019.07.03.104.06.188.124.374.19.561.018.054.035.109.054.163.068.19.14.38.213.568l.054.145c.078.196.159.39.241.582l.049.12c.08.183.164.366.248.548.022.047.042.095.064.14.094.201.193.398.293.595l.041.083c.104.203.212.403.321.602l.034.063.18.318.185.315.01.018.18.295.184.291.033.053c.4.622.83 1.222 1.286 1.801l.02.026c.196.248.397.491.603.73l.313.356-7.898 4.226a.626.626 0 0 0-.31.409.614.614 0 0 0 .1.497c5.722 7.9 15.435 12.807 25.36 12.807 9.765 0 19.327-4.83 25.075-12.635l.28-.386a.605.605 0 0 0 .099-.499.624.624 0 0 0-.225-.348l-.09-.057-7.777-4.114.015-.016.014-.017.206-.238.204-.242.007-.008a23.33 23.33 0 0 0 2.707-4.064l.028-.054c.145-.277.284-.558.416-.841l.025-.054a23 23 0 0 0 1.344-3.67l.03-.118a23.485 23.485 0 0 0 .236-.968c.067-.306.13-.614.184-.924l.006-.032a23.52 23.52 0 0 0 .273-2.118c.024-.302.045-.605.058-.911l.004-.13a24.204 24.204 0 0 0 0-1.815 22.961 22.961 0 0 0-4.965-13.391 23.312 23.312 0 0 0-7.211-6.039l-.352-.186-.355-.179-.231-.113.08-.144.107-.192a23.644 23.644 0 0 1 11.805 12.837 23.374 23.374 0 0 1 1.508 9.208l-.005.142-.025.454-.039.533-.007.081-.044.454-.052.451-.013.1c-.04.305-.086.609-.137.91l-.007.042c-.053.306-.113.61-.178.91l-.026.125c-.065.296-.136.589-.212.88l-.03.11a23.29 23.29 0 0 1-.565 1.823l-.011.032a22.017 22.017 0 0 1-.365.954c-.119.29-.242.576-.371.86l-.008.016-.008.017c-.18.394-.37.781-.57 1.162l-.309.568-.243.424-.25.413-.016.026c-.41.662-.852 1.303-1.324 1.92l-.359.459 5.447 2.82c3.803-5.141 5.802-11.247 5.78-17.664C61.497 15.655 48.25 2.465 32 2.465Zm6.172 6.459.072.027 3.052 1.54a.386.386 0 0 1-.173.73h-.025l-.024-.002-1.134 2.196a.52.52 0 0 1 .122.624.512.512 0 0 1-.459.283l-.063-.003-.061-.011-.64 1.239.05.025a.123.123 0 0 1 .06.069c.009.03.006.062-.007.09a.278.278 0 0 0 .121.373.118.118 0 0 1 .062.13l-.01.03-.112.213.133.067c.103.05.173.13.205.229a.438.438 0 0 1-.008.271l-.042.097-1.146 2.18a2.715 2.715 0 0 1 2.41 2.704c.005 1.505-1.205 2.734-2.697 2.739a2.683 2.683 0 0 1-1.08-.222l-.2-.097-.096.23c-.424 1.062-.45 2-.076 2.728.284.553.805.966 1.45 1.162l.178.048.114-.194a.117.117 0 0 1 .074-.055c.005-.001.486-.118.807-.438-.432-.278-.758-.543-.815-.719a.202.202 0 0 1-.004-.124l.011-.027.145-.29a.12.12 0 0 1 .056-.054l.038-.01.673-.065.039.003.035.015.057.036.063.002.063.001.158-.008c.309-.029.57-.142.78-.338l.1-.105.29-.576a.151.151 0 0 1 .107-.08l.055-.006.085.009c.156.028.377.12.55.207.409.207.607.381.59.519l-.013.044-.291.576c-.087.374-.008.735.232 1.075l.098.127.063.024.033.02.025.03.346.578c.014.023.02.05.016.076l-.012.037-.146.29c-.037.075-.118.113-.24.113-.154 0-.407-.06-.72-.167l-.16-.058-.027.105c-.042.26.046.603.187.818a.116.116 0 0 1 .02.08l-.014.04-2.071 3.964-1.423 2.724a.119.119 0 0 1-.13.06 3.864 3.864 0 0 1-.26-.068l-.14-.044-.006.012.077.039c.192.098.35.24.44.404.085.15.108.3.07.434l-.031.079-.39.77c.108.091.115.218.102.28l-.004.013-.006.013-.362.717a.115.115 0 0 1-.081.063c-.072.015-.16.033-.276.033a1.51 1.51 0 0 1-.394-.057l-.127-.038-.809.063c.082.123.147.258.195.4l.04.146.016.074a1.708 1.708 0 0 1-.485 1.531l-.125.113.01 2.962.233.176c.027.02.043.052.046.086.02.298.111.536.227.722l.072.105.12-.008c.427-.023 1.158-.024 1.728.185l.184.078.121.065c.156.092.288.21.38.358l.061.117.364.834.073.027c1.726.642 2.262 2.355 2.39 2.9l.015.064.343-.178c6.585-3.49 11.059-10.424 11.03-18.394-.03-8.038-4.643-14.972-11.347-18.382l-.342-.17-.21-.1.306-.548c7.192 3.412 12.19 10.706 12.22 19.198.041 11.789-9.48 21.38-21.27 21.422a21.002 21.002 0 0 1-4.713-.528l-.567-.136-.043-.01a22.134 22.134 0 0 0-.189-.004l-.177-.002-.164.001a3.349 3.349 0 0 0-.524.04 6.42 6.42 0 0 0-.68.17l-.238.074h-.005l-.127.042c-.464.156-.91.334-1.207.458l.77.31.464.161.468.152.135.04c.269.081.54.162.812.235.057.015.115.027.172.042.263.068.526.135.792.194.063.015.127.025.19.039.261.055.523.11.787.157.114.02.23.035.344.054.216.035.43.072.649.101.182.024.367.042.55.061.152.016.303.037.455.05l.431.033.434.024.154.01.5.016.502.004h.031c.202 0 .403-.004.603-.01l.199-.009c.134-.005.268-.009.402-.017.077-.004.153-.01.23-.015l.367-.025.238-.022c.118-.01.237-.02.355-.034l.12-.013.119-.015.35-.042c.079-.01.159-.023.238-.034l.173-.025.172-.026.237-.04c.114-.019.229-.038.343-.06l.233-.044c.114-.023.228-.045.34-.069l.231-.05.34-.078.225-.055.17-.043.17-.044.217-.06a15.6 15.6 0 0 0 .343-.096l.21-.063a16.06 16.06 0 0 0 .547-.172l.173-.058.174-.06.193-.07c.118-.041.234-.083.35-.127l.185-.07.353-.14.175-.073a18.3 18.3 0 0 0 .355-.15l.084-.036.083-.037.358-.163.157-.074a23.489 23.489 0 0 0 .509-.248l.182-.092.181-.095.139-.073c.122-.066.244-.132.365-.2l.13-.073.184-.105.183-.107.12-.072c.123-.074.246-.15.369-.226l.11-.07c.125-.08.249-.16.372-.241l.1-.066a22.277 22.277 0 0 0 .464-.318l.19-.136.189-.137.078-.057c.128-.095.255-.191.38-.289l.068-.051c.129-.1.256-.202.383-.305l.057-.047a19.618 19.618 0 0 0 .819-.704l.034-.03.197-.18.195-.183.021-.02c.134-.126.266-.254.396-.383l.008-.008.2-.2.196-.204.148-.156c.058-.06.114-.122.171-.184l.062-.068 7.862 4.158a.232.232 0 0 1 .084.341C51.398 60.04 41.801 64.968 32 64.968c-9.8 0-19.398-4.846-25.048-12.647a.227.227 0 0 1-.038-.187.24.24 0 0 1 .077-.128l.041-.028 7.986-4.272a23.303 23.303 0 0 0 4.919 4.038l.023.015c.196.12.394.236.594.35l.027.015.027.016.701.366.001-.007.005-.082c.091-1.388.975-2.357 2.516-2.788l.215-.056-.375.053c-.384.062-.79.147-1.187.23-.619.13-1.203.25-1.629.27a4.04 4.04 0 0 1-.203.005c-.931.003-1.748-.252-2.098-.524a.119.119 0 0 1-.039-.054l-.006-.032-.067-1.052c0-.014 0-.027.004-.04.253-.901.895-1.17 1.663-1.363l.155-.037.165-.039c.633-.15 1.09-.257 2.256-.574.278-.075.565-.145.861-.21.62-.138 1.27-.252 1.937-.342a1.118 1.118 0 0 1-.078-.055c-.07-.052-.298-.235-.323-.407a.182.182 0 0 1 .013-.103l.019-.032.664-.888-.169-.35a.116.116 0 0 1-.008-.084l.02-.038.217-.291-.018-.069-.009-.073-.057-.033-.058.077a.117.117 0 0 1-.094.047c-.005 0-.01 0-.016-.002-.47-.066-1.249-.443-1.833-.82l-.187-.126-.053.015-.206.06c-.815.22-1.61.342-2.257.345l-.137-.002c-.666-.016-1.083-.166-1.213-.434l-.029-.076-.267-.965c-.122-.448.498-.955 1.385-1.377.5-.238 1.084-.45 1.667-.608.873-.238 1.725-.362 2.395-.344.666.017 1.082.165 1.213.434l.028.076.117.422.15.543c.083.303-.188.664-.745 1.024.307.262.53.554.679.89a.117.117 0 0 1 .005.08l-.02.038-.015.02.06-.014.06-.005.051.004.049.01.31-.415a.119.119 0 0 1 .08-.046l.048.004.338.102 1.678-2.243.037-.05a.25.25 0 0 1-.076-.124c-.037-.135.006-.327.111-.503.125-.208.312-.346.464-.356l.063.003.057.02.072.04.083-.035a.37.37 0 0 1 .153-.019l.069.016.189-.304c-.2-.17-.308-.315-.321-.437v-.019l.007-.017.095-.16-2.09-1.045-.082.163a.117.117 0 0 1-.062.057l-.043.008h-.012c-.544-.054-1.286-.303-2.033-.68-.747-.377-1.387-.827-1.753-1.233a.117.117 0 0 1-.03-.086l.013-.046.18-.357a4.947 4.947 0 0 1-.512-.481.116.116 0 0 1-.03-.087l.013-.045.119-.236.04-.08-2.061-1.371-.019-.016-.015-.02-.605-.964a.122.122 0 0 1-.017-.08l.014-.04.131-.24a1.555 1.555 0 0 1-.137-.196c-.092-.158-.119-.296-.064-.405l.034-.051.044-.044.4-.327c.097-.08.263-.11.476-.104l.133.008c.713.063 1.834.454 2.724.805l.26.104.122.05.117.047a.118.118 0 0 1 0 .219l-.044.009-.046-.01a30.45 30.45 0 0 0-.786-.313c-.966-.367-1.686-.574-2.16-.652l-.122-.019-.053.012c-.047.014-.079.034-.092.062-.053.106.09.318.4.605.74.684 2.435 1.8 4.713 2.964l.033.018.034.017.31.156.205.102c2.22 1.093 4.197 1.82 4.977 1.84l.088-.001a.557.557 0 0 0 .14-.024c.042-.014.07-.034.083-.059.024-.048-.002-.132-.073-.238a4.24 4.24 0 0 0-.28-.272l-.125-.107.024.026c.075.081.115.151.116.21l-.006.044-.008.018c-.02.038-.066.08-.177.08a.61.61 0 0 1-.104-.01 1.569 1.569 0 0 1-.424-.15 1.71 1.71 0 0 1-.32-.205l-.006-.002-.008-.003-1.06-.535a.053.053 0 0 1-.023-.071.054.054 0 0 1 .045-.029l.026.006.862.435-.01-.034-.002-.033.005-.032-1.175-.593a.053.053 0 0 1-.023-.07.053.053 0 0 1 .044-.03l.027.006 1.202.608.051-.015a.361.361 0 0 1 .064-.004l.076.006.088.017.052-.102.086-.17a.159.159 0 0 1-.023-.047c-.613-.297-.93-.34-1.551-.422-.233-.031-.522-.07-.885-.13l-.05-.009-.051-.01.413.661a.057.057 0 0 1-.006.07.06.06 0 0 1-.043.02l-.014-.002-.013-.005-1.772-.895-1.3-.655-.012-.01-.01-.011-.203-.314-.007-.001-.007-.004-2.993-1.51a.053.053 0 0 1-.023-.072.054.054 0 0 1 .045-.029l.026.006 2.85 1.44-.082-.128-3.271-1.651a.052.052 0 0 1-.029-.058c.001-.005.002-.01.005-.014a.053.053 0 0 1 .044-.028l.027.005.073.037 3.04 1.535-.082-.126-2.791-1.41-.474-.239a.054.054 0 0 1-.023-.07.053.053 0 0 1 .044-.03l.027.005.66.333 2.445 1.235-.08-.125-2.198-1.11-.04-.02a.053.053 0 0 1-.023-.071.053.053 0 0 1 .044-.029l.027.006.226.114 1.85.934-.16-.249a.06.06 0 0 1 .019-.081.06.06 0 0 1 .058-.003l.023.02 1.046 1.627 2.867 1.447-.362-.578-.205-.054-.205-.064-.2-.071c-.927-.349-1.755-.918-1.96-1.098a.172.172 0 0 1-.062-.146.165.165 0 0 1 .166-.146c.03-.001.056.007.072.013l.015.007.098.066c.318.214.93.626 1.746.925l.228.078-.37-.588a4.647 4.647 0 0 1-.637-.268 4.82 4.82 0 0 1-.501-.29c-.916-.349-1.75-.924-1.92-1.07a.165.165 0 0 1-.061-.142.147.147 0 0 1 .075-.113c.046-.029.118-.016.15-.006l.017.006.095.063c.246.164.673.449 1.232.706l.216.095.486-.964-.008-.068-.045-.356.001-.035.011-.033.09-.175a.122.122 0 0 1 .046-.049l.032-.013.104-.024.598-1.182c.024-.05.043-.11-.022-.21l-.05-.065-.177-.205a.116.116 0 0 1-.029-.085l.013-.045.075-.15a.118.118 0 0 1 .082-.063l.024-.002.024.002-.038-.033-.042.005-.044.002c-.136 0-.298-.045-.48-.137l-.138-.078-.791.693c.038.214-.027.33-.097.392a.29.29 0 0 1-.09.054l-.055.015-.305.06c-.052.01-.1.018-.147.025a1.51 1.51 0 0 0-.41.108l-.098.053-.472.288a.219.219 0 0 1-.15.055c-.19 0-.426-.19-.583-.369a1.387 1.387 0 0 1-.252-.398c-.071-.188-.03-.292.013-.345l.022-.022.35-.431a.958.958 0 0 0 .16-.281l.036-.102-.105.027-.246.064-.13.034-.434.285a.229.229 0 0 1-.113.03c-.23.001-.514-.31-.688-.575-.214-.326-.356-.712-.233-.898l.045-.049.439-.288c.064-.095.335-.497.486-.695.009-.164.068-.258.128-.311l.036-.028.136-.089a.32.32 0 0 1 .146-.05h.085a.632.632 0 0 1 .187.053l.102.053.654-.428c-.057-.312-.008-.554.154-.66a.367.367 0 0 1 .223-.054l.089.012.028-.03.032-.025.626-.41a.257.257 0 0 1 .146-.042c.31 0 .76.473 1.068.943.056.085.107.17.153.253.293.163.608.428.89.75.106.12.205.246.294.376l.126.195.202-.09.119-.233a2.143 2.143 0 0 1-.216-.254.119.119 0 0 1-.021-.081l.012-.041 5.719-11.07-.131-.065a.117.117 0 0 1-.062-.13l.01-.03.167-.32a.117.117 0 0 1 .066-.057l.044-.005H35c.195-.001.353-.047.386-.11a.119.119 0 0 1 .113-.065l.045.013.022.01.642-1.242a.517.517 0 0 1-.122-.623.529.529 0 0 1 .497-.28l.085.012L37.8 9.57a.387.387 0 0 1-.075-.45.397.397 0 0 1 .448-.197Zm-13.27 47.19-.068.264c.63.223.692.291.512.994l-.702 2.735c-.165.644-.315 1.161-.5 1.571-.213.491-.542.741-1.041.834l.044.31c.3-.002.662-.076 1.046-.268.825-.405 1.123-1.086 1.377-2.078l.733-2.858c.18-.703.259-.735.876-.639h.002l.068-.264-2.347-.602Zm6.172.905-.38.082-1.99 4.31c-.329.717-.444.797-1.001.835l-.015.273 1.882.1.015-.272c-.619-.101-.656-.215-.486-.667.12-.336.258-.661.385-.962l1.695.09c.131.417.255.825.333 1.111.108.374.044.455-.47.505l-.015.272 2.308.124.015-.273c-.542-.088-.647-.197-.888-.961-.476-1.495-.93-3.057-1.388-4.567Zm9.473-1.124-2.379.54.06.267c.647-.086.725-.052.883.647l.29 1.273-2.479.563-.29-1.272c-.158-.699-.103-.764.5-.962l-.061-.266-2.38.54.061.267c.67-.092.754-.067.915.64l.741 3.26c.162.707.096.765-.514.966l.06.265 2.37-.539-.06-.266c-.654.087-.732.053-.89-.646l-.362-1.588 2.479-.564.361 1.588c.159.699.104.764-.565.977l.06.266 2.43-.552-.061-.267c-.662.09-.739.063-.899-.644l-.741-3.26c-.149-.656-.117-.752.418-.933l.112-.038-.059-.262Zm-10.06 2.493.577 1.996-1.422-.076c.273-.627.538-1.279.829-1.92h.017Zm14.67-4.536c-.403-.044-.815.091-1.437.428l-2.012 1.087.13.24c.583-.248.683-.224 1.015.391l1.586 2.935c.337.624.298.732-.255 1.09l.13.24 2.153-1.165-.13-.24c-.602.267-.705.237-1.042-.386l-.613-1.134.174-.093c.3-.162.48-.134.725.015.425.265.882.572 1.278.784.582.306.98.343 1.811-.057.09-.049.177-.086.239-.12l-.077-.249c-.202.04-.393.028-.667-.066-.259-.083-.538-.224-1.02-.487a18.1 18.1 0 0 1-1.218-.729c.408-.502.626-1.104.273-1.757-.252-.465-.633-.686-1.043-.727Zm-26.767-.576-1.698 2.104c.192.045.537.134.866.332.708.428.853 1.113.456 1.77-.325.54-.843.836-1.354.528-.431-.26-.602-.721-.677-.976-.044-.126-.108-.185-.224-.175-.157.015-.34.104-.402.206-.065.09-.072.186-.007.374.068.2.3.51.607.695.42.244 1.047.363 1.634.298.71-.07 1.184-.361 1.453-.807.374-.62.229-1.536-.706-2.1-.166-.1-.519-.206-.883-.279l-.156-.03.928-1.091 1.805 1.088.598-.496-.005-.093-2.235-1.348Zm25.383 1.335c.473-.255 1.119-.226 1.556.585.211.39.26.751.116 1.11-.1.248-.319.434-.656.617l-.255.139-.993-1.84c-.094-.172-.124-.263-.096-.336.029-.074.125-.165.328-.275Zm6.187-4.979-2.928 2.637.182.203c.504-.384.59-.404 1.091.154l2.226 2.471c.474.526.457.622-.055 1.163l.183.203 3.169-2.854a14.72 14.72 0 0 0-.709-1.232l-.243.15c.132.363.206.675.206.917.002.296-.16.523-.547.871-.266.24-.493.433-.67.478-.178.045-.347-.079-.621-.383l-1.016-1.128.494-.446c.545-.49.644-.522 1.131-.146l.21-.189-1.13-1.255-.21.189c.317.518.288.613-.27 1.115l-.488.44-1.25-1.388c-.182-.203-.175-.233.047-.433l.374-.336c.393-.354.604-.464.82-.429.21.03.451.145.725.334l.187-.225c-.362-.351-.787-.76-.908-.88Zm-35.662.697-.143.002-.902.215.036.287c.443-.103.972-.15 1.368.213.446.41.403.937-.03 1.408-.455.497-1.206.711-2.083.822-.642.082-1.33.1-1.975.122l-.144.158 2.46 2.253c.315-.207.714-.49 1.114-.737l-.137-.242c-.59.2-.67.162-1.034-.172l-1.07-.98 1.531-.067c1.158-.039 1.761-.191 2.234-.707.628-.685.492-1.573-.105-2.12a1.69 1.69 0 0 0-1.263-.453Zm17.47 3.612.03.002c.188.02.33.2.312.39a.354.354 0 0 1-.248.29l-.066.015h-.069a.359.359 0 0 1-.311-.388c.013-.135.125-.253.256-.293l.067-.014.03-.002Zm1.872.216a.357.357 0 0 1-.243.365l-.067.014h-.07a.362.362 0 0 1-.315-.315c-.019-.177.133-.36.31-.379a.359.359 0 0 1 .385.315Zm-3.396-.364.029.002c.188.019.33.2.312.389a.355.355 0 0 1-.248.292l-.066.014h-.069a.36.36 0 0 1-.311-.388c.013-.135.125-.253.256-.293l.067-.014.029-.002Zm4.921.205a.357.357 0 0 1-.243.365l-.067.015h-.07a.362.362 0 0 1-.315-.316c-.02-.176.133-.36.31-.378a.359.359 0 0 1 .385.314Zm-6.447-.352.029.002c.188.018.33.2.312.389a.355.355 0 0 1-.248.291l-.066.014h-.068a.36.36 0 0 1-.312-.389.365.365 0 0 1 .256-.293l.067-.013.029-.002Zm7.971.193a.357.357 0 0 1-.243.365l-.067.014h-.07a.363.363 0 0 1-.315-.315c-.02-.177.133-.36.31-.38a.36.36 0 0 1 .385.316Zm-9.477-.41.066.008a.36.36 0 0 1 .254.428.355.355 0 0 1-.286.256l-.068.004-.067-.009a.36.36 0 0 1-.255-.428.365.365 0 0 1 .289-.254l.067-.005Zm10.607-.255.068.005a.364.364 0 0 1 .289.264.358.358 0 0 1-.19.395l-.065.024-.069.01a.363.363 0 0 1-.356-.269c-.044-.172.082-.375.254-.419a.325.325 0 0 1 .07-.01Zm-12.093-.12.066.008c.184.045.3.244.255.428a.355.355 0 0 1-.287.255l-.067.004-.068-.009a.36.36 0 0 1-.254-.428.364.364 0 0 1 .288-.253l.067-.006Zm3.383-7.205-.527.004c-1.032.02-2.105.106-3.142.25l-.618.093-.241.041c-.641.112-1.259.246-1.834.402-.836.227-1.309.347-1.742.452l-.257.061-.13.031-.134.032-.165.04c-.483.113-.846.232-1.115.425l-.11.087.106-.008c.106-.016.21-.058.316-.103.122-.052.25-.106.4-.131.202-.034.416-.035.643-.036.29-.002.618-.004.987-.075.13-.025.328-.074.58-.137.809-.2 2.178-.537 3.635-.665l.338-.025h.01l.36-.018.362-.007.3.001c1.58.022 2.694.256 3.227.478a.059.059 0 0 1 .012.101l-.027.011-.03-.003-.054-.022.006 1.789.063-.007.068-.009.066-.01-.004-1.296a.06.06 0 0 1 .03-.051l.029-.008.03.008a.06.06 0 0 1 .025.03l.004.021.004 1.27.105-.032.092-.037-.003-.941a.059.059 0 0 1 .11-.03l.007.03.004.88.083-.06c.15-.123.2-.263.2-.355 0-.052.034-.097.08-.112l.038-.006.037.006c.047.015.08.059.08.11.003.341-.329.745-1.059.829-.23.025-.7.064-1.298.113-1.219.1-3.062.25-4.336.425-1.867.255-2.98 1.164-3.153 2.567l-.017.177-.068 1.027c.225.038.434.055.625.056l.185-.003c.119-.005.23-.015.33-.03l.146-.023v-.012h-.002l-.007-.12c-.061-.98-.097-2.366 1.26-2.759a5.845 5.845 0 0 1 1.29-.216c.015.001.03.005.043.017a.058.058 0 0 1 .019.042c.001.348-.033.662-.093.943l-.05.204.003 1.035.1-.026.097-.023-.008-2.142a.06.06 0 0 1 .03-.051l.03-.008.03.008c.011.006.02.017.025.03l.004.02.007 2.116.053-.01.052-.01.046-.008.047-.007-.008-2.091a.06.06 0 0 1 .11-.03l.009.03.007 2.08.096-.008.102-.005-.007-2.073a.06.06 0 0 1 .029-.051l.03-.008.03.008c.011.006.02.017.025.03l.004.02.008 2.07.096-.002h.1l-.007-2.071a.06.06 0 0 1 .11-.03l.008.029.008 2.072.097.002.1.002-.007-2.078a.06.06 0 0 1 .03-.051l.03-.008.029.008a.06.06 0 0 1 .026.03l.003.021.008 2.08.198.005L27 50.373a.059.059 0 0 1 .11-.03l.008.03.007 2.092.198.006-.008-2.1a.06.06 0 0 1 .03-.051l.029-.008.03.008a.06.06 0 0 1 .025.03l.004.02.007 2.105.198.006-.007-2.115a.06.06 0 0 1 .029-.05l.03-.009.03.008a.06.06 0 0 1 .025.03l.004.021.008 2.118.198.005-.008-2.129a.06.06 0 0 1 .03-.05l.029-.009.03.008a.06.06 0 0 1 .025.03l.004.021.008 2.133.197.003-.008-2.144a.06.06 0 0 1 .03-.051l.03-.008.029.008a.06.06 0 0 1 .026.03l.003.02.008 2.148.197.002-.008-2.16a.06.06 0 0 1 .03-.05l.03-.008.03.008a.06.06 0 0 1 .025.03l.004.02.007 2.16h.198l-.008-2.172a.059.059 0 0 1 .11-.03l.008.03.008 2.17.098-.001.1-.002-.008-2.185a.06.06 0 0 1 .028-.051l.03-.008.03.008c.011.006.02.017.025.03l.004.02.008 2.183.099-.003.099-.003-.008-2.2a.06.06 0 0 1 .11-.03l.008.03.008 2.196.099-.005.099-.005-.008-2.216a.06.06 0 0 1 .03-.051l.03-.008.029.008a.06.06 0 0 1 .026.03l.003.02.008 2.211.099-.006.099-.008-.008-2.231a.06.06 0 0 1 .03-.051l.03-.008.03.007c.01.007.02.018.025.03l.003.02.008 2.224.1-.008.098-.01-.008-2.245a.06.06 0 0 1 .11-.03l.009.029.007 2.234.1-.01.098-.012-.008-2.261a.059.059 0 0 1 .11-.03l.008.03.008 2.246.197-.027-.008-2.276c0-.032.026-.059.058-.059a.06.06 0 0 1 .051.029l.008.03.008 2.257.098-.016.099-.018-.009-2.289a.06.06 0 0 1 .03-.05l.029-.009.03.008c.011.007.02.017.025.03l.004.02.008 2.268.098-.02.099-.02-.009-2.301a.06.06 0 0 1 .03-.051l.03-.008.029.008a.06.06 0 0 1 .026.03l.003.02.009 2.276.098-.023.099-.024-.009-2.307a.06.06 0 0 1 .03-.051l.03-.008.03.008a.06.06 0 0 1 .025.03l.003.021.01 2.277.098-.027.098-.029-.008-2.313a.06.06 0 0 1 .029-.05l.03-.009.03.008c.011.007.02.017.025.03l.004.02.008 2.278.125-.04.072-.025-.008-2.311a.06.06 0 0 1 .028-.051l.03-.008.03.008a.06.06 0 0 1 .025.03l.004.021.008 2.272.197-.068-.01-2.31c0-.026.017-.048.04-.056.612-.218 1.174-.467 1.72-.708l.39-.172a5.312 5.312 0 0 1 1.76-.437l.292-.01.23.004c.68.033 1.272.223 1.684.542.459.357.74.828.929 1.293l.066.173.756-.42c-.297-.684-.882-1.58-1.998-1.995-1.068-.398-1.865-.45-2.118-.456H36.657l-.03-.004a.123.123 0 0 1-.057-.029.12.12 0 0 1-.032-.053l-.005-.032v-.275c0-.014.002-.03.008-.044.116-.284.377-.538.698-.697l-.093-.015-.095-.014h-.002l-.308-.03-.315-.01-.313.006.043.038c.149.125.27.18.273.181.029.012.05.035.062.063l.008.044.003.723a.121.121 0 0 1-.037.086c-.029.027-.725.66-2.626.817a7.619 7.619 0 0 1-.62.026c-.882.003-2.04-.126-2.612-.615a.12.12 0 0 1-.036-.056l-.005-.033-.003-.66c0-.032.012-.06.034-.083a2.95 2.95 0 0 0 .305-.365l.073-.11.272-.003h-.271l.035-.057.048-.086.04-.081c-.466-.05-.96-.08-1.471-.092l-.518-.007Zm10.208 6.874.067.011c.11.03.207.11.247.221a.357.357 0 0 1-.209.443.327.327 0 0 1-.068.017l-.068.003a.362.362 0 0 1-.314-.231c-.054-.146.018-.33.15-.414l.059-.03a.317.317 0 0 1 .136-.02Zm1.393-.527.068.001c.113.013.22.08.276.184a.357.357 0 0 1-.145.468.326.326 0 0 1-.065.027l-.068.012a.362.362 0 0 1-.343-.186.366.366 0 0 1 .146-.468.323.323 0 0 1 .131-.038Zm-4.01-1.33-.193.012c-.504.05-.964.242-1.646.525-.545.227-1.223.509-2.174.826-.734.244-1.516.377-2.288.445.368.031.739.052 1.112.062l.563.007.52-.008a20.643 20.643 0 0 0 6.875-1.379c-.285-.042-.58-.114-.9-.192a10.912 10.912 0 0 0-1.46-.28 3.028 3.028 0 0 0-.41-.018ZM25.117 51.91l-.06.144-.067.136-.07.127.003.363.098-.03.099-.027-.003-.713Zm16.938-.452.069.002c.113.014.22.08.275.185a.357.357 0 0 1-.145.467.325.325 0 0 1-.065.026l-.067.012a.364.364 0 0 1-.344-.186c-.083-.157-.01-.384.146-.468a.324.324 0 0 1 .131-.038Zm1.345-.736.068.001a.36.36 0 0 1 .276.185.357.357 0 0 1-.146.468.323.323 0 0 1-.065.026l-.067.011a.363.363 0 0 1-.344-.186c-.084-.156-.01-.383.146-.467a.329.329 0 0 1 .132-.038Zm-2.31-.27-.783.436.028.109.182-.081.181-.083.422-.252-.013-.057-.018-.071Zm-.083-.286-.776.432.025.087.022.085.781-.435a4.387 4.387 0 0 0-.052-.17Zm3.728-.239.078.008a.355.355 0 0 1 .201.117c.118.14.095.37-.045.487a.333.333 0 0 1-.14.07l-.078.01a.36.36 0 0 1-.278-.125c-.099-.117-.095-.308-.006-.432l.051-.056.066-.044a.352.352 0 0 1 .15-.035ZM32.003.598h-.115C14.746.658.817 14.515.6 31.593l-.003.519c.024 6.514 2.013 12.732 5.76 18.017l.335.464.464-.242c-3.915-5.3-5.996-11.594-6.02-18.206-.06-16.849 13.46-30.636 30.244-30.97l.51-.006h.113c8.203 0 15.92 3.18 21.744 8.963 5.85 5.81 9.088 13.549 9.118 21.793.023 6.436-1.903 12.575-5.576 17.809l-.329.46.465.24c3.934-5.417 6.001-11.83 5.978-18.547-.03-8.388-3.325-16.263-9.278-22.172C48.201 3.833 40.348.597 32.003.597Zm8.9 49.283-.762.424.03.09.027.088.772-.43a5.262 5.262 0 0 0-.066-.172Zm-8.9-48.326h-.112C15.084 1.615 1.46 15.338 1.52 32.145c.023 6.362 1.976 12.426 5.652 17.575l.329.452.492-.257C4.135 44.747 2.083 38.6 2.059 32.13 2.001 15.785 15.117 2.41 31.398 2.088l.494-.006h.109c16.461 0 29.88 13.36 29.94 29.834.022 6.295-1.876 12.294-5.495 17.397l-.324.448.492.254c3.862-5.276 5.89-11.525 5.867-18.088-.03-8.142-3.228-15.785-9.005-21.521-5.75-5.71-13.373-8.851-21.473-8.851Zm14.192 47.518c.118.14.094.37-.046.488a.33.33 0 0 1-.14.07l-.077.009a.364.364 0 0 1-.28-.125c-.098-.117-.094-.308-.005-.432l.05-.056h.002a.359.359 0 0 1 .496.046ZM17.68 48.72l.077.012c.05.013.096.036.134.07.141.125.15.356.024.497a.33.33 0 0 1-.2.105l-.077.003a.35.35 0 0 1-.212-.085.36.36 0 0 1-.023-.498.347.347 0 0 1 .277-.104Zm8.676-2.028-.096.005-.098.005.01 2.575.193-.02-.009-2.565Zm.316-.01-.1.002-.098.003.01 2.559.197-.02-.009-2.544Zm.315-.002h-.197l.009 2.536.198-.018-.01-2.518Zm.119 0 .008 2.507.198-.018-.008-2.485-.198-.003Zm.315.008.008 2.47v.001l.198-.018-.008-2.446c-.065-.002-.131-.006-.198-.007Zm.315.012.009 2.431.198-.017-.009-2.402a7.224 7.224 0 0 0-.198-.012Zm.315.02.009 2.384.197-.017-.009-2.351-.197-.016Zm.316.026.008 2.331.197-.016-.008-2.295a6.638 6.638 0 0 0-.197-.02Zm.316.034.008 2.27.197-.016-.007-2.228a40.102 40.102 0 0 0-.198-.026Zm.315.043.008 2.202.034-.003.164-.014-.008-2.153a9.646 9.646 0 0 0-.198-.032Zm.315.053L29.321 49l.198-.016-.008-2.067a7.357 7.357 0 0 0-.198-.04Zm.317.064.006 2.032.198-.017-.007-1.966a5.596 5.596 0 0 0-.197-.049Zm.315.082.007 1.924.198-.018-.007-1.844a4.63 4.63 0 0 0-.198-.062Zm17.15.945.077.008a.355.355 0 0 1 .2.117c.119.14.095.369-.045.488a.333.333 0 0 1-.14.07l-.077.009a.36.36 0 0 1-.279-.125c-.115-.136-.09-.373.046-.488a.341.341 0 0 1 .217-.079Zm-30.552-.275.077.012c.05.013.096.036.134.07a.36.36 0 0 1 .023.498.331.331 0 0 1-.2.105l-.077.003a.348.348 0 0 1-.212-.085.36.36 0 0 1-.023-.498.348.348 0 0 1 .278-.105Zm15.38-37.019a21.201 21.201 0 0 1 3.305.252l.536.09.25.046-.32.584a21.35 21.35 0 0 0-3.219-.338l-.55-.006V11.3l-.35.004c-11.282.227-20.338 9.463-20.297 20.79.022 6.126 2.716 11.605 6.956 15.383a1.183 1.183 0 0 0-.204.21l-.02.024a.99.99 0 0 0-.14.28c-4.399-3.894-7.195-9.558-7.217-15.894-.042-11.79 9.48-21.381 21.27-21.424Zm-.869 36.35.002.47c.558.277 1.41.361 2.09.365l.221-.001c.095-.002.184-.005.268-.01l.12-.007-.002-.535-.15.012c-.158.01-.336.017-.524.017-.66.003-1.457-.068-2.025-.31Zm17.19-.1.077.013c.05.014.098.039.138.075a.356.356 0 0 1 .023.489.341.341 0 0 1-.204.108l-.078.003a.354.354 0 0 1-.216-.088c-.113-.101-.136-.29-.066-.427l.043-.062.06-.052a.358.358 0 0 1 .223-.06Zm-32.802-.342.078.005c.077.012.15.047.2.103a.359.359 0 0 1-.027.498.32.32 0 0 1-.135.073l-.076.011a.357.357 0 0 1-.279-.111.359.359 0 0 1 .029-.498.33.33 0 0 1 .21-.08Zm19.944-1.37-.05.05c-.036.035-.08.071-.133.109.03.229.095.446.19.642l.078.144-1.773.006 1.773-.006.092.14c.065.09.139.174.218.25a.027.027 0 0 1 .01.025.03.03 0 0 1-.016.022c-.478.253-1.363.468-2.104.51a.031.031 0 0 1-.025-.013l-.005-.013-.14-1.234-.222.012-.207.004a4.309 4.309 0 0 1-1.29-.17l-.096-.032-.01.07c-.014.08-.036.187-.074.313l-.043.131-.026.067-.027.07a1.92 1.92 0 0 1-.319.501.058.058 0 0 1-.045.02.06.06 0 0 1-.038-.014.06.06 0 0 1-.005-.083 1.815 1.815 0 0 0 .334-.562c.098-.26.13-.47.14-.556a1.797 1.797 0 0 1-.088-.038l-.032-.016-.01.073a1.679 1.679 0 0 1-.131.41l-.064.129a2.862 2.862 0 0 1-.433.59c.52.355 1.458.455 2.222.455l.223-.002c.217-.006.413-.02.572-.036 1.358-.14 2.076-.518 2.359-.706a1.751 1.751 0 0 1-.805-1.262ZM10.358 43.35l.086.15.031.062.803 1.594-.16.08c-.022-.041-.042-.069-.052-.089-.134-.211-.183-.257-.278-.246a.699.699 0 0 0-.19.071l-.088.043-.04.021-2.356 1.184c-.203.102-.264.139-.299.176-.07.073-.06.145.028.373l.014.03.017.04.01.025-.16.08-.897-1.782c-.555-1.103-.26-2.096.79-2.623 1.06-.533 2.122-.209 2.741.81Zm38.884 2.434.078.007c.052.01.101.03.145.062.147.11.175.34.066.486a.34.34 0 0 1-.194.126l-.077.01a.356.356 0 0 1-.223-.07c-.142-.105-.172-.343-.066-.485a.348.348 0 0 1 .271-.136Zm5.306-3.519.159.081c-.02.041-.03.074-.039.09-.096.236-.102.302-.038.374.03.03.07.058.17.111l.087.046.04.02 2.343 1.205.039.02.035.018.062.03c.101.05.149.067.182.07.101.015.153-.036.288-.246l.013-.025.022-.036-.002-.002.015-.022.158.083-1.226 2.386-.817-.418.065-.127c.437.12.675.094.826-.102l.047-.072.017-.031.33-.64-1.4-.719-.213.412c-.131.254-.097.443.118.61l.088.061.04.024-.067.132-1.177-.606.068-.13c.322.138.517.119.663-.074l.052-.08.019-.035.212-.414-1.145-.589c-.313-.16-.468-.093-.662.285-.135.261-.196.46-.197.605-.001.17.048.303.203.518l.087.116.041.052.07.087-.068.13-.837-.614 1.329-2.584Zm-40.06 3.142.078.011c.076.019.145.06.191.12.115.152.08.379-.072.494a.319.319 0 0 1-.14.06l-.077.005a.356.356 0 0 1-.267-.136.358.358 0 0 1 .014-.438l.057-.055.066-.037a.353.353 0 0 1 .15-.024Zm14.82-3.877-1.17 1.562.152.288a.119.119 0 0 1 .008.085l-.019.04-.377.506.014.012c.069.064.106.151.109.255a.64.64 0 0 1-.2.449.682.682 0 0 1-.463.213l-.072-.006-.066-.016-.167.223a.12.12 0 0 1-.094.048l-.021-.002-.021-.006-.269-.102-.528.707.527-.054c.88-.08 1.764-.12 2.608-.113l.502.01c.33.01.653.027.966.052l.458.044.02-.081c.026-.125.02-.196.02-.198a.118.118 0 0 1 .016-.073l.024-.03.222-.19-.01-2.585c-.68-.097-1.612-.542-2.17-1.038Zm-3.014 3.413-.582.78c.039.019.072.032.097.04l.032.007.583-.778-.13-.05Zm8.949.093-.034.035c-.17.167-.575.413-1.518.516-.23.025-.441.037-.634.037-.756.003-1.22-.154-1.41-.238l-.046-.021-.103.09c.14.07.662.297 1.593.293l.205-.005a6.51 6.51 0 0 0 .45-.034c.97-.106 1.382-.383 1.552-.567l.033-.038-.088-.068ZM8.047 43.261c-.937.472-1.26 1.128-.952 1.922l.06.14.027.055.183.364 2.633-1.324c.435-.22.491-.35.295-.739-.407-.81-1.18-.954-2.246-.418Zm17.846 1.355-.573.766c.02.044.093.137.226.237l.029.02.029.02.57-.763-.135-.051a.121.121 0 0 1-.048-.034l-.016-.025-.082-.17Zm6.083-2.109.01 2.748c.229.066.583.134 1.067.134l.216-.005-.011-2.766-.21.003a4.882 4.882 0 0 1-.962-.09l-.11-.024Zm18.18 2.046.079.007c.05.01.1.03.144.062.147.11.175.34.066.486a.34.34 0 0 1-.194.126l-.077.01a.356.356 0 0 1-.223-.07c-.142-.105-.172-.343-.066-.485a.348.348 0 0 1 .272-.136Zm-18.318-2.082-.039.048-.042.033-.045.02.01 2.59c.022.01.05.022.086.035l.057.02-.009-2.74v-.002l-.018-.004Zm3.249-.46-.057.031-.058.03.01 2.882.045-.037a.486.486 0 0 0 .056-.06l.014-.019-.01-2.828Zm-21.545 2.165.076.008a.36.36 0 0 1 .245.173.36.36 0 0 1-.148.475.31.31 0 0 1-.064.025l-.066.012a.363.363 0 0 1-.338-.182.358.358 0 0 1 .147-.476.317.317 0 0 1 .148-.035Zm13.959-.274-.078.006-.08.022-.081.035-.004.002-.003.002-.035.021a.589.589 0 0 0-.266.374l-.007.073c.001.048.013.09.033.125l.038.047.028.025v-.085a.608.608 0 0 1 .181-.353.624.624 0 0 1 .418-.195l.08.007-.055-.05-.014-.008-.014-.007-.027-.016-.029-.011-.031-.01-.009-.002h-.009l-.036-.002Zm-.764-.142-.065.07a.488.488 0 0 1-.322.143.325.325 0 0 1-.115-.02l-.052-.026-.19-.114-.139.176.28.58.603-.809Zm24.386-.48a.356.356 0 0 1 .142.468.344.344 0 0 1-.209.168l-.067.013-.068.001a.348.348 0 0 1-.133-.039c-.135-.07-.203-.248-.167-.397l.026-.071.038-.058a.361.361 0 0 1 .438-.085Zm-24.737-.393h-.022l-.023.005c.112.071.147.234.091.397l-.035.08c-.074.136-.197.225-.315.225l-.05-.005-.048-.017.022.047c.017.028.038.05.063.065l.042.018.047.005.063-.008a.499.499 0 0 0 .284-.257c.125-.233.085-.463-.03-.532a.173.173 0 0 0-.089-.023Zm.507-.288-.2.267.05.03c.202.122.238.442.084.73l-.022.04-.021.032.414-.553-.305-.546Zm-14.087.231.077.009a.361.361 0 0 1 .244.172.36.36 0 0 1-.148.476.31.31 0 0 1-.063.025l-.067.012a.361.361 0 0 1-.338-.183.358.358 0 0 1 .09-.436l.057-.039a.309.309 0 0 1 .148-.036Zm14.205-.266.299.537.69.233-.094-.178a.683.683 0 0 1-.382-.154.736.736 0 0 1-.229-.294l-.025-.064h.001l-.26-.08Zm-1.985-.118-.364.537.091.044.091.042.366-.538a5.164 5.164 0 0 1-.184-.085Zm4.2-1.42L27.746 43a.51.51 0 0 0 .098.032l.04.007 1.267-1.691h-.001l-.015-.065c-.002-.03 0-.06.01-.089l.017-.042.064-.126Zm-.101-.728L27.4 42.602a.132.132 0 0 1-.014.016.668.668 0 0 0 .13.22l.077.07.045.033 1.587-2.122-.002-.398a.288.288 0 0 1-.1-.123Zm-5.306 1.441-.076.01a.359.359 0 0 0-.2.135.361.361 0 0 0-.071.25.28.28 0 0 0 .108.2c.21.157.48.328.762.483l.214.113.364-.537a6.797 6.797 0 0 1-.935-.6.271.271 0 0 0-.166-.054Zm1.027-2.272h-.251c-.603.016-1.33.132-2.076.335-.313.086-.607.18-.878.279l-.263.1-.077.031c-1.044.429-1.674.92-1.675 1.23l.007.056.267.965a.256.256 0 0 0 .098.132l.057.038-.186-.654a.058.058 0 0 1 .04-.072.057.057 0 0 1 .031-.001l.026.015.016.026.213.747.06.018.064.018-.184-.645a.06.06 0 0 1 .097-.06l.016.027.2.704.068.01.07.01-.181-.638a.058.058 0 0 1 .04-.073.057.057 0 0 1 .03 0l.027.014.016.026.194.682.09.006.095.004-.18-.633a.06.06 0 0 1 .097-.06l.015.027.19.666.245-.004c.585-.023 1.275-.14 1.983-.332l.1-.028a.522.522 0 0 1-.11-.276.59.59 0 0 1 .07-.338l.048-.075v.003l.064-.073a.579.579 0 0 1 .412-.167c.74-.268 1.613-.72 1.96-1.164l.074-.11.208.775.037-.068a.304.304 0 0 0 .029-.12l-.007-.05-.167-.605-.099-.362c-.054-.196-.434-.322-1.02-.336Zm26.873 2.424a.348.348 0 0 1 .133.039.357.357 0 0 1 .14.468.35.35 0 0 1-.276.182h-.069a.345.345 0 0 1-.132-.038c-.135-.07-.203-.25-.168-.397l.026-.071a.352.352 0 0 1 .277-.182h.069Zm-26.317-.033-.055.03-.056.031c.112.107.226.24.316.393 0 0-.04-.011-.105-.026a2.017 2.017 0 0 1-.392-.147l-.126-.062-.082.04c.308.169.673.33 1.062.41l.013.003.012.004a2.36 2.36 0 0 0-.587-.676Zm-1.579.014.054.008.049.025c.046.033.072.089.073.15a.276.276 0 0 1-.056.168.256.256 0 0 1-.2.11.18.18 0 0 1-.11-.036.191.191 0 0 1-.074-.15c0-.039.008-.078.025-.115l.031-.053a.259.259 0 0 1 .208-.107Zm7.247-.175-.239.454.137.05.134.042.238-.452a4.235 4.235 0 0 1-.27-.094Zm-19.001-.21.077.008a.362.362 0 0 1 .244.172.36.36 0 0 1-.09.437l-.058.039c-.02.01-.04.02-.062.025l-.067.011a.361.361 0 0 1-.338-.182.358.358 0 0 1 .147-.475.31.31 0 0 1 .147-.035Zm21.137.495-.907.003v.132l1.158-.004a1.885 1.885 0 0 1-.25-.131Zm-2.533-.458-.24.455.144.067.144.062.239-.455a5.288 5.288 0 0 1-.287-.13Zm25.018-2.376.17.058c-.016.044-.022.076-.03.099-.058.242-.056.31.017.37a.728.728 0 0 0 .185.088l.092.033.043.015 2.488.866c.215.074.284.092.334.092.102 0 .147-.057.249-.279l.01-.028.016-.037.013-.029.17.058-.56 1.606-.168-.06a.583.583 0 0 1 .025-.092c.058-.239.054-.317-.021-.373-.03-.03-.076-.05-.197-.093l-.081-.028-.042-.015-2.488-.867c-.21-.072-.282-.096-.334-.091-.096.003-.14.053-.244.282l-.011.027-.015.034-.01.027-.17-.058.56-1.605Zm-21.524-.134-.143.007a1.543 1.543 0 0 0-1.357 1.122v-.002l-.018.074c-.02.099-.031.202-.031.307.002.783.627 1.427 1.418 1.493l.142.005.141-.006c.745-.068 1.337-.646 1.403-1.366l.006-.137c-.001-.13-.02-.259-.054-.38a1.548 1.548 0 0 0-1.507-1.117Zm-3.881 2.302h-.001l-.24.454.14.08.143.076.24-.455a5.253 5.253 0 0 1-.282-.155Zm3.93-2.053a1.33 1.33 0 0 1 1.199.745l.052.122h-.12v.001h.12l.016.051.028.091c.012.05.021.1.027.15l.01.155a1.325 1.325 0 0 1-1.322 1.324 1.324 1.324 0 0 1-1.254-1.763 1.328 1.328 0 0 1 1.244-.876Zm-3.986 1.349-.016.009-.017.006-.482.13c.523.477 1.444.924 2.092 1.023l.169.019-.206-.44a4.208 4.208 0 0 1-1.54-.747Zm-5.46-1.004.116.001c.353.01.738.075.8.305a.277.277 0 0 1-.02.189l-.036.064v-.001l-.075.096c-.146.16-.382.313-.6.432-.506.279-1.207.547-1.973.755-.81.22-1.609.348-2.193.35-.38.001-.847-.051-.916-.306-.075-.274.356-.576.73-.782.34-.186.769-.369 1.246-.532.233-.08.476-.154.727-.221.81-.22 1.61-.348 2.194-.35Zm9.448-.227-.137.008a1.211 1.211 0 0 0-.928.634l-.055.117-.022.06a1.205 1.205 0 0 0 1.026 1.58l.124.006a1.207 1.207 0 0 0 1.117-1.655 1.21 1.21 0 0 0-1.125-.75Zm-4.237 1.74-.24.451.101.07.104.067.239-.454a3.998 3.998 0 0 1-.204-.135Zm-5.212-1.394-.225.006c-.547.029-1.238.149-1.939.34-.126.034-.25.069-.371.106-.611.187-1.16.408-1.576.637-.463.254-.714.496-.673.647.01.04.044.075.097.105l.06.028.005-.065c.095-.44 1.319-.995 2.528-1.323l.056-.016.057-.015.289-.071c.476-.111.93-.184 1.322-.212l.226-.011.03.01c.019.01.031.026.031.047.001.033-.025.06-.057.06a7.55 7.55 0 0 0-1.321.175c-.197.042-.398.09-.602.146-1.532.417-2.517 1.016-2.442 1.293.002.007.002.013.002.02.1.024.225.038.37.044l.152.003.225-.006a9.175 9.175 0 0 0 1.64-.262l.298-.077h-.001l.28-.079c.646-.192 1.23-.425 1.667-.665.22-.121.393-.239.509-.346l.076-.079.047-.061c.04-.06.054-.115.041-.16-.037-.14-.337-.22-.801-.219Zm10.047 1.254.05.007a.193.193 0 1 1-.05-.007Zm-26.665-3.56.787 2.799-.172.048c-.012-.043-.027-.075-.031-.09-.093-.24-.132-.294-.228-.301a.685.685 0 0 0-.201.033l-.095.025v-.001l-.043.012-2.538.714c-.219.06-.291.087-.327.115-.083.057-.088.13-.043.376l.007.028.009.041.004.026-.172.049-.727-2.586.884-.247.038.136c-.402.209-.557.39-.534.637l.014.084.008.035.195.693 1.516-.426-.126-.447c-.077-.274-.231-.39-.501-.366l-.107.015-.045.01-.04-.142 1.276-.359.039.142c-.335.12-.465.27-.435.515l.016.085.01.038.126.448 1.24-.349c.338-.094.407-.249.291-.658-.079-.284-.169-.47-.267-.578-.119-.128-.248-.192-.521-.245l-.127-.022-.062-.01-.11-.016-.04-.141 1.032-.12Zm44.293 3.121.068.012.065.026a.358.358 0 0 1 .14.47.352.352 0 0 1-.275.181l-.069.001a.346.346 0 0 1-.133-.038c-.156-.083-.223-.313-.14-.47a.356.356 0 0 1 .344-.182Zm-19.84-1.164-.403.765-.556 1.058.05.015.05.014.574-1.087h-.001l.39-.74-.105-.025Zm1.617.813a.393.393 0 1 1 0 .785.393.393 0 0 1 0-.785Zm-3.14-1.16-.782 1.484c.158.126.335.241.524.344l.193.1.428-.812.757-.004-.757.003.381-.721a2.597 2.597 0 0 1-.744-.394Zm-19.67 1.084.067.012c.11.03.208.11.246.213a.36.36 0 0 1-.213.451.31.31 0 0 1-.066.016l-.067.002a.361.361 0 0 1-.31-.227.358.358 0 0 1 .213-.45.305.305 0 0 1 .13-.017Zm18.74-.74.01.091c.005.16-.053.355-.161.537l-.05.075-.05.07-.04.048a.947.947 0 0 1-.26.21l-.086.039.144.08.425-.116.138-.262.225-.427c.002-.09-.018-.164-.06-.207l-.033-.027h-.001l-.2-.111Zm-.298-.125-.058.012a.248.248 0 0 1 .059.109.622.622 0 0 1-.056.395l-.055.108a.9.9 0 0 1-.251.276.412.412 0 0 1-.226.083l-.02-.001-.02-.003.02.042.025.034.032.024.024.013a.174.174 0 0 0 .055.008l.064-.008a.659.659 0 0 0 .297-.194c.055-.058.108-.126.156-.206.119-.2.172-.42.132-.561a.173.173 0 0 0-.08-.114.145.145 0 0 0-.045-.015l-.053-.002Zm3.773.549.05.007a.193.193 0 0 1 .112.29l-.035.04-.022.017a.19.19 0 0 1-.23-.015.193.193 0 0 1 .124-.338Zm-4.138-.533-.049.008a.538.538 0 0 0-.24.19l-.06.087c-.101.17-.115.311-.095.387.006.02.017.046.038.058.01.005.023.008.037.008l.048-.008c.087-.028.208-.122.3-.278.103-.17.116-.31.096-.386-.005-.02-.017-.046-.038-.058a.08.08 0 0 0-.037-.008Zm23.472-.152.068.003.068.016a.355.355 0 0 1 .205.445.353.353 0 0 1-.248.218l-.067.01a.344.344 0 0 1-.137-.019c-.167-.06-.265-.278-.205-.445a.356.356 0 0 1 .316-.228Zm-22.612-.126-.168.27.23.127c.04.023.073.055.099.095l.031.066.169-.32a5.63 5.63 0 0 1-.36-.238Zm-19.468-.312.066.012c.11.03.208.11.246.214a.36.36 0 0 1-.278.467l-.067.002a.361.361 0 0 1-.31-.227.36.36 0 0 1 .212-.451.302.302 0 0 1 .131-.017Zm25.988.213-.218.432c.06.017.116.03.165.038l.07.01.224-.442a1.868 1.868 0 0 1-.241-.038Zm-7.912-2.063-.204.405-.105-.053.046-.09-.02.005-.021.001h-.012a4.337 4.337 0 0 1-.395-.06l-.209-.044 3.218 1.61c.336.169.681.342.93.426l.115.035.674.162.123-.098a1.818 1.818 0 0 1 1.068-.349c.474-.001.905.177 1.227.468l.115.115.509-.04a6.496 6.496 0 0 1-.402-.219c-.913-.54-1.916-.642-2.566-.641l-.143.002-.13.005a.726.726 0 0 1-.508.242.476.476 0 0 1-.218-.05l-.063-.04-.632-.472a.474.474 0 0 1-.18-.307l-.007-.1v-.025l-.273-.088-.277.548-.105-.053.27-.532-.174-.056-.254.502-.105-.053.246-.486-.176-.056-.234.465-.105-.053.226-.45-.174-.056-.214.424-.105-.053.205-.408-.084-.027-.083-.043-.2.397-.105-.053.2-.398-.16-.084-.2.4-.106-.054.202-.4-.16-.084-.203.402-.106-.053.204-.403-.16-.083Zm7.538 1.956-.204.405.13.054.117.044.214-.424a3.628 3.628 0 0 1-.257-.079Zm-.345-.135-.19.377.115.06.108.054.2-.396-.113-.044-.12-.05v-.001Zm-3.836-1.514.503.377a.43.43 0 0 1 .078.074c1.184.037 1.85.292 3.16.893.528.243.913.334 1.166.338l.08-.002a.627.627 0 0 0 .13-.02l.05-.019.03-.06a.053.053 0 0 0-.017-.033l-.025-.018-.053.015a.62.62 0 0 1-.13.012c-.39.002-1.157-.257-1.952-.658a8.99 8.99 0 0 1-1.147-.687l-.204-.157-.006.004c-.158.062-.32.093-.484.093-.146.001-.296-.021-.448-.066l-.153-.053-.065.005-.073.002c-.116.001-.26-.01-.44-.04Zm2.459.925-.183.362.126.036.128.04.173-.344-.124-.049-.12-.045Zm2.892-.421-.423.818h.043a.268.268 0 0 0 .117-.019l.003-.002v.002l.401-.796-.044.001-.047-.001-.05-.003Zm-3.26.298h-.002l-.2.396.134.027.136.032.187-.371a5.567 5.567 0 0 0-.256-.084Zm19.048-.286.07.01a.357.357 0 0 1 .25.421.358.358 0 0 1-.29.26l-.07.005-.069-.01c-.173-.042-.292-.249-.25-.42a.356.356 0 0 1 .29-.261l.069-.005Zm-19.444.183-.22.434.145.02.149.023.205-.407a4.59 4.59 0 0 0-.279-.07Zm-.351-.066-.235.467.12.008.123.01.224-.445-.115-.02-.117-.02Zm-2.226-.33-.04.08-.03.082.01.004.007.005.482.359.034-.079.043-.075-.506-.377Zm27.014-3.395.163.018c1.255.183 1.961 1.177 1.772 2.495a2.544 2.544 0 0 1-.329.942c-.06.11-.109.158-.17.17l-.05.003-.022-.002-.725-.105.021-.145c.287-.027.394-.058.557-.144.275-.155.461-.436.512-.79.117-.818-.472-1.417-1.551-1.574-1.139-.164-1.975.248-2.087 1.027-.057.398.074.598.474.691l.116.023.053.007.342.05c.358.051.44.042.495-.127l.018-.062.006-.028.038-.172.033-.15.172.025-.255 1.766-.171-.025c.019-.384.01-.45-.205-.491l-.07-.012-.03-.004-.124-.023-1.02-.148a3.295 3.295 0 0 1-.084-.429 4.109 4.109 0 0 1 .009-.983c.176-1.215.982-1.895 2.112-1.803ZM10.43 37.198l.066.006a.37.37 0 0 1 .287.257.36.36 0 0 1-.193.402l-.065.024-.067.009a.361.361 0 0 1-.352-.264.36.36 0 0 1 .259-.425.285.285 0 0 1 .065-.009Zm24.589-.678-.423.82c.173.113.374.232.603.356l.239.124.03.015.425-.823-.053-.026a9.39 9.39 0 0 1-.634-.348l-.187-.117Zm-3.362.68-.056.04-.053.047-.05.052.509.38.073-.076.08-.064-.488-.362a.064.064 0 0 1-.015-.016Zm2.857-1.565-.082.006a.366.366 0 0 0-.19.078c.162.253.767.717 1.65 1.161.629.318 1.18.516 1.552.598a1.91 1.91 0 0 0 .21.036c.075.009.137.01.184.003a.352.352 0 0 0-.03-.138l-.025-.052a.744.744 0 0 0-.234-.247l-.108-.064-.183-.092-.034.007-.039.002c-.322.002-1.019-.376-1.113-.428-.29-.158-.55-.33-.734-.48a2.134 2.134 0 0 1-.121-.108l-.045-.046-.276-.14a.857.857 0 0 0-.382-.096Zm.158.649-.422.818.117.085.13.09.423-.82a6.38 6.38 0 0 1-.248-.173Zm-4.698.138-.268.53.2.104.276-.554-.104-.04-.104-.04Zm4.407-.374-.42.813c.036.034.076.07.122.108l.072.06h.001l.42-.817a3.5 3.5 0 0 1-.195-.164Zm-9.431-2.656-.179.274c.178.102.361.204.55.308l.29.156-.481.002h.48l.334.177c.227.12.461.24.702.362 1.618.817 3.186 1.488 4.417 1.89 1.44.47 1.917.401 1.968.3l.005-.011.001-.013.014-.284-.079.021a1.02 1.02 0 0 1-.199.018c-.357 0-.916-.123-1.676-.37-1.2-.391-2.73-1.045-4.304-1.84a44.887 44.887 0 0 1-1.843-.99Zm4.689 2.9-.251.496.213.11.262-.518-.224-.088Zm24.188-.128.07.01a.357.357 0 0 1 .25.421.356.356 0 0 1-.29.26l-.069.005-.069-.01c-.173-.043-.292-.25-.25-.421a.355.355 0 0 1 .29-.26l.068-.005Zm-18.503-.552-.022.04-.065.119.042.044c.134.132.416.347.848.585.48.263.836.385 1.004.411l.048.005.072-.141a7.088 7.088 0 0 1-.413-.173l-.21-.099-.012-.007-.017-.008-.011-.006-.018-.009-.012-.006-.016-.008-.01-.004-.01-.005-.015-.008-.012-.006-.035-.018-.01-.005-.012-.006c-.299-.155-.59-.328-.85-.506l-.252-.18-.012-.009Zm-1.152.212-.397.784c-.002.024.016.062.055.112l.044.053.418-.81a1.267 1.267 0 0 1-.12-.14Zm-4.866.332v.001l-.235.466.212.11.246-.485a41.49 41.49 0 0 1-.223-.092Zm9.036-7.587-.016.005-.132.226-.025.03-.033.02-.002.002-1.89 3.656-.02-.012-.047.294-.063.29-.076.282 2.25-4.431a.06.06 0 0 1 .019-.021l.025-.01a.058.058 0 0 1 .05.015c.01.009 1.049.981 2.623 1.28a.057.057 0 0 1 .042.031l.006.027-.007.026-3.314 6.31.054.015.052.013 3.421-6.548a1.625 1.625 0 0 1-.04-.077l-.04.001c-.061 0-.131-.007-.21-.02l-.038-.006-.037-.007-.01-.003-.01-.002-.013-.003-.016-.003-.01-.003-.015-.003-.024-.006-.035-.009-.029-.008-.029-.007-.047-.014-.044-.013-.025-.008-.027-.008-.054-.018-.038-.013-.048-.017-.036-.013-.056-.02-.023-.01-.012-.003-.025-.01-.043-.017-.026-.01-.043-.017-.062-.027-.05-.021-.03-.013-.028-.012-.015-.006-.014-.007-.028-.013-.017-.008-.027-.012-.02-.009-.015-.008-.023-.01-.032-.016-.019-.009-.014-.007-.04-.02-.019-.008-.033-.017-.018-.01-.023-.012c-.602-.305-1.09-.651-1.287-.908Zm-9.367 7.449h-.001l-.222.44.128.066.085.044.232-.457-.222-.093Zm-7.164-5.588h-.084a.488.488 0 0 0-.18.035l-.037.022-.08.066c.011.128.156.326.42.576.707.672 2.266 1.72 4.38 2.832l.322.168.146.074.147.075c1.57.792 3.093 1.443 4.288 1.833.804.262 1.327.36 1.634.363l.078-.002a.639.639 0 0 0 .159-.026l.053-.023.005-.103c.002-.019-.004-.057-.037-.12l-.03-.054-.007.024-.009.022a.248.248 0 0 1-.152.119.718.718 0 0 1-.219.028c-.86.003-3.128-.848-5.658-2.143l-.068-.035-.068-.034-.115-.06c-1.922-1-3.806-2.17-4.574-2.94-.282-.282-.413-.511-.34-.657a.177.177 0 0 1 .026-.04Zm10.518-2.885-.134.264.092.423.001.04-.011.038-.437.865a.12.12 0 0 1-.082.063l-.036.001-.015-.001-.27.536a.117.117 0 0 1-.105.064c-.006 0-.012 0-.018-.002l-.126-.02-.133-.028.016.018.012.02c.01.022.014.047.01.07l-.012.034-.075.149a.116.116 0 0 1-.068.059l-.047.005-.27-.021a.562.562 0 0 0-.086-.001l-.066.011a.172.172 0 0 0-.085.055l-.026.04-.44.872-.158.312.043.099c.01.02.012.044.008.067l-.01.032-.089.176-.02.028-.028.021-.373.21-.326.644c.348.057.736.142 1.136.34l.2.11.012-.017c.01-.01.026-.021.051-.026l.044-.005.077-.145c-.074-.068-.121-.138-.118-.2l.012-.045.05-.099c.012-.024.038-.053.09-.065l.063-.007.07.006c.101.014.228.057.354.12.205.104.358.236.392.338.01.029.008.053.004.072l-.009.023-.05.099c-.016.033-.056.071-.153.071l-.051-.003-.057-.008-.072.145c.031.042.037.074.034.097l-.007.021-.102.201c-.008.016-.025.035-.062.044l-.043.004-.08.16-.086.168.063.012.063.013c.299.065.604.158.907.304l.227.12.021-.019a.133.133 0 0 1 .051-.017l.038-.003.096-.18-.019-.017c-.084-.082-.111-.145-.115-.192l.003-.034.01-.028.057-.113c.014-.028.045-.06.11-.072l.057-.005.082.007c.117.017.264.067.411.141.062.031.12.065.174.1.067.045.125.09.172.135.107.104.123.178.112.227l-.01.027-.056.113c-.017.035-.061.077-.167.077l-.064-.004-.072-.012-.086.17c.041.052.05.09.047.118l-.008.023-.116.232c-.012.023-.033.038-.064.045l-.054.006-.035.052.022.009.02.014c.469.394.716.697.753.923l.005.072v.016l.292.102.39-.77c.075-.15.233-.25.43-.275l.103-.007.122.008c.082.01.165.03.246.061l.12.053.081.041.013-.023.041-.075a3.457 3.457 0 0 1-.457-.449.12.12 0 0 1-.026-.085l.013-.044.324-.622.042-.082.04-.082.119-.253c.445-1.004.576-1.947.398-2.766a3.038 3.038 0 0 0-.974-1.65 7.755 7.755 0 0 0-.83-.62c-.424-.288-.86-.583-1.246-1.048l-.162-.21-.05-.006Zm-3.683 8.33v.001l-.21.417.212.11.219-.432-.221-.096ZM10.139 35.7l.065.012a.37.37 0 0 1 .264.28.36.36 0 0 1-.228.384l-.067.019-.068.003a.361.361 0 0 1-.327-.293.36.36 0 0 1 .295-.402.288.288 0 0 1 .066-.003Zm18.18.032-.2.397.212.11.207-.41-.22-.097Zm-.325-.149-.193.38.214.111.198-.391-.219-.1ZM7.542 32.1l.053.774c.011.159-.112.28-.7.628l-.143.085-.062.036-.777.45.026.39 1.089-.074c.17-.012.256-.017.306-.031l.027-.01.026-.013c.074-.04.092-.111.098-.346l.001-.03v-.066l.178-.013.116 1.696-.178.012c-.003-.044-.011-.078-.012-.095-.042-.253-.07-.313-.161-.34a.722.722 0 0 0-.205-.008l-.098.005-.044.002H7.08l-2.629.18c-.226.015-.303.025-.344.047-.092.039-.112.11-.119.36l.001.028v.067l-.18.013-.13-1.9c-.047-.711.303-1.173.916-1.214.454-.032.837.165 1.08.548l.068.12.026.053.849-.616c.34-.237.585-.443.736-.614l.068-.083.025-.034.095-.007Zm18.364 3.219-.049.01a.208.208 0 0 0-.074.038.127.127 0 0 1-.034.02l-.037.008-.038-.003-.035-.015-.03-.02-.16.314.108.062.11.06.24-.474Zm5.599-.061-.036.003c-.018.004-.026.01-.028.012-.013.028.094.194.43.363.14.072.279.12.392.14.047.007.081.009.105.007l.03-.004.016-.006.006-.005v-.01a.214.214 0 0 0-.05-.081l-.038-.041-.024.017a.17.17 0 0 1-.08.016.748.748 0 0 1-.308-.092c-.153-.077-.313-.2-.29-.305a.579.579 0 0 0-.125-.014Zm.4-.274-.03.06-.018.035-.018.036-.096.189a.68.68 0 0 0 .23.169c.157.08.276.078.28.076-.002 0 .026-.058.061-.127l.027-.053.063-.126a1.277 1.277 0 0 1-.253-.097 1.194 1.194 0 0 1-.247-.162Zm-6.957-.067-.17.337.115.076.118.077.177-.33-.24-.16Zm29.088-.267.07.003c.16.025.28.171.29.33l-.003.067a.357.357 0 0 1-.267.285l-.068.01-.07-.003c-.176-.027-.313-.222-.286-.398a.355.355 0 0 1 .266-.284l.068-.01Zm-30.286-.247.15.155c.16.155.35.314.562.472l.22.158.169-.335-.575-.383-.108.197-.017.02-.024.01h-.01l-.02-.004-.019-.01-.328-.28Zm11.667-4.39.053.09c.117.205.21.42.28.645l.063.229.022.103c.181.897.018 1.928-.498 3.019l-.067.136-.07.137-.287.55.104.113.117.111.253-.496.029-.056.025-.05c.07-.142.14-.292.208-.448.353-.825.622-1.838.43-2.797l-.052-.22c-.026-.1-.06-.2-.099-.298a2.581 2.581 0 0 0-.511-.768Zm-13.403 2.157-.238.354 2.083 1.384.018.01 1.81 1.206.273-.542-.412-.22-.419-.228.001-.001-.154-.085c-.96-.538-1.93-1.13-2.688-1.675l-.274-.203Zm4.05 2.468-.229.454.078-.01a.565.565 0 0 1 .12.005l.068.014.178-.352-.214-.11Zm-16.162-.453.066.012a.37.37 0 0 1 .263.281.358.358 0 0 1-.227.384l-.068.017-.067.004a.36.36 0 0 1-.327-.293.36.36 0 0 1 .294-.402.292.292 0 0 1 .066-.003Zm22.322.21h.001l-.08.16c.007.01.077.086.218.157a.613.613 0 0 0 .243.077l.023-.003.072-.148a1.755 1.755 0 0 1-.477-.244Zm-5.59-1.612-.013.002-.013.005a.045.045 0 0 0-.022.034c-.002.015.006.03.021.044.22.194 1.256.894 2.3 1.204l.196.053.093.022.186.036c.36.059.636.096.88.128.548.072.863.114 1.343.32l.217.1.044-.087c-.52-.3-1.055-.418-1.554-.494l-.212-.03-.096-.012-.095-.012c-.339-.044-.659-.085-.955-.17-.964-.276-1.704-.745-2.108-1.014l-.093-.063-.093-.062s-.013-.004-.026-.004Zm-21.787.755-.14.006c-.495.034-.751.211-.783.546l-.003.095.001.043.025.372 1.786-.121-.026-.372c-.023-.35-.272-.542-.73-.567l-.13-.002Zm27.387.469h-.024a.485.485 0 0 0 .034.042l.03.032.014.013.014.014.08.062a1.585 1.585 0 0 0 .554.245.378.378 0 0 0 .097.005c-.01-.013-.028-.038-.064-.073a1.326 1.326 0 0 0-.375-.24 1.227 1.227 0 0 0-.327-.099l-.033-.001Zm-1.941-.48-.151.306a.48.48 0 0 0 .187.143c.09.045.167.062.206.065h.02l.09-.175.062-.125a1.087 1.087 0 0 1-.414-.215Zm-1.57-.36-.027.027-.033.018-.038.006h-.015l-.015-.003.369.586.021.007h.001l.256.062.27.047.28.04-.031-.054c-.021-.05-.016-.087-.002-.114a.119.119 0 0 1 .02-.03c-.339-.197-.693-.396-1.057-.592Zm25.492-.047.067.011a.361.361 0 0 1 .26.355.359.359 0 0 1-.372.333.367.367 0 0 1-.327-.366.359.359 0 0 1 .372-.333Zm-25.184-.053.362.201.354.201.344.201.118-.233c-.477-.242-.741-.3-1.178-.37Zm-4.578.036-.196.266.203.119.21.12.18-.274a40.515 40.515 0 0 1-.397-.23Zm-14.678-.449.066.004c.153.027.288.17.297.326a.359.359 0 0 1-.335.368.357.357 0 0 1-.363-.33.359.359 0 0 1 .335-.368Zm19.134.145-.06.12.053.01c.46.071.728.114 1.131.294l.182.086.01-.017.017-.05c-.467-.278-.928-.378-1.333-.443Zm-4.93.017v.001l-.205.26.188.114.194.117.195-.266c-.126-.075-.25-.15-.372-.226Zm-.464-.292-.212.255.181.117.189.118.205-.26a24.82 24.82 0 0 1-.363-.23Zm3.837-.389-.085.17c.124.09.26.178.404.26l.22.118c.148.075.3.142.45.199l.222.077.085-.167a4.824 4.824 0 0 1-.666-.277 4.7 4.7 0 0 1-.63-.38Zm-4.255.113-.212.256.156.104.162.107.212-.255a25.614 25.614 0 0 1-.318-.212Zm-.4-.278-.224.25.153.107.16.11.213-.256a14.946 14.946 0 0 1-.302-.211Zm2.764-.594-.012.002-.01.004c-.01.006-.016.014-.017.023 0 .014.006.028.02.04.136.117.699.51 1.387.837l.175.08v-.036l.01-.036h.002l.02-.041a8.26 8.26 0 0 1-1.358-.741l-.102-.068-.09-.059s-.012-.005-.025-.005Zm2.31-.07-.365.723c.106.077.22.152.34.223l.185.104.369-.74a6.455 6.455 0 0 1-.529-.31Zm26.473.28.068.005a.361.361 0 0 1 .295.326.358.358 0 0 1-.335.368.366.366 0 0 1-.363-.33.358.358 0 0 1 .335-.368Zm-16.379-2.778-1.173 2.27-.414.8-.018-.008v.187l-.009.186 1.757-3.4a3.878 3.878 0 0 1-.143-.035Zm22.79 1.156c.14 1.062-.601 1.99-1.725 2.14-1.164.154-2.218-.624-2.368-1.753-.14-1.049.608-1.972 1.731-2.122 1.181-.157 2.21.602 2.361 1.735Zm-39.322.67-.222.18a.066.066 0 0 0-.016.02c-.025.048-.005.123.057.22l.055.078c.127.164.35.378.665.633l.165.131.243-.239a6.932 6.932 0 0 1-.473-.403l-.126-.124-.045-.047c-.159-.171-.263-.323-.303-.45Zm6.52.019-.048.011-.047.094.043.35.01.074c.201.14.42.266.653.384l.069.035.07.034.19-.37.237.109.232.097.226.085-.024.049-.407.227.077.029.383-.215.047-.093-.02-.046a7.22 7.22 0 0 1-.871-.374l-.028-.014-.027-.014-.268-.144a6.958 6.958 0 0 1-.497-.308Zm-18.059.47c.178.008.334.187.326.364a.358.358 0 0 1-.302.328l-.07.004a.355.355 0 0 1-.326-.365.355.355 0 0 1 .241-.313l.069-.016.03-.003h.032Zm27.817-2.396-1.216 2.352-.168.325-.012-.006.02.14.013.139.31-.6 1.191-2.303h-.001l-.07-.022-.067-.025Zm21.018.303c-1.083.144-1.81.664-1.84 1.298l.001.113.006.045c.086.64.807.95 1.883.806 1.082-.145 1.762-.658 1.753-1.315l-.008-.117v-.001c-.088-.658-.761-.967-1.795-.829Zm-28.62 1.114-.485.958-.062.124.108.04.083-.165.451-.894-.096-.063Zm7.365-1.52-1.238 2.393.008.03.008.032.016.076.017.076 1.317-2.548-.128-.06Zm-8.806.807-.535 1.06c.152.1.314.2.484.293l.262.139.587-1.145a7.34 7.34 0 0 0-.798-.347Zm8.573-.93-1.127 2.18c.004.017.013.037.02.057l.024.062.023.063 1.184-2.29a3.57 3.57 0 0 1-.124-.072Zm17.02 1.556.068.004a.362.362 0 0 1 .295.326.358.358 0 0 1-.335.368c-.178.01-.352-.153-.363-.329a.358.358 0 0 1 .335-.37Zm-17.24-1.702L35.865 30.4l.042.074.042.076 1.092-2.113a2.916 2.916 0 0 1-.118-.083ZM4.398 24.895l.176.028a1.048 1.048 0 0 0-.008.05c-.022.304.066.455.333.529l.095.022.044.007 2.544.407c.206.032.295.042.345.032.094-.02.127-.078.19-.32l.007-.032.01-.042.005-.026.177.029-.27 1.679-.176-.029c.007-.044.007-.08.01-.101.013-.2.007-.282-.04-.332l-.025-.022-.015-.01-.019-.008a.664.664 0 0 0-.138-.037l-.064-.012-.074-.013-.043-.007-2.153-.35L7.9 28.18l-.02.128-3.12.89 2.08.327c.483.078.603.051.692-.252l.022-.082.009-.037.177.028-.195 1.218-.178-.028c.032-.37-.03-.478-.41-.555l-.112-.02-.05-.009-2.473-.396c-.268.085-.429.219-.512.424l-.032.093.001.001-.012.047-.176-.028.19-1.187 3.147-.906-2.697-1.907.166-1.034Zm32.32 3.289-1.023 1.976-.094-.046.092.049.034.04.032.043.03.044 1.039-2.01a5.952 5.952 0 0 1-.11-.096ZM9.864 29.589c.178.01.335.188.327.366a.359.359 0 0 1-.372.331.357.357 0 0 1-.326-.366.356.356 0 0 1 .24-.312l.069-.017.03-.002h.032Zm26.657-1.602-1.012 1.958.052.057.05.059 1.014-1.963-.053-.054-.051-.057Zm2.714.061-.108.106a2.11 2.11 0 0 1-.663.378c.172.204.542.473.997.724l.174.093.4-.691a.058.058 0 0 1 .077-.024c.303.153.6.284.856.378.028.01.044.041.036.071-.093.325-.09.56.013.78l.082.01.071.003-.042-.124a1.378 1.378 0 0 1-.045-.644l.032-.116-.046-.018-.02-.009-.021-.008-.022-.009-.037-.015-.02-.009-.02-.009-.022-.009-.01-.004-.017-.008-.021-.009-.015-.006-.021-.01-.019-.008-.02-.008-.016-.007-.016-.007-.02-.008-.017-.008-.019-.009-.016-.007-.016-.008-.016-.007-.021-.01-.02-.008-.016-.008-.012-.006-.022-.01-.022-.01-.023-.01-.019-.009-.02-.01-.03-.014-.024-.011-.034-.016-.056-.028-.101-.05-.102-.05-.055-.03-.011-.005-.01-.005c-.19-.097-.377-.198-.556-.3l-.259-.154Zm-2.89-.29-1.029 1.99.054.053.053.053 1.016-1.966-.049-.063-.046-.066Zm-.158-.264h-.001l-1.071 2.072.056.049.055.05 1.045-2.02-.04-.068-.038-.07-.006-.013Zm-7.148.507-.258.467c.179.13.38.26.596.384l.22.122.263.132.07.034.072.032.159-.312c.013-.028.047-.04.076-.028.359.16.71.281 1.015.352a.058.058 0 0 1 .04.032l.005.026-.006.026-.151.3.062.012.061.011.243-.481c-.443-.081-.994-.28-1.55-.56A7.057 7.057 0 0 1 29.04 28Zm7.017-.816-1.142 2.205.036.037.074.06 1.1-2.127a2.566 2.566 0 0 1-.068-.175Zm-.1-.381-1.242 2.402.056.05.055.05 1.182-2.28a3.134 3.134 0 0 1-.05-.222Zm18.066 1.727.066.01c.13.036.239.148.26.284a.358.358 0 0 1-.226.383l-.068.018-.066.003a.371.371 0 0 1-.328-.293.36.36 0 0 1 .227-.383l.068-.019h-.001l.068-.003Zm-18.116-2.197-1.401 2.701.058.046.058.048 1.305-2.523a2.997 2.997 0 0 1-.02-.272Zm-10.696 1.127-.03.002-.023.009-.017.017-.01.016-.025.078c.233.04.561.267.85.597.26.298.43.61.47.843l.01.094.086-.017a.08.08 0 0 0 .035-.015c.037-.033.043-.15-.028-.336a2.387 2.387 0 0 0-.434-.68c-.35-.4-.71-.608-.884-.608Zm-.143.235-.053.155-.028.09c-.05.162-.095.307-.189.453l-.08.11-.218.268c.102.045.207.124.3.21l.087.089v-.001l.942-.856c-.298-.327-.591-.499-.761-.518Zm13.438-.688-.065.13c.037.092.287.308.716.585l.15.094.014.009.018.01.017.01.031.02.014.007.016.01.015.009.012.007.014.008.016.009.026.015.01.007.015.008.012.007.016.008.013.008.012.008.02.01.016.01.022.012.02.011.011.007c.115.065.237.131.366.2l.2.102.01.006.011.005.01.006.012.005.02.01.02.01.011.006.054.026c.248.122.49.231.716.325l.22.089.012.006c.377.145.66.223.823.24l.062.003h.025l.016-.003.067-.135c-.578-.046-2.002-.729-2.019-.737-.687-.334-1.523-.87-1.797-1.183Zm-9.168.065.02.101c.023.165.004.309-.07.416l-.05.06-.014.012-.204.18c.285.21.624.417.99.602l.097.048.096.047.272-.54a.06.06 0 0 1 .077-.027 6.05 6.05 0 0 0 1.09.396.06.06 0 0 1 .04.033l.005.025-.007.026-.262.519.085.017.083.015.033-.01h.035l.01.002.353-.699c-.455-.072-1.036-.277-1.623-.573a6.888 6.888 0 0 1-1.056-.65Zm6.615-1.398-1.657 3.204.058.041.057.043 1.5-2.89a3.8 3.8 0 0 1 .042-.398Zm.44-1.408-2.307 4.464.112.078 1.844-3.566c.055-.211.127-.434.222-.67l.102-.24.027-.066ZM10.048 28.07l.07.003c.176.027.314.222.286.398a.356.356 0 0 1-.266.284l-.068.01-.07-.003a.357.357 0 0 1-.29-.33l.004-.067a.357.357 0 0 1 .266-.285l.068-.01Zm31.39.098.053.404c.106.04.207.075.3.106l.134.043-.185-.45a5.514 5.514 0 0 1-.303-.103Zm-.537-.224-.075.357c.125.056.248.108.366.155l.173.069-.053-.405a9.703 9.703 0 0 1-.41-.176Zm-.64-.316-.25.28c.111.06.226.12.344.176l.181.086.18.082.075-.359a8.79 8.79 0 0 1-.215-.102l-.06-.03c-.087-.044-.173-.089-.256-.133ZM29.554 26.26l-.106.21-.024.031-.034.022v.001l-.22.1c.028.055.052.11.075.163.013.031.024.061.035.091.312.255.72.515 1.167.741.493.25.98.431 1.389.523l.196.038-.078-.361a6.063 6.063 0 0 1-1.228-.444.06.06 0 0 1-.031-.05l.006-.03.12-.234a5.762 5.762 0 0 1-1.267-.801Zm-3.073-.5-.065.006-.072.063c-.079.069-.081.24-.013.459l.04.113.31-.272a.06.06 0 0 1 .065-.008c.263.13.551.366.813.665.092.104.175.211.25.318.116.149.2.32.25.437l.03.076.021.06a.061.061 0 0 1-.003.046l-.014.019-.309.271c.217.12.404.167.512.13l.028-.011.023-.017.068-.059h-.002l.016-.07a.941.941 0 0 0-.07-.408c-.109-.3-.324-.643-.606-.965-.444-.508-.908-.798-1.198-.845l-.074-.007Zm8.598-11.005h-.001l-5.687 11.006c.058.072.124.146.202.22.089.085.19.17.301.255l.174.125.013.01.013.008.01.006.019.012.229.147.236.135.013.007.01.006.013.007.04.02c.532.282 1.122.503 1.62.583.057.01.113.017.167.022a.12.12 0 0 1 .086.05c.162.232.335.423.516.59l.138.121 2.413-4.698-.082-.147-.072-.153-2.152 4.165a.057.057 0 0 1-.046.031c-.088.008-.18.013-.274.013-.758.004-1.646-.259-2.319-.683a.058.058 0 0 1-.028-.048l.007-.029 5.747-11.121-.347-.175-5.736 11.1a.06.06 0 0 1-.052.033.06.06 0 0 1-.059-.056l.006-.03 5.737-11.101-.855-.431ZM40.54 26.46l-.114.106c-.239.2-.533.318-.867.349l-.17.008h-.02c.218.176.626.442 1.2.732.288.146.547.261.768.349l.158.06-.096-.137a1.548 1.548 0 0 1-.25-1.088 2.303 2.303 0 0 1-.61-.379Zm-11.448.602-.603.527c.029.087.048.168.057.241l.006.105.516-.451c.075-.064.082-.22.024-.422Zm10.666.274-.372.204c.106.068.219.137.337.206l.18.103.25-.28a8.66 8.66 0 0 1-.395-.233Zm-13.028-1.092-1.193 1.071c.128.062.267.156.407.274l.14.127 1.189-1.062a2.478 2.478 0 0 0-.543-.41Zm27.02.77.066.005c.133.024.251.125.285.258a.36.36 0 0 1-.193.402l-.066.024-.065.009a.37.37 0 0 1-.354-.263.36.36 0 0 1 .194-.401l.065-.024a.267.267 0 0 1 .067-.01Zm-14.368.066-.484.122c.071.054.152.112.24.173l.136.092v.001l.37-.204a5.985 5.985 0 0 1-.262-.184Zm-28.995-.513.07.01c.172.041.291.248.25.42a.356.356 0 0 1-.29.26l-.07.005-.069-.01a.357.357 0 0 1-.25-.421.356.356 0 0 1 .29-.26l.069-.004Zm13.576-.532h-.035a.088.088 0 0 0-.066.107c.052.225.15.47.284.708.072.13.152.25.236.361a.086.086 0 0 0 .044.031l.026.004.028-.004.025-.014a.088.088 0 0 0 .018-.124 2.884 2.884 0 0 1-.222-.34 2.616 2.616 0 0 1-.267-.662.09.09 0 0 0-.04-.055l-.031-.012Zm35.445-2.638.425 1.645-.173.046a.582.582 0 0 1-.03-.092c-.084-.231-.13-.294-.225-.3-.04-.006-.091.003-.215.034l-.083.02-.042.012-2.587.67c-.305.079-.37.235-.26.663.085.324.185.52.319.632.125.1.227.146.553.21l.133.024.06.011.036.137-1.034.097-.728-2.813.174-.044c.012.043.025.075.031.097.086.235.124.289.22.299a.695.695 0 0 0 .202-.03l.095-.023-.002.001.044-.01 2.551-.66c.22-.058.288-.082.33-.11.083-.056.09-.128.051-.37l-.007-.03-.007-.039-.005-.031.174-.046Zm-18.52 2.444-.26.514-.004.01-.006.008c.122.107.278.21.45.297l.056.028.058.027.257-.548-.103-.05a2.242 2.242 0 0 1-.449-.286Zm-15.603-.495-.875.575c-.012.03.002.175.093.394l.044.098.93-.61a2.952 2.952 0 0 1-.192-.457Zm2.847.322-.608.54.084.078.083.082.611-.536a3.784 3.784 0 0 0-.17-.164Zm25.231-.136.067.005a.36.36 0 0 1 .284.258.36.36 0 0 1-.193.402l-.066.024-.066.009a.37.37 0 0 1-.352-.263.36.36 0 0 1 .259-.426.312.312 0 0 1 .067-.01Zm-25.488-.073-.605.536.083.064.083.07.607-.539a2.82 2.82 0 0 0-.168-.131Zm3.817-2.827.03.006c.02.01.031.03.032.05l-.007.03-1.715 3.319a.06.06 0 0 1-.032.028l-.02.003a.056.056 0 0 1-.029-.006.059.059 0 0 1-.031-.049l.007-.03 1.715-3.319.021-.023.029-.009Zm-4.078 2.659-.6.532.079.047.08.053.602-.535a2.197 2.197 0 0 0-.161-.097Zm-16.879-.21.069.003.068.017c.168.06.265.278.205.445a.353.353 0 0 1-.247.218l-.068.01a.344.344 0 0 1-.137-.02.356.356 0 0 1-.22-.378l.015-.066a.354.354 0 0 1 .315-.228Zm16.501.076h-.068a.203.203 0 0 0-.074.021l-.027.02-.513.448c.07.01.145.03.226.061l.124.056.596-.529a.865.865 0 0 0-.264-.077Zm-.894-.908-.462.297c-.034.023-.038.145.017.34l.033.104.51-.31a1.385 1.385 0 0 1-.098-.431Zm26.877.056a.36.36 0 0 1-.214.45.29.29 0 0 1-.064.015l-.067.002a.37.37 0 0 1-.312-.226.358.358 0 0 1 .15-.42l.063-.03a.357.357 0 0 1 .444.209Zm-15.343-4.798h-.04c-1.377.004-2.494 1.14-2.489 2.53.003.89.465 1.671 1.158 2.118a.117.117 0 0 1 .076.015c.329.198.7.316 1.082.345l.192.006.162-.006a2.487 2.487 0 0 0 2.299-2.496 2.478 2.478 0 0 0-2.366-2.483.115.115 0 0 1-.074-.029Zm-27.82 1.265.166.067-.562 1.398-.167-.067c.075-.215.045-.3-.105-.36a.457.457 0 0 0-.09-.028l-.058-.008-.041-.004-.697-.042-.492 1.225.544.452a.63.63 0 0 0 .134.083c.129.052.22.03.292-.071l.034-.058.015-.032.165.066-.392.978-.166-.067c.078-.238.01-.43-.281-.717l-.106-.099-.047-.042v.002l-.356-.315-2.133-1.92.13-.326 2.586.124c.495.022.763.034.928.037l.058.001h.057l.056-.001.048-.003.024-.002.048-.005.038-.005a.8.8 0 0 0 .145-.04.347.347 0 0 0 .15-.1l.041-.056.02-.033.013-.032Zm27.87-.89.153.005a2.247 2.247 0 0 1 2.097 2.23 2.245 2.245 0 0 1-2.234 2.252 2.246 2.246 0 0 1-2.246-2.082l-.005-.153a2.246 2.246 0 0 1 2.235-2.252Zm-26.668 3.759.068.002.068.017c.167.06.265.278.205.445a.353.353 0 0 1-.248.218l-.067.01a.344.344 0 0 1-.137-.019.357.357 0 0 1-.205-.446.356.356 0 0 1 .316-.227Zm26.669-3.64-.152.005a2.127 2.127 0 0 0-1.966 2.127 2.127 2.127 0 0 0 1.98 2.113l.152.005.152-.006a2.128 2.128 0 0 0 1.966-2.127 2.127 2.127 0 0 0-2.132-2.118Zm.074.279.15.005a1.936 1.936 0 0 1 1.514 2.926.057.057 0 0 1-.02.02l-.028.008-.028-.006-.209-.103-.033.012c-.08.032-.24.106-.436.252a1.3 1.3 0 0 0-.368.442l-.02.04.045.123a.06.06 0 0 1-.04.077 1.94 1.94 0 0 1-.34.062l-.175.008h-.032a.06.06 0 0 1-.05-.028l-.009-.028-.003-.108a2.31 2.31 0 0 0-.473-.267 1.945 1.945 0 0 0-.606-.164l-.035-.002-.067.055-.026.012a.06.06 0 0 1-.053-.016 1.921 1.921 0 0 1-.578-1.207l-.008-.174v.001l.006-.15a1.936 1.936 0 0 1 1.922-1.79Zm-3.83-3.245.03.006c.02.01.031.03.033.05l-.007.03-3.583 6.935a.06.06 0 0 1-.032.028l-.02.004a.068.068 0 0 1-.029-.007.06.06 0 0 1-.031-.05l.006-.03 3.584-6.935.021-.022.029-.01Zm18.45 5.804a.359.359 0 0 1-.148.475.288.288 0 0 1-.061.025l-.066.01a.37.37 0 0 1-.34-.18.359.359 0 0 1 .09-.437l.057-.039a.358.358 0 0 1 .469.146Zm-40.658-.58.068.012.065.026c.158.083.224.312.141.469a.352.352 0 0 1-.275.181l-.069.001-.068-.012-.065-.026-.064-.045a.362.362 0 0 1-.077-.425.355.355 0 0 1 .344-.182Zm25.954-.708-.09.007a.635.635 0 0 0-.523.636.635.635 0 0 0 .527.633l.091.007.091-.008a.635.635 0 0 0 .523-.636.63.63 0 0 0-.619-.639Zm-31.428.051 1.318 1.165.424-1.056-1.742-.109Zm31.465.16.076.006a.428.428 0 0 1-.073.85.427.427 0 0 1-.426-.427c-.001-.236.188-.43.423-.43Zm19.842-2.393c.51.94.15 2.072-.847 2.613-1.033.561-2.296.21-2.84-.792-.506-.93-.136-2.06.86-2.601 1.05-.57 2.281-.227 2.827.78Zm-5.911 2.126a.359.359 0 0 1-.09.436l-.058.039a.278.278 0 0 1-.071.027l-.076.009a.371.371 0 0 1-.321-.18.36.36 0 0 1 .148-.477.357.357 0 0 1 .468.146Zm-14.119-.414-.115.01a.795.795 0 0 0-.152.04l-.075.032a.695.695 0 0 0-.388.474l-.007.037.223.133.056-.088a.758.758 0 0 1 .61-.317l.086.005.085.015.02-.259a.755.755 0 0 0-.343-.082Zm17.803-1.863c-1.016.552-1.509 1.355-1.213 1.974a.917.917 0 0 1 .021.04c.308.568 1.092.6 2.046.083 1.017-.553 1.463-1.33 1.12-1.963-.317-.583-1.056-.632-1.974-.134Zm-42.879 1.69.068.013.065.026c.136.071.203.25.168.399l-.026.07a.349.349 0 0 1-.21.169l-.067.013h-.068a.346.346 0 0 1-.133-.037.357.357 0 0 1-.14-.47.356.356 0 0 1 .343-.182Zm38.12-.94.067.002c.112.014.218.08.272.18a.36.36 0 0 1-.09.437l-.058.039a.261.261 0 0 1-.071.027l-.076.009a.371.371 0 0 1-.321-.18.36.36 0 0 1 .148-.477.32.32 0 0 1 .13-.037Zm-37.261-.371c.135.071.203.25.168.398l-.027.071a.354.354 0 0 1-.276.182h-.069a.346.346 0 0 1-.133-.038.357.357 0 0 1-.14-.47.359.359 0 0 1 .477-.143Zm25.239-2.97-1.453 2.812.164-.027c.11-.015.223-.023.338-.023l.007-.013.006-.012 1.23-2.339c.037-.071.048-.137.033-.187a.138.138 0 0 0-.046-.065l-.04-.025.001-.001-.222-.112c-.006-.001-.012-.005-.018-.007Zm11.24 2.049.075.011c.075.02.144.062.192.124a.358.358 0 0 1-.014.438l-.058.056v-.001l-.066.037a.33.33 0 0 1-.073.021l-.077.004a.36.36 0 0 1-.268-.132.358.358 0 0 1 .07-.493.334.334 0 0 1 .218-.065ZM9.086 15.099l.808.355-.076.118-.13-.008c-.406-.028-.599.015-.757.199l-.059.076-.021.031-.25.387 2.595 1.676c.185.12.253.157.302.17.097.015.15-.026.306-.221l.018-.026.025-.032.014-.02.15.097-.923 1.427-.15-.098c.024-.036.035-.064.047-.084.118-.225.133-.29.075-.368a.75.75 0 0 0-.16-.13l-.08-.053-.037-.024-2.594-1.677-.25.386c-.152.234-.163.403-.024.713l.06.124.027.052.062.115h.001l-.077.119-.654-.592 1.752-2.712Zm5.165 3.203.078.006c.051.01.101.03.144.063.143.106.173.343.066.485a.34.34 0 0 1-.194.126l-.077.01a.356.356 0 0 1-.222-.068.357.357 0 0 1-.066-.486.348.348 0 0 1 .271-.136Zm38.817-5.77 1.07 1.32-.139.114c-.029-.027-.05-.054-.065-.072-.172-.173-.242-.21-.329-.178-.04.01-.082.04-.182.119l-.067.054-.034.027-.778.63.99 1.224.779-.63c.175-.143.233-.195.254-.234.05-.091.03-.155-.11-.363l-.018-.025-.023-.034-.014-.021.139-.112 1.07 1.32-.14.113c-.033-.032-.05-.054-.065-.072-.175-.178-.24-.213-.332-.183a.735.735 0 0 0-.173.113l-.074.059-.036.029-2.048 1.658c-.162.13-.233.196-.254.235-.045.088-.024.151.115.36l.017.025.023.033.015.02-.139.113-1.07-1.32.14-.113c.028.035.05.054.064.072.176.179.238.217.328.187a.7.7 0 0 0 .17-.111l.078-.062.035-.028 1.052-.851-.991-1.225-1.051.853-.067.054c-.12.098-.168.14-.188.181-.048.083-.027.146.11.355l.018.024.021.032.018.023-.14.111-1.068-1.32.138-.112c.029.035.054.057.066.07.178.183.236.217.327.187a.715.715 0 0 0 .171-.112l.077-.06v-.001l.035-.029 2.048-1.657c.176-.144.232-.196.254-.236.053-.086.029-.154-.11-.362l-.018-.022-.024-.035-.014-.021.139-.114Zm-3.995 4.919.077.005a.35.35 0 0 1 .202.106.359.359 0 0 1-.029.498.31.31 0 0 1-.134.07l-.076.01a.361.361 0 0 1-.279-.108.359.359 0 0 1 .028-.498.333.333 0 0 1 .211-.083Zm-33.822-.336.077.013c.05.014.098.039.138.075.113.1.136.291.066.426l-.043.063a.34.34 0 0 1-.204.109l-.078.003a.352.352 0 0 1-.215-.088.356.356 0 0 1-.023-.49.348.348 0 0 1 .282-.111Zm32.788-.794.077.005a.347.347 0 0 1 .2.106c.128.14.113.37-.028.498a.31.31 0 0 1-.133.07l-.077.01a.361.361 0 0 1-.279-.108.359.359 0 0 1 .028-.498.334.334 0 0 1 .212-.083Zm-31.78-.34.078.008a.354.354 0 0 1 .201.118c.115.135.09.373-.045.488a.332.332 0 0 1-.14.07l-.078.008a.363.363 0 0 1-.278-.124.358.358 0 0 1 .045-.488.34.34 0 0 1 .218-.08Zm18.798-1.705h-.03l-.078.15.132.067 3.71 1.872.064-.123-.046-.043-.04-.05-3.712-1.873Zm.461-.144-.074.052-.086.038-.092.027 3.424 1.728-.014-.083v-.083l.012-.083-.063-.031-3.065-1.544-.042-.02Zm11.455 1.127.076.012c.05.014.096.038.135.073a.36.36 0 0 1 .024.498.332.332 0 0 1-.2.102l-.079.004a.344.344 0 0 1-.21-.083.36.36 0 0 1-.024-.497.345.345 0 0 1 .278-.11Zm-29.535-.256.078.007a.355.355 0 0 1 .2.118c.115.136.09.373-.045.488a.34.34 0 0 1-.14.069l-.077.009a.361.361 0 0 1-.279-.125.355.355 0 0 1 .046-.487.341.341 0 0 1 .217-.079Zm-3.034-2.89c.833.828.857 2.14.052 2.946-.747.75-1.936.718-2.739-.081-.844-.843-.867-2.121-.06-2.932.757-.759 1.944-.735 2.747.066Zm-2.602.102-.088.079-.075.084c-.372.47-.186 1.15.51 1.844.771.769 1.623 1.03 2.146.674l.094-.073.031-.033c.456-.457.262-1.217-.507-1.984-.773-.771-1.595-.997-2.111-.59Zm33.981 2.04.077.006c.05.01.1.03.141.06.152.114.18.342.067.494a.33.33 0 0 1-.19.12l-.078.01a.344.344 0 0 1-.217-.064.36.36 0 0 1-.067-.494.345.345 0 0 1 .267-.132Zm-27.166-.231.078.007a.353.353 0 0 1 .2.117c.116.136.09.373-.045.488a.333.333 0 0 1-.14.07l-.077.01a.359.359 0 0 1-.279-.125.358.358 0 0 1 .046-.489.342.342 0 0 1 .217-.078Zm17.791-1.258-.634 1.23 1.397.704.634-1.228-.41-.207-.544 1.053-.105-.055.543-1.052-.881-.445Zm.134-.79-.062.007a.28.28 0 0 0-.154.095l-.034.052a.282.282 0 0 0 .07.341l.054.036 3.057 1.543c.039.02.08.028.122.028l.062-.006a.282.282 0 0 0 .193-.146.282.282 0 0 0-.06-.332l-.058-.04-3.063-1.548a.284.284 0 0 0-.127-.03Zm8.01 1.365.077.006c.05.01.099.03.14.06.153.114.182.342.068.494a.33.33 0 0 1-.191.119l-.077.01a.344.344 0 0 1-.217-.063.36.36 0 0 1-.067-.494.345.345 0 0 1 .267-.132Zm-24.738-.244.068.001a.36.36 0 0 1 .275.184c.072.135.028.32-.084.424l-.062.044a.263.263 0 0 1-.064.027l-.067.012a.366.366 0 0 1-.344-.186.357.357 0 0 1 .145-.468.331.331 0 0 1 .133-.038Zm29.328-4.094 2.463 2.089-.455.755-.109-.091.027-.127c.079-.4.062-.596-.1-.777l-.068-.068-.03-.026-.35-.297-1.997 2.357c-.142.168-.188.231-.206.278-.028.094.004.152.179.331l.022.022.028.029.02.016-.116.136-1.297-1.099.116-.137c.034.03.06.044.077.059.21.146.273.168.357.122a.788.788 0 0 0 .15-.143l.063-.072.028-.034 1.998-2.357-.35-.295c-.214-.181-.38-.216-.707-.117l-.13.043-.055.02-.121.047-.108-.092.67-.572Zm-5.908 3.589.077.01.073.028c.168.088.232.309.144.477a.35.35 0 0 1-.245.17l-.077.006a.325.325 0 0 1-.148-.036.358.358 0 0 1-.143-.477.352.352 0 0 1 .32-.178Zm-22.076-.23h.068a.36.36 0 0 1 .275.185c.084.156.011.383-.146.467a.326.326 0 0 1-.064.027l-.068.012a.362.362 0 0 1-.343-.186.357.357 0 0 1 .145-.468.332.332 0 0 1 .133-.038Zm-2.994-5.29.099.15a.95.95 0 0 1-.077.057c-.195.157-.25.194-.228.288a.739.739 0 0 0 .095.183l.051.08.025.038 1.455 2.197c.115.174.172.251.21.276.082.053.155.089.376-.029l.026-.015.035-.02.022-.014.098.15-1.424.889-.099-.15c.038-.025.057-.046.077-.058.195-.158.24-.216.218-.309a.677.677 0 0 0-.094-.18l-.054-.083-.024-.038-.747-1.129-1.314.869.747 1.129c.122.184.164.25.21.277.078.055.143.04.364-.077l.025-.015.033-.018.024-.014.099.149-1.365.947-.098-.149c.037-.025.062-.049.077-.058.2-.16.186-.225.165-.318a.714.714 0 0 0-.094-.182l-.053-.082-.025-.038-1.455-2.199c-.125-.188-.172-.25-.21-.276-.08-.059-.152-.001-.373.116l-.023.015-.037.021v.002l-.024.01-.099-.148 1.42-.978.098.15c-.03.026-.058.045-.077.058-.189.154-.234.219-.209.31.006.04.031.086.101.193l.048.071.024.036.553.836 1.313-.87-.553-.836c-.125-.188-.172-.25-.21-.276-.086-.057-.15-.043-.372.075l-.025.017-.036.02-.022.012-.098-.15 1.431-.912Zm23.72 4.793.077.01.073.028a.36.36 0 0 1 .143.477.349.349 0 0 1-.244.17l-.078.007a.327.327 0 0 1-.147-.035.36.36 0 0 1-.144-.478.353.353 0 0 1 .32-.179ZM38 9.69l-1.117 2.162.882.444.697-1.349.105.054-.698 1.349.41.206 1.116-2.162L38 9.689Zm-15.153 2.122c.072.134.029.32-.084.423l-.062.044a.356.356 0 0 1-.065.026l-.068.012a.363.363 0 0 1-.343-.186.357.357 0 0 1 .146-.468.36.36 0 0 1 .476.149Zm1.098-.828.067.012c.11.029.206.11.247.221.062.166-.042.381-.21.443a.328.328 0 0 1-.067.017l-.069.002a.363.363 0 0 1-.314-.232.357.357 0 0 1 .21-.443.332.332 0 0 1 .136-.02Zm22.22-3.875.306.173-.469 2.546c-.134.725-.174.955-.186 1.097l-.003.034-.001.025v.086c.003.051.008.1.02.15a.348.348 0 0 0 .08.161l.049.048.03.024.03.018-.088.155-1.311-.744.089-.155c.202.101.29.083.37-.057a.464.464 0 0 0 .04-.09l.017-.057.008-.035.135-.685-1.148-.652-.52.48a.611.611 0 0 0-.1.121c-.067.118-.06.21.025.293l.06.048.03.019-.09.156-.916-.522.089-.155c.225.109.424.066.747-.183l.113-.09.048-.04.359-.312 2.188-1.857Zm-20.812 3.344.069.005a.364.364 0 0 1 .288.264c.038.15-.053.325-.192.395l-.062.024-.07.01a.363.363 0 0 1-.356-.269.359.359 0 0 1 .254-.419.325.325 0 0 1 .07-.01ZM38.066 9.14l-.04.006a.15.15 0 0 0-.07.043l-.023.034a.153.153 0 0 0 .029.174l.038.029 3.053 1.54c.014.007.03.012.045.014h.047a.149.149 0 0 0 .118-.195.15.15 0 0 0-.042-.066l-.033-.022-3.053-1.54a.147.147 0 0 0-.069-.017Zm-11.229.927.068.005a.363.363 0 0 1 .289.263c.038.15-.054.325-.192.395l-.063.023v.001l-.069.01a.363.363 0 0 1-.356-.268.358.358 0 0 1 .254-.42.326.326 0 0 1 .07-.009Zm9.166-.223.03.001a.36.36 0 0 1 .311.32v.07c-.017.176-.204.323-.38.305a.359.359 0 0 1-.313-.388.357.357 0 0 1 .254-.295l.068-.013h.03Zm-7.288.297c.016.155-.099.315-.246.365l-.065.014h-.07a.362.362 0 0 1-.315-.315.357.357 0 0 1 .31-.38.359.359 0 0 1 .386.316Zm5.762-.446.03.002a.358.358 0 0 1 .311.318v.07c-.012.133-.121.25-.25.292l-.064.014-.067.001a.36.36 0 0 1-.312-.389.355.355 0 0 1 .254-.294l.068-.014h.03Zm-4.554-.028a.364.364 0 0 1 .301.247l.015.068v.066a.371.371 0 0 1-.31.313.36.36 0 0 1-.386-.315.358.358 0 0 1 .244-.365l.066-.015h.07Zm3.028-.12.03.001a.36.36 0 0 1 .312.319v.07c-.017.177-.205.324-.381.307a.36.36 0 0 1-.312-.39.357.357 0 0 1 .254-.294l.067-.014h.03Zm-1.503-.04c.16.017.298.151.316.316.016.154-.099.313-.246.363l-.065.015h-.07a.362.362 0 0 1-.315-.314.358.358 0 0 1 .244-.366l.066-.014h.07ZM21.72 5.449l.073.163c-.034.023-.065.035-.086.045-.212.121-.267.179-.257.272 0 .04.017.09.068.207l.035.079.018.039L22.65 8.66c.09.2.123.273.163.306.068.068.134.064.37-.015l.03-.011.035-.013.027-.01.072.163-1.551.694-.074-.164c.042-.018.07-.037.091-.046.218-.124.266-.171.26-.267a.732.732 0 0 0-.064-.194l-.04-.09-.017-.04-1.077-2.407c-.093-.207-.127-.271-.162-.307-.07-.074-.141-.067-.373.01l-.03.013-.042.016-.024.008-.073-.164 1.551-.694Zm23.954 2.375-1.332 1.15.99.563.342-1.713ZM40.249 4.63l1.736.544c.789.247 1.114.742.913 1.386-.193.62-.773.932-1.49.796a1.611 1.611 0 0 1-.289-.072l-.104-.033-.05-.015.043-.137c.323.069.465.052.654-.077.203-.136.336-.332.432-.639.155-.494.047-.851-.304-1.026l-.102-.044-.043-.014-.281-.089-.924 2.948c-.066.21-.089.286-.081.338.006.093.058.135.289.233l.028.01.059.024-.052.17-1.622-.508.054-.172c.043.014.077.018.098.026.245.052.311.047.37-.027a.693.693 0 0 0 .082-.188l.03-.093.014-.043.789-2.514c.067-.217.083-.287.081-.338-.004-.101-.063-.144-.287-.24l-.031-.01-.04-.015-.025-.01.053-.17Zm-13.767-.455.02.03.004.014.127.76-.157.026c-.212-.478-.481-.681-.828-.624-.296.05-.477.31-.425.616.036.215.136.361.376.522l.112.07.052.03.559.318c.558.318.816.62.883 1.02.112.67-.355 1.171-1.238 1.319-.475.08-.947.05-1.064-.057l-.023-.03-.004-.014-.143-.853.156-.027c.217.575.56.844.986.773.374-.063.608-.417.54-.821-.063-.377-.28-.576-1.065-.972-.356-.177-.535-.297-.671-.462l-.056-.074a1.051 1.051 0 0 1-.164-.397c-.1-.594.333-1.034 1.137-1.17.494-.082.8-.079.886.003Zm9.772-.464c1.044.234 1.659 1.252 1.411 2.358-.255 1.146-1.351 1.868-2.463 1.618-1.034-.23-1.642-1.252-1.394-2.358.26-1.165 1.328-1.867 2.446-1.618Zm-4.25-.23.19.86-.14.008-.07-.11c-.217-.344-.365-.475-.606-.494l-.096-.003-.04.002-.459.025.174 3.085.005.085c.01.156.02.219.037.258.043.087.107.108.358.118h.096l.002-.001.01.18-1.698.094-.01-.178c.046-.003.074-.01.096-.012.253-.036.314-.064.343-.156a.71.71 0 0 0 .01-.206l-.004-.096-.003-.044-.173-3.084-.457.026c-.28.015-.424.107-.593.404l-.065.121-.026.05-.056.116-.141.008.093-.877 3.223-.18Zm2.67 1.81c-.251 1.13.03 2.03.691 2.215.016.001.028.005.044.008.63.14 1.17-.43 1.407-1.488.252-1.128-.04-1.976-.743-2.133-.647-.145-1.17.38-1.398 1.398Z"/>
    </svg>
