<?xml version="1.0" encoding="UTF-8"?><svg id="Ebene_1" xmlns="http://www.w3.org/2000/svg" viewBox="0 0 176.26 176.26"><defs><style>.cls-1{fill:#9871aa;}.cls-1,.cls-2,.cls-3,.cls-4{stroke-width:0px;}.cls-2{fill:none;}.cls-3{fill:#fff;}.cls-4{fill:#e3acb0;}</style></defs><circle class="cls-3" cx="88.13" cy="88.13" r="88.13"/><path class="cls-1" d="m43.4,37.03l.08-1.02-1.94.16c-1.94,1.8-4.4,4.66-5.52,6.42-2.26,3.58-4.93,9.25-6.59,13.16-2.74,6.44.62,10.41-.04,16.8-.48,4.63-7.75.94-8.13,1.31.36,2.16,2.52,3.78,4.64,3.92-3.83,3.3-11.05,5.11-8.86,11.77.92,2.8,5.11,4.63,5.37,5.95.69,3.58-2.29,3.79-2.83,6.45-.4,1.97-.02,4.72.89,6.53.34.68,1.58,2.01,1.62,2.46.04.43-1.4,1.53-1.72,2.55-.29.93-.85,1.65-.28,2.93.68,1.53,1.26,1.64,2.05,2.89,2.16,3.44.6,5.36.32,8.76-1.26,15.25,19.03,12.72,28.66,10.9,2.25,3.42,4.46,6.78,6.2,10.5.34.74,1.94,4.48,2.93,7l1.55,1.33-.32-2.16c-1.33-2.79-2.41-6.19-3.81-8.85-1.52-2.89-3.48-5.5-5.34-8.16,6.74-1.15,13.1-2.5,19.45-5.09,3.45-1.41,7.9-3.49,10.91-5.65.62-.44,3.2-2.14,2.46-2.91-.54-.56-3.42,1.94-4.16,2.37-10.67,6.11-23.66,8.9-35.81,10.36-5.73.69-15.77,1.62-19.66-3.81-3.4-4.74,1.46-10.01-1.35-15.03,1.52.42,3.31.19,4.79,0,2-.25,5.34-1.68,7.04-2.84,2.73-1.87,3.33-2.72,1.1-5.59-1.29-1.66-7.4-7.31-9.18-8.54-.58-.4-2.22-.95-2.3-1.04-.2-.2.66-4.18-.45-5.5l-1.87-2.05c.97.13,2.4-.22,3.29.05.29.09,1.07,1.54,2.53,2.41,2.28,1.35,5.89.95,7.19-1.21.71-1.17.13-3.15,0-3.94-.09-.51-.97-2.67-1.67-1.96-.53.53,2.99,7.18-3.27,6.03-2.34-.43-2.92-3.63-5.13-4.16-1.01-.24-3.61-.28-4.48.22-.59.34-.3,1.26-1.41.64-.93-.52-1.59-1.43-1.82-2.47-1.38-6.09,5.64-7.04,8.85-10.27,4.11-4.15,7.06-10.11,5.24-15.98-.41-1.33-1.7-2.81-1.92-3.61-.19-.68,3.24-8.23,3.89-9.5,2-3.86,5-8.33,7.83-11.72l1.01-.81h-.03Zm-19.67,61.5c.22-.37.25-.63.72-.57.04.55.14,2.44-.01,2.6-.07.07-1.67.22-2.02.3-.11-.1,1.12-2.01,1.31-2.33Zm-2.49,6.85c-.38-.27-.38-2.68-.27-2.78.11-.11,2.73-.33,3.04-.31.77.05,1.24.42,1.87.77,2.26,1.26,7.26,5.63,9.32,7.52.28.26,2.06,1.87,1.74,2.18l-9.39-6.15c-2.47-1.58-5.78-.87-6.31-1.24h0Zm1.62,11.73c-1.72-.33-1.1-3.18-.03-4.08,1.48-.56,12.65.39,13.24.89.48.42-.17.51-.38.65-2.64,1.71-9.8,3.11-12.83,2.53h0Zm7.4-56.32l1.3,2.32c.76,2.57.44,4.99-.15,7.55l-1.16-9.87h.01Z"/><path class="cls-1" d="m158.71,99.6c-11.21,7.82-23.37,16.8-34.37,25.03-3.85,2.95-7.9,5.75-11.58,8.88-.22.45-.04.99.4,1.21,0,0,.35.18.37.19-5.08,3.43-10.13,6.88-15.17,10.36-7.44,5.08-14.76,10.33-22.14,15.48-.18.13-.33.32-.39.55-.13.52.18,1.05.69,1.18,3.58.93,7.14,1.24,10.76,1.19,7.23-.02,14.38-2.4,20.31-6.49,3-2.01,5.97-3.88,8.47-6.59.32-1.69.28-3.66,1.15-5.22.81-1.36,2.23-2.62,3.49-3.61.33-.24.39-.72.13-1.03-.25-.3-.7-.34-1-.08-1.44,1.27-2.71,2.48-3.65,4.21-.75,1.7-.88,3.45-.9,5.25-2.49,2.22-5.61,4.01-8.51,5.72-8.09,5.27-16.56,5.86-26,4.23,11.7-8.52,21.74-16.13,33.26-24.89,1.49.75,9.85,4.94,9.85,4.94.24.13.54.12.77-.04l11.26-7.92c.29-.17.26-.64-.05-.76-3.6-1.58-6.59-3.7-10.2-5.24,11.56-8.52,22.66-16.85,33.73-25.59.6-.48-.12-1.34-.7-.93l.02-.03Zm-34.5,38.95l-8.6-4.58c1.46-1.11,2.93-2.22,4.38-3.34l8.9,4.94-4.68,2.98Zm10.6-6.75l-4.66,2.97c-.06-.13-.15-.25-.29-.33l-8.78-4.88c1.33-.97,2.65-1.95,3.98-2.93,3.23,1.75,6.5,3.45,9.75,5.17Z"/><path class="cls-1" d="m105.64,145.15l-9.23,6.56c-.32.24-.4.69-.16,1.02.14.2.36.3.59.3.15,0,.3-.05.43-.14l9.23-6.56c.32-.24.4-.69.16-1.02s-.69-.4-1.01-.16h-.01Z"/><path class="cls-4" d="m107.5,64.42c12.72,8.51,20.42,22.04,18.71,37.52-.28,3.86-2.01,9.35-3,13.11,12.11-8.16,24.09-18.06,29.92-31.77,1.54-3.83,2.39-8.03,1.89-12.07-.32,4.04-1.73,7.81-3.67,11.21-4.89,8.25-12.08,14.92-19.83,20.57,1.73-12.06-1.9-24.81-10.11-33.92-14.62-15.6-40.27-25.62-60.76-30.36,16.01,7.99,32.18,15.55,46.85,25.71Z"/><path class="cls-1" d="m69.24,65.48c-2.95-2.76-6.64-5.18-10.57-6.58-2.34-.83-4.81-1.2-7.29-1.21h-4.8c-1.99.29-4.5.71-5.77,2.45-.77,1.05-.77,1.85.21,2.68,2.15,1.84,7.8.03,11.67-.59,1.21-.19,2.44-.04,3.57.42l15.29,6.29c1.32-.09-2.06-3.25-2.3-3.47h0Z"/><path class="cls-1" d="m52.46,65.81c-6.37-.75-8.28,2.33-7.33,8.34h-5.2c-.64,2.6,3.16,3.65,5.13,4.25,3.51,1.06,7.51,1.22,11.17.94.97-.07,8.14-1.36,8.4-1.71.52-.7-.47-2.02-.85-2.65-2.28-3.79-6.7-8.62-11.33-9.17h.01Zm10.57,10.64s-4.31.22-9.78-.63c-2.54-.4-6.68-1.52-6.68-1.52-.38-4.92,1.33-7.07,6.21-6.51,2.75.32,6.44,3.56,8.22,5.64.29.34,2.29,2.78,2.03,3.02Z"/><path class="cls-2" d="m88.13,4.07C41.78,4.07,4.07,41.78,4.07,88.13c0,32.52,18.58,60.77,45.67,74.74,3.76-2.37,6.46-3.7,10.51-6.43l1.23-.83c9.76-6.6,19.38-13.41,28.54-20.75,8.87-7,17.96-15.38,20.57-26.48,4.43-18.88-4.08-29.2-19.73-37.7-10.43-5.78-21.29-12.36-31.71-18.36-5.4-3.25-10.58-6.69-14.74-11.68-.77-.88-1.43-1.82-2-2.8l-.86-1.67c-2.15-4.92-.6-11.11,3.32-15.46,8.69-9.65,26.99-10.67,33.14-10.55,12.22-.13,24.16,3.38,32.88,12.22-7.28-4.65-15.87-7.99-24.45-8.62-11.04-1.12-23.06-.38-32.9,5.1-4.25,2.37-7.75,6.92-7.4,11.62.17,2.17,1.3,4.35,2.93,6.37,3.46,4.2,8.37,7.49,13.1,10.35,10.16,5.91,21.02,11.06,31.32,16.96,13.79,7.62,26.88,20,25.15,37.2-1.92,22.68-23.64,35.66-40.11,47.96-8.76,6.04-16.4,10.24-25.29,15.26,10.64,4.88,22.45,7.62,34.9,7.62,46.35,0,84.06-37.71,84.06-84.06S134.48,4.07,88.13,4.07Z"/><path class="cls-1" d="m88.13,0C39.46,0,0,39.46,0,88.13s39.46,88.13,88.13,88.13,88.13-39.46,88.13-88.13S136.81,0,88.13,0Zm0,172.19c-12.45,0-24.26-2.74-34.9-7.62-1.11.63-2.23,1.26-3.38,1.92l-1.62-2.66c.52-.34,1.02-.66,1.5-.97C22.65,148.9,4.07,120.65,4.07,88.13,4.07,41.78,41.78,4.07,88.13,4.07s84.06,37.71,84.06,84.06-37.71,84.06-84.06,84.06Z"/><path class="cls-4" d="m118.64,101.37c1.73-17.2-11.36-29.57-25.15-37.2-10.3-5.9-21.15-11.04-31.32-16.96-4.74-2.87-9.64-6.15-13.1-10.35-1.63-2.03-2.77-4.2-2.93-6.37-.36-4.7,3.14-9.25,7.4-11.62,9.83-5.48,21.85-6.22,32.9-5.1,8.58.63,17.17,3.97,24.45,8.62-8.72-8.85-20.65-12.36-32.88-12.22-6.15-.12-24.45.9-33.14,10.55-3.92,4.35-5.48,10.54-3.32,15.46l.86,1.67c.57.98,1.22,1.92,2,2.8,4.16,4.98,9.35,8.42,14.74,11.68,10.43,6,21.29,12.58,31.71,18.36,15.65,8.5,24.16,18.82,19.73,37.7-2.6,11.1-11.69,19.48-20.57,26.48-9.16,7.34-18.78,14.16-28.54,20.75l-1.23.83c-4.05,2.73-6.75,4.06-10.51,6.43,1.15.59,2.32,1.16,3.5,1.7,8.88-5.02,16.52-9.21,25.29-15.26,16.47-12.3,38.19-25.28,40.11-47.96h0Z"/><path class="cls-1" d="m48.23,163.84l1.62,2.66c1.15-.66,2.28-1.29,3.38-1.92-1.18-.54-2.35-1.11-3.5-1.7-.48.3-.98.62-1.5.97h0Z"/></svg>