<?xml version="1.0" encoding="UTF-8"?>
<svg id="Ebene_1" data-name="Ebene 1" xmlns="http://www.w3.org/2000/svg" viewBox="0 0 179.82 53.61">
  <g>
    <path d="m29.76,7.78l-8.79,19.6h-.92L11.25,7.78h1.06l8.23,18.37L28.75,7.78h1.01Z" style="fill: #1d1d1c;"/>
    <path d="m46.78,26.51v.87h-13.24V7.78h12.85v.87h-11.9v8.34h10.64v.87h-10.64v8.65h12.29Z" style="fill: #1d1d1c;"/>
    <path d="m68.29,7.78v19.6h-.78l-13.92-17.86v17.86h-.95V7.78h.78l13.92,17.86V7.78h.95Z" style="fill: #1d1d1c;"/>
    <path d="m89.65,20.12c0,4.31-3.08,7.34-7.11,7.34-2.8,0-5.15-1.51-6.24-3.98v9.32h-.92V12.84h.9v3.98c1.09-2.55,3.42-4.09,6.27-4.09,4.03,0,7.11,3.05,7.11,7.39Zm-.92,0c0-3.86-2.66-6.52-6.22-6.52s-6.22,2.66-6.22,6.52,2.66,6.5,6.22,6.5,6.22-2.63,6.22-6.5Z" style="fill: #1d1d1c;"/>
    <path d="m106.59,20.24h-12.74c.06,3.78,2.77,6.38,6.47,6.38,1.9,0,3.7-.7,4.82-2.16l.59.62c-1.32,1.57-3.28,2.38-5.4,2.38-4.28,0-7.36-3.05-7.36-7.36s2.91-7.36,6.83-7.36,6.8,3,6.8,7.25v.25Zm-12.71-.76h11.84c-.22-3.42-2.66-5.91-5.94-5.91s-5.71,2.49-5.91,5.91Z" style="fill: #1d1d1c;"/>
    <path d="m118.1,12.73v.92h-.25c-3.39,0-5.38,2.27-5.38,5.99v7.73h-.92v-14.53h.9v3.5c.84-2.3,2.8-3.61,5.66-3.61Z" style="fill: #1d1d1c;"/>
    <path d="m123.98,10.38v2.46h4.79v.81h-4.79v13.72h-.92v-13.72h-2.74v-.81h2.74v-2.58c0-2.27,1.34-3.75,3.72-3.75,1.06,0,2.18.31,2.88.98l-.48.7c-.62-.56-1.46-.87-2.35-.87-1.9,0-2.86,1.06-2.86,3.05Z" style="fill: #1d1d1c;"/>
    <path d="m143.8,20.24h-12.74c.06,3.78,2.77,6.38,6.47,6.38,1.9,0,3.7-.7,4.82-2.16l.59.62c-1.32,1.57-3.28,2.38-5.4,2.38-4.28,0-7.36-3.05-7.36-7.36s2.91-7.36,6.83-7.36,6.8,3,6.8,7.25v.25Zm-12.71-.76h11.84c-.22-3.42-2.66-5.91-5.94-5.91s-5.71,2.49-5.91,5.91Z" style="fill: #1d1d1c;"/>
    <path d="m147.1,20.1c0-4.34,3.05-7.36,7.22-7.36,2.18,0,4.14.84,5.38,2.49l-.7.59c-1.09-1.51-2.8-2.21-4.68-2.21-3.61,0-6.3,2.63-6.3,6.5s2.69,6.52,6.3,6.52c1.88,0,3.58-.7,4.68-2.21l.7.56c-1.23,1.65-3.19,2.49-5.38,2.49-4.17,0-7.22-3.02-7.22-7.36Z" style="fill: #1d1d1c;"/>
    <path d="m171.52,26.45c-.7.67-1.85,1.01-2.91,1.01-2.41,0-3.7-1.46-3.7-3.72v-10.08h-2.74v-.81h2.74v-3.19h.92v3.19h4.79v.81h-4.79v9.94c0,1.96.98,3.05,2.86,3.05.9,0,1.74-.31,2.35-.87l.48.67Z" style="fill: #1d1d1c;"/>
  </g>
  <g>
    <path d="m19.86,45.97v1h-6.73v-.78l5.06-6.27h-4.98v-1h6.5v.78l-5.04,6.27h5.19Z" style="fill: #ccbfa3;"/>
    <path d="m27.11,44.29h-4.95c.14,1.07,1,1.78,2.21,1.78.71,0,1.31-.24,1.76-.74l.61.71c-.55.64-1.39.99-2.41.99-1.97,0-3.28-1.3-3.28-3.12s1.3-3.11,3.06-3.11,3.01,1.27,3.01,3.14c0,.09-.01.23-.02.33Zm-4.95-.79h3.91c-.11-1.02-.89-1.75-1.96-1.75s-1.84.71-1.96,1.75Z" style="fill: #ccbfa3;"/>
    <path d="m34.96,43.47v3.51h-1.1v-3.38c0-1.2-.6-1.78-1.65-1.78-1.17,0-1.93.7-1.93,2.02v3.14h-1.1v-6.1h1.06v.92c.45-.62,1.23-.98,2.2-.98,1.48,0,2.53.85,2.53,2.65Z" style="fill: #ccbfa3;"/>
    <path d="m40.95,46.62c-.33.29-.84.43-1.33.43-1.23,0-1.93-.68-1.93-1.91v-3.35h-1.04v-.91h1.04v-1.33h1.1v1.33h1.75v.91h-1.75v3.3c0,.66.34,1.02.96,1.02.32,0,.63-.1.86-.29l.35.79Z" style="fill: #ccbfa3;"/>
    <path d="m46.08,40.82v1.07c-.09-.01-.17-.01-.25-.01-1.19,0-1.92.72-1.92,2.06v3.04h-1.1v-6.1h1.06v1.02c.39-.71,1.15-1.08,2.22-1.08Z" style="fill: #ccbfa3;"/>
    <path d="m53.72,40.88v6.1h-1.05v-.92c-.45.63-1.21.99-2.07.99-1.58,0-2.62-.86-2.62-2.66v-3.51h1.1v3.38c0,1.2.6,1.79,1.65,1.79,1.15,0,1.89-.71,1.89-2.02v-3.15h1.1Z" style="fill: #ccbfa3;"/>
    <path d="m66.46,43.47v3.51h-1.1v-3.38c0-1.2-.58-1.78-1.58-1.78-1.1,0-1.83.7-1.83,2.02v3.14h-1.1v-3.38c0-1.2-.58-1.78-1.58-1.78-1.1,0-1.83.7-1.83,2.02v3.14h-1.1v-6.1h1.06v.91c.44-.62,1.18-.97,2.11-.97s1.71.37,2.12,1.13c.46-.69,1.31-1.13,2.35-1.13,1.48,0,2.5.85,2.5,2.65Z" style="fill: #ccbfa3;"/>
    <path d="m73.87,40.35v.53h1.77v.91h-1.75v5.19h-1.1v-5.19h-1.04v-.91h1.04v-.54c0-1.18.71-1.97,2.01-1.97.47,0,.93.12,1.24.36l-.33.84c-.23-.17-.53-.29-.85-.29-.66,0-.99.37-.99,1.07Z" style="fill: #ccbfa3;"/>
    <path d="m82.88,40.88v6.1h-1.05v-.92c-.45.63-1.21.99-2.07.99-1.58,0-2.62-.86-2.62-2.66v-3.51h1.1v3.38c0,1.2.6,1.79,1.65,1.79,1.15,0,1.89-.71,1.89-2.02v-3.15h1.1Zm-4.52-1.67c0-.35.26-.6.59-.6s.59.25.59.6-.26.59-.59.59-.59-.24-.59-.59Zm2.14,0c0-.35.26-.6.59-.6s.59.25.59.6-.26.59-.59.59-.59-.24-.59-.59Z" style="fill: #ccbfa3;"/>
    <path d="m88.78,40.82v1.07c-.09-.01-.17-.01-.25-.01-1.19,0-1.92.72-1.92,2.06v3.04h-1.1v-6.1h1.06v1.02c.39-.71,1.15-1.08,2.22-1.08Z" style="fill: #ccbfa3;"/>
    <path d="m100.09,42.9h1.1v3.14c-.81.68-1.92,1.02-3.05,1.02-2.47,0-4.29-1.74-4.29-4.12s1.82-4.12,4.31-4.12c1.28,0,2.36.43,3.1,1.24l-.71.71c-.67-.64-1.43-.93-2.33-.93-1.86,0-3.21,1.3-3.21,3.09s1.35,3.09,3.2,3.09c.68,0,1.31-.15,1.89-.52v-2.62Z" style="fill: #ccbfa3;"/>
    <path d="m109.23,44.29h-4.95c.14,1.07,1,1.78,2.21,1.78.71,0,1.31-.24,1.76-.74l.61.71c-.55.64-1.39.99-2.41.99-1.97,0-3.28-1.3-3.28-3.12s1.3-3.11,3.06-3.11,3.01,1.27,3.01,3.14c0,.09-.01.23-.02.33Zm-4.95-.79h3.91c-.11-1.02-.89-1.75-1.96-1.75s-1.84.71-1.96,1.75Z" style="fill: #ccbfa3;"/>
    <path d="m112.54,40.35v.53h1.77v.91h-1.75v5.19h-1.1v-5.19h-1.04v-.91h1.04v-.54c0-1.18.71-1.97,2.01-1.97.47,0,.93.12,1.24.36l-.33.84c-.23-.17-.53-.29-.85-.29-.66,0-.99.37-.99,1.07Z" style="fill: #ccbfa3;"/>
    <path d="m120.59,43.29v3.68h-1.05v-.81c-.37.55-1.05.87-2,.87-1.38,0-2.25-.74-2.25-1.79,0-.98.63-1.78,2.45-1.78h1.75v-.22c0-.93-.54-1.47-1.63-1.47-.72,0-1.46.25-1.93.66l-.46-.83c.63-.51,1.54-.78,2.52-.78,1.67,0,2.61.81,2.61,2.47Zm-1.1,1.82v-.85h-1.7c-1.09,0-1.4.43-1.4.94,0,.61.51.99,1.35.99s1.48-.38,1.76-1.08Zm-3.08-5.9c0-.35.26-.6.59-.6s.59.25.59.6-.26.59-.59.59-.59-.24-.59-.59Zm2.14,0c0-.35.26-.6.59-.6s.59.25.59.6-.26.59-.59.59-.59-.24-.59-.59Z" style="fill: #ccbfa3;"/>
    <path d="m129.39,44.65c0,1.51-1.16,2.39-2.77,2.39-.46,0-.97-.06-1.32-.18l.17-.93c.31.1.62.15,1.1.15,1.04,0,1.71-.52,1.71-1.45s-.74-1.45-1.84-1.45h-.66v-.93c1.15-.01,1.85-.62,1.85-1.55,0-.82-.58-1.36-1.6-1.36-1.1,0-1.78.63-1.78,1.86v5.78h-1.1v-5.68c0-1.93,1.23-2.92,2.89-2.92s2.67.99,2.67,2.28c0,.86-.46,1.5-1.05,1.85,1.01.26,1.73,1.01,1.73,2.15Z" style="fill: #ccbfa3;"/>
    <path d="m141.57,43.47v3.51h-1.1v-3.38c0-1.2-.58-1.78-1.58-1.78-1.1,0-1.83.7-1.83,2.02v3.14h-1.1v-3.38c0-1.2-.58-1.78-1.58-1.78-1.1,0-1.83.7-1.83,2.02v3.14h-1.1v-6.1h1.06v.91c.44-.62,1.18-.97,2.11-.97s1.71.37,2.12,1.13c.46-.69,1.31-1.13,2.35-1.13,1.48,0,2.5.85,2.5,2.65Z" style="fill: #ccbfa3;"/>
    <path d="m149.64,44.29h-4.95c.14,1.07,1,1.78,2.21,1.78.71,0,1.31-.24,1.76-.74l.61.71c-.55.64-1.39.99-2.41.99-1.97,0-3.28-1.3-3.28-3.12s1.3-3.11,3.06-3.11,3.01,1.27,3.01,3.14c0,.09-.01.23-.02.33Zm-4.95-.79h3.91c-.11-1.02-.89-1.75-1.96-1.75s-1.84.71-1.96,1.75Z" style="fill: #ccbfa3;"/>
    <path d="m157.46,38.44v8.54h-1.06v-.97c-.5.69-1.28,1.04-2.17,1.04-1.78,0-3.08-1.25-3.08-3.12s1.3-3.11,3.08-3.11c.86,0,1.62.32,2.13.98v-3.36h1.1Zm-1.09,5.49c0-1.3-.89-2.14-2.05-2.14s-2.06.84-2.06,2.14.89,2.15,2.06,2.15,2.05-.85,2.05-2.15Z" style="fill: #ccbfa3;"/>
    <path d="m159.87,38.99c0-.4.32-.73.75-.73s.75.31.75.7c0,.41-.31.74-.75.74s-.75-.31-.75-.71Zm.2,1.89h1.1v6.1h-1.1v-6.1Z" style="fill: #ccbfa3;"/>
    <path d="m168.32,46.07v.91h-5.11v-.71l3.6-4.48h-3.53v-.91h4.95v.72l-3.6,4.46h3.69Z" style="fill: #ccbfa3;"/>
    <path d="m170.11,38.99c0-.4.32-.73.75-.73s.75.31.75.7c0,.41-.31.74-.75.74s-.75-.31-.75-.71Zm.2,1.89h1.1v6.1h-1.1v-6.1Z" style="fill: #ccbfa3;"/>
    <path d="m179.82,43.47v3.51h-1.1v-3.38c0-1.2-.6-1.78-1.65-1.78-1.17,0-1.93.7-1.93,2.02v3.14h-1.1v-6.1h1.06v.92c.45-.62,1.23-.98,2.2-.98,1.48,0,2.53.85,2.53,2.65Z" style="fill: #ccbfa3;"/>
  </g>
  <line x1="1" y1="1" x2="1" y2="52.61" style="fill: none; stroke: #ccbfa3; stroke-linecap: square; stroke-miterlimit: 10; stroke-width: 2px;"/>
</svg>