<?xml version="1.0" encoding="utf-8"?>
<!-- Generator: Adobe Illustrator 25.2.1, SVG Export Plug-In . SVG Version: 6.00 Build 0)  -->
<svg version="1.1" id="Ebene_1" xmlns="http://www.w3.org/2000/svg" xmlns:xlink="http://www.w3.org/1999/xlink" x="0px" y="0px"
	 viewBox="0 0 463.5 99.4" style="enable-background:new 0 0 463.5 99.4;" xml:space="preserve">
<style type="text/css">
	.st0{fill:#646464;}
	.st1{fill:#FF6F15;}
</style>
<g>
	<path class="st0" d="M461.8,69.1h-20.2v3h15.1l-16.4,24.4v0.9h21.1v-3h-16.2l16.6-24.5V69.1z M438.9,69.1h-19.6v3h8.1v25.3h3.3
		V72.1h8.2V69.1z M403.3,86.5l4.4-12c0.2-0.5,0.3-1.1,0.5-1.9h0.1c0.1,0.9,0.3,1.5,0.4,1.9l4.4,12H403.3z M410,69.1h-3.4l-10.8,28.3
		h3.7l2.8-7.9h12l3,7.9h3.7L410,69.1z M393.5,94.4h-11.4V69.1h-3.3v28.3h14.7V94.4z M363.4,72.1c4.4,0,6.6,1.9,6.6,5.6
		c0,1.9-0.6,3.4-1.8,4.4c-1.2,1-2.9,1.6-5.2,1.6h-3.5V72.1H363.4z M363.2,86.7c3.1,0,5.6-0.9,7.5-2.6c1.8-1.7,2.8-3.9,2.8-6.6
		c0-2.7-0.8-4.8-2.5-6.2c-1.7-1.5-4-2.2-7-2.2h-7.8v28.3h3.3V86.7H363.2z M351.8,69.1h-19.6v3h8.1v25.3h3.3V72.1h8.2V69.1z
		 M318.3,82.7l12.1-13.6h-4.1l-10.6,12.3c-0.3,0.4-0.6,0.7-0.8,1h-0.1V69.1h-3.3v28.3h3.3V83.5h0.1c0.1,0.2,0.3,0.5,0.8,1l10.9,12.9
		h4.6L318.3,82.7z M295.3,72.1c1.9,0,3.3,0.4,4.2,1.3c1,0.8,1.5,2,1.5,3.5c0,0.8-0.1,1.6-0.4,2.3c-0.3,0.7-0.7,1.2-1.2,1.7
		c-0.5,0.5-1.1,0.8-1.8,1.1c-0.7,0.2-1.5,0.4-2.3,0.4h-4.5V72.1H295.3z M302.4,88.9c-0.4-0.6-0.7-1.2-1-1.6
		c-0.3-0.5-0.6-0.9-0.9-1.3c-0.3-0.4-0.6-0.7-1-1c-0.3-0.3-0.8-0.5-1.2-0.7v-0.1c1-0.2,1.8-0.6,2.6-1.1c0.8-0.5,1.4-1,2-1.6
		c0.5-0.6,1-1.4,1.3-2.2c0.3-0.8,0.4-1.7,0.4-2.7c0-1.3-0.2-2.4-0.7-3.3c-0.4-0.9-1-1.7-1.8-2.4c-0.8-0.6-1.7-1.1-2.7-1.4
		c-1-0.3-2.2-0.5-3.4-0.5h-8.4v28.3h3.3v-12h2.7c0.6,0,1.2,0.1,1.7,0.2c0.5,0.2,1,0.4,1.4,0.7c0.4,0.3,0.8,0.8,1.3,1.3
		c0.4,0.5,0.8,1.1,1.3,1.9l4.7,7.9h3.9L302.4,88.9z M265.7,86.5l4.4-12c0.2-0.5,0.3-1.1,0.5-1.9h0.1c0.1,0.9,0.3,1.5,0.4,1.9l4.4,12
		H265.7z M272.4,69.1H269l-10.8,28.3h3.7l2.8-7.9h12l3,7.9h3.7L272.4,69.1z M254,69.1h-4.1L241,88.7c-0.3,0.8-0.8,1.9-1.4,3.5h-0.1
		c-0.2-0.7-0.6-1.9-1.3-3.4l-8.7-19.7h-4.4v28.3h3.2V78.4c0-2.6-0.1-4.4-0.2-5.5h0.1c0.3,1.3,0.6,2.3,0.8,2.9l9.6,21.6h1.6l9.7-21.7
		c0.2-0.6,0.5-1.5,0.8-2.7h0.1c-0.2,2.2-0.3,4-0.3,5.5v19h3.3V69.1z M205.8,69.1h-4.1l-8.9,19.6c-0.3,0.8-0.8,1.9-1.4,3.5h-0.1
		c-0.2-0.7-0.6-1.9-1.3-3.4l-8.7-19.7H177v28.3h3.2V78.4c0-2.6-0.1-4.4-0.2-5.5h0.1c0.3,1.3,0.6,2.3,0.8,2.9l9.6,21.6h1.6l9.7-21.7
		c0.2-0.6,0.5-1.5,0.8-2.7h0.1c-0.2,2.2-0.3,4-0.3,5.5v19h3.3V69.1z M155.3,86.5l4.4-12c0.2-0.5,0.3-1.1,0.5-1.9h0.1
		c0.1,0.9,0.3,1.5,0.4,1.9l4.4,12H155.3z M161.9,69.1h-3.4l-10.8,28.3h3.7l2.8-7.9h12l3,7.9h3.7L161.9,69.1z"/>
	<path class="st0" d="M462,48.1h-17.3V33.4h15.1V29h-15.1V15h16.4v-4.4h-21.3v41.9H462V48.1z M433.3,10.6h-29.1V15h12.1v37.5h4.9V15
		h12.1V10.6z M400.6,10.6h-29.9V15h22.4l-24.3,36.1v1.4H400v-4.4h-24l24.5-36.3V10.6z M349.1,15c2.7,0,4.8,0.6,6.3,1.9
		c1.5,1.3,2.2,3,2.2,5.2c0,1.2-0.2,2.4-0.6,3.4c-0.4,1-1,1.9-1.8,2.5c-0.8,0.7-1.7,1.2-2.7,1.6c-1,0.4-2.2,0.6-3.4,0.6h-6.7V15
		H349.1z M359.7,39.9c-0.6-0.9-1.1-1.7-1.5-2.4c-0.5-0.7-0.9-1.3-1.4-1.9c-0.5-0.5-1-1-1.5-1.4c-0.5-0.4-1.1-0.8-1.8-1.1V33
		c1.4-0.4,2.7-0.9,3.8-1.6c1.1-0.7,2.1-1.5,2.9-2.4c0.8-1,1.4-2,1.9-3.3c0.4-1.2,0.7-2.6,0.7-4c0-1.9-0.3-3.5-1-4.9
		c-0.6-1.4-1.5-2.6-2.7-3.5c-1.1-0.9-2.5-1.6-4-2.1c-1.5-0.5-3.2-0.7-5.1-0.7h-12.5v41.9h4.9V34.7h4c0.9,0,1.7,0.1,2.5,0.3
		c0.7,0.2,1.4,0.6,2,1.1c0.6,0.5,1.3,1.1,1.9,1.9c0.6,0.8,1.2,1.7,1.9,2.8l7,11.7h5.8L359.7,39.9z M308.8,5.9c0.6-0.6,0.8-1.2,0.8-2
		c0-0.8-0.3-1.5-0.9-2c-0.6-0.6-1.3-0.8-2.1-0.8c-0.8,0-1.5,0.3-2,0.8c-0.6,0.5-0.8,1.2-0.8,2c0,0.8,0.3,1.5,0.9,2
		c0.6,0.6,1.3,0.9,2.1,0.9C307.5,6.8,308.2,6.5,308.8,5.9 M320,5.9c0.5-0.6,0.8-1.2,0.8-2c0-0.8-0.3-1.5-0.8-2
		c-0.6-0.6-1.3-0.8-2.1-0.8c-0.8,0-1.4,0.3-2,0.8c-0.5,0.5-0.8,1.2-0.8,2c0,0.8,0.3,1.5,0.8,2.1c0.6,0.5,1.2,0.8,2,0.8
		C318.8,6.8,319.5,6.5,320,5.9 M305.3,36.3l6.5-17.9c0.3-0.7,0.5-1.6,0.7-2.8h0.1c0.2,1.3,0.4,2.2,0.6,2.8l6.6,17.9H305.3z
		 M315.2,10.6h-5.1l-16.1,41.9h5.5l4.2-11.7h17.8l4.4,11.7h5.4L315.2,10.6z M296.9,10.6h-29.1V15h12.1v37.5h4.9V15h12.1V10.6z
		 M261.6,10.6h-4.9v25.7c0,8.3-3.5,12.4-10.5,12.4c-7.2,0-10.9-4.3-10.9-12.9V10.6h-4.9v25.6c0,11.3,5.1,17,15.3,17
		c10.6,0,15.9-5.9,15.9-17.6V10.6z M199.6,36.3l6.5-17.9c0.3-0.7,0.5-1.6,0.7-2.8h0.1c0.2,1.3,0.4,2.2,0.6,2.8l6.6,17.9H199.6z
		 M209.5,10.6h-5.1l-16.1,41.9h5.5l4.2-11.7h17.8l4.4,11.7h5.4L209.5,10.6z M182.2,10.6h-4.9V29h-21.7V10.6h-4.9v41.9h4.9V33.4h21.7
		v19.1h4.9V10.6z"/>
	<path class="st0" d="M18.7,59.6l-2-8l2.6-0.3l-2.2-9.1c0,0-0.6-9.8,3.5-11.4c-0.3-0.1-0.7-0.2-1-0.2c0,0,0,0,0,0
		c-0.2,0-0.3,0-0.5,0c-0.1,0-0.2,0-0.3,0c-0.1,0-0.2,0-0.4,0c-0.3,0-0.5,0.1-0.8,0.1v-9.1h-1l0,0l0,9.2c-5.1,1-4.6,12.5-4.6,12.5
		l-0.1,55.1h3.8l0.9-15.1c0,0,1.8-15.4,5.3-23.1L18.7,59.6z M36.7,58.2l-2.6-8.7l2.7-0.3l-2.2-10.1c0,0-0.5-9.9,5.5-11.8
		c-1-0.5-2.2-0.7-3.7-0.4l0-9.7h-1.1c0,0,0,0.1,0,0.2c0,0.2,0,0.4,0,0.7c0,0.1,0,0.2,0,0.3c0,0.2,0,0.4,0,0.7c0,0.2,0,0.5,0,0.8
		c0,0.1,0,0.3,0,0.4c0,1.2,0,2.6,0,3.8c0,0.1,0,0.1,0,0.2c0,0.2,0,0.4,0,0.6v0c0,0.2,0,0.4,0,0.6v0c0,0.4,0,0.7,0,1c0,0,0,0.1,0,0.1
		c0,0.2,0,0.3,0,0.4c0,0,0,0,0,0c0,0,0,0.1,0,0.1c0,0,0,0,0,0c-0.2,0-0.4,0.1-0.5,0.1c0,0,0,0-0.1,0c-0.1,0-0.1,0.1-0.2,0.1
		c-0.1,0-0.2,0.1-0.4,0.1c0,0,0,0,0,0c-0.1,0-0.1,0.1-0.2,0.1c-0.1,0.1-0.2,0.1-0.3,0.2c-0.1,0-0.1,0.1-0.2,0.1
		c-0.1,0.1-0.2,0.1-0.3,0.2c-0.1,0-0.1,0.1-0.2,0.2c-0.1,0.1-0.2,0.1-0.3,0.2c-0.1,0.1-0.1,0.1-0.2,0.2c-0.1,0.1-0.2,0.1-0.3,0.2
		c-0.1,0.1-0.1,0.1-0.2,0.2c-0.1,0.1-0.2,0.2-0.2,0.2c-0.1,0.1-0.1,0.1-0.2,0.2c-0.1,0.1-0.1,0.2-0.2,0.3c-0.1,0.1-0.1,0.1-0.2,0.2
		c0,0,0,0.1-0.1,0.1c0,0.1-0.1,0.1-0.1,0.2c0,0.1-0.1,0.1-0.1,0.2c0,0,0,0,0,0.1c0,0.1-0.1,0.1-0.1,0.2c0,0.1-0.1,0.1-0.1,0.2
		c-0.1,0.1-0.1,0.2-0.2,0.3c0,0.1-0.1,0.2-0.1,0.2c0,0.1-0.1,0.1-0.1,0.2c0,0,0,0.1,0,0.1c0,0.1-0.1,0.2-0.1,0.2
		c0,0.1-0.1,0.1-0.1,0.2c0,0,0,0.1-0.1,0.1c0,0.1-0.1,0.2-0.1,0.2c0,0.1-0.1,0.2-0.1,0.3c0,0.1-0.1,0.2-0.1,0.2
		c0,0.1-0.1,0.2-0.1,0.3c0,0.1,0,0.1-0.1,0.2c0,0,0,0.1,0,0.1c0,0.1,0,0.2-0.1,0.2c0,0.1,0,0.1-0.1,0.2c0,0.1-0.1,0.2-0.1,0.3
		c0,0.1,0,0.1-0.1,0.2c0,0,0,0.1,0,0.1c0,0.1,0,0.2-0.1,0.3c0,0.1,0,0.1,0,0.2c0,0.1,0,0.2-0.1,0.3c0,0.1,0,0.1,0,0.2
		c0,0.1,0,0.2-0.1,0.3c0,0,0,0,0,0.1c0,0.1,0,0.1,0,0.2c0,0,0,0.1,0,0.1c0,0.1,0,0.1,0,0.2c0,0.1,0,0.1,0,0.2c0,0.1,0,0.2,0,0.3
		c0,0,0,0.1,0,0.1c0,0,0,0.1,0,0.1c0,0.1,0,0.2,0,0.2c0,0,0,0.1,0,0.1c0,0.1,0,0.2,0,0.3c0,0,0,0.1,0,0.1c0,0.1,0,0.2,0,0.3
		c0,0,0,0,0,0.1c0,0,0,0,0,0c0,0.1,0,0.2,0,0.3c0,0,0,0,0,0c0,0.1,0,0.3,0,0.4c0,0,0,0.1,0,0.1c0,0.1,0,0.2,0,0.3c0,0,0,0,0,0
		c0,0,0,0.1,0,0.1c0,0,0,0,0,0.1c0,0,0,0,0,0c0,0,0,0,0,0c0,0,0,0,0,0v0v58.5h4.8l0.8-15c0,0,2.4-16.2,7.9-25L36.7,58.2L36.7,58.2z
		 M57.7,56.6L57.7,56.6L57.7,56.6l-2.5-9.3l0,0L55.1,47l2.9-0.3l-2.4-10.9c0,0-1-11.6,5.3-12.4c-0.1,0-0.2-0.1-0.2-0.1
		c-1-0.5-2.1-0.7-3.5-0.5l0-10.4l-1.4,0v2l0,8.6c0,0,0,0,0,0v0c0,0,0,0,0,0c-7.4,1.7-7.3,13.7-7.3,13.7v61.6h5.8l0.5-14.9
		c0,0,0-15.7,6.2-26.7L57.7,56.6z M111.7,98.3v-63c-0.1-1.7-0.3-3.2-0.6-4.5c0-0.1,0-0.2-0.1-0.2c0,0,0,0,0-0.1
		c-2.6-9.7-11.2-10.6-13.6-10.7l0-10.7c0-0.2,0-0.3,0-0.3l-1.5,2.5l0,0.1l0,8.5c-5.8,0-9.3,2.8-11.5,6c3.1-3.6,7.9-4.4,10.1-4.5
		c0,0,0.8-0.9,1.2-1.3l0,1.2l1.2,0.1c10.6,1,10.8,14.5,10.8,14.5c-0.5,5.6-0.8,7.9-0.9,8.5l2.7,0h0v0h0l-1.6,10.5h0h0l-2.1,0.3
		c1.7,5.3,3,30,2.9,29.1c0,0.9,0.4,14,0.4,14h0c0-2.8-0.1-5.4-0.2-8c0.1,2.5,0.1,5.2,0.2,8H111.7z"/>
	<path class="st1" d="M16.5,30.8l0-9.2L1.5,25v8.7c7-1.4,6.6,9.3,6.6,9.3v9.6l-6.6,0.8l0,7.5l6.6,0.1v37.2h3.7l0.1-55.1
		C11.9,43.2,11.4,31.7,16.5,30.8 M35.3,27c0,0,0-9.9,0-9.9l-17.8,4.2v9.3c7.9-1.5,7.3,9.8,7.3,9.8l0,10.2l-5.5,0.7l0,0l-2.6,0.3l2,8
		v0l0,0l3.1,0.5l3-0.3l0,38.5h3.5V39.9C28.3,39.9,28.2,28.5,35.3,27 M55.6,23l0-10.7l-19.3,4.5l0,10c7.8-1.5,8.2,10.5,8.2,10.5v10.9
		l-7.7,0.9l0,0l-2.7,0.3l2.6,8.7l0,0l5.1,0.2c0,0,0,0,0,0l2.8-0.2v40.2h3.7V36.7C48.3,36.7,48.2,24.7,55.6,23 M95.9,19.8l0-11H70.7
		L57,12l0,10.7c7.9-1.3,8,11.5,8,11.5v11.6l-10,1.1l2.6,9.6l0,0l0,0h0l3.1,0.2l4.3-0.4v42h5h2.8h5.4h2.9V55.3l24.7-0.1l2.1-0.3h0
		l1.6-10.5l-28.5-0.2v-9.4C81.1,34.8,82.4,19.9,95.9,19.8 M136.2,20V8.8h-20.5H97.4l0,11c2.7,0.1,13.6,1.3,14.3,15.5v63h-2.6
		c0-2.8-0.1-5.4-0.2-8c0.1,2.5,0.1,5.2,0.2,8h12.2l0-63.5c0,0,0-12.5,12.9-13.5C134.3,21.4,136.2,20,136.2,20"/>
</g>
</svg>
