<?xml version="1.0" encoding="utf-8"?>
<!-- Generator: Adobe Illustrator 19.0.0, SVG Export Plug-In . SVG Version: 6.00 Build 0)  -->
<svg version="1.2" baseProfile="tiny" id="logo_1_" xmlns="http://www.w3.org/2000/svg" xmlns:xlink="http://www.w3.org/1999/xlink"
	 x="0px" y="0px" viewBox="0 0 256 120" xml:space="preserve">
<path id="Form_1" fill-rule="evenodd" fill="#8D9BC5" d="M62,0C62,0,4.7,49.2,0,120c11.4,0,15.9,0,28,0C33.5,47.4,75,11,75,11L62,0z
	"/>
<path id="Form_2" fill-rule="evenodd" fill="#273696" d="M97,27c0,0-40.7,31.7-51,93c1.9,0,1.6,0,5,0c8-59.8,47-91,47-91L97,27z"/>
<g>
	<path fill="#273696" d="M86.1,92.7l0.1,0.3l0.1-0.3L91,79.6h1.4l-5.6,14.9h-1.2L80,79.6h1.4L86.1,92.7z"/>
	<path fill="#273696" d="M103.8,87.4h-7v6.1h8v1.1h-9.3V79.6h9.2v1.1h-8v5.6h7V87.4z"/>
	<path fill="#273696" d="M119.7,94.5h-1.3l-8.6-12.8v12.8h-1.3V79.6h1.3l8.6,12.8V79.6h1.3V94.5z"/>
	<path fill="#273696" d="M132.8,87.4h-7v6.1h8v1.1h-9.3V79.6h9.2v1.1h-8v5.6h7V87.4z"/>
	<path fill="#273696" d="M148.7,94.5h-1.3l-8.6-12.8v12.8h-1.3V79.6h1.3l8.6,12.8V79.6h1.3V94.5z"/>
	<path fill="#273696" d="M164.1,89.9c-0.2,1.6-0.7,2.8-1.7,3.6s-2.2,1.3-3.8,1.3c-1.1,0-2.1-0.3-2.9-0.8c-0.8-0.6-1.5-1.3-2-2.4
		c-0.5-1-0.7-2.2-0.7-3.5v-1.9c0-1.3,0.2-2.5,0.7-3.5s1.1-1.8,2-2.4c0.9-0.6,1.9-0.8,3-0.8c1.6,0,2.9,0.4,3.8,1.3
		c0.9,0.9,1.5,2.1,1.6,3.6h-1.3c-0.3-2.5-1.7-3.8-4.1-3.8c-1.4,0-2.4,0.5-3.2,1.5c-0.8,1-1.2,2.4-1.2,4.2V88c0,1.7,0.4,3.1,1.2,4.1
		c0.8,1,1.8,1.5,3.2,1.5c1.3,0,2.3-0.3,3-0.9c0.7-0.6,1.1-1.6,1.2-2.8H164.1z"/>
	<path fill="#273696" d="M176.4,87.4h-7v6.1h8v1.1h-9.3V79.6h9.2v1.1h-8v5.6h7V87.4z"/>
	<path fill="#273696" d="M192.3,94.5H191l-8.6-12.8v12.8h-1.3V79.6h1.3l8.6,12.8V79.6h1.3V94.5z"/>
	<path fill="#273696" d="M207,80.7h-5.1v13.9h-1.3V80.7h-5.1v-1.1H207V80.7z"/>
	<path fill="#273696" d="M216,88.3h-4.3v6.2h-1.3V79.6h4.9c1.6,0,2.8,0.4,3.7,1.2s1.3,1.9,1.3,3.2c0,1-0.3,1.8-0.8,2.5
		s-1.3,1.2-2.3,1.5l3.7,6.4v0.1h-1.3L216,88.3z M211.7,87.3h3.9c1.1,0,1.9-0.3,2.6-0.9s1-1.4,1-2.3c0-1.1-0.3-1.9-1-2.5
		s-1.6-0.9-2.8-0.9h-3.6V87.3z"/>
	<path fill="#273696" d="M235.1,79.6v10.2c0,1-0.2,1.9-0.7,2.6s-1.1,1.3-1.9,1.7c-0.8,0.4-1.7,0.6-2.7,0.6c-1.6,0-2.8-0.4-3.8-1.3
		c-0.9-0.9-1.4-2-1.5-3.6V79.6h1.3v10.1c0,1.3,0.4,2.2,1.1,2.9c0.7,0.7,1.7,1,2.9,1s2.2-0.3,2.9-1s1.1-1.7,1.1-2.9V79.6H235.1z"/>
	<path fill="#273696" d="M241.3,79.6l5.5,13.2l5.5-13.2h1.7v14.9h-1.3V88l0.1-6.7l-5.6,13.2h-1l-5.5-13.1l0.1,6.6v6.5h-1.3V79.6
		H241.3z"/>
	<path fill="#273696" d="M82.9,113.7v6.1h-1.3v-14.9h5.1c1.6,0,2.8,0.4,3.7,1.2s1.3,1.9,1.3,3.3c0,1.4-0.4,2.5-1.3,3.2
		c-0.9,0.8-2.1,1.1-3.8,1.1H82.9z M82.9,112.6h3.8c1.2,0,2.2-0.3,2.8-0.9s1-1.4,1-2.4c0-1-0.3-1.9-1-2.5c-0.6-0.6-1.5-0.9-2.7-0.9
		h-3.9V112.6z"/>
	<path fill="#273696" d="M103.8,112.8h-7v7h-1.3v-14.9h9.2v1.1h-8v5.8h7V112.8z"/>
	<path fill="#273696" d="M119.5,113.1c0,1.4-0.2,2.6-0.7,3.6s-1.2,1.8-2,2.4s-1.9,0.8-3.1,0.8c-1.7,0-3.2-0.6-4.2-1.9
		c-1.1-1.2-1.6-2.9-1.6-5.1v-1.5c0-1.4,0.2-2.6,0.7-3.6c0.5-1,1.2-1.9,2-2.4c0.9-0.6,1.9-0.8,3-0.8s2.2,0.3,3,0.8
		c0.9,0.6,1.6,1.3,2,2.3s0.7,2.2,0.7,3.5V113.1z M118.2,111.5c0-1.8-0.4-3.2-1.2-4.2c-0.8-1-1.9-1.5-3.3-1.5c-1.4,0-2.5,0.5-3.3,1.5
		c-0.8,1-1.2,2.4-1.2,4.3v1.6c0,1.8,0.4,3.2,1.2,4.2c0.8,1,1.9,1.6,3.3,1.6c1.4,0,2.5-0.5,3.3-1.5c0.8-1,1.2-2.4,1.2-4.3V111.5z"/>
	<path fill="#273696" d="M129.3,113.5h-4.3v6.2h-1.3v-14.9h4.9c1.6,0,2.8,0.4,3.7,1.2s1.3,1.9,1.3,3.2c0,1-0.3,1.8-0.8,2.5
		s-1.3,1.2-2.3,1.5l3.7,6.4v0.1h-1.3L129.3,113.5z M124.9,112.5h3.9c1.1,0,1.9-0.3,2.6-0.9s1-1.4,1-2.3c0-1.1-0.3-1.9-1-2.5
		s-1.6-0.9-2.8-0.9h-3.6V112.5z"/>
	<path fill="#273696" d="M138.6,118.7h9.2v1.1h-10.7v-1l8.9-12.9h-8.6v-1.1h10.2v0.9L138.6,118.7z"/>
	<path fill="#273696" d="M162.8,119.7h-1.3v-7.2H153v7.2h-1.3v-14.9h1.3v6.7h8.5v-6.7h1.3V119.7z"/>
	<path fill="#273696" d="M175.8,112.6h-7v6.1h8v1.1h-9.3v-14.9h9.2v1.1h-8v5.6h7V112.6z"/>
	<path fill="#273696" d="M182.1,119.7h-1.3v-14.9h1.3V119.7z"/>
	<path fill="#273696" d="M188.9,104.8l5.5,13.2l5.5-13.2h1.7v14.9h-1.3v-6.5l0.1-6.7l-5.6,13.2h-1l-5.5-13.1l0.1,6.6v6.5h-1.3v-14.9
		H188.9z"/>
</g>
</svg>
