<svg id="a" xmlns="http://www.w3.org/2000/svg" width="28" height="70"><defs><style>.d{fill:#e60050}</style></defs><path d="M6.02 60.12c.09.15.17.3.27.45 1.67 2.7 4.94 3.25 7.57 3.04V59c-2.33.64-4.68.97-6.74 1.09-.35.02-.72.03-1.1.03z" fill="none"/><path d="M13.87 66.55v2.52c0 .52.41.94.92.94s.92-.42.92-.94v-2.83c-.63.15-1.24.25-1.83.32zm0-33.39c.58.15 1.19.25 1.8.27h.03v-5.48h-.03v-1.62l.03-.02v-2.12c-.64.08-1.27.14-1.83.19v8.79zm.07-17.76s-.04.02-.07.03v5.12c.57-.02 1.2-.06 1.83-.11v-5.58c-.56.13-1.15.3-1.76.54zm-.07 24.32c.42-.04.79-.07 1.04-.07.28 0 .53 0 .79.01v-2.99c-.52-.02-1.02-.06-1.47-.12-.12-.02-.24-.05-.36-.07v3.24zM8.16 4.88c3.77 2.57 5.71 2.34 5.71 2.34v6.95c.65-.19 1.26-.33 1.83-.43V7.21s1.94.23 5.71-2.34H8.16zm5.71 58.73c.58-.05 1.12-.13 1.61-.23.06-.01.13-.03.22-.05v-4.9c-.61.21-1.22.4-1.83.57v4.61zm0-19.37v13.44c.52-.18 1.08-.38 1.68-.62.05-.02.1-.04.15-.07V42.27c-.07-.01-.13-.03-.2-.04-.34-.07-.95-.08-1.64-.06v2.06z"/><path d="M18.72 1.23c-5.09-.96-10.63.38-11.94.85-1.31.46-1.83 1.07-1.31 1.11.52.04 1.38.07 1.63.04.24-.04.49-.23 1-.38.52-.15 5.22-1.07 8.69-.61 4.37.58 9.42 3.07 9.42 8.89s-5.22 8.32-7.79 8.93c-.79.19-1.75.31-2.71.39-.63.05-1.26.09-1.83.11-1.4.05-2.48.04-2.48.04v3.91s1.05-.01 2.48-.13c.56-.04 1.19-.11 1.83-.19 1.64-.21 3.42-.56 4.69-1.14 3.44-1.57 7.61-5.37 7.61-11.39s-4.2-9.47-9.29-10.43zM.33 59.28c-.43.14-.56.35.34.49.36.06 1.11.14 2.02.21-.06-.25-.1-.51-.14-.77-1.16 0-2.03.01-2.22.07zm26.03-13.5c-.75-2.43-3.18-5.97-10.66-6.11-.26 0-.52-.02-.79-.01-.25 0-.62.03-1.04.07-1.15.11-2.7.32-3.3.34v2.22c.75.01 2.14-.09 3.3-.12.69-.02 1.29-.01 1.64.06.06.01.13.03.2.04 3.1.67 7.19 2.61 6.9 6.33-.29 3.74-3.28 6.91-6.9 8.39-.05.02-.1.05-.15.07-.6.24-1.16.44-1.68.62-2.5.86-4.19 1.12-6.15 1.33-.69.07-1.45.12-2.21.15.14.32.32.64.51.96.38 0 .76 0 1.1-.03 2.07-.12 4.41-.45 6.74-1.09.61-.17 1.22-.36 1.83-.57 1.81-.64 3.57-1.48 5.15-2.59 4.1-2.89 6.49-6.88 5.51-10.06z" fill="#008cd2"/><path d="M13.87 44.23v-.62.63-.01zm1.83 19.1c-.08.02-.16.04-.22.05-.49.11-1.04.19-1.61.23-2.64.21-5.9-.34-7.57-3.04-.1-.15-.18-.3-.27-.45-.19-.32-.36-.64-.51-.96-3.74-8.2 7.91-14.52 8.14-14.77.08-.05.15-.1.21-.15v-.63c-.12.01-.26.04-.4.07-.77.2-8.78 3.68-10.35 10.02-.66 1.82-.83 3.74-.57 5.51.04.26.09.51.14.77.39 1.71 1.2 3.23 2.43 4.3 1.63 1.43 4.62 2.74 8.75 2.27.59-.07 1.2-.17 1.83-.32.62-.14 1.26-.32 1.93-.54.71-.35 2.39-.95 2.99-1.27v-2.54c-.85.38-3.84 1.2-4.92 1.46z" fill="#ffdc0f"/><path class="d" d="M23.45 25.61c-4.01-1.57-7.48.52-7.76.69v1.64c.28-.13 4.46-1.97 6.69-.48 2.3 1.54 1.36 6.03-6.69 5.97h-.03c-.62-.02-1.22-.12-1.8-.27-7.11-1.82-11.34-12.48 0-17.73a12.488 12.488 0 011.83-.57c2.42-.55 4.26-.2 4.81-.13v-1.02c-.48-.11-2.25-.42-4.81.02-.57.1-1.18.24-1.83.43-.71.21-1.47.47-2.26.81-5.21 2.34-8.74 7.22-7.27 13.06 1.19 4.7 5.06 7.59 9.53 8.45.12.02.24.05.36.07.45.06.95.11 1.47.12 3.65.11 8.67-1.05 10.18-5.39 1.33-3.83-1.46-5.3-2.42-5.68z"/><path class="d" d="M15.67 27.96h.03v-1.65l-.03.02v1.64z"/></svg>