<svg xmlns="http://www.w3.org/2000/svg" viewBox="0 0 640 400">
  <defs>
    <linearGradient id="sky114" x1="0" y1="0" x2="0" y2="1">
      <stop offset="0%" stop-color="#87CEEB"/>
      <stop offset="100%" stop-color="#C9E8F5"/>
    </linearGradient>
    <linearGradient id="road114" x1="0" y1="0" x2="0" y2="1">
      <stop offset="0%" stop-color="#888"/>
      <stop offset="100%" stop-color="#666"/>
    </linearGradient>
  </defs>
  <rect width="640" height="400" fill="url(#sky114)"/>
  <rect x="0" y="300" width="640" height="100" fill="url(#road114)"/>
  <rect x="0" y="295" width="640" height="10" fill="#aaa"/>
  <!-- Building -->
  <rect x="160" y="120" width="320" height="180" fill="#003366" opacity="0.15"/>
  <rect x="160" y="120" width="320" height="180" fill="none" stroke="#003366" stroke-width="2" opacity="0.4"/>
  <!-- Windows -->
  <rect x="200" y="150" width="50" height="40" rx="2" fill="white" opacity="0.6"/>
  <rect x="295" y="150" width="50" height="40" rx="2" fill="white" opacity="0.6"/>
  <rect x="390" y="150" width="50" height="40" rx="2" fill="white" opacity="0.6"/>
  <rect x="200" y="220" width="50" height="40" rx="2" fill="white" opacity="0.6"/>
  <rect x="295" y="220" width="50" height="40" rx="2" fill="white" opacity="0.6"/>
  <rect x="390" y="220" width="50" height="40" rx="2" fill="white" opacity="0.6"/>
  <!-- Door -->
  <rect x="296" y="250" width="48" height="50" rx="2" fill="white" opacity="0.4"/>
  <!-- Sign -->
  <rect x="200" y="130" width="240" height="18" rx="2" fill="#003366" opacity="0.7"/>
  <text x="320" y="143" text-anchor="middle" font-family="Arial,sans-serif" font-size="10" fill="white" font-weight="600">Praxis PHBi · Bielefeld</text>
  <!-- Road markings -->
  <rect x="300" y="310" width="40" height="8" rx="1" fill="white" opacity="0.5"/>
  <rect x="400" y="310" width="40" height="8" rx="1" fill="white" opacity="0.5"/>
</svg>