<?xml version="1.0" encoding="utf-8"?>
<!-- Generator: Adobe Illustrator 27.0.1, SVG Export Plug-In . SVG Version: 6.00 Build 0)  -->
<svg version="1.1" id="Ebene_1" xmlns="http://www.w3.org/2000/svg" xmlns:xlink="http://www.w3.org/1999/xlink" x="0px" y="0px"
	 viewBox="0 0 300 150" style="enable-background:new 0 0 300 150;" xml:space="preserve">
<style type="text/css">
	.st0{fill-rule:evenodd;clip-rule:evenodd;fill:#0C3B7C;}
	.st1{fill-rule:evenodd;clip-rule:evenodd;fill:#95A0A8;}
	.st2{clip-path:url(#SVGID_00000134960558129012759620000003060776027910331522_);}
	.st3{fill:#0C3B7C;}
	.st4{font-family:'PTSerif-Regular';}
	.st5{font-size:15.9551px;}
	.st6{fill:#95A0A8;}
	.st7{font-size:16.2452px;}
</style>
<g>
	<path class="st0" d="M121.1,2.17c-1.63,1.98-2.44,3.14-3.12,4.16c-0.41,0.68-1.42,2.39-2.37,4.23c-3.93,7.85-5.08,16.04-5.08,23.96
		c0,9.42,1.76,20.14,8.47,29.63c0.75,1.02,1.29,1.71,2.1,2.73h2.37c-0.88-1.64-1.49-2.87-2.17-4.57
		c-2.24-5.33-5.02-14.75-5.02-27.79c0-12.9,2.78-22.53,4.88-27.65c0.75-1.78,1.36-3,2.3-4.71H121.1z"/>
	<path class="st1" d="M138.31,31.88V20.21c0-0.87,0.1-1.59,0.15-1.89c0.2-0.51,0.46-0.77,0.76-0.97c0.76-0.56,1.78-0.61,3.51-0.77
		v-1.33c-2.44,0.26-4.22,0.41-6.71,0.41c-3.15,0-5.39-0.26-6.66-0.41v1.33c1.47,0.1,2.39,0.21,3.05,0.51
		c0.1,0.05,0.15,0.05,0.36,0.2c0.1,0.05,0.36,0.15,0.61,0.51c0.41,0.51,0.41,1.23,0.41,2.41v26.63c0,0.92,0,1.54-0.15,1.95
		c-0.46,1.23-2.14,1.43-2.9,1.54c-0.51,0.05-0.86,0.1-1.37,0.1v1.33c2.44-0.21,4.17-0.41,6.66-0.41c2.49,0,4.27,0.2,6.71,0.41v-1.33
		c-1.93-0.1-3.56-0.31-4.17-1.43c-0.2-0.46-0.25-1.13-0.25-2.15V33.57h15.15v13.26c0,0.97,0,1.43-0.2,1.95c0,0-0.05,0.26-0.2,0.41
		c-0.15,0.2-0.51,0.46-0.51,0.46c-0.25,0.2-0.71,0.41-0.76,0.41c-0.71,0.26-2.03,0.31-2.8,0.36v1.33c2.49-0.21,4.27-0.41,6.76-0.41
		c2.49,0,4.22,0.2,6.66,0.41v-1.33c-0.51,0-0.86-0.05-1.37-0.1c-0.92-0.1-1.58-0.31-1.98-0.56c-1.07-0.61-1.07-1.33-1.07-2.92V20.21
		c0-0.82,0.05-1.64,0.15-1.89c0.1-0.41,0.3-0.56,0.56-0.82c0.76-0.67,1.93-0.77,3.71-0.92v-1.33c-1.27,0.15-3.51,0.41-6.66,0.41
		c-2.49,0-4.27-0.15-6.76-0.41v1.33c0.56,0.05,0.91,0.05,1.47,0.15c0.61,0.05,1.58,0.15,2.24,0.72c0.76,0.67,0.76,1.38,0.76,2.77
		v11.67H138.31z"/>
	<path class="st0" d="M170.49,66.89c0.68-0.82,1.69-2.05,3.12-4.23c5.9-9.01,7.46-19.12,7.46-28.13c0-14.2-4.07-23.42-8.4-29.56
		c-0.75-1.02-1.29-1.78-2.17-2.8h-2.37c0.88,1.64,1.49,2.8,2.24,4.51c2.24,5.39,5.02,14.75,5.02,27.85
		c0,12.84-2.78,22.46-4.95,27.58c-0.75,1.84-1.36,3-2.3,4.78H170.49z"/>
</g>
<g>
	<defs>
		<rect id="SVGID_1_" x="47.14" y="105.57" width="197.61" height="14.57"/>
	</defs>
	<clipPath id="SVGID_00000056422764810512612050000009542563916208819090_">
		<use xlink:href="#SVGID_1_"  style="overflow:visible;"/>
	</clipPath>
	<g style="clip-path:url(#SVGID_00000056422764810512612050000009542563916208819090_);">
		<polygon class="st3" points="109.27,109.54 113.09,109.54 113.09,120.1 115.26,120.1 115.26,109.54 119.07,109.54 119.07,107.69 
			109.27,107.69 		"/>
		<polygon class="st3" points="105.44,107.69 103.26,107.69 103.26,120.1 110.51,120.1 110.51,118.24 105.44,118.24 		"/>
		<rect x="98.37" y="107.69" class="st3" width="2.19" height="12.41"/>
		<path class="st3" d="M57.88,107.51c-0.64-0.64-1.41-1.15-2.31-1.5c-0.89-0.35-1.9-0.53-2.99-0.53h-5.55v14.63h5.55
			c1.09,0,2.09-0.18,2.99-0.53c0.89-0.35,1.67-0.86,2.31-1.5c0.64-0.64,1.14-1.42,1.49-2.31c0.35-0.89,0.53-1.89,0.53-2.97
			c0-1.08-0.18-2.07-0.53-2.97C59.02,108.92,58.52,108.14,57.88,107.51z M56.98,114.99c-0.22,0.64-0.54,1.19-0.94,1.64
			c-0.41,0.45-0.91,0.79-1.48,1.02c-0.58,0.24-1.24,0.35-1.97,0.35h-3v-10.45h3c0.73,0,1.39,0.12,1.97,0.36s1.08,0.58,1.48,1.02
			c0.41,0.45,0.72,1,0.94,1.64c0.22,0.65,0.33,1.39,0.33,2.2C57.31,113.6,57.2,114.35,56.98,114.99L56.98,114.99z"/>
		<path class="st3" d="M67.7,114.76c0.37-0.12,0.72-0.28,1.03-0.47c0.36-0.22,0.66-0.49,0.91-0.8c0.25-0.31,0.44-0.66,0.57-1.03
			c0.13-0.38,0.19-0.79,0.19-1.22c0-0.53-0.09-1.02-0.27-1.45c-0.18-0.44-0.47-0.82-0.86-1.13c-0.38-0.31-0.87-0.55-1.46-0.72
			c-0.59-0.16-1.29-0.25-2.1-0.25h-3.69v12.41h2.18v-4.92h1c0.21,0,0.36,0.03,0.46,0.08c0.1,0.06,0.19,0.15,0.28,0.28l2.84,4.11
			c0.18,0.3,0.46,0.46,0.85,0.46h1.96l-3.41-4.81C68.05,115.08,67.89,114.9,67.7,114.76z M68.28,111.39c0,0.32-0.05,0.62-0.16,0.88
			c-0.11,0.26-0.27,0.49-0.48,0.67c-0.21,0.19-0.49,0.34-0.81,0.44c-0.33,0.11-0.72,0.16-1.16,0.16H64.2v-4.11h1.51
			c0.87,0,1.52,0.17,1.94,0.51C68.07,110.27,68.28,110.76,68.28,111.39z"/>
		<path class="st3" d="M74.45,117.97c-0.12-0.12-0.26-0.22-0.42-0.29c-0.33-0.14-0.71-0.14-1.04,0c-0.16,0.07-0.3,0.17-0.42,0.29
			c-0.12,0.12-0.21,0.26-0.28,0.42c-0.07,0.16-0.1,0.33-0.1,0.52c0,0.19,0.03,0.36,0.1,0.52c0.07,0.16,0.16,0.29,0.27,0.42
			c0.11,0.12,0.26,0.21,0.42,0.28c0.16,0.07,0.33,0.1,0.52,0.1c0.18,0,0.36-0.03,0.52-0.1c0.16-0.07,0.3-0.16,0.42-0.28
			c0.12-0.12,0.22-0.26,0.28-0.42c0.07-0.16,0.11-0.34,0.11-0.52c0-0.18-0.04-0.35-0.11-0.52
			C74.67,118.23,74.57,118.09,74.45,117.97z"/>
		<polygon class="st3" points="92.85,111.78 85.8,111.78 85.8,105.47 83.25,105.47 83.25,120.1 85.8,120.1 85.8,113.67 
			92.85,113.67 92.85,120.1 95.39,120.1 95.39,105.47 92.85,105.47 		"/>
		<polygon class="st3" points="201.28,109.54 205.09,109.54 205.09,120.1 207.26,120.1 207.26,109.54 211.07,109.54 211.07,107.69 
			201.28,107.69 		"/>
		<path class="st3" d="M220.94,115.75c0,0.15,0,0.31,0.01,0.48c0,0.07,0.01,0.13,0.01,0.2l-6.52-8.37c-0.05-0.07-0.1-0.13-0.15-0.18
			c-0.06-0.05-0.12-0.09-0.17-0.12c-0.07-0.03-0.13-0.05-0.19-0.05c-0.06-0.01-0.14-0.01-0.23-0.01h-1.13v12.41h1.94v-8.13
			c0-0.14,0-0.29-0.01-0.45c0-0.05-0.01-0.11-0.01-0.16l6.51,8.35c0.1,0.14,0.22,0.24,0.34,0.29c0.12,0.06,0.27,0.09,0.43,0.09h1.11
			v-12.41h-1.93V115.75z"/>
		<path class="st3" d="M197.75,114.76c0.37-0.12,0.72-0.28,1.03-0.47c0.36-0.22,0.66-0.49,0.91-0.8c0.24-0.31,0.44-0.65,0.57-1.03
			c0.13-0.38,0.2-0.79,0.2-1.22c0-0.53-0.09-1.02-0.28-1.45c-0.18-0.44-0.47-0.82-0.86-1.13c-0.38-0.31-0.88-0.55-1.46-0.72
			c-0.59-0.16-1.29-0.25-2.1-0.25h-3.69v12.41h2.18v-4.92h1.01c0.21,0,0.36,0.03,0.46,0.08c0.1,0.06,0.2,0.15,0.28,0.28l2.85,4.11
			c0.18,0.3,0.46,0.46,0.85,0.46h1.96l-3.41-4.81C198.09,115.08,197.93,114.9,197.75,114.76z M198.32,111.39
			c0,0.32-0.05,0.61-0.16,0.87c-0.11,0.26-0.27,0.49-0.48,0.67c-0.22,0.19-0.49,0.34-0.81,0.44c-0.33,0.11-0.72,0.16-1.16,0.16
			h-1.47v-4.11h1.52c0.86,0,1.52,0.17,1.94,0.51C198.11,110.28,198.32,110.75,198.32,111.39z"/>
		<path class="st3" d="M130.05,109.35c-0.55-0.56-1.2-1.01-1.96-1.32c-0.76-0.31-1.61-0.47-2.53-0.47c-0.92,0-1.77,0.16-2.53,0.47
			c-0.75,0.31-1.41,0.76-1.96,1.32c-0.54,0.56-0.97,1.24-1.27,2.01c-0.3,0.77-0.45,1.63-0.45,2.54c0,0.91,0.15,1.76,0.45,2.54
			c0.3,0.77,0.73,1.45,1.27,2c0.55,0.56,1.21,1,1.96,1.31c0.76,0.32,1.61,0.47,2.53,0.47c0.92,0,1.78-0.16,2.53-0.47
			c0.75-0.31,1.41-0.76,1.96-1.31c0.54-0.56,0.97-1.24,1.26-2c0.3-0.77,0.45-1.63,0.45-2.54c0-0.91-0.15-1.76-0.45-2.54
			C131.02,110.59,130.59,109.91,130.05,109.35z M129.54,113.89c0,0.69-0.09,1.32-0.28,1.87c-0.19,0.55-0.45,1.01-0.79,1.39
			c-0.34,0.37-0.76,0.67-1.25,0.87c-0.49,0.2-1.05,0.3-1.66,0.3c-0.61,0-1.16-0.1-1.65-0.3c-0.49-0.2-0.91-0.49-1.25-0.87
			c-0.35-0.38-0.62-0.84-0.8-1.39c-0.19-0.55-0.28-1.18-0.28-1.87c0-0.69,0.1-1.31,0.28-1.86c0.19-0.54,0.46-1.01,0.8-1.39
			c0.34-0.38,0.76-0.67,1.25-0.87c0.49-0.2,1.05-0.31,1.65-0.31c0.61,0,1.17,0.1,1.66,0.31c0.49,0.2,0.91,0.5,1.25,0.87
			c0.34,0.38,0.61,0.85,0.8,1.39C129.45,112.58,129.54,113.21,129.54,113.89z"/>
		<path class="st3" d="M241.53,115.29c-0.14-0.21-0.3-0.39-0.48-0.53c0.37-0.12,0.72-0.28,1.03-0.47c0.36-0.22,0.66-0.49,0.91-0.8
			c0.25-0.3,0.44-0.65,0.57-1.03c0.13-0.38,0.19-0.79,0.19-1.22c0-0.53-0.09-1.02-0.27-1.45c-0.18-0.44-0.47-0.82-0.86-1.13
			c-0.38-0.31-0.88-0.55-1.46-0.72c-0.59-0.16-1.29-0.25-2.1-0.25h-3.69v12.41h2.18v-4.92h1.01c0.21,0,0.36,0.03,0.46,0.08
			c0.1,0.06,0.19,0.15,0.28,0.28l2.85,4.11c0.18,0.3,0.46,0.46,0.85,0.46h1.96L241.53,115.29z M241.61,111.39
			c0,0.32-0.05,0.62-0.16,0.88c-0.11,0.26-0.27,0.49-0.48,0.67c-0.21,0.19-0.49,0.34-0.81,0.44c-0.33,0.11-0.71,0.16-1.16,0.16
			h-1.46v-4.11h1.52c0.86,0,1.52,0.17,1.94,0.51C241.41,110.28,241.61,110.75,241.61,111.39z"/>
		<polygon class="st3" points="227.77,114.72 232.27,114.72 232.27,112.97 227.77,112.97 227.77,109.49 233.4,109.49 233.4,107.69 
			225.59,107.69 225.59,120.1 233.4,120.1 233.41,118.3 227.77,118.3 		"/>
		<path class="st3" d="M142.11,115.75c0,0.15,0,0.31,0.01,0.48c0,0.06,0.01,0.13,0.01,0.19l-6.52-8.36
			c-0.05-0.07-0.1-0.13-0.15-0.18c-0.06-0.06-0.12-0.1-0.17-0.12c-0.07-0.03-0.13-0.05-0.19-0.05c-0.07-0.01-0.14-0.01-0.23-0.01
			h-1.13v12.41h1.94v-8.13c0-0.14,0-0.29-0.01-0.45c0-0.06-0.01-0.11-0.01-0.17l6.51,8.36c0.1,0.13,0.22,0.23,0.34,0.29
			c0.12,0.06,0.26,0.09,0.44,0.09h1.11v-12.41h-1.93V115.75z"/>
		<path class="st3" d="M160.69,115.41c0.22-0.68,0.33-1.41,0.33-2.15l0-0.1h-1.27c-0.14,0-0.26,0.05-0.35,0.14
			c-0.09,0.09-0.14,0.21-0.15,0.35c-0.04,0.42-0.12,0.85-0.24,1.26c-0.11,0.37-0.25,0.73-0.43,1.08l-3.41-3.51
			c-0.2-0.2-0.37-0.4-0.52-0.59c-0.14-0.18-0.26-0.36-0.35-0.53c-0.09-0.17-0.16-0.34-0.19-0.5c-0.04-0.17-0.06-0.34-0.06-0.52
			c0-0.22,0.04-0.43,0.11-0.63c0.07-0.19,0.18-0.36,0.32-0.51c0.14-0.15,0.31-0.26,0.51-0.34c0.2-0.08,0.43-0.12,0.69-0.12
			c0.22,0,0.41,0.03,0.59,0.1c0.16,0.07,0.31,0.16,0.43,0.27c0.12,0.11,0.23,0.24,0.31,0.38c0.08,0.14,0.15,0.28,0.2,0.44
			c0.05,0.15,0.14,0.25,0.25,0.31c0.11,0.07,0.24,0.08,0.36,0.05l1.28-0.26l-0.01-0.09c-0.03-0.37-0.13-0.73-0.3-1.07
			c-0.17-0.35-0.4-0.65-0.69-0.92c-0.3-0.27-0.65-0.48-1.05-0.64c-0.41-0.16-0.87-0.24-1.37-0.24c-0.56,0-1.06,0.09-1.5,0.26
			c-0.44,0.17-0.83,0.41-1.13,0.7c-0.31,0.29-0.55,0.65-0.71,1.05c-0.16,0.4-0.24,0.82-0.24,1.27c0,0.45,0.08,0.89,0.24,1.32
			c0.14,0.4,0.37,0.81,0.67,1.23c-0.35,0.17-0.68,0.37-0.98,0.59c-0.33,0.25-0.62,0.54-0.86,0.85c-0.24,0.32-0.44,0.66-0.57,1.03
			c-0.14,0.37-0.2,0.77-0.2,1.18c0,0.57,0.12,1.09,0.35,1.55c0.23,0.45,0.53,0.84,0.9,1.16c0.37,0.31,0.8,0.56,1.27,0.73
			c0.47,0.17,0.96,0.25,1.45,0.25c0.84,0,1.62-0.14,2.34-0.43c0.68-0.27,1.31-0.65,1.86-1.12l0.99,1.01
			c0.08,0.08,0.15,0.15,0.21,0.2c0.07,0.05,0.14,0.09,0.22,0.12c0.08,0.03,0.16,0.05,0.24,0.06c0.09,0.01,0.18,0.02,0.28,0.02h2.07
			l-2.76-2.84C160.18,116.69,160.48,116.07,160.69,115.41z M157.4,117.51c-0.34,0.3-0.74,0.54-1.16,0.71
			c-0.46,0.19-0.98,0.29-1.55,0.29c-0.28,0-0.55-0.05-0.82-0.14c-0.26-0.09-0.49-0.23-0.69-0.41c-0.2-0.18-0.36-0.4-0.48-0.66
			c-0.12-0.26-0.18-0.55-0.18-0.89c0-0.48,0.13-0.92,0.37-1.32c0.24-0.39,0.61-0.74,1.1-1.04L157.4,117.51z"/>
		<path class="st3" d="M177.26,106.75c-0.46-0.4-1.05-0.72-1.75-0.95c-0.7-0.22-1.53-0.33-2.48-0.33h-4.59v14.63h2.54v-5.22h2.05
			c0.92,0,1.73-0.12,2.42-0.35c0.69-0.23,1.28-0.56,1.75-0.98c0.47-0.42,0.83-0.93,1.07-1.51c0.24-0.58,0.36-1.23,0.36-1.93
			c0-0.68-0.11-1.32-0.34-1.88C178.07,107.65,177.72,107.16,177.26,106.75z M176.1,110.11c0,0.41-0.07,0.79-0.19,1.13
			c-0.13,0.33-0.32,0.62-0.57,0.85c-0.25,0.23-0.58,0.42-0.96,0.55c-0.39,0.13-0.84,0.2-1.35,0.2h-2.05v-5.33h2.05
			c0.52,0,0.98,0.06,1.37,0.18c0.38,0.12,0.7,0.29,0.95,0.51c0.25,0.22,0.44,0.5,0.56,0.82C176.04,109.34,176.1,109.7,176.1,110.11z
			"/>
		<path class="st3" d="M185.96,107.69h-2.14l-4.87,12.27l-0.05,0.13h1.68c0.19,0,0.36-0.06,0.49-0.17c0.12-0.1,0.21-0.22,0.27-0.35
			l0.99-2.63h5.12l1,2.64c0.06,0.14,0.15,0.26,0.27,0.36c0.13,0.1,0.29,0.15,0.49,0.15h1.68l-4.9-12.34L185.96,107.69z
			 M184.77,110.41c0.04-0.12,0.08-0.25,0.11-0.38c0.11,0.38,0.22,0.7,0.32,0.97l1.63,4.33h-3.9l1.63-4.32
			C184.63,110.83,184.69,110.63,184.77,110.41z"/>
	</g>
</g>
<text transform="matrix(1 0 0 1 45.4755 144.6602)" class="st3 st4 st5">The practice for perfect skin.</text>
<text transform="matrix(1 0 0 1 88.0527 92.8535)" class="st6 st4 st7">Private Practice</text>
</svg>
