<svg xmlns="http://www.w3.org/2000/svg" fill="none" viewBox="0 0 228 46">
        <path fill="currentColor" fill-rule="evenodd" d="M75.273 8.93242 76.6342 12.58c.0593.1888-.0524.327-.1641.3592-.1688.0184-.2349.0507-.2349.152 0 .0829.0958.1082.2508.1221l.0775.0046.1779.0092.2622.0069.6384.0115.5997.0092.7524.0069h1.2084l.089-.0069.0798-.0046.0684-.0069.0592-.0069c.1551-.023.2052-.0691.2052-.1451 0-.1197-.0843-.1359-.2188-.1359h-.0776c-.1869-.0046-.4081-.023-.6293-.069l-.0387-.0092-.0411-.0116-.041-.0138-.0433-.0161-.0434-.0184-.0456-.0207-.0456-.0231-.0478-.0276-.0479-.0322c-.016-.0116-.0319-.0231-.0502-.0369l-.0501-.0391-.0502-.0461c-.1209-.1105-.2508-.2648-.3899-.479l-.0616-.0967-.0615-.1036c-.0056-.0091-.0107-.0182-.0158-.0273-.0051-.0092-.0104-.0188-.0161-.028l-.0639-.1151-.0638-.1244-.0661-.1335c-.0228-.0461-.0456-.0944-.0662-.1428l-.0684-.152c-.0227-.0528-.0456-.106-.0684-.1612l-.0319-.0783-.2554-.6217-.4286-1.06158-.4834-1.21125-2.6882-6.79315-.2166-.534246-.0638-.154288-.0593-.135862-.0433-.09211C73.9027.0990188 73.8115 0 73.6884 0c-.1072 0-.1893.0759923-.285.260213l-.0365.07369-.0388.085202-.041.096712-.0684.165799-4.266 10.776884-.057.1359-.057.1313c-.2942.6655-.6248 1.1076-1.2928 1.1951-.1346.0184-.3717.0345-.5222.0345h-.0296c-.114.0047-.1733.0415-.1733.1359 0 .1359.1003.1704.3192.1704h.301l.2987-.0069.3579-.0092.9417-.0322h.2257c.1005 0 .2057.0036.3149.0073.0418.0014.0846.0029.1275.0042l.4697.0184.3101.0115c.1527.0046.2986.0069.4332.0069.1869 0 .2873-.0345.2873-.1704 0-.1013-.0502-.1359-.2531-.1359h-.3056c-.4811-.0161-.6224-.2325-.6224-.5273 0-.2049.0843-.6148.2531-1.0385l.9097-2.43866.0114-.02994c.0319-.0806.0661-.10823.1414-.10823h3.7895c.0684.00691.1117.04376.1413.11975Zm-.4856-.96947v-.0046h-3.1283c-.0524-.00921-.0638-.05757-.0479-.11974l1.5528-4.19334.0068-.02302c.0182-.06448.0502-.13126.0958-.13126.0387 0 .0592.05066.0729.10823l.0114.04836 1.5185 4.21175.0046.01612c.009.0456-.011.0867-.0866.0875Z" clip-rule="evenodd"/>
        <path fill="currentColor" d="M64.6729 12.9577v-.0046c.1517.0001.269.0166.269.1174 0 .1382-.2006.1865-.4377.1865h-.1961l-.928-.0184-.8163-.0207-.7866-.0254-.3671-.0161-.2371-.0138-.0958-.0069-.0957-.0092c-.3101-.0346-.3945-.0829-.3945-.1773 0-.076.0547-.1244.1505-.1704l.0342-.0161c.098-.0323.1482-.2372.0935-.6748L59.846 4.54567h-.0684l-3.68 7.74193-.171.35-.0912.1796-.0388.076-.0365.0668-.0342.0575c-.0045.0092-.0159.0254-.0159.0254l-.0297.046-.0137.0207-.0273.0346c-.0616.076-.1118.099-.1688.099-.057 0-.1185-.0484-.1869-.1405l-.0411-.0598c-.0068-.0092-.0205-.0323-.0205-.0323l-.0456-.0737-.0061-.0099-.0089-.0148c-.0027-.0047-.0054-.0096-.0078-.0144l-.0479-.0852-.1048-.1957-.1391-.2649-.7365-1.4392-.5176-1.02472-.2508-.4997-.2143-.43522-.1117-.23258-.0639-.14046-.1049-.23949-.5039-1.08921-1.1103-2.38336-.057-.12435h-.0684l-.8779 6.78399c-.0342.3085-.0501.5273-.0501.8013 0 .3224.2189.4767.5061.5435.2531.0575.4583.0806.6179.0875h.089c.1345 0 .253.0322.253.1174 0 .1382-.1185.1796-.3237.1888h-.0798l-.2463-.0046h-.1641l-.4013-.0115-.7889-.0322h-.2166l-.1642.0046-.2736.0092-.5609.023-.2463.0069-.1596.0069h-.2234c-.1687 0-.3033-.0368-.3033-.1888 0-.0783.0867-.1128.2349-.1174l.1277-.0046h.0638l.007-.0005c.0322-.0022.0663-.0044.1025-.0087l.0843-.0116c.0456-.0069.0958-.0161.1551-.0276.3557-.076.5198-.4698.6156-.905l.0228-.1105c.0045-.0184.0091-.0369.0114-.0553l.0365-.221L50.6482.446757c.0502-.290148.1528-.4421338.2873-.4421338.1026 0 .187.0483589.3169.2671218l.0433.07369.0456.087506.0502.099017 4.608 9.616342L60.5916.412217c.1185-.271726.2189-.4075938.3716-.4075938.1437 0 .2417.1519868.2942.4720708l.0091.055264L62.826 11.2329l.0251.1543c.0046.0253.0091.0483.0137.0737l.0251.1404c.1368.707.326 1.0593.7387 1.186.2463.076.4515.1197.6248.1427l.1094.0138c.0342.0047.0684.0093.1003.0093l.0912.0046h.1186Z"/>
        <path fill="currentColor" fill-rule="evenodd" d="M129.4 6.81621c0 2.9176 1.958 6.68259 6.803 6.68259 4.289 0 6.989-3.088 6.989-6.98886 0-3.90088-2.616-6.374048-6.818-6.374048-5.064-.002302-6.972 3.765018-6.972 6.680318h-.002Zm11.43.32699c0 3.8203-1.578 4.9786-2.857 5.3539l-.101.0254c-.014.0039-.029.0075-.043.0109-.018.0046-.037.0091-.055.0144l-.098.0207c-.009 0-.019.0025-.029.005l-.005.0013c-.004.0012-.009.0022-.014.0029l-.093.0161c-.012 0-.023.0024-.034.0046l-.012.0023-.091.0139-.089.0115-.087.0092-.082.0069-.079.0046h-.149c-3.242.0023-5.182-2.81167-5.182-6.35562s1.673-4.9993 3.388-5.27794l.119-.018415.118-.013816c.013 0 .026-.001953.039-.003951l.009-.001412.011-.001545.119-.009213.118-.006908c.021 0 .039-.000002.06-.002305h.175c2.771 0 4.946 2.369545 4.946 6.187525h-.002ZM45.7962 12.9438l.0228.0139h-.0593c-.1208-.0046-.2531-.0231-.4127-.053h-.0182l-.1277-.0299-.0525-.0139-.057-.0161-.0615-.0184-.0661-.0207-.0707-.0254s-.0251-.0092-.0365-.0138l-.0753-.0322-.0798-.0368-.0843-.0415c-.3169-.1635-.7091-.4375-1.1628-.9096-.0274-.0276-.0546-.0574-.0819-.0873l-.1644-.1798-.0149-.0165-.0115-.0129c-.0188-.021-.0378-.0424-.058-.0627l-.1687-.1912c-.0144-.017-.0295-.034-.0449-.0513-.0137-.0155-.0277-.0314-.0417-.0477l-.1756-.2026-.1778-.2119-.1824-.2187-.2805-.3431-.1915-.23722-.1961-.2441-.3033-.38226-.3146-.39838-1.254-1.59581c1.7032-1.39778 2.2276-2.55606 2.2276-3.82028 0-1.13987-.6749-2.01032-1.1469-2.33731-.912-.628656-2.0407-.732279-3.1077-.732279h-.1391l-.3489.006908-.7387.020724-.7365.018426-.2667.004603h-.2258l-.2508-.006908-.7091-.023029-.6771-.016114-.26-.00461h-.3853c-.2235.004606-.3283.041451-.3283.151984 0 .119743.1003.154288.2873.154288h.1687l.114.006908.1094.006908c.1072.009211.203.020726.2645.036845l.0525.011511c.513.124349.6407.398375.6726.957955l.0091.1681.0091.22336.0091.38687.0046.68622v6.30727l-.0046.70232-.0068.4306-.0046.2027-.0091.2855-.0068.1796-.0091.1681-.0092.1566c0 .013-.0012.026-.0023.0386-.0011.0121-.0022.0239-.0022.0351l-.0114.1405c-.0046.0437-.0091.0875-.0137.1289l-.016.1083-.0159.1036c-.0662.3869-.1688.6678-.4583.7254-.1528.0345-.3557.069-.6088.069h-.0388c-.1732.007-.2303.0576-.2303.1359 0 .1198.1186.1704.3375.1704h.3078l.2235-.0069.3899-.0115.8801-.0276.2211-.0046h.1323l.627.0184 1.0648.0253.3488.0046h.3398c.2188 0 .3374-.0507.3374-.1704 0-.0852-.0684-.1359-.2029-.1359h-.0547c-.0753 0-.1688-.0069-.2668-.0161l-.1505-.0138-.1505-.0161c-.0231 0-.0443-.0039-.0671-.0082l-.0058-.001-.1346-.0161c-.4035-.0553-.5495-.304-.6179-.6563l-.0159-.0898-.0137-.0944-.0182-.1589-.0114-.1313c-.0025-.0248-.0043-.0496-.0061-.0752-.0016-.0218-.0032-.0442-.0053-.0676l-.0092-.152-.0091-.1634-.0068-.1728-.0091-.2763-.0069-.297-.0091-.64712v-.5872l-.0046-1.25501v-.02533c.0092-.0829.0593-.11053.1346-.11053l1.5025.03454c.1026.00461.1916.02763.2691.11974.0022.00343.0051.00686.0079.01029.0028.00346.0058.00698.008.01044l.0388.04835.0707.09442.1163.16119.139.19574.7069 1.01091.4218.60107.2371.3292.2257.3109.1437.1958.1413.1865.1368.1773c.0228.0276.0456.0576.0662.0852l.1299.1635c.4948.6102.9257 1.027 1.3886 1.278.3352.1819.6635.2764 1.2221.3086l.1505.0069c.0251 0 .0524 0 .0798.0023l.1687.0046h1.8218c.1801-.0046.2827-.0437.2827-.1704 0-.0852-.0684-.1359-.2029-.1359l.0023.0023Zm-6.765-6.09767v.0046c-.2485.18192-.44.26022-.8664.28325l-.1231.0046h-.2098c-.4218.0023-.928-.05066-1.2837-.1681-.1185-.05297-.1505-.11975-.1505-.30857V1.44845c.0046-.11513.0434-.17731.1505-.20724.0844-.02533.2029-.04145.3534-.05297l.1186-.00691.13-.0046h.1413l.1528-.00461h.0775l.0798.00461.0798.00691.0821.0092c.0091 0 .0182.00205.0274.0041.0045.00102.0091.00204.0136.00281l.0844.01382.1277.02764.0866.02302.0867.02533c.8892.28785 1.8354 1.12835 1.8354 2.9982 0 1.39778-.4879 2.18302-.9941 2.55837Z" clip-rule="evenodd"/>
        <path fill="currentColor" d="M227.734 12.9646v-.0069h-.121l-.091-.0046c-.032 0-.066-.0046-.1-.0093l-.11-.0138c-.173-.023-.378-.0667-.624-.1427-.413-.1267-.602-.479-.739-1.186l-.025-.1404-.014-.0737-.025-.1543L224.326.531958l-.01-.055264c-.052-.320084-.15-.4720708-.294-.4720708-.152 0-.253.1358678-.371.4075938l-4.592 9.736083-4.608-9.616342-.051-.099017-.045-.087506c-.007-.013817-.014-.025334-.023-.03915l-.041-.069081c-.119-.1888261-.198-.2325808-.296-.2325808-.135 0-.238.1519858-.288.4421338L212.02 11.6727l-.018.1106-.021.1105-.022.1105c-.003.0085-.005.0169-.007.0253-.002.01-.004.02-.005.03l-.027.1059c-.101.3685-.265.677-.575.7438-.059.0115-.109.0207-.155.0276l-.084.0116c-.039.0046-.075.0069-.11.0092h-.064l-.127.0046c-.148.0046-.235.0391-.235.1174 0 .152.134.1888.303.1888h.224l.159-.0069.247-.0069.56-.023.272-.0092.164-.0046h.216l.789.0322.402.0115h.164l.246.0046h.08c.205-.0092.324-.0506.324-.1888 0-.0852-.119-.1174-.253-.1174h-.089c-.16-.0069-.365-.03-.621-.0875-.287-.0668-.506-.2211-.506-.5435 0-.274.019-.4928.05-.8013l.878-6.78399h.069l.057.12435 1.377 2.95675.269.5849.064.14507.025.05757.071.14968.173.35924.219.43982.33.65631.543 1.0708.543 1.0592.143.2741.105.1957.048.0852.046.0783c.105.1704.191.2694.273.2694.069 0 .121-.0299.196-.1335l.028-.0415.029-.0507.035-.0575.036-.0668.039-.076.091-.1796.171-.35 3.68-7.74192h.068l1.02 7.56232c.054.4375.004.6424-.094.6747l-.034.0161c-.096.046-.151.0944-.151.1704s.062.1289.276.1635l.078.0115c.006 0 .012.0005.019.0012.006.0007.012.0016.018.0025l.006.0009.096.0092.134.0092.224.0115.413.0185.31.0115.679.0207.8.0184.746.0138h.155c.219-.0046.399-.0575.399-.1865 0-.1013-.118-.1174-.269-.1174h.002Z"/>
        <path fill="currentColor" fill-rule="evenodd" d="M7.43184.423709 7.425.416801V.412198c1.67129.122046 3.4452.52733 4.7357 1.890562.8436.88657 1.6371 2.22677 1.6371 4.3315s-.8596 3.72124-1.7853 4.69994l-.0866.0898-.0707.0714-.0753.0714c-.0068.0057-.0137.0121-.0205.0184-.0068.0063-.0137.0127-.0205.0184l-.0844.0737-.0433.0369-.0912.0759-.0958.076c-.0319.0254-.0661.0507-.1003.076l-.1071.0783c-.0912.0645-.187.129-.2896.1935l-.1254.0759c-.98273.5849-2.44425 1.1077-4.49631 1.1077-.16417 0-.33289-.0023-.50618-.0092l-.25993-.0116-.2622-.0138-.26449-.0161-.39217-.0276-.87555-.0691-.23257-.0161-.22116-.0138-.20749-.0115-.01406-.0007c-.0952-.0044-.1862-.0086-.27095-.0086h-.23256l-.6407.0185-.60194.0184-.426374.0115h-.31009c-.218886 0-.33745-.0507-.33745-.1704 0-.0783.059282-.129.230287-.1359h.038761c.255368 0 .456014-.0345.608776-.0691.27589-.0529.38305-.3131.44918-.6747l.01824-.1013.01596-.1059c.00076-.0062.00177-.0123.00278-.0184.00203-.0123.00406-.0246.00406-.0369.00456-.0414.00912-.0852.01368-.1289l.0114-.1405c0-.0112.00108-.023.0022-.0351.00116-.0127.00236-.0256.00236-.0386l.00912-.1566.00912-.1681.0114-.2717.00912-.2925.00912-.3131v-.2188l.00456-.58259V3.04656l-.00456-.63557-.00912-.36153-.00684-.18422-.00456-.0852-.00456-.0829C1.63819 1.13756 1.5105.863535.997489.739186L.945047.727675C.883485.711556.787722.700041.680559.69083L.571116.683922.457112.677014H.288387C.101422.677014.00109863.64247.00109863.522726c0-.110533.10488337-.147371.32833037-.151976l.230286.004603h.287289L1.3281.384566l1.11267.032235.13453.004603h.47197l.46285-.011511L4.8736.373048h.20977c.0342 0 .07068.000002.10488.002305h.99183l.30553.004603.20749.00461c.03646.004603.07064.004603.10483.004603l.20982.009213c.03534.002302.07068.004029.10602.005755.03534.001726.07068.003453.10603.005756l.21204.013816ZM10.1246 11.3849v.0092c1.0808-.9372 1.4182-2.49162 1.4182-4.24632 0-1.65569-.5221-2.86234-1.0921-3.64988l-.0821-.11054c-.0069-.00921-.0137-.01784-.0206-.02648-.0068-.00863-.0136-.01727-.0205-.02648l-.0821-.10132c-.1094-.13126-.2188-.2487-.32372-.35002-1.02603-.99249-2.21623-1.4162-3.2833-1.59121l-.17101-.02533c-.01368-.0023-.02792-.00403-.04217-.00575-.01425-.00173-.02851-.00346-.04219-.00576l-.16872-.02072-.16645-.01613-.16188-.01381-.15961-.00921-.15504-.00691-.30097-.00922h-.28957l-.16417.00691-.114.00691-.11628.00921-.11401.01151-.10716.01152c-.03648.00461-.0684.00921-.10032.01382l-.08893.01381c-.0684.01382-.12084.02764-.15048.04145-.14136.06218-.19381.14047-.20065.30397l-.00912.54575-.00456.79676v4.96475l.00912 1.52674.01368.90038.00684.2072.01368.3247.0114.1889.00913.1289.0114.1267.01368.1243c.02736.2211.0684.4122.12996.4974.21889.3224.87555.6793 2.20939.6793 1.72373 0 2.8706-.3385 3.88523-1.225Z" clip-rule="evenodd"/>
        <path fill="currentColor" d="m206.343.368462-.012.004603h-.287l-.207.006908-.322.009213-.976.03454h-.13l-.394-.013816-.636-.020724-.429-.009213h-.182c-.101-.004603-.201-.004603-.299-.004603-.235 0-.354.034543-.354.151984 0 .11744.101.154281.288.154281h.052l.117.00461c.161.006908.339.02072.437.046051l.053.011518c.513.124349.64.398376.672.957946l.007.10823.009.17271.012.41219.007.73458v4.95325l-.007.20725-.005.20264c0 .03454-.002.06678-.004.10132l-.01.19804c0 .01611-.001.03281-.002.04951-.001.01669-.002.03339-.002.04951l-.014.19343c-.082 1.05698-.308 1.95968-.932 2.59288-.675.6793-1.587.9188-2.331.9188h-.109l-.114-.0046-.119-.0069c-.522-.0345-1.149-.175-1.767-.6885l-.011-.0096c-.01-.0082-.019-.016-.027-.0226l-.078-.0691c-.077-.0691-.15-.1428-.221-.2211l-.068-.0806c-.42-.502-.71-1.1997-.835-2.32348l-.018-.18652c-.037-.37766-.055-.80367-.055-1.28264V3.80649l.005-1.01782.004-.41911.009-.35232.012-.23488.009-.14278c.039-.55726.18-.828988.62-.911887.01-.002101.02-.003722.03-.005302.012-.001882.023-.003705.034-.006209l.109-.018426c.085-.011514.16-.018421.251-.020724h.098c.148-.004606.237-.043756.237-.154288 0-.117441-.118-.151977-.371-.151977h-.395l-.264.009206-.89.027632-.362.009213h-.335l-.203-.004603-1.209-.03454-.39-.006908c-.084 0-.167-.001176-.25-.002341-.081-.00114-.161-.002269-.24-.002269h-.043c-.223.004606-.328.041451-.328.151984 0 .119743.1.154288.287.154288h.169l.114.006908.109.006908c.107.009211.203.020725.265.036845l.052.011511c.513.124349.641.398379.673.957949l.009.14508.009.24409.007.32699.007.70695v4.80586c.022 2.18298.551 3.40118 1.29 4.18408l.084.0876.13.1243c.798.7277 1.756 1.0063 2.579 1.1122l.148.0185c.025 0 .048.0046.073.0069l.142.0115.139.0092.134.0069.128.0046.182.0046h.377c1.055-.0184 2.214-.2349 3.358-1.2251 1.069-.9257 1.437-2.29812 1.555-3.73044l.014-.20034c.011-.16579.018-.3339.025-.502l.004-.20034v-.20034l.005-.20034V3.80188l.005-.95795.006-.52503.01-.30627.013-.26942.007-.10592c.039-.55727.18-.829003.62-.911902l.135-.023029c.123-.018422.214-.027632.353-.027632h.039c.175-.004606.264-.041446.264-.154281 0-.112836-.118-.151984-.353-.151984h-.002ZM26.8672 10.9266c.0342-.1888.0661-.2556.1847-.2556.1003 0 .1254.076.1322.1888h-.0068v.1198c0 .0384-.0018.0839-.0038.135l-.0008.0216-.0068.1289-.0114.1451-.0137.1566-.0251.2487-.0296.2533-.0206.1658-.0228.1566-.0433.2763c-.0159.0829-.0296.1497-.041.2003-.0821.3086-.1801.403-.4492.4307l-.0752.0069c-.0137 0-.0274 0-.0411.0046h-.8618l-.4766-.0046-.6475-.0092-.5746-.0139-.5107-.0161-1.3498-.0483-.3352-.0092h-.4127l-.6407.0184-.6019.0184-.4264.0115h-.3101c-.2189 0-.3374-.0507-.3374-.1704 0-.0783.0592-.1289.2302-.1359h.0388c.2554 0 .456-.0345.6088-.069.2759-.053.383-.3132.4492-.6747l.0182-.1014.016-.1059.0068-.0553c.0045-.0411.0091-.0845.0136-.1279l.0115-.1415c0-.0112.0011-.023.0022-.035.0011-.0127.0023-.0257.0023-.0387l.0092-.1566.0091-.1681.0114-.2717.0091-.2924.0091-.3132v-.2188l.0046-.58258V3.09261l-.0046-.66089-.0068-.3362-.0091-.22337-.0046-.0852-.0046-.0829c-.0319-.55957-.1596-.833602-.6726-.957951l-.0524-.011511c-.0616-.016119-.1573-.027634-.2645-.036845L19.229.690835l-.114-.006908h-.1688c-.1869 0-.2873-.034545-.2873-.154288 0-.110533.1049-.147371.3284-.151976l.2303.004602h.2872l.4811.009214 1.1127.03454h2.0794l2.1638-.009213.3033-.006908h.0342l.2599-.029938.1163-.013816.1071-.013816.0935-.013816.0798-.013816c.0251-.004605.0479-.00921.0662-.013816l.0433-.011518.0912-.02993c.0456-.013816.0935-.027639.1345-.027639.0752 0 .1003.057571.1003.131259v.059875l-.0045.027632-.0114.066782-.0251.14277-.0205.131259-.016.122046-.016.142774-.0159.1681-.0114.12665-.0091.14046-.0092.10594-.0342.54575-.0091.13126-.0137.17731-.0091.09672c-.001.01284-.0031.02518-.005.03656-.0021.01312-.0041.02496-.0041.03482l-.0091.03915c-.0205.07369-.0593.14738-.1596.14738-.1095 0-.146-.0737-.1528-.20726v-.12895c-.0068-.12896-.0274-.31778-.0821-.47206l-.0273-.07139-.0206-.05066-.0228-.04836c-.1231-.23948-.3511-.40068-1.0739-.48818l-.0615-.00461-.0867-.0046-.2325-.01152-.374-.01382-.5107-.01381-.855-.01842h-.2736c-.0776 0-.1118.04144-.1186.14046v4.34302c0 .11053.0137.17731.0958.18652h1.1331l.4925-.00461.643-.00921.2942-.00921.1071-.0046.0547-.00461c.4036-.03224.6567-.0852.8095-.25561l.0798-.09211c.0729-.08059.1254-.12895.1892-.12895.0684 0 .1163.03224.1163.13586v.03224l-.0046.04375-.0387.2418-.0205.15197-.016.13817-.0114.10363-.0114.11513-.0114.12665-.0091.13817-.0092.15198-.0114.14277-.0205.27864-.0137.23258-.0136.26252-.0092.18421v.14047c-.0068.11053-.0342.22107-.1504.22107-.1163 0-.1505-.06678-.1505-.15198l-.0069-.06679-.0159-.22106c-.0069-.10593-.0205-.21646-.0456-.32699-.0844-.34312-.3192-.59642-.944-.6655l-.0684-.00461-.0912-.0046-.2417-.00922-.4651-.01151-.6909-.01151-.7592-.00691h-.0821c-.0775 0-.1003.05757-.1003.14507v1.60964l-.0046 1.46682v.7461l.0046.1889.0045.1059.0046.1013.0068.0967c.0046.0161.0046.03.0046.0461l.0091.0875c.0008.0046.0018.0092.0028.0138.002.0092.0041.0184.0041.0276l.0136.0806c.0844.4491.2964.6793.8072.7876l.0935.0184c.0319.0069.0661.0115.1003.0161l.1071.0138c.0092 0 .0183.0012.0274.0023.0091.0012.0182.0023.0274.0023l.1163.0092.1231.007.1322.0069.1391.0069h.301c.0501 0 .1049 0 .1641-.0023h.1824c.4105-.0092.903-.0438 1.2381-.2004.4218-.198.627-.5365.7456-1.1882l.0137-.0737Z"/>
        <path fill="currentColor" fill-rule="evenodd" d="M104.357.135892C99.2935.13359 97.3873 3.90091 97.3873 6.81621s1.9609 6.68259 6.8017 6.68259c4.289 0 6.99-3.088 6.99-6.98886 0-3.90088-2.617-6.374048-6.822-6.374048Zm1.804 12.296708-.103.0323-.023.0076-.037.0115c-.014.0042-.027.0085-.04.0131l-.1.0277c-.015.0039-.029.0075-.043.0109-.019.0046-.037.0091-.055.0144l-.098.0207c-.01 0-.019.0025-.029.005-.006.0016-.013.0033-.019.0042l-.094.0161c-.011 0-.023.0024-.033.0046l-.012.0024-.091.0138-.089.0115-.087.0092-.082.0069-.08.0046h-.148c-3.242.0023-5.1827-2.81167-5.1827-6.35562s1.6737-4.9993 3.3877-5.27793l.119-.018427.119-.013816c.013 0 .025-.001951.038-.003949.007-.001071.014-.002155.021-.002959l.118-.009206.119-.006908c.021 0 .039-.000002.059-.002305h.176c2.77 0 4.945 2.36954 4.945 6.18752 0 3.5486-1.416 4.8404-2.651 5.2871h-.005Z" clip-rule="evenodd"/>
        <path fill="currentColor" d="m84.3249 1.40009-.1505.00691-.0046-.0023-.1413.00921c-.6567.04836-.9713.15888-1.1811.46976-.1551.23718-.2394.42831-.2782.56418l-.0091.03223c-.0342.13817-.0844.20495-.187.20495-.1162 0-.1504-.0829-.1504-.27172 0-.02073.0022-.05297.0068-.08981l.0091-.0829.0137-.09902.0274-.17501.0456-.26482.0387-.21185.0547-.28325.1004-.492783.057-.246398V.453653c.0524-.221065.1026-.322385.2029-.322385.0274 0 .0547.006905.0866.018419l.0502.020724.1186.050661c.1003.04145.2302.087505.4081.10823l.0616.006908c.4469.048358 1.0237.080598 1.5458.087506l.1414-.002305h6.9291l.1482-.004603h.0707l.1345-.009213.1232-.009206c.0105 0 .0211-.001221.0314-.002407.0096-.001117.019-.002203.0278-.002203l.1619-.018419.0958-.013816.13-.020724.1117-.020724.2759-.057569.0456-.009213h.0228l.0091-.00461c.0958 0 .1254.066785.1345.234886v.331599l-.041 1.381661-.0069.21415v.17271c-.0182.1704-.0501.27172-.1527.27172-.1254 0-.1642-.07598-.1847-.29705v-.04375L93.24 2.3258c-.0297-.37765-.3649-.78063-1.3909-.91189l-.1368-.01612-.1459-.01152c-.0753-.00461-.1528-.00921-.2349-.01382h-.082l-2.1251-.05066v8.51102l.0046.45599.0068.4237.0091.2947.0069.1842.0091.1751.0091.1657c.0046.0806.0091.1566.016.228l.0137.1382.0114.1105.0114.0921.0137.0898c.0638.3662.2052.6356.627.6909.2097.0299.5244.0621.7706.069h.089c.1869 0 .2713.0507.2713.1359 0 .1198-.1368.1704-.3215.1704l-.3124-.0046h-.3055l-.586-.0115-1.0579-.0276-.2942-.0046h-.2417l-.6407.0184-.6019.0184-.4264.0115h-.3101c-.2188 0-.3374-.0506-.3374-.1704 0-.0783.057-.1289.2303-.1359h.0387c.2554 0 .4561-.0345.6088-.069.2873-.0576.4036-.3385.4629-.7254l.0137-.1036.0182-.1704.0137-.1336.0114-.1474c.0045-.0253.0045-.0529.0045-.0783l.0092-.1635.0068-.1727.0091-.2786.0069-.2994.0114-.77369V1.3264l-2.5172.06678-.1619.00691ZM160.016 12.6928c.096-.0644.133-.1197.146-.2763l.005-.0691V8.87486l.007-.30857.006-.27864.005-.14507c.025-.55727.198-.829.638-.9119l.124-.02073.104-.01612c.083-.01151.151-.01611.226-.01611h.028c.107-.00461.193-.04146.193-.13587 0-.13586-.118-.1704-.337-.1704h-.219l-.246.00691-.928.03224-.249.00691-.225.0046h-.219l-.279-.0046-1.172-.03225-.296-.0069c-.198-.00461-.394-.00691-.581-.00691h-.044c-.207.0046-.312.04375-.312.1704 0 .10132.1.13587.253.13587h.169c.018.0023.039.0023.057.0023l.114.00691.107.00921c.084.00921.16.01842.212.03224l.052.01151c.513.12435.657.39838.673.95795l.005.17731.004.18653v.19804l.007.32008v2.7794c-.009.2649-.082.4698-.319.5826-.333.1543-.794.1819-1.19.1866h-.352c-3.502-.0553-5.768-2.78178-5.768-6.40863 0-2.09551.609-3.37585 1.553-4.17722.891-.74839 1.815-.96945 2.613-1.03163l.139-.00921c.022 0 .045-.0023.068-.004598l.135-.004617h.132l.191-.004603h.169c1.849.029938 3.16.794448 3.657 1.328688.351.38226.475.80828.536 1.1629l.016.10362.025.17731c.018.11744.055.19114.164.19114.135 0 .187-.0852.187-.35693v-.47898l.005-.26021.007-.31317.009-.27864.011-.30396.014-.25791.014-.21646.016-.20955.038-.379957.005-.057569V.796759c-.005-.105927-.046-.165794-.237-.181913-.249-.011514-.582-.057575-.883-.105933l-.193-.032235c-.018-.0025-.034-.005681-.051-.008803-.014-.002627-.027-.005213-.041-.007318L158.55.43062l-.052-.011511-.064-.013816-.164-.029937-.208-.032242-.241-.03454-.201-.025327-.217-.025334-.228-.025327-.235-.023029-.323-.027632-.247-.016121-.246-.013816-.164-.006908-.162-.004603h-.237l-.198-.002305-.199.004603c-1.299.02533-2.674.207251-4.143 1.103025-1.534.93722-2.939 2.84852-2.939 5.57499 0 4.70451 3.664 6.68261 7.801 6.68261 1.315 0 2.97-.1888 4.069-.7668l.067-.0415-.003-.0023ZM171.95 12.9576l.009.0139c.185 0 .269.0506.269.1358 0 .1198-.134.1704-.319.1704l-.312-.0046h-.306l-.583-.0115-1.175-.0345h-.403l-.641.0184-.602.0184-.426.0115h-.31c-.219 0-.338-.0506-.338-.1704 0-.0783.057-.1289.231-.1358h.038c.253 0 .454-.0346.607-.0691.31-.0622.422-.3132.476-.7415l.014-.1106c.005-.0391.009-.0805.014-.1243l.011-.1359c0-.0126.001-.0247.002-.0368s.003-.0242.003-.0369l.009-.1542.009-.1635.007-.175.009-.281.007-.3016.007-.433.004-.58717V3.0903l-.007-.69773-.009-.3224-.009-.21185-.009-.14507c-.032-.55957-.189-.847419-.534-.944135l-.038-.009213c-.16-.043752-.342-.062169-.52-.066775h-.089c-.169 0-.269-.034546-.269-.170409 0-.096716.118-.131255.358-.133557h.333l.212.004603.449.011518.859.025327.272.00461h.225l.279-.006908.973-.032242.274-.006908.26-.004603h.159c.219 0 .354.034535.354.13816 0 .126652-.089.165804-.237.170409h-.032c-.169 0-.304.01612-.506.050661-.441.0829-.582.354622-.621.911892l-.009.14277-.011.23718-.009.31548-.009.54346v6.35792l.004.72998v.33853l.005.4237.009.3868.004.1797.007.1704.007.1589.009.1496.009.1382c.003.0209.004.0414.006.0615.002.0219.003.0435.006.0652l.004.046.014.0898c.062.3846.203.6379.657.6978.207.0299.524.0621.77.069h.089ZM190.909 12.9439l.014.0138h-.064c-.208-.0115-.527-.0714-.981-.2556-.693-.2718-1.297-.7807-1.876-1.3241l-.18-.1727-.358-.3454-.107-.106-.137-.1404-.258-.2672-.479-.50657-.624-.6701-.71-.77143-.542-.59641-.577-.64248-.401-.45364-.251-.28785-.132-.15658-.19-.22568-.118-.14507-.046-.05987.055-.05757.264-.27633.529-.54115.869-.87965 1.238-1.2435.764-.7576c.689-.6655 1.24-1.00631 1.744-1.202045.322-.117441.743-.186524.978-.186524h.035c.145-.004605.218-.043755.218-.154288 0-.117441-.118-.151983-.287-.151983h-.164l-.182.00461-.197.004603-.581.020724-.41.013816-.19.00461h-.453l-.153-.006915-.93-.03454-.288-.009206h-.166c-.187-.002303-.269.032237-.269.149678 0 .103625.068.138164.219.170402.168.034542.237.151985.237.340808 0 .14508-.094.32469-.244.53654l-.069.09442-.075.09672-.082.10132-.086.10592-.311.36845-.052.05987-.096.10593-.114.12434-.276.29937-.444.47436-2.28 2.39718-.242.26021h-.084V3.65681l.004-1.0846.007-.40989.011-.29706.01-.1681.009-.11514c.045-.51812.191-.776027.615-.854321.011-.002101.021-.003722.03-.005301.012-.001882.023-.003705.034-.00621l.112-.018426c.102-.013816.185-.023029.296-.023029h.028c.12-.004605.207-.043748.207-.154281 0-.117441-.118-.151983-.353-.151983h-.146l-.162.004603-.173.00461-1.321.041448h-.485L178.9.386888l-.536-.011511-.356-.004603h-.13c-.223.004606-.328.041444-.328.151976 0 .119744.1.154288.287.154288h.169l.114.006908.109.006908c.108.009211.201.020726.265.036845l.052.011511c.513.12435.641.39838.673.95795l.009.1681.007.18653.009.32238.007.69774v6.51682l-.005.46977-.007.4375-.006.3063-.009.2855-.007.1796-.009.1681-.01.1566-.011.1474-.014.1336-.006.0621-.016.1083-.016.1036-.019.099c-.068.3362-.175.5734-.44.6264-.15.0345-.353.0691-.606.0691h-.039c-.173.0069-.23.0575-.23.1358 0 .1198.118.1704.337.1704h.31l.427-.0115.602-.0184.64-.0184h.187l.258.0046 1.049.0299.531.0115.276.0046h.276c.184 0 .319-.0483.319-.1681 0-.0852-.084-.1358-.219-.1358-.089 0-.201-.0046-.317-.0139l-.18-.0161c-.119-.0115-.235-.0253-.331-.0391-.421-.0668-.574-.4422-.606-.9211l-.009-.1313-.007-.1428-.007-.1542-.004-.1658-.007-.2672-.007-.3891-.005-.5343v-.70461l-.004-2.71266h.084l.219.29936.068.0898.165.20495.171.20955.428.51813.586.69773.502.58951.442.51352.365.42142.422.4813.451.5066.231.2533.157.1681.141.1474.123.1243.071.0691.007.006c.02.0182.038.0351.055.0516l.146.1312.141.1221c.572.4927 1.019.7829 1.806.8543.111.0115.219.0184.328.023l.166.0069h.178l.194.0046h1.81c.283-.0046.358-.0552.358-.1704 0-.1013-.1-.1358-.218-.1358l.002.0023ZM118.07 9.95487v-.59872h.002V3.21007l-.007-.7507-.009-.4168-.009-.21876-.007-.11975c-.032-.55957-.159-.833596-.672-.957946l-.053-.011511c-.118-.029936-.292-.046055-.483-.050661h-.073c-.187 0-.287-.034544-.287-.154288 0-.110532.104-.147375.328-.149678h.415l.26.00461.454.011511.738.023029.331.006908h.303l.406-.009213 1.035-.029937.34-.006908.303-.004603h.068c.235 0 .354.039148.354.151983 0 .112836-.089.149676-.265.154281h-.038c-.185 0-.454.01612-.657.050661-.44.0829-.581.354632-.62.911902l-.014.22797-.011.29706-.009.46285-.005 1.02933V9.4805l.005.45825.004.25335.007.2348.007.1474.011.2096.009.1289.012.1221.011.1151c.001.0062.002.0123.003.0184.002.0123.004.0246.004.0369l.016.1059c.005.0345.009.0668.016.099l.018.0921c.053.2326.126.3915.226.479l.041.0345.043.0323c.03.0207.06.0414.094.0598l.052.0277c.073.0345.155.0645.251.0921l.075.0184c.028.0069.055.0138.082.0184l.089.0162c.014.0023.03.0046.046.0069l.098.0138.105.0115.114.0115.121.0092.13.0069.212.0092.152.0046h.682l.164-.0046c.641-.0184 1.129-.1036 1.466-.472.192-.2096.383-.6471.431-.9672l.007-.0553c.018-.1519.053-.2556.187-.2556.103 0 .13.0645.135.2188v.1151l-.007.1037-.012.1404-.02.2349-.027.2694-.035.2879-.029.2164-.021.1405-.02.1336-.023.1266-.023.1152-.004.0186-.007.0295-.004.0194c-.003.0115-.005.0228-.008.0338l-.02.0737-.016.0529-.016.0484c-.005.0092-.009.023-.009.023l-.019.0415c-.054.1128-.134.1819-.303.221l-.064.0139-.07.0115c-.039.0046-.08.0092-.123.0115l-.094.0069h-.007l-.105.0069h-.798l-.39-.0046-.481-.0069-.549-.0115-1.054-.0323-.754-.0253-.481-.0138c-.142-.0069-.283-.0069-.427-.0069h-.362l-.641.0184-.602.0184-.426.0115h-.31c-.219 0-.338-.0506-.338-.1704 0-.0783.057-.1289.23-.1358h.039c.256 0 .456-.0346.609-.0691.276-.053.383-.3132.449-.6747l.018-.1013.016-.106c.001-.0061.002-.0122.003-.0184.002-.0123.004-.0246.004-.0368.007-.0622.014-.1267.021-.1981l.011-.1474.009-.1565.009-.1681.012-.2718.009-.2924.007-.3132.009-.44673Z"/>
        <path fill="currentColor" fill-rule="evenodd" d="M141.616 26.6706c-.278.4352-.677.7691-1.197 1.004v.0023c-.055.0263-.116.0472-.176.0679l-.032.0111-.024.0085 1.992 2.8393h-1.306l-1.804-2.5998c-.168.0161-.346.023-.531.023h-2.073v2.5768h-1.197v-8.4672h3.27c.734 0 1.361.1151 1.881.35.518.2326.917.5734 1.197 1.0155.281.4421.42.9718.42 1.5843s-.139 1.1399-.42 1.5843Zm-5.148.327h2.036v-.0023c.768 0 1.345-.1635 1.737-.4951.399-.3408.6-.8129.6-1.4162s-.201-1.0708-.6-1.4024c-.392-.3293-.971-.4951-1.737-.4951h-2.036v3.8111Z" clip-rule="evenodd"/>
        <path fill="currentColor" d="M80.8341 25.7748h-4.8155v-3.6406h-1.1971v8.4672h1.1971v-3.7742h4.8155v3.7742h1.197v-8.4672h-1.197v3.6406Z"/>
        <path fill="currentColor" fill-rule="evenodd" d="m85.6678 30.6014 3.7964-8.4672h1.1879l3.8077 8.4672h-1.2586l-.9212-2.1162h-4.4575l-.9211 2.1162h-1.2336Zm4.3823-7.2375L88.242 27.518h3.6162l-1.8081-4.1541Z" clip-rule="evenodd"/>
        <path fill="currentColor" d="M105.878 30.6014h1.149l-.011-8.4672h-.983l-3.452 5.948-3.495-5.948h-.9827v8.4672h1.1514v-6.1345l3.0303 5.1075h.549l3.033-5.1467.011 6.1737ZM148.88 23.3569c-.405.1612-.761.3869-1.064.6771h.004c-.296.2901-.526.6378-.695 1.0408-.16.3961-.24.8336-.24 1.2942 0 .4605.08.8911.24 1.2941.169.3961.399.7415.695 1.0409.304.2901.657.5158 1.065.677.406.1612.851.2418 1.329.2418.447 0 .874-.0668 1.282-.205.237-.0829.465-.2003.681-.3454v-2.7518h1.15v3.3022c-.415.3546-.903.6263-1.462.8105-.549.1773-1.122.2672-1.712.2672-.648 0-1.243-.106-1.786-.3155-.542-.2165-1.014-.5204-1.413-.9073-.399-.3961-.712-.8543-.935-1.3794-.223-.5227-.335-1.1007-.335-1.7293 0-.6287.112-1.2044.335-1.7294.223-.525.536-.981.935-1.3679.406-.396.882-.6977 1.425-.9072.543-.2188 1.135-.327 1.797-.327.661 0 1.267.1082 1.819.327.552.2164 1.019.5434 1.402.9786l-.743.7507c-.344-.3385-.718-.5826-1.126-.7369-.399-.1612-.828-.2417-1.307-.2417s-.926.0805-1.341.2417Z"/>
        <path fill="currentColor" fill-rule="evenodd" d="M118.827 27.1058c-.217-.3316-.506-.5802-.873-.7506-.124-.0576-.254-.1014-.39-.1382.007-.0023.011-.0046.018-.0069.344-.1704.616-.4122.814-.7254.207-.3155.312-.7023.312-1.1606 0-.677-.26-1.2089-.78-1.5958-.519-.3961-1.26-.5941-2.227-.5941h-3.76v8.4672h3.999c1.063 0 1.861-.198 2.397-.5918.542-.403.814-.9671.814-1.6925 0-.4836-.108-.8866-.324-1.2089v-.0024Zm-3.236-3.9906c.607 0 1.079.1128 1.414.3385.335.2256.504.5641.504 1.0155 0 .4513-.169.7898-.504 1.0155-.335.2257-.807.3385-1.414.3385h-2.455v-2.7103h2.455v.0023Zm1.822 6.1691c-.351.2256-.859.3385-1.521.3385h-2.754v-2.8186h2.754c.664 0 1.17.1128 1.521.3385s.527.5849.527 1.0754c0 .4905-.176.8382-.527 1.0639v.0023Z" clip-rule="evenodd"/>
        <path fill="currentColor" d="M129.256 22.1342h1.163v4.8151c0 1.225-.315 2.1553-.947 2.7932-.622.6379-1.498.9557-2.599.9557-1.101 0-1.968-.3178-2.599-.9557-.632-.6355-.946-1.5682-.946-2.7932v-4.8151h1.197v4.7667c0 .9441.203 1.6327.611 2.0679.415.4352.989.654 1.749.654.759 0 1.34-.2188 1.748-.654.415-.4352.623-1.1238.623-2.0679v-4.7667ZM167.085 43.6166c-.169-.0967-.358-.175-.568-.2348-.205-.0599-.411-.1129-.616-.1589-.205-.0507-.394-.1059-.568-.1658-.168-.0599-.307-.1405-.417-.2418-.105-.1013-.157-.2372-.157-.4076 0-.1428.039-.2717.116-.3869.082-.1151.21-.2072.383-.2763.174-.0691.395-.1036.664-.1036.214 0 .435.0322.663.0967.228.0599.445.1589.65.297l.226-.5526c-.201-.1382-.438-.2441-.712-.3178-.273-.0737-.549-.1105-.827-.1105-.42 0-.766.0644-1.04.1934-.269.1243-.47.2925-.602.5043-.128.2073-.191.4352-.191.6839 0 .2487.052.4698.157.6356.105.1612.242.2901.41.3869.174.0967.363.1773.568.2417.21.0599.417.1129.623.1589.205.0461.392.1014.56.1658.174.0599.313.1405.418.2418.109.1013.164.2349.164.4007 0 .1428-.041.2717-.123.3869-.082.1105-.21.198-.383.2625-.174.0645-.399.0967-.678.0967-.305 0-.599-.053-.882-.1589-.283-.1059-.515-.2395-.698-.4007l-.253.5389c.192.1796.454.327.787.4421.333.1105.682.1658 1.046.1658.42 0 .767-.0622 1.04-.1865.278-.129.484-.2971.616-.5043.132-.2119.198-.4398.198-.6839 0-.2441-.052-.4606-.157-.6218-.105-.1612-.244-.2901-.417-.3869ZM159.113 41.8044c-.228.0921-.426.2211-.595.3869-.168.1658-.301.3638-.396.5941-.092.2256-.137.472-.137.7392 0 .2671.045.5158.137.7461.095.2256.228.4214.396.5872.169.1658.367.2947.595.3868.233.0921.493.1382.753.1382s.504-.0461.732-.1382c.228-.0967.433-.2441.615-.4421l.445.4352c-.219.2487-.486.4375-.8.5665-.31.1289-.662.1934-1.026.1934-.365 0-.703-.0598-1.013-.1796-.305-.1243-.572-.297-.8-.5181-.223-.2257-.399-.4882-.527-.7876-.127-.2993-.191-.6286-.191-.9878 0-.3593.064-.6886.191-.9879.128-.2994.306-.5596.534-.7807.228-.2256.495-.3983.8-.5181.31-.1243.643-.1865 1.013-.1865.369 0 .709.0645 1.019.1934.314.1244.581.3109.8.5596l-.445.4352c-.182-.1934-.387-.3362-.615-.4283-.228-.0967-.463-.1451-.732-.1451-.269 0-.52.0461-.753.1382ZM154.476 41.1067h-.684v4.8381h.684v-4.8381ZM147.02 41.1067l2.875 3.6061v-3.6061h.684v4.8381h-.561l-2.875-3.6039v3.6039h-.684v-4.8381h.561ZM143.244 41.1067h-.684v4.8381h.684v-4.8381ZM136.716 41.1067h.687v4.237h2.592v.6011h-3.279v-4.8381ZM130.82 42.1913c.169-.1658.367-.2948.595-.3869.233-.0921.484-.1382.753-.1382s.504.0484.732.1451c.228.0921.433.2349.615.4283l.445-.4352c-.219-.2487-.486-.4352-.801-.5596-.31-.1289-.649-.1934-1.019-.1934-.369 0-.702.0622-1.012.1865-.306.1198-.572.2925-.8.5181-.228.2211-.406.4813-.534.7807-.128.2993-.191.6286-.191.9879 0 .3592.063.6885.191.9878.128.2994.303.5619.527.7876.228.2211.495.3938.8.5181.31.1198.648.1796 1.012.1796.365 0 .716-.0645 1.026-.1934.315-.129.582-.3178.801-.5665l-.445-.4352c-.182.198-.387.3454-.615.4421-.228.0921-.472.1382-.732.1382s-.52-.0461-.753-.1382c-.228-.0921-.426-.221-.595-.3868-.169-.1658-.301-.3616-.397-.5872-.091-.2303-.136-.479-.136-.7461 0-.2672.045-.5136.136-.7392.096-.2303.228-.4283.397-.5941ZM119.602 41.1067l2.873 3.6061v-3.6061h.686v4.8381h-.561l-2.875-3.6039v3.6039h-.684v-4.8381h.561Z"/>
        <path fill="currentColor" fill-rule="evenodd" d="m113.692 41.1067-2.171 4.8381h.705l.527-1.209h2.547l.526 1.209h.718l-2.175-4.8381h-.677Zm-.698 3.0764 1.033-2.3741 1.033 2.3741h-2.066Z" clip-rule="evenodd"/>
        <path fill="currentColor" d="m106.492 44.5055 1.972-3.3988h.561l.007 4.8381h-.659l-.005-3.5279-1.733 2.9406h-.314l-1.731-2.9176v3.5049h-.659v-4.8381h.563l1.998 3.3988ZM97.6951 42.1913c.1733-.1658.3762-.2948.6088-.3869.2371-.0921.4925-.1382.7661-.1382s.5176.0461.7456.1382c.2324.0875.4464.228.6434.4214l.424-.4283c-.219-.2487-.486-.4352-.801-.5596-.3143-.1243-.6609-.1865-1.0394-.1865-.3785 0-.7159.0622-1.026.1865-.3101.1198-.5814.2925-.814.5181-.228.2211-.4059.4813-.5335.7807-.1277.2993-.1916.6286-.1916.9879 0 .3592.0639.6885.1916.9878.1276.2994.3055.5619.5335.7876.228.2211.4971.3938.8071.5181.3101.1198.6499.1796 1.0192.1796.3375 0 .6635-.0506.9781-.152.319-.1059.597-.2602.835-.4628v-1.8883h-.657v1.5728c-.123.0829-.2532.1497-.39.198-.2325.0783-.4765.1175-.7319.1175-.2736 0-.5267-.0461-.7592-.1382-.2326-.0921-.4355-.221-.6088-.3868-.1687-.1704-.301-.3685-.3967-.5942-.0912-.2302-.1368-.4766-.1368-.7391 0-.2626.0456-.5136.1368-.7392.0957-.2303.228-.4283.3967-.5941Z"/>
        <path fill="currentColor" fill-rule="evenodd" d="M93.7415 43.6995c-.1596.2487-.3876.4399-.684.5734l-.0023.0023c-.0411.0208-.0867.0346-.1323.0507l1.1378 1.6234h-.7456l-1.0306-1.4852c-.0957.0069-.1983.0115-.3032.0115h-1.1834v1.4714h-.684v-4.8381h1.8697c.4195 0 .7775.0668 1.0739.2004.2964.1335.5244.327.684.5803.1596.2533.2394.5549.2394.905 0 .35-.0798.6516-.2394.9049Zm-2.9436.1866h1.1628c.4378 0 .7684-.0944.9919-.2833.228-.1934.342-.4628.342-.8082 0-.3455-.114-.6126-.342-.8014-.2235-.1888-.5541-.2832-.9919-.2832h-1.1628v2.1761Z" clip-rule="evenodd"/>
        <path fill="currentColor" d="M84.4343 43.7825h2.4032v-.5872h-2.4032v-1.4876h2.6973v-.601h-3.3814v4.8381h3.4771v-.6011h-2.793v-1.5612Z"/>
        <path fill="currentColor" fill-rule="evenodd" d="M80.0018 43.4416c.0775.0208.1528.0461.2235.0783l-.0023.0023c.2097.0968.3762.2395.4993.4283.1231.1843.1847.4145.1847.6909 0 .4145-.1551.7369-.4651.9671-.3056.2257-.7616.3385-1.3681.3385h-2.2846v-4.8381h2.1478c.5518 0 .9759.1129 1.2723.3385.2964.2211.4446.5251.4446.9119 0 .2625-.0593.4836-.1778.6632-.114.1796-.2691.3178-.4652.4145-.0023.0023-.0068.0046-.0091.0046Zm-.3169-1.582c-.1916-.1289-.4606-.1934-.8072-.1934h-1.4022v1.5475h1.4022c.3466 0 .6156-.0645.8072-.1935.1915-.1289.2873-.3224.2873-.5803s-.0958-.4513-.2873-.5803Zm-.6362 3.5256c.3785 0 .6681-.0645.8687-.1935.2007-.1289.301-.327.301-.6079s-.1003-.4859-.301-.6148c-.2006-.129-.4902-.1935-.8687-.1935h-1.5732v1.6097h1.5732Z" clip-rule="evenodd"/>
        <path fill="currentColor" d="m70.0197 41.1067-1.5391 2.5537-1.5322-2.5537h-.7342l1.9039 3.1547v1.6834h.6772v-1.6741l1.9015-3.164h-.6771Z"/>
        <path fill="currentColor" fill-rule="evenodd" d="M63.314 43.4416c.0775.0208.1528.0461.2235.0783l-.0023.0023c.2098.0968.3762.2395.4993.4283.1231.1843.1847.4145.1847.6909 0 .4145-.155.7369-.4651.9671-.3056.2257-.7616.3385-1.3681.3385h-2.2869v-4.8381h2.1501c.5518 0 .9759.1129 1.2723.3385.2964.2211.4446.5251.4446.9119 0 .2625-.0593.4836-.1778.6632-.114.1796-.2691.3178-.4652.4145-.0022.0023-.0068.0046-.0091.0046Zm-.3169-1.582c-.1915-.1289-.4606-.1934-.8072-.1934h-1.4022v1.5475h1.4022c.3466 0 .6157-.0645.8072-.1935.1915-.1289.2873-.3224.2873-.5803s-.0958-.4513-.2873-.5803Zm-.6362 3.5256c.3785 0 .6681-.0645.8688-.1935.2006-.1289.3009-.327.3009-.6079s-.1003-.4859-.3009-.6148c-.2007-.129-.4903-.1935-.8688-.1935h-1.5732v1.6097h1.5732Z" clip-rule="evenodd"/>
    </svg>