<?xml version="1.0" encoding="utf-8"?>
<!-- Generator: Adobe Illustrator 26.2.1, SVG Export Plug-In . SVG Version: 6.00 Build 0)  -->
<svg version="1.1" id="Ebene_1" xmlns="http://www.w3.org/2000/svg" xmlns:xlink="http://www.w3.org/1999/xlink" x="0px" y="0px"
	 viewBox="0 0 538 163" style="enable-background:new 0 0 538 163;" xml:space="preserve">
<style type="text/css">
	.st0{fill:#706F6F;}
</style>
<g>
	<polygon class="st0" points="189.2,147.6 192.6,147.6 192.6,127.7 189.2,127.7 	"/>
	<path class="st0" d="M217.2,132.3H217h-2v6h1.4c2.3,0,4-0.7,4-3.1C220.3,133.2,219.4,132.3,217.2,132.3 M217.2,141.1
		c-0.4,0-1.3,0-2.2-0.1v6.6h-3.4v-17.9c2.1-0.1,4.1-0.2,6.2-0.2c3.4,0,6.2,1.6,6.2,5.7C224,138.8,220.5,141.1,217.2,141.1"/>
	<path class="st0" d="M345.8,139.8c-0.1-1.4-0.3-2.4-2.5-2.4c-0.4,0-1.3,0.3-1.4,0.4c-0.1,0.1-0.9,0.8-1.1,2H345.8L345.8,139.8
		L345.8,139.8z M340.7,141.8c0.1,1.7,1.3,3.4,3.3,3.4c1.3,0,2.8-0.5,4.4-1.8l0.3,3.2c-1.5,0.9-2.9,1.4-5.4,1.4
		c-3.5,0-6.2-2.5-6.2-6.5c0-4.1,2.6-6.5,6.2-6.5c4.3,0,5.6,2.2,5.6,6.9L340.7,141.8L340.7,141.8z"/>
	<polygon class="st0" points="366.4,147.6 369.8,147.6 369.8,127.7 366.4,127.7 	"/>
	<path class="st0" d="M394.2,135l-1.9,5.6h3.7L394.2,135L394.2,135z M398.4,147.6l-1.5-4.2h-5.8l-1.5,4.2h-3.2l7-18.6h1.8l6.6,18.6
		H398.4L398.4,147.6z"/>
	<polygon class="st0" points="403.9,147.6 407.3,147.6 407.3,127.7 403.9,127.7 	"/>
	<polygon class="st0" points="411.2,147.6 414.6,147.6 414.6,127.7 411.2,127.7 	"/>
	<path class="st0" d="M426.3,139.8c-0.1-1.4-0.3-2.4-2.5-2.4c-0.4,0-1.3,0.3-1.4,0.4c0,0.1-0.9,0.8-1.1,2H426.3L426.3,139.8
		L426.3,139.8z M421.2,141.8c0.1,1.7,1.3,3.4,3.3,3.4c1.3,0,2.8-0.5,4.4-1.8l0.3,3.2c-1.5,0.9-2.9,1.4-5.4,1.4
		c-3.5,0-6.2-2.5-6.2-6.5c0-4.1,2.6-6.5,6.2-6.5c4.3,0,5.6,2.2,5.6,6.9L421.2,141.8L421.2,141.8z"/>
	<path class="st0" d="M463,137.7c-0.9,0-1.5,0.4-1.7,0.5c-0.7,0.7-1.2,2-1.2,3.4v0.1c0.1,1.8,0.8,3.5,3.1,3.5c0.8,0,1.5-0.4,1.6-0.4
		c0.8-0.7,1.3-2.1,1.3-3.4v-0.1C466,139.4,465.3,137.7,463,137.7 M462.9,148c-3.9,0-6.4-2.6-6.4-6.5c0-3.5,2.3-6.5,6.7-6.5
		c3.9,0,6.4,2.6,6.4,6.5C469.7,145.2,467.1,148,462.9,148"/>
	<polygon class="st0" points="472.7,147.6 476.1,147.6 476.1,127.7 472.7,127.7 	"/>
	<path class="st0" d="M510.3,135.3h3.4v12.4h-3.4L510.3,135.3L510.3,135.3z M512,132.9c-1.1,0-2-0.9-2-2s0.9-2,2-2
		c1.1,0,2,0.8,2,1.9C513.9,132,513,132.9,512,132.9"/>
	<path class="st0" d="M525.4,139.8c-0.1-1.4-0.3-2.4-2.5-2.4c-0.4,0-1.3,0.3-1.4,0.4c-0.1,0.1-0.9,0.8-1.1,2H525.4L525.4,139.8
		L525.4,139.8z M520.3,141.8c0.1,1.7,1.3,3.4,3.3,3.4c1.3,0,2.8-0.5,4.4-1.8l0.3,3.2c-1.5,0.9-2.9,1.4-5.4,1.4
		c-3.5,0-6.2-2.5-6.2-6.5c0-4.1,2.6-6.5,6.2-6.5c4.3,0,5.6,2.2,5.6,6.9L520.3,141.8L520.3,141.8z"/>
	<path class="st0" d="M26.7,67.3h-0.4l-9.8,0.1v36.8H26c12,0,17.6-7.2,17.6-18.7C43.5,77.6,39.5,67.3,26.7,67.3 M27,108.5H11V63.2
		l3.2-0.2c4.9-0.3,8.1-0.1,13.5-0.1c16.5,0,22.2,12.3,22.2,22.7C49.9,95.5,44,108.5,27,108.5"/>
	<polygon class="st0" points="61.8,108.5 61.8,63.1 88.4,63.1 88.4,67.8 67.4,67.8 67.4,83.1 85.7,83.1 85.7,87.8 67.4,87.8 
		67.4,103.9 89.9,103.9 89.9,108.5 	"/>
	<path class="st0" d="M113.6,67.5h-0.3l-5.9,0.1v16.8h6c8.3,0,11.2-3.4,11.2-9C124.6,70,120.5,67.5,113.6,67.5 M127.7,108.5
		c-0.6-0.6-2.6-3-4.9-6.3c0,0-6.6-8.8-9.7-13.3h-5.6v19.6h-5.6V63.2l2.5-0.1c1.3-0.1,7.9-0.4,10.1-0.4c9.5,0,16.4,3.9,16.4,13
		c0,6.7-4.9,11.8-11.1,12.6c3.7,5.2,8.5,11.8,8.5,11.8c2.7,3.7,5.5,7,6.9,8.4H127.7L127.7,108.5z"/>
	<path class="st0" d="M187,108.5l-2.4-39.1l-17.9,40.1l-16-40l-2.9,39.1h-5.2l3.5-45.5h7.1l6.4,15.4c4.1,9.9,7.7,19.8,7.7,19.8
		s4-10.4,8.1-19.5l7-15.7h6.7l3.4,45.5H187V108.5z"/>
	<path class="st0" d="M219.6,72.5L212.5,91h13.6L219.6,72.5L219.6,72.5z M232.4,108.5l-4.7-13h-16.9l-4.9,13h-5.4l18-47h2.7l17.1,47
		H232.4L232.4,108.5z"/>
	<polygon class="st0" points="261.5,67.7 261.5,108.5 255.9,108.5 255.9,67.7 240.8,67.7 240.8,63 276.6,63 276.6,67.7 	"/>
	<path class="st0" d="M304.9,66.8c-10,0-16.7,8.4-16.7,19c0,10.5,6.6,19,16.7,19c10,0,16.4-8.8,16.4-19
		C321.2,75.7,314.8,66.8,304.9,66.8 M304.9,109.5c-13.6,0-23-11-23-23.7c0-12.6,9.5-23.7,23-23.7c13.4,0,22.7,10.9,22.7,23.7
		C327.6,98.3,318.3,109.5,304.9,109.5"/>
	<polygon class="st0" points="339.5,108.5 339.5,63.1 345.1,63.1 345.1,103.9 366.8,103.9 366.8,108.5 	"/>
	<path class="st0" d="M394.9,66.8c-10,0-16.7,8.4-16.7,19c0,10.5,6.6,19,16.7,19c10,0,16.4-8.8,16.4-19
		C411.3,75.7,404.9,66.8,394.9,66.8 M394.9,109.5c-13.6,0-23-11-23-23.7c0-12.6,9.5-23.7,23-23.7c13.4,0,22.7,10.9,22.7,23.7
		C417.7,98.3,408.3,109.5,394.9,109.5"/>
	<path class="st0" d="M459.6,108.5c-2.2,0.4-4.9,0.8-9,0.8c-15.7,0-24.8-10.3-24.8-23.7c0-12.1,9.7-23.3,23.8-23.3
		c7.2,0,10.2,0.8,14.5,2.6l-0.4,5.2c-4-2.2-8.5-3.2-13.9-3.2c-10.1,0-17.6,7.6-17.6,18.7c0,11.9,8.3,19,18.8,19
		c3.4,0,6.1-0.7,8.8-1.7V89.5h-9.5v-4.7h15v22.1C463.3,107.6,461.7,108.1,459.6,108.5"/>
	<polygon class="st0" points="479.9,63.1 485.4,63.1 485.4,108.5 479.9,108.5 	"/>
	<polygon class="st0" points="501.2,108.5 501.2,63.1 527.8,63.1 527.8,67.8 506.8,67.8 506.8,83.1 525.1,83.1 525.1,87.8 
		506.8,87.8 506.8,103.9 529.3,103.9 529.3,108.5 	"/>
	<polygon class="st0" points="244.3,46 244.3,32.3 226.5,32.3 226.5,46 220.3,46 220.3,13.4 226.5,13.4 226.5,27 244.3,27 
		244.3,13.4 250.3,13.4 250.3,46 	"/>
	<path class="st0" d="M270.8,23.2l-3.5,10.2h6.7L270.8,23.2L270.8,23.2z M278.6,46l-2.7-7.5h-10.5l-2.8,7.5h-5.8l12.6-33.7h3.2
		L284.5,46H278.6L278.6,46z"/>
	<path class="st0" d="M322.1,46l-1.6-24.2l-12.2,25l-10.6-25.1L295.8,46h-5.6l2.5-32.6h6.8c3.5,7.5,6.3,14,9.3,21.2
		c3.5-7.3,6.7-14,10.3-21.2h6.2l2.5,32.6H322.1L322.1,46z"/>
	<path class="st0" d="M349.1,31.2h-5.5v10h5.2c4.8,0,6.7-1.5,6.7-5.1C355.5,32.8,353.1,31.2,349.1,31.2 M348.6,18h-0.1h-4.9v8.3h4.4
		c4,0,5.4-1.7,5.4-4.2C353.5,19.9,351.8,18,348.6,18 M350.7,46h-13.2V13.6c3.9-0.3,7.9-0.4,11.9-0.4c7.5,0,10.6,4.1,10.6,8.3
		c0,2.8-1.5,5.9-4.3,7c3.8,0.5,6.3,4.1,6.3,8.3C362,42.3,357.4,46,350.7,46"/>
	<path class="st0" d="M382.8,46.6c-6.8,0-13.3-3.9-13.3-11V13.4h6.1v20.9c0,5.8,4.2,7.2,7.4,7.2c3.8,0,7.8-1.5,7.8-7.3V13.4h6.1v21
		C397,42.9,391,46.6,382.8,46.6"/>
	<path class="st0" d="M416.4,18.4H416h-3v9.4h3.1c5.2,0,6.7-1.9,6.7-5.1C422.7,19.9,420.8,18.4,416.4,18.4 M424.1,46
		c-3.5-4.8-5.5-7.9-8.6-13.2H413V46h-6.1V13.6c3.3-0.3,6.6-0.5,10-0.5c7,0,12.6,2.8,12.6,9.8c0,4.4-3,7.9-7,9.1
		c2.9,4.9,5.4,8.6,9.7,14H424.1L424.1,46z"/>
	<path class="st0" d="M460.4,46c-1.6,0.3-3.7,0.6-6.6,0.6c-11.6,0-18.5-7.5-18.5-17c0-8.6,7.2-16.7,17.8-16.7
		c5.2,0,7.4,0.5,11.3,2.1l-0.5,5.8c-4.2-2.2-7.1-2.9-10.8-2.9c-6.3,0-11.2,4.6-11.2,11.7c0,7.6,5.4,11.9,12.1,11.9
		c1.9,0,3.5-0.3,5-0.8v-7.3h-6v-5.2h12.1v16.7C463.1,45.4,461.9,45.7,460.4,46"/>
	<path class="st0" d="M500.2,137.4c-0.9,0-1.5,0.3-1.6,0.4c-0.1,0.1-0.6,0.8-0.6,1.8c0,1.3,0.8,2.3,2.3,2.3c0.8,0,1.5-0.3,1.6-0.4
		c0.1-0.1,0.6-0.6,0.6-1.9C502.4,138.3,501.8,137.4,500.2,137.4 M502,148.9c-1.3,0-2.1,0.1-3.4,0.1c-0.8,0.5-1.4,1.1-1.4,1.8
		c0,1,0.8,1.3,2.7,1.3c2.6,0,3.9-1.4,3.9-2.4C503.8,149,503.7,148.9,502,148.9 M505.8,138.2c0.2,0.5,0.2,0.8,0.2,1.4
		c0,2.9-2.3,4.9-5.9,4.9c-0.5,0-1,0-1.7-0.2c-0.4,0.4-0.8,0.7-0.8,1.3c0,0.5,0.4,0.6,0.7,0.6c1.4,0,2.6-0.1,4-0.1
		c3,0,4.9,0.4,4.9,3.3c0,3.6-4,5.4-7.6,5.4c-3,0-5.5-0.5-5.5-3c0-1.8,1.4-2.5,2.3-3c-0.7-0.2-1.9-0.8-1.9-2.2c0-1.3,1.5-2,2.5-2.8
		c-1-0.7-2.6-1.3-2.6-4s2.4-4.7,5.8-4.7c1.8,0,2.6,0.4,3.4,0.9c0.6,0,2.7,0,4.3-0.4v2.8h-2.1V138.2z"/>
	<path class="st0" d="M485.5,137.7c-0.9,0-1.5,0.4-1.7,0.5c-0.7,0.7-1.2,2-1.2,3.4v0.1c0.1,1.8,0.8,3.5,3.1,3.5
		c0.8,0,1.5-0.4,1.6-0.4c0.8-0.7,1.3-2.1,1.3-3.4v-0.1C488.6,139.4,487.8,137.7,485.5,137.7 M485.5,148c-3.9,0-6.4-2.6-6.4-6.5
		c0-3.5,2.3-6.5,6.7-6.5c3.9,0,6.4,2.6,6.4,6.5C492.2,145.2,489.7,148,485.5,148"/>
	<path class="st0" d="M447.4,137.4c-0.9,0-1.5,0.3-1.7,0.4c-0.1,0.1-0.6,0.8-0.6,1.8c0,1.3,0.8,2.3,2.3,2.3c0.7,0,1.5-0.3,1.6-0.4
		c0.1-0.1,0.6-0.6,0.6-1.9C449.6,138.3,449,137.4,447.4,137.4 M449.2,148.9c-1.3,0-2.1,0.1-3.3,0.1c-0.8,0.5-1.4,1.1-1.4,1.8
		c0,1,0.8,1.3,2.7,1.3c2.6,0,3.9-1.4,3.9-2.4C451,149,450.9,148.9,449.2,148.9 M453,138.2c0.2,0.5,0.2,0.8,0.2,1.4
		c0,2.9-2.3,4.9-5.9,4.9c-0.5,0-1,0-1.7-0.2c-0.4,0.4-0.8,0.7-0.8,1.3c0,0.5,0.4,0.6,0.7,0.6c1.4,0,2.6-0.1,4-0.1
		c3,0,4.9,0.4,4.9,3.3c0,3.6-4,5.4-7.6,5.4c-3,0-5.5-0.5-5.5-3c0-1.8,1.4-2.5,2.3-3c-0.7-0.2-1.9-0.8-1.9-2.2c0-1.3,1.5-2,2.5-2.8
		c-1-0.7-2.7-1.3-2.7-4s2.4-4.7,5.8-4.7c1.8,0,2.6,0.4,3.4,0.9c0.6,0,2.7,0,4.3-0.4v2.8h-2V138.2z"/>
	<path class="st0" d="M437.7,139c0-0.7,0-1.3-0.5-1.3s-0.8,0.6-1.3,1.5v8.4h-3.4v-8.7c0-1.7-0.3-3.6-0.3-3.6h3l0.3,1.5
		c0.4-0.7,1.5-1.8,2.7-1.8c1.8,0,2.2,1.2,2.2,2.5c0,0.4,0,0.8-0.1,1.2L437.7,139L437.7,139z"/>
	<polygon class="st0" points="293.2,147.6 296.5,147.6 296.5,127.7 293.2,127.7 	"/>
	<path class="st0" d="M283.4,137.7c-0.9,0-1.5,0.4-1.6,0.5c-0.8,0.7-1.2,2-1.2,3.4v0.1c0.1,1.8,0.8,3.5,3.1,3.5
		c0.8,0,1.5-0.4,1.6-0.4c0.8-0.7,1.3-2.1,1.3-3.4v-0.1C286.5,139.4,285.8,137.7,283.4,137.7 M283.4,148c-3.9,0-6.4-2.6-6.4-6.5
		c0-3.5,2.3-6.5,6.7-6.5c3.9,0,6.4,2.6,6.4,6.5C290.1,145.2,287.6,148,283.4,148"/>
	<path class="st0" d="M269,137.9c-1.3,0-1.7,0-2.8,0.5v6.6c0.4,0.1,0.7,0.1,1.4,0.1c2.3,0,3.6-1,3.6-3.7
		C271.3,138.8,270.6,137.9,269,137.9 M267.7,148c-1.2,0-2.7-0.1-4.9-0.5v-19.8h3.4v7.7c0.9-0.3,1.9-0.4,3.2-0.4
		c3.3,0,5.5,1.7,5.5,6.3C274.9,145.4,272.2,148,267.7,148"/>
	<path class="st0" d="M257,139.8c-0.1-1.4-0.3-2.4-2.5-2.4c-0.4,0-1.3,0.3-1.4,0.4c-0.1,0.1-0.9,0.8-1.1,2H257L257,139.8L257,139.8z
		 M251.9,141.8c0.1,1.7,1.3,3.4,3.3,3.4c1.3,0,2.8-0.5,4.4-1.8l0.3,3.2c-1.5,0.9-2.9,1.4-5.4,1.4c-3.6,0-6.2-2.5-6.2-6.5
		c0-4.1,2.6-6.5,6.2-6.5c4.3,0,5.6,2.2,5.6,6.9L251.9,141.8L251.9,141.8z"/>
	<polygon class="st0" points="241.9,147.6 245.3,147.6 245.3,127.7 241.9,127.7 	"/>
	<path class="st0" d="M237.8,147.6h-3.4c0.1-3.1,0.1-3.8,0.1-5.5c0-3.5-0.1-4.4-1.5-4.4c-0.7,0-1.4,0.1-1.6,0.2
		c-0.1,0.1-1.1,0.8-1.7,1.5v8.1h-3.4v-19.9h3.4v8.7c1-1,2.1-1.4,3.5-1.4c4.3,0,4.7,2.6,4.7,5.4c0,0.5,0,1,0,1.5
		C237.9,143.6,237.9,144.5,237.8,147.6"/>
	<path class="st0" d="M168.6,139.8c-0.1-1.4-0.3-2.4-2.5-2.4c-0.4,0-1.3,0.3-1.4,0.4c-0.1,0.1-0.9,0.8-1.1,2H168.6L168.6,139.8
		L168.6,139.8z M163.5,141.8c0.1,1.7,1.3,3.4,3.3,3.4c1.3,0,2.8-0.5,4.4-1.8l0.3,3.2c-1.5,0.9-2.9,1.4-5.4,1.4
		c-3.5,0-6.2-2.5-6.2-6.5c0-4.1,2.6-6.5,6.2-6.5c4.3,0,5.6,2.2,5.6,6.9L163.5,141.8L163.5,141.8z"/>
	<path class="st0" d="M153.5,135.3h3.4v12.4h-3.4V135.3L153.5,135.3z M155.2,132.9c-1.1,0-2-0.9-2-2s0.9-2,2-2s2,0.8,2,1.9
		C157.2,132,156.3,132.9,155.2,132.9"/>
	<path class="st0" d="M143.5,137.4c-0.9,0-1.5,0.3-1.6,0.4c-0.1,0.1-0.6,0.8-0.6,1.8c0,1.3,0.8,2.3,2.3,2.3c0.8,0,1.5-0.3,1.6-0.4
		c0.1-0.1,0.6-0.6,0.6-1.9C145.7,138.3,145.1,137.4,143.5,137.4 M145.2,148.9c-1.3,0-2.1,0.1-3.4,0.1c-0.8,0.5-1.4,1.1-1.4,1.8
		c0,1,0.8,1.3,2.6,1.3c2.6,0,3.9-1.4,3.9-2.4C147,149,147,148.9,145.2,148.9 M149,138.2c0.2,0.5,0.3,0.8,0.3,1.4
		c0,2.9-2.3,4.9-5.9,4.9c-0.5,0-1,0-1.7-0.2c-0.5,0.4-0.8,0.7-0.8,1.3c0,0.5,0.4,0.6,0.7,0.6c1.4,0,2.6-0.1,4-0.1
		c3,0,4.9,0.4,4.9,3.3c0,3.6-4,5.4-7.6,5.4c-3,0-5.5-0.5-5.5-3c0-1.8,1.4-2.5,2.3-3c-0.7-0.2-1.9-0.8-1.9-2.2c0-1.3,1.5-2,2.5-2.8
		c-1-0.7-2.7-1.3-2.7-4s2.4-4.7,5.8-4.7c1.8,0,2.6,0.4,3.4,0.9c0.6,0,2.7,0,4.3-0.4v2.8H149V138.2z"/>
	<path class="st0" d="M128.8,137.7c-0.9,0-1.5,0.4-1.7,0.5c-0.7,0.7-1.2,2-1.2,3.4v0.1c0.1,1.8,0.8,3.5,3.1,3.5
		c0.8,0,1.5-0.4,1.6-0.4c0.8-0.7,1.3-2.1,1.3-3.4v-0.1C131.8,139.4,131.1,137.7,128.8,137.7 M128.7,148c-3.9,0-6.4-2.6-6.4-6.5
		c0-3.5,2.3-6.5,6.7-6.5c3.9,0,6.4,2.6,6.4,6.5C135.4,145.2,132.9,148,128.7,148"/>
	<polygon class="st0" points="115.9,147.6 119.3,147.6 119.3,127.7 115.9,127.7 	"/>
	<path class="st0" d="M106.2,137.7c-0.9,0-1.5,0.4-1.6,0.5c-0.8,0.7-1.2,2-1.2,3.4v0.1c0.1,1.8,0.8,3.5,3.1,3.5
		c0.8,0,1.5-0.4,1.6-0.4c0.8-0.7,1.3-2.1,1.3-3.4v-0.1C109.3,139.4,108.5,137.7,106.2,137.7 M106.2,148c-3.9,0-6.4-2.6-6.4-6.5
		c0-3.5,2.3-6.5,6.7-6.5c3.9,0,6.4,2.6,6.4,6.5C112.9,145.2,110.4,148,106.2,148"/>
	<path class="st0" d="M95,148c-1.9,0-3.3-1.2-3.3-3.5v-7.1h-1.8v-2.2h1.8V131H95v4.2h2.8v2.2H95v6.4c0,1.2,0.3,1.3,0.6,1.3
		c0.8,0,1.7-0.5,2.3-0.9l0.3,2.7C97.2,147.5,96,148,95,148"/>
	<path class="st0" d="M84.1,142.2c-1.3,0.3-2.1,0.5-3.3,1.1c-0.1,0.4-0.2,0.5-0.2,0.9c0,0.7,0.2,1.3,1,1.3c1.2,0,2.5-1.5,2.5-1.5
		V142.2L84.1,142.2z M84.9,147.6c-0.2-0.5-0.2-0.7-0.3-1.5c-0.6,0.9-1.9,1.8-3.5,1.8c-2.2,0-3.7-1.3-3.7-3.1c0-1.1,0.2-2.1,0.6-2.6
		c0.7-0.9,4.4-1.9,6.1-2.2v-0.9c0-1.3-0.2-1.8-1.6-1.8c-0.6,0-1.6,0-1.8,0.3c-0.2,0.3-0.1,0.5-0.2,1l-2.7,0.2c0-0.2,0-0.3,0-0.5
		c0-0.7,0.1-1.2,0.3-1.9c0.1-0.5,2.2-1.6,4.7-1.6c3,0,4.7,1.3,4.7,3.6v5.5c0,1.7,0.4,3.7,0.4,3.7H84.9L84.9,147.6z"/>
	<path class="st0" d="M74.1,147.6h-3.4c0.1-3.1,0.1-3.8,0.1-5.5c0-0.3,0-0.7,0-1.2c0-0.4,0-0.7-0.1-1.1c-0.1-1.6-0.5-2-1.5-2
		c-0.7,0-1.4,0.1-1.5,0.2c-0.1,0.1-1.1,0.8-1.7,1.5v8.1h-3.4v-7.8c0-1.2-0.3-2-1.5-2c-0.7,0-1.4,0.1-1.5,0.2
		c-0.1,0.1-1.1,0.8-1.7,1.5v8.1h-3.4v-8.7c0-1.7-0.3-3.7-0.3-3.7h3l0.3,1.4c1.1-1.2,2.4-1.8,3.8-1.8c2.3,0,3.5,0.8,4.1,1.9
		c1.3-1.4,2.5-1.9,3.9-1.9c4.3,0,4.7,2.6,4.7,5.3c0,0.5,0,1,0,1.6C74.2,143.6,74.2,144.5,74.1,147.6"/>
	<path class="st0" d="M49.7,139c0-0.7,0-1.3-0.5-1.3s-0.8,0.6-1.3,1.5v8.4h-3.4v-8.7c0-1.7-0.3-3.6-0.3-3.6h3l0.3,1.5
		c0.4-0.7,1.5-1.8,2.7-1.8c1.8,0,2.2,1.2,2.2,2.5c0,0.4,0,0.8-0.1,1.2L49.7,139L49.7,139z"/>
	<path class="st0" d="M38.3,139.8c-0.1-1.4-0.3-2.4-2.5-2.4c-0.4,0-1.3,0.3-1.4,0.4c-0.1,0.1-0.9,0.8-1.1,2H38.3L38.3,139.8
		L38.3,139.8z M33.1,141.8c0.1,1.7,1.3,3.4,3.3,3.4c1.3,0,2.8-0.5,4.4-1.8l0.3,3.2c-1.5,0.9-2.9,1.4-5.4,1.4c-3.5,0-6.2-2.5-6.2-6.5
		c0-4.1,2.6-6.5,6.2-6.5c4.3,0,5.6,2.2,5.6,6.9L33.1,141.8L33.1,141.8z"/>
	<path class="st0" d="M17.9,132.3h-0.2l-3.2,0.1V145h3c4.2,0,6.2-2.3,6.2-6.4C23.7,135.7,22.2,132.3,17.9,132.3 M18,147.6h-6.8
		v-17.9c1-0.1,1.4-0.1,1.8-0.1c1-0.1,1.8-0.1,2.6-0.1c0.8,0,1.7,0,2.7,0c6.9,0,9.2,5,9.2,9C27.4,142.4,25.1,147.6,18,147.6"/>
	<path class="st0" d="M306,137.7c-0.9,0-1.5,0.4-1.7,0.5c-0.8,0.7-1.2,2-1.2,3.4v0.1c0.1,1.8,0.8,3.5,3.1,3.5c0.8,0,1.5-0.4,1.6-0.4
		c0.8-0.7,1.3-2.1,1.3-3.4v-0.1C309.1,139.4,308.3,137.7,306,137.7 M306,148c-3.9,0-6.4-2.6-6.4-6.5c0-3.5,2.3-6.5,6.7-6.5
		c3.9,0,6.4,2.6,6.4,6.5C312.7,145.2,310.1,148,306,148"/>
	<path class="st0" d="M320.7,137.4c-0.9,0-1.5,0.3-1.6,0.4c-0.1,0.1-0.6,0.8-0.6,1.8c0,1.3,0.8,2.3,2.3,2.3c0.8,0,1.5-0.3,1.6-0.4
		c0.1-0.1,0.6-0.6,0.6-1.9C322.9,138.3,322.3,137.4,320.7,137.4 M322.5,148.9c-1.3,0-2.1,0.1-3.4,0.1c-0.8,0.5-1.4,1.1-1.4,1.8
		c0,1,0.8,1.3,2.7,1.3c2.6,0,3.9-1.4,3.9-2.4C324.2,149,324.2,148.9,322.5,148.9 M326.2,138.2c0.2,0.5,0.3,0.8,0.3,1.4
		c0,2.9-2.3,4.9-5.9,4.9c-0.5,0-1,0-1.7-0.2c-0.4,0.4-0.8,0.7-0.8,1.3c0,0.5,0.4,0.6,0.7,0.6c1.4,0,2.6-0.1,4-0.1
		c3,0,4.9,0.4,4.9,3.3c0,3.6-4,5.4-7.6,5.4c-3,0-5.5-0.5-5.5-3c0-1.8,1.4-2.5,2.3-3c-0.7-0.2-1.9-0.8-1.9-2.2c0-1.3,1.5-2,2.5-2.8
		c-1-0.7-2.7-1.3-2.7-4s2.4-4.7,5.8-4.7c1.8,0,2.6,0.4,3.4,0.9c0.6,0,2.6,0,4.3-0.4v2.8h-2.1V138.2z"/>
	<path class="st0" d="M330.7,135.3h3.4v12.4h-3.4V135.3L330.7,135.3z M332.4,132.9c-1.1,0-2-0.9-2-2s0.9-2,2-2s2,0.8,2,1.9
		C334.4,132,333.5,132.9,332.4,132.9"/>
</g>
</svg>
