<?xml version="1.0" encoding="utf-8"?>
<!-- Generator: Adobe Illustrator 26.5.0, SVG Export Plug-In . SVG Version: 6.00 Build 0)  -->
<svg version="1.1" xmlns="http://www.w3.org/2000/svg" xmlns:xlink="http://www.w3.org/1999/xlink" x="0px" y="0px"
     viewBox="0 0 199.7 86.2" style="enable-background:new 0 0 199.7 86.2;" xml:space="preserve">
<style type="text/css">
	.st0{fill:#E10A14;}
	.st1{fill:#0078BF;}
	.st2{fill:#707B84;}
	.st3{fill:#FFFFFF;}
	.st4{fill:none;}
</style>
    <g id="RZ">
	<g>
		<g>
			<polygon class="st0" points="176.3,19.9 183,26.6 176.3,33.3 180.7,37.7 191.8,26.6 180.7,15.5 			"/>
            <polygon class="st1" points="165.1,8.8 171.8,15.5 176.3,11.1 165.1,0 154,11.1 158.5,15.5 			"/>
            <polygon class="st2" points="154,33.3 147.3,26.6 154,19.9 149.6,15.5 138.5,26.6 149.6,37.7 			"/>
            <polygon class="st1" points="165.1,44.5 158.4,37.7 154,42.2 165.1,53.3 176.3,42.2 171.9,37.7 			"/>
		</g>
        <g>
			<g id="path885_00000013872602105139896700000012274669926414888326_">
				<polygon class="st1" points="99.7,26.6 118.4,53.3 108.5,53.3 89.9,26.6 108.5,0 118.4,0 				"/>
			</g>
            <g>
				<path class="st1" d="M17.9,30.6c8-0.5,14.4-7.2,14.4-15.3C32.3,7,25.6,0.2,17.3,0l0,0H17c0,0,0,0,0,0H2.4v0H0v8.1h2.4v0H17
					c4,0,7.2,3.3,7.2,7.2c0,4-3.2,7.3-7.2,7.3H2.4v0H0v8.1h2.4v0h5.7L24,53.3h9.8L17.9,30.6z"/>
			</g>
            <g>
				<path class="st1" d="M63.2,53.3C63.2,53.3,63.2,53.3,63.2,53.3c8.6,0,15.6-7,15.6-15.4c0-4.9-2.4-9.4-6.2-12.2
					c2.5-2.7,4.1-6.4,4.1-10.4c0-8.3-6.8-15.1-15-15.3v0h-0.3c0,0,0,0,0,0H46.9v8.1h14.5c4,0,7.2,3.3,7.2,7.2c0,3.9-3.2,7.2-7.1,7.3
					H46.9v8.1h14.5c0,0,0,0,0,0c0,0,0,0,0,0h2.2c3.8,0.2,6.9,3.4,6.9,7.2c0,4-3.3,7.3-7.3,7.3c0,0,0,0,0,0c0,0-0.3,0-0.3,0
					c-5.3,0-10.6,0-15.9,0v8.1c5.3,0,10.6,0,15.9,0L63.2,53.3z"/>
			</g>
		</g>
        <g>
			<path class="st2" d="M0,75h4.4c1.1,0,2,0.3,2.7,0.9c0.5,0.5,0.8,1.2,0.8,2.1c0,1.5-0.8,2.4-2.3,2.8c0.7,0.2,1.2,0.6,1.4,1
				c0.2,0.4,0.4,1,0.6,1.8c0.1,0.5,0.2,0.9,0.4,1.4c0.2,0.5,0.3,0.8,0.4,0.9V86H6.8c-0.2-0.3-0.3-0.7-0.5-1
				c-0.1-0.4-0.2-0.9-0.4-1.6c-0.2-0.8-0.5-1.4-0.8-1.7c-0.3-0.3-0.8-0.4-1.5-0.4h-2V86H0V75z M4.1,80c1.5,0,2.2-0.6,2.2-1.9
				c0-1.2-0.6-1.8-1.9-1.8H1.6V80H4.1z"/>
            <path class="st2" d="M13.7,77.8c1.2,0,2.2,0.4,2.9,1.3c0.6,0.8,1,1.7,1,2.8c0,1.3-0.4,2.4-1.2,3.2c-0.7,0.7-1.6,1-2.7,1
				c-1.2,0-2.2-0.4-2.9-1.3c-0.6-0.8-1-1.7-1-2.8c0-1.3,0.4-2.4,1.3-3.2C11.7,78.1,12.6,77.8,13.7,77.8z M13.6,79.1
				c-0.7,0-1.3,0.3-1.7,0.9c-0.3,0.5-0.5,1.2-0.5,2c0,1,0.2,1.7,0.7,2.2c0.4,0.4,0.9,0.7,1.5,0.7c0.8,0,1.3-0.3,1.7-0.9
				c0.4-0.5,0.5-1.2,0.5-2c0-1-0.2-1.7-0.7-2.2C14.8,79.3,14.3,79.1,13.6,79.1z"/>
            <path class="st2" d="M21.3,79.2c0.6-1,1.5-1.4,2.6-1.4c1.1,0,2,0.4,2.6,1.3c0.5,0.8,0.8,1.7,0.8,2.9c0,1.4-0.4,2.4-1.1,3.2
				c-0.6,0.7-1.4,1-2.4,1c-1.2,0-2-0.5-2.6-1.4V86h-1.6V74.4h1.6V79.2z M23.5,79.1c-0.7,0-1.3,0.3-1.7,0.9c-0.3,0.5-0.5,1.2-0.5,2
				c0,1,0.2,1.7,0.7,2.2c0.4,0.4,0.9,0.7,1.6,0.7c1.4,0,2.2-0.9,2.2-2.8c0-1-0.2-1.8-0.6-2.3C24.7,79.3,24.2,79.1,23.5,79.1z"/>
            <path class="st2" d="M32.9,86.2c-1.3,0-2.3-0.4-3-1.3c-0.6-0.8-1-1.7-1-2.9c0-1.3,0.4-2.4,1.2-3.2c0.7-0.7,1.6-1,2.6-1
				c1.2,0,2.1,0.4,2.7,1.2c0.5,0.7,0.8,1.7,0.8,2.8v0.5h-5.7c0,0.5,0.1,0.9,0.3,1.2s0.3,0.6,0.6,0.8c0.4,0.3,0.9,0.5,1.5,0.5
				c0.5,0,0.9-0.1,1.2-0.3c0.3-0.2,0.6-0.4,0.9-0.8l1.1,0.9C35.4,85.7,34.3,86.2,32.9,86.2z M30.6,81.2h4.1
				c-0.1-0.8-0.3-1.4-0.7-1.7c-0.3-0.3-0.7-0.4-1.3-0.4C31.6,79,30.9,79.7,30.6,81.2z"/>
            <path class="st2" d="M38.2,77.9h1.6v1.3c0.5-1,1.2-1.5,2.1-1.5c0.4,0,0.9,0.1,1.3,0.3l-0.5,1.4c-0.3-0.2-0.6-0.2-1-0.2
				c-0.6,0-1.1,0.2-1.5,0.7c-0.3,0.4-0.5,1-0.5,1.7V86h-1.6V77.9z"/>
            <path class="st2" d="M44.2,77.9h1.2v-2l1.6-0.5v2.4h1.9v1.3H47v4.5c0,0.7,0.3,1.1,0.8,1.1c0.3,0,0.7-0.1,1-0.4l0.5,1.1
				c-0.5,0.4-1.1,0.6-1.7,0.6c-0.8,0-1.3-0.2-1.7-0.7c-0.4-0.4-0.5-0.9-0.5-1.5v-4.8h-1.2V77.9z"/>
            <path class="st2" d="M56,75h4.4c1.3,0,2.2,0.3,2.8,0.8c0.5,0.5,0.8,1.2,0.8,2.1c0,0.6-0.1,1-0.3,1.4c-0.2,0.4-0.6,0.7-1.2,1
				c0.8,0.2,1.3,0.6,1.7,1.1c0.3,0.4,0.4,0.9,0.4,1.6c0,1.1-0.4,1.9-1.1,2.4c-0.7,0.5-1.6,0.7-2.7,0.7H56V75z M60.6,79.7
				c1.2,0,1.8-0.6,1.8-1.7c0-0.6-0.2-1-0.5-1.3c-0.3-0.2-0.8-0.4-1.4-0.4h-2.8v3.4H60.6z M60.8,84.7c0.7,0,1.3-0.2,1.6-0.6
				c0.3-0.3,0.5-0.8,0.5-1.3c0-1.2-0.7-1.9-2.2-1.9h-3.1v3.7H60.8z"/>
            <path class="st2" d="M69.9,77.8c1.2,0,2.2,0.4,2.9,1.3c0.6,0.8,1,1.7,1,2.8c0,1.3-0.4,2.4-1.2,3.2c-0.7,0.7-1.6,1-2.7,1
				c-1.2,0-2.2-0.4-2.9-1.3c-0.6-0.8-1-1.7-1-2.8c0-1.3,0.4-2.4,1.3-3.2C68,78.1,68.9,77.8,69.9,77.8z M69.9,79.1
				c-0.7,0-1.3,0.3-1.7,0.9c-0.3,0.5-0.5,1.2-0.5,2c0,1,0.2,1.7,0.7,2.2c0.4,0.4,0.9,0.7,1.5,0.7c0.8,0,1.3-0.3,1.7-0.9
				c0.4-0.5,0.5-1.2,0.5-2c0-1-0.2-1.7-0.7-2.2C71,79.3,70.5,79.1,69.9,79.1z"/>
            <path class="st2" d="M78.3,86.2c-1.4,0-2.5-0.5-3.3-1.4l1.1-1c0.3,0.4,0.6,0.7,1,0.9c0.3,0.2,0.8,0.3,1.3,0.3
				c1.1,0,1.7-0.4,1.7-1.1c0-0.4-0.1-0.6-0.4-0.8c-0.3-0.1-0.8-0.3-1.5-0.5c-1-0.2-1.7-0.5-2.1-1c-0.4-0.4-0.5-0.9-0.5-1.5
				c0-0.8,0.3-1.4,0.9-1.8c0.5-0.4,1.2-0.6,2.1-0.6c1.2,0,2.1,0.3,2.7,1l-1,1c-0.3-0.3-0.5-0.4-0.8-0.5c-0.3-0.1-0.6-0.2-1.1-0.2
				c-0.4,0-0.7,0.1-1,0.3c-0.2,0.2-0.3,0.4-0.3,0.6c0,0.3,0.1,0.6,0.4,0.7c0.2,0.2,0.7,0.3,1.4,0.5c0.8,0.2,1.4,0.4,1.8,0.6
				c0.7,0.4,1,1.1,1,1.9c0,0.8-0.3,1.5-1,1.9C80.1,86,79.3,86.2,78.3,86.2z"/>
            <path class="st2" d="M87,86.2c-1.2,0-2.2-0.4-2.9-1.3c-0.6-0.8-0.9-1.7-0.9-2.9c0-1.3,0.4-2.4,1.2-3.2c0.7-0.7,1.6-1,2.6-1
				c1.4,0,2.4,0.6,3.2,1.7l-1.3,0.8c-0.3-0.4-0.5-0.7-0.8-0.9s-0.6-0.3-1-0.3c-0.8,0-1.3,0.3-1.7,0.9c-0.3,0.5-0.5,1.2-0.5,2
				c0,1,0.2,1.7,0.7,2.2c0.4,0.4,0.9,0.7,1.6,0.7c0.4,0,0.8-0.1,1.1-0.3c0.3-0.2,0.6-0.5,0.8-0.9l1.3,0.7
				C89.5,85.6,88.4,86.2,87,86.2z"/>
            <path class="st2" d="M91.9,74.4h1.6v4.8c0.5-0.9,1.3-1.4,2.4-1.4c0.9,0,1.6,0.3,2.1,0.9c0.4,0.5,0.6,1.3,0.6,2.2V86H97v-5
				c0-0.7-0.1-1.2-0.4-1.5c-0.3-0.3-0.6-0.4-1.1-0.4c-0.6,0-1.1,0.2-1.5,0.6c-0.3,0.4-0.5,0.8-0.5,1.4V86h-1.6V74.4z"/>
            <path class="st2" d="M106.1,75h1.6v5.4l4.6-5.4h1.9l-4,4.6l4.2,6.4h-1.8l-3.5-5.3l-1.4,1.6V86h-1.6V75z"/>
            <path class="st2" d="M116.2,77.9h1.6v1.3c0.5-1,1.2-1.5,2.1-1.5c0.4,0,0.9,0.1,1.3,0.3l-0.5,1.4c-0.3-0.2-0.6-0.2-1-0.2
				c-0.6,0-1.1,0.2-1.5,0.7c-0.3,0.4-0.5,1-0.5,1.7V86h-1.6V77.9z"/>
            <path class="st2" d="M129.4,86c-0.3,0-0.5,0-0.6,0c-0.9,0-1.5-0.4-1.8-1.2c-0.6,0.8-1.5,1.3-2.5,1.3c-0.8,0-1.5-0.2-1.9-0.7
				c-0.4-0.4-0.6-0.9-0.6-1.6c0-1.2,0.7-2,2.1-2.4c0.7-0.2,1.6-0.3,2.8-0.3v-0.4c0-0.6-0.1-1.1-0.4-1.3c-0.2-0.2-0.6-0.3-1.1-0.3
				c-0.8,0-1.5,0.3-2.3,1l-0.8-1.1c0.5-0.4,1-0.7,1.5-0.9c0.5-0.2,1.1-0.3,1.8-0.3c1,0,1.8,0.3,2.3,0.9c0.5,0.5,0.7,1.2,0.7,2.1v3.4
				c0,0.5,0.2,0.8,0.6,0.8c0.1,0,0.1,0,0.2,0V86z M126.9,82.3c-2.2,0-3.3,0.5-3.3,1.5c0,0.4,0.1,0.6,0.3,0.8c0.2,0.2,0.6,0.3,1,0.3
				c0.6,0,1.1-0.2,1.5-0.5c0.3-0.3,0.5-0.7,0.5-1.1V82.3z"/>
            <path class="st2" d="M131.2,77.9h1.6v1.3c0.5-0.9,1.3-1.4,2.4-1.4c0.9,0,1.6,0.3,2.1,0.9c0.4,0.5,0.6,1.3,0.6,2.2V86h-1.6v-5
				c0-0.7-0.1-1.2-0.4-1.5c-0.3-0.3-0.6-0.4-1.1-0.4c-0.6,0-1.1,0.2-1.5,0.6c-0.3,0.4-0.5,0.8-0.5,1.4V86h-1.6V77.9z"/>
            <path class="st2" d="M143.3,82.3l-1.1,1.3V86h-1.6V74.4h1.6v7.2l3.1-3.7h1.8l-2.7,3.2l3.1,4.9h-1.8L143.3,82.3z"/>
            <path class="st2" d="M152.1,86.2c-1.3,0-2.3-0.4-3-1.3c-0.6-0.8-1-1.7-1-2.9c0-1.3,0.4-2.4,1.2-3.2c0.7-0.7,1.6-1,2.6-1
				c1.2,0,2.1,0.4,2.7,1.2c0.5,0.7,0.8,1.7,0.8,2.8v0.5h-5.7c0,0.5,0.1,0.9,0.3,1.2c0.1,0.3,0.3,0.6,0.6,0.8
				c0.4,0.3,0.9,0.5,1.5,0.5c0.5,0,0.9-0.1,1.2-0.3c0.3-0.2,0.6-0.4,0.9-0.8l1.1,0.9C154.6,85.7,153.5,86.2,152.1,86.2z M149.8,81.2
				h4.1c-0.1-0.8-0.3-1.4-0.7-1.7c-0.3-0.3-0.7-0.4-1.3-0.4C150.8,79,150.1,79.7,149.8,81.2z"/>
            <path class="st2" d="M157.4,77.9h1.6v1.3c0.5-0.9,1.3-1.4,2.4-1.4c0.9,0,1.6,0.3,2.1,0.9c0.4,0.5,0.6,1.3,0.6,2.2V86h-1.6v-5
				c0-0.7-0.1-1.2-0.4-1.5c-0.3-0.3-0.6-0.4-1.1-0.4c-0.6,0-1.1,0.2-1.5,0.6c-0.3,0.4-0.5,0.8-0.5,1.4V86h-1.6V77.9z"/>
            <path class="st2" d="M166.8,74.4h1.6v4.8c0.5-0.9,1.3-1.4,2.4-1.4c0.9,0,1.6,0.3,2.1,0.9c0.4,0.5,0.6,1.3,0.6,2.2V86h-1.6v-5
				c0-0.7-0.1-1.2-0.4-1.5c-0.3-0.3-0.6-0.4-1.1-0.4c-0.6,0-1.1,0.2-1.5,0.6c-0.3,0.4-0.5,0.8-0.5,1.4V86h-1.6V74.4z"/>
            <path class="st2" d="M182.9,86c-0.3,0-0.5,0-0.6,0c-0.9,0-1.5-0.4-1.8-1.2c-0.6,0.8-1.5,1.3-2.5,1.3c-0.8,0-1.5-0.2-1.9-0.7
				c-0.4-0.4-0.6-0.9-0.6-1.6c0-1.2,0.7-2,2.1-2.4c0.7-0.2,1.6-0.3,2.8-0.3v-0.4c0-0.6-0.1-1.1-0.4-1.3c-0.2-0.2-0.6-0.3-1.1-0.3
				c-0.8,0-1.5,0.3-2.3,1l-0.8-1.1c0.5-0.4,1-0.7,1.5-0.9c0.5-0.2,1.1-0.3,1.8-0.3c1,0,1.8,0.3,2.3,0.9c0.5,0.5,0.7,1.2,0.7,2.1v3.4
				c0,0.5,0.2,0.8,0.6,0.8c0.1,0,0.1,0,0.2,0V86z M180.4,82.3c-2.2,0-3.3,0.5-3.3,1.5c0,0.4,0.1,0.6,0.3,0.8c0.2,0.2,0.6,0.3,1,0.3
				c0.6,0,1.1-0.2,1.5-0.5c0.3-0.3,0.5-0.7,0.5-1.1V82.3z"/>
            <path class="st2" d="M189.6,84.8c-0.5,0.9-1.3,1.4-2.4,1.4c-0.9,0-1.5-0.3-2-0.9c-0.4-0.5-0.6-1.3-0.6-2.2v-5.1h1.6v4.8
				c0,0.8,0.1,1.4,0.4,1.7c0.2,0.3,0.6,0.4,1.1,0.4c0.6,0,1.1-0.2,1.5-0.6c0.3-0.4,0.5-0.8,0.5-1.4v-4.9h1.6V86h-1.6V84.8z"/>
            <path class="st2" d="M196.3,86.2c-1.4,0-2.5-0.5-3.3-1.4l1.1-1c0.3,0.4,0.6,0.7,1,0.9c0.3,0.2,0.8,0.3,1.3,0.3
				c1.1,0,1.7-0.4,1.7-1.1c0-0.4-0.1-0.6-0.4-0.8c-0.3-0.1-0.8-0.3-1.5-0.5c-1-0.2-1.7-0.5-2.1-1c-0.4-0.4-0.5-0.9-0.5-1.5
				c0-0.8,0.3-1.4,0.9-1.8c0.5-0.4,1.2-0.6,2.1-0.6c1.2,0,2.1,0.3,2.7,1l-1,1c-0.3-0.3-0.5-0.4-0.8-0.5c-0.3-0.1-0.6-0.2-1.1-0.2
				c-0.4,0-0.7,0.1-1,0.3c-0.2,0.2-0.3,0.4-0.3,0.6c0,0.3,0.1,0.6,0.4,0.7c0.2,0.2,0.7,0.3,1.4,0.5c0.8,0.2,1.4,0.4,1.8,0.6
				c0.7,0.4,1,1.1,1,1.9c0,0.8-0.3,1.5-1,1.9C198.1,86,197.3,86.2,196.3,86.2z"/>
		</g>
	</g>
</g>
    <g id="Schutzzone">
</g>
</svg>
