<svg class="show-xl" xmlns="http://www.w3.org/2000/svg" viewBox="0 0 496.18 590.14"> <path d="M13 375.37c0-12.22-1.84-11.69-13-13.92v-2.84h29.75l25.99 72.48H56l25.47-72.48h17.69v88.38h-13.1v-78.18h-.26l-27.58 78.18h-9.33l-27.44-77.4h-.26v77.4H13v-71.62m99.1 71.62h8.14l9.85-27.3h33.47l9.85 27.3h13.65l-32.04-88.38h-24.68v2.84c5.25.79 10.11.92 10.11 6.18 0 .92-1.44 5.53-2.22 7.76l-26.13 71.6Zm34.26-71.86 14.97 38.4h-29.02l14.05-38.4Zm53.72 71.86h14.49v-40.88h8.13l23.26 40.88h15.14l-24.21-43.24c10.38-1.69 20.13-6.69 20.13-21.66 0-23.48-27.22-23.48-37.07-23.48H187.6v2.84c12.21 1.97 12.47 1.97 12.47 14.97v70.57Zm14.49-70.41c0-9.45 0-11.82 8.79-11.82 11.04 0 19.17 3.93 19.17 18.13s-11.94 17.07-20.48 17.07h-7.48v-23.37Zm76.32-11.82h-9.06c-10.37 0-13.38 3.28-14.17 12.88h-3.71l.53-19.04h67.31l.53 19.42h-3.71c0-10.11-4.2-13.26-14.31-13.26h-8.92v82.22h-14.49v-82.22"></path> <path d="M344.06 375.97c0-10.38-.79-11.57-13.13-12.88v-2.89l27.63-3.02v40.72h35.54v-39.3h14.49v88.38H394.1v-42.93h-35.54v42.93h-14.49v-71.01M421.2 446.99h8.14l9.85-27.3h33.47l9.85 27.3h13.66l-32.04-88.38h-24.69v2.84c5.26.79 10.11.92 10.11 6.18 0 .92-1.44 5.53-2.22 7.76l-26.14 71.6Zm34.27-71.86 14.97 38.4h-29.01l14.04-38.4ZM70.71 518.53c0-12.23-1.84-11.7-12.99-13.93v-2.84h29.74l26 72.48h.27l25.47-72.48h17.69v88.39h-13.1v-78.18h-.26l-27.58 78.18h-9.32l-27.44-77.4h-.27v77.4h-8.21v-71.61m99.36 71.61h8.13l9.86-27.31h33.47l9.85 27.31h13.66L213 501.76h-24.68v2.85c5.25.79 10.1.91 10.1 6.18 0 .92-1.43 5.53-2.22 7.76l-26.13 71.6Zm34.27-71.87 14.97 38.41h-29.02l14.05-38.4Zm53.98 71.86h14.49v-40.88h8.14l23.25 40.88h15.14l-24.2-43.24c10.38-1.7 20.13-6.69 20.13-21.67 0-23.48-27.23-23.48-37.07-23.48h-32.35v2.85c12.21 1.96 12.47 1.96 12.47 14.97v70.57Zm14.49-70.41c0-9.45 0-11.82 8.79-11.82 11.04 0 19.18 3.94 19.18 18.12s-11.95 17.07-20.47 17.07h-7.49v-23.37Zm62.37-.62c0-11.04-.39-11.16-13.13-12.87v-2.89l27.63-3.02v89.8h-14.49V519.1m28.05 71.03h8.13l9.85-27.31h33.47l9.85 27.31h13.65l-32.04-88.39h-24.69v2.85c5.25.79 10.12.91 10.12 6.18 0 .92-1.45 5.53-2.24 7.76l-26.12 71.6Zm34.26-71.87 14.97 38.41h-29.02l14.04-38.4ZM410.62 93.09C410.52-11.61 323.66.42 323.66.42c-34.59 0-56.53 19.72-66.94 32.17V93.1h153.9m-153.89 14.31v110.8h9.67c26.49 0 41.7-13.31 49.98-24.74 8.28-11.43-11.89-32.42-11.89-32.42h54.63c-56.29 68.83-109.27 89.14-109.27 89.14h-.83s-52.98-20.31-109.27-89.14h54.65s-18.41 20.3-10.13 31.72c8.28 11.42 21.72 25.44 48.21 25.44h9.96v-110.8H89.5c13.47 96.92 159.97 179.1 159.97 179.1s146.99-82.36 160.2-179.43c-.02.11-.05.23-.06.34H256.73ZM242.41 32.6C232 20.14 210.07.43 175.46.43c0 0-86.84-12.05-86.95 92.67H242.4V32.59"></path> </svg>