<?xml version="1.0" encoding="utf-8"?>
<!-- Generator: Adobe Illustrator 27.7.0, SVG Export Plug-In . SVG Version: 6.00 Build 0)  -->
<svg version="1.1" id="Ebene_1" xmlns="http://www.w3.org/2000/svg" xmlns:xlink="http://www.w3.org/1999/xlink" x="0px" y="0px"
	 viewBox="0 0 567.04 122.76" style="enable-background:new 0 0 567.04 122.76;" xml:space="preserve">
<style type="text/css">
	.st0{fill:#003464;}
</style>
<g id="MVZ_Hansaklinik">
	<polygon class="st0" points="247.97,39.04 247.97,20.59 250.74,20.59 250.74,64.06 247.97,64.06 247.97,41.63 221.56,41.63 
		221.56,64.06 218.8,64.06 218.8,20.59 221.56,20.59 221.56,39.04 	"/>
	<polygon class="st0" points="336.31,65.5 299.81,26.7 299.81,64.06 297.05,64.06 297.05,20.01 333.54,58.53 333.54,20.59 
		336.31,20.59 	"/>
	<path class="st0" d="M365.78,27.74c-1.96-3.11-4.73-5.13-8.82-5.13c-4.67,0-8.19,3.75-8.19,8.3c0,4.55,4.32,6.46,7.84,8.13
		l8.3,4.32c3.29,2.08,4.96,4.73,4.96,8.65c0,7.21-6.57,12.63-13.61,12.63c-6.05,0-10.78-3.75-12.8-9.34l2.42-1.1
		c1.85,4.61,5.25,7.84,10.49,7.84c5.71,0,10.72-4.5,10.72-10.26c0-4.9-5.02-6.98-8.76-8.82l-7.84-4.15c-2.88-1.79-4.5-4.32-4.5-7.78
		c0-6.46,4.61-11.01,11.13-11.01c4.38,0,8.53,2.36,10.61,6.11L365.78,27.74z"/>
	<polygon class="st0" points="437.4,20.59 441.09,20.59 419.81,41.52 442.41,64.06 438.78,64.06 417.91,43.3 416.75,44.46 
		416.75,64.06 413.99,64.06 413.99,20.59 416.75,20.59 416.75,40.88 	"/>
	<polygon class="st0" points="449.57,61.47 460.64,61.47 460.64,64.06 446.8,64.06 446.8,20.59 449.57,20.59 	"/>
	<rect x="465.65" y="20.59" class="st0" width="2.77" height="43.47"/>
	<polygon class="st0" points="517.03,65.5 480.53,26.7 480.53,64.06 477.76,64.06 477.76,20.01 514.26,58.53 514.26,20.59 
		517.03,20.59 	"/>
	<rect x="526.37" y="20.59" class="st0" width="2.77" height="43.47"/>
	<polygon class="st0" points="561.89,20.59 565.58,20.59 544.31,41.52 566.91,64.06 563.27,64.06 542.4,43.3 541.25,44.46 
		541.25,64.06 538.48,64.06 538.48,20.59 541.25,20.59 541.25,40.88 	"/>
	<polygon class="st0" points="202.64,64.17 165.59,0 165.57,0.03 165.55,0 128.5,64.17 165.57,64.17 	"/>
	<polygon class="st0" points="273.92,19.15 255.7,64.06 258.53,64.06 273.92,26.18 289.26,64.06 292.08,64.06 	"/>
	<polygon class="st0" points="390.79,19.15 372.57,64.06 375.4,64.06 390.79,26.18 406.13,64.06 408.95,64.06 	"/>
	<polygon class="st0" points="39.44,29.16 39.33,29.16 24.6,65.08 9.92,29.16 9.81,29.16 2.58,63.7 0,63.7 9.08,20.58 24.6,58.55 
		40.17,20.58 49.25,63.7 46.67,63.7 	"/>
	<polygon class="st0" points="65.27,57.61 65.38,57.61 77.88,21.96 80.56,21.96 65.21,65.08 50.03,21.96 52.72,21.96 	"/>
	<polygon class="st0" points="111.27,61.2 111.27,63.7 81.52,63.7 107.29,24.45 83.98,24.45 83.98,21.96 112,21.96 86.22,61.2 	"/>
</g>
<g id="CORIUS_Gruppe">
	<path class="st0" d="M414.6,106.05c-1.44,1.4-3.11,2.08-5.13,2.08c-2.01,0-3.69-0.7-5.13-2.14c-1.45-1.43-2.16-3.12-2.16-5.15
		c0-2.03,0.71-3.71,2.16-5.15c1.44-1.44,3.11-2.13,5.12-2.13c2.03,0,3.71,0.69,5.12,2.1l0.64,0.64l3.16-3.06l-0.66-0.66
		c-2.26-2.26-5.04-3.4-8.26-3.4c-3.21,0-5.98,1.15-8.27,3.44c-2.25,2.3-3.4,5.06-3.4,8.22c0,3.16,1.14,5.94,3.4,8.26
		c2.29,2.27,5.07,3.43,8.26,3.43c3.2,0,5.98-1.15,8.26-3.43l0.66-0.66l-3.16-3.01L414.6,106.05z"/>
	<path class="st0" d="M440.44,92.59c-2.26-2.26-5.04-3.4-8.26-3.4c-3.22,0-6,1.14-8.27,3.41c-2.25,2.3-3.4,5.07-3.4,8.25
		c0,3.18,1.14,5.96,3.4,8.26c2.28,2.28,5.05,3.43,8.26,3.43c3.2,0,5.98-1.15,8.26-3.43c2.28-2.28,3.43-5.06,3.43-8.26
		C443.87,97.64,442.71,94.86,440.44,92.59 M437.34,106c-1.44,1.44-3.12,2.13-5.15,2.13c0,0,0,0-0.01,0c0,0,0,0-0.01,0
		c-2.01,0-3.69-0.7-5.13-2.14c-1.45-1.43-2.16-3.12-2.16-5.15s0.71-3.71,2.16-5.15c1.44-1.44,3.11-2.13,5.12-2.13c0,0,0,0,0.01,0
		c0,0,0,0,0.01,0c2.03,0,3.71,0.7,5.15,2.13c1.43,1.44,2.13,3.12,2.13,5.15S438.78,104.56,437.34,106"/>
	<path class="st0" d="M461.74,103.42c-0.33-0.5-0.63-0.91-0.92-1.25c0.83-0.42,1.54-0.99,2.13-1.68c1.03-1.16,1.55-2.55,1.55-4.12
		c0-1.91-0.76-3.55-2.29-4.89c-1.43-1.19-3.13-1.79-5.03-1.79h-9.61v22.33h4.38v-8.96h2.16c1.46,0,2.46,0.45,3.07,1.37l4.93,7.59
		h5.23L461.74,103.42z M459.2,98c-0.54,0.44-1.2,0.65-2.03,0.65h-5.23v-4.55h5.23c0.82,0,1.49,0.21,2.05,0.63
		c0.59,0.45,0.87,0.97,0.87,1.64C460.09,97.03,459.82,97.54,459.2,98"/>
	<rect x="470.4" y="89.68" class="st0" width="4.38" height="22.33"/>
	<path class="st0" d="M493.53,103.42c0,1.29-0.45,2.38-1.37,3.34c-0.92,0.92-2.01,1.37-3.33,1.37c-1.34,0-2.44-0.45-3.35-1.36
		c-0.93-0.96-1.38-2.06-1.38-3.35V89.68h-4.38v13.74c0,2.49,0.9,4.65,2.67,6.42c1.79,1.79,3.96,2.7,6.45,2.7s4.65-0.91,6.44-2.7
		c1.77-1.77,2.67-3.93,2.67-6.42V89.68h-4.41V103.42z"/>
	<path class="st0" d="M516.79,90.83c-1.65-1.09-3.55-1.65-5.66-1.65c-2.13,0-4.03,0.56-5.67,1.65c-1.96,1.33-2.95,3.09-2.95,5.24
		c0,2.87,1.41,4.91,4.08,5.92l0.14,0.04c1.05,0.21,2.12,0.43,3.19,0.65c1.07,0.21,2.14,0.43,3.17,0.64c2.74,0.63,2.74,1.8,2.74,2.24
		c0,0.6-0.17,1.36-1.47,1.95c-0.87,0.41-1.96,0.62-3.24,0.62c-1.27,0-2.36-0.21-3.26-0.62c-1.15-0.52-1.42-1.17-1.47-1.72h-4.37
		c0.07,2.16,1.13,3.89,3.18,5.15c1.74,1.06,3.73,1.6,5.92,1.6c2.19,0,4.17-0.53,5.89-1.57l0.02-0.01c2.13-1.34,3.21-3.16,3.21-5.4
		c0-2.79-1.4-4.79-4.04-5.8l-6.53-1.35c-2.75-0.65-2.75-1.87-2.75-2.33c0-0.51,0.14-1.26,1.27-1.87c0.43-0.2,0.88-0.36,1.36-0.48
		c0.48-0.11,1.01-0.17,1.58-0.17c1.09,0,2.08,0.22,2.92,0.66c0.81,0.41,1.2,0.92,1.27,1.63h4.38
		C519.64,93.79,518.67,92.1,516.79,90.83"/>
	<path class="st0" d="M566.5,95.97l-5.03-8.72c-0.72-1.24-2.05-2.01-3.48-2.01h-6.67l-1.9-3.29c-0.72-1.24-2.05-2.01-3.48-2.01
		h-10.07c-1.43,0-2.76,0.77-3.48,2.01l-5.03,8.72c-0.72,1.24-0.72,2.78,0,4.02l3.85,6.66l-3.84,6.65c-0.72,1.25-0.72,2.8,0,4.05
		l5.02,8.69c0.72,1.25,2.06,2.02,3.5,2.02h10.03c1.44,0,2.78-0.77,3.5-2.02l5.02-8.69c0.24-0.41,0.38-0.86,0.46-1.34h3.09
		c1.43,0,2.76-0.77,3.48-2.01l5.03-8.72C567.22,98.75,567.22,97.21,566.5,95.97 M552.95,93.82l-3.35,5.8l-0.18-0.3
		c-0.72-1.25-2.06-2.02-3.5-2.02h-5.2c0.01-0.04,0.02-0.07,0.03-0.11c0.01-0.03,0.02-0.06,0.03-0.08c0.04-0.09,0.08-0.18,0.12-0.26
		l5.03-8.72c0.41-0.7,1.16-1.14,1.98-1.14h2.39l2.63,4.56C553.36,92.24,553.36,93.12,552.95,93.82 M532.22,99.62l-3.35-5.8
		c-0.41-0.7-0.41-1.58,0-2.28l5.03-8.72c0.41-0.7,1.16-1.14,1.98-1.14h10.07c0.81,0,1.57,0.44,1.98,1.14l1.4,2.42h-1.39
		c-1.43,0-2.76,0.77-3.48,2.01l-5.03,8.72c-0.09,0.15-0.16,0.3-0.22,0.46c-0.01,0.03-0.03,0.06-0.04,0.1
		c-0.06,0.16-0.11,0.31-0.15,0.48c-0.01,0.03-0.01,0.06-0.02,0.09c-0.01,0.07-0.03,0.13-0.04,0.2h-3.05c-1.44,0-2.78,0.78-3.5,2.02
		L532.22,99.62z M552.94,111.18l-5.02,8.69c-0.41,0.71-1.18,1.16-2,1.16H535.9c-0.82,0-1.59-0.44-2-1.16l-5.02-8.69
		c-0.41-0.71-0.41-1.6,0-2.31l5.02-8.69c0.41-0.71,1.18-1.16,2-1.16h3.05h1.74h5.24c0.82,0,1.59,0.44,2,1.16l0.68,1.17v0l4.34,7.51
		c0.04,0.07,0.08,0.15,0.11,0.23c0.1,0.24,0.16,0.51,0.17,0.8C553.26,110.36,553.16,110.81,552.94,111.18 M565,99.12l-5.03,8.72
		c-0.41,0.7-1.16,1.14-1.98,1.14h-3.15c-0.01-0.02-0.01-0.04-0.02-0.06c-0.03-0.11-0.06-0.21-0.1-0.31
		c-0.02-0.05-0.04-0.11-0.06-0.16c-0.06-0.15-0.13-0.29-0.21-0.42c0-0.01-0.01-0.01-0.01-0.02l-3.84-6.65l3.85-6.66
		c0.72-1.24,0.72-2.78,0-4.02l-2.13-3.69h5.67c0.81,0,1.57,0.44,1.98,1.14l5.03,8.72C565.41,97.54,565.41,98.41,565,99.12"/>
</g>
<g>
</g>
<g>
</g>
<g>
</g>
<g>
</g>
<g>
</g>
<g>
</g>
</svg>
