<?xml version="1.0" encoding="UTF-8" standalone="no"?>
<!DOCTYPE svg PUBLIC "-//W3C//DTD SVG 1.1//EN" "http://www.w3.org/Graphics/SVG/1.1/DTD/svg11.dtd">
<svg width="285px" height="50px" version="1.1" xmlns="http://www.w3.org/2000/svg" xmlns:xlink="http://www.w3.org/1999/xlink" xml:space="preserve" xmlns:serif="http://www.serif.com/" style="fill-rule:evenodd;clip-rule:evenodd;stroke-linecap:square;stroke-miterlimit:20;">
    <g>
        <g>
            <path d="M66.439,22.049l0,-11.453l3.711,0c1.406,0 2.323,0.057 2.75,0.172c0.656,0.172 1.206,0.546 1.649,1.121c0.442,0.576 0.664,1.319 0.664,2.231c-0,0.703 -0.128,1.294 -0.383,1.773c-0.255,0.479 -0.58,0.855 -0.973,1.129c-0.393,0.273 -0.793,0.454 -1.199,0.543c-0.552,0.109 -1.352,0.164 -2.399,0.164l-1.507,-0l-0,4.32l-2.313,0Zm2.313,-9.515l-0,3.25l1.265,-0c0.912,-0 1.521,-0.06 1.828,-0.18c0.308,-0.12 0.549,-0.307 0.723,-0.563c0.175,-0.255 0.262,-0.552 0.262,-0.89c-0,-0.417 -0.123,-0.761 -0.367,-1.031c-0.245,-0.271 -0.555,-0.441 -0.93,-0.508c-0.276,-0.052 -0.831,-0.078 -1.664,-0.078l-1.117,-0Z" style="fill-rule:nonzero;"/>
            <path d="M79.197,22.049l-2.195,0l-0,-8.297l2.039,0l-0,1.18c0.349,-0.557 0.662,-0.924 0.941,-1.101c0.279,-0.178 0.595,-0.266 0.949,-0.266c0.5,-0 0.982,0.138 1.446,0.414l-0.68,1.914c-0.37,-0.24 -0.714,-0.359 -1.031,-0.359c-0.308,-0 -0.568,0.084 -0.782,0.254c-0.213,0.169 -0.381,0.475 -0.503,0.918c-0.123,0.442 -0.184,1.369 -0.184,2.781l-0,2.562Z" style="fill-rule:nonzero;"/>
            <path d="M84.963,16.284l-1.993,-0.36c0.224,-0.802 0.61,-1.396 1.157,-1.781c0.547,-0.385 1.359,-0.578 2.437,-0.578c0.979,-0 1.708,0.116 2.188,0.348c0.479,0.231 0.816,0.526 1.011,0.882c0.196,0.357 0.293,1.012 0.293,1.965l-0.023,2.563c-0,0.729 0.035,1.267 0.105,1.613c0.071,0.346 0.202,0.717 0.395,1.113l-2.172,0c-0.057,-0.146 -0.128,-0.362 -0.211,-0.648c-0.036,-0.13 -0.062,-0.216 -0.078,-0.258c-0.375,0.365 -0.776,0.638 -1.203,0.82c-0.427,0.183 -0.883,0.274 -1.367,0.274c-0.855,-0 -1.528,-0.232 -2.02,-0.696c-0.492,-0.463 -0.738,-1.049 -0.738,-1.757c-0,-0.469 0.112,-0.887 0.336,-1.254c0.224,-0.367 0.538,-0.649 0.941,-0.844c0.404,-0.195 0.986,-0.366 1.746,-0.512c1.026,-0.192 1.737,-0.372 2.133,-0.539l0,-0.219c0,-0.421 -0.104,-0.722 -0.312,-0.902c-0.209,-0.18 -0.602,-0.269 -1.18,-0.269c-0.391,-0 -0.695,0.076 -0.914,0.23c-0.219,0.154 -0.396,0.423 -0.531,0.809Zm2.937,1.781c-0.281,0.094 -0.726,0.206 -1.336,0.336c-0.609,0.13 -1.008,0.258 -1.195,0.383c-0.287,0.203 -0.43,0.461 -0.43,0.773c0,0.307 0.115,0.573 0.344,0.797c0.229,0.224 0.521,0.336 0.875,0.336c0.396,-0 0.773,-0.13 1.133,-0.391c0.265,-0.198 0.44,-0.44 0.523,-0.726c0.057,-0.188 0.086,-0.545 0.086,-1.071l0,-0.437Z" style="fill-rule:nonzero;"/>
            <path d="M91.166,22.049l2.992,-4.273l-2.867,-4.024l2.679,0l1.469,2.282l1.547,-2.282l2.578,0l-2.812,3.93l3.07,4.367l-2.695,0l-1.688,-2.57l-1.703,2.57l-2.57,0Z" style="fill-rule:nonzero;"/>
            <path d="M101.119,12.627l-0,-2.031l2.195,0l0,2.031l-2.195,0Zm-0,9.422l-0,-8.297l2.195,0l0,8.297l-2.195,0Z" style="fill-rule:nonzero;"/>
            <path d="M104.791,19.682l2.203,-0.336c0.094,0.427 0.284,0.751 0.57,0.973c0.287,0.221 0.688,0.332 1.203,0.332c0.568,-0 0.995,-0.104 1.282,-0.313c0.192,-0.145 0.289,-0.341 0.289,-0.586c-0,-0.166 -0.052,-0.304 -0.157,-0.414c-0.109,-0.104 -0.354,-0.2 -0.734,-0.289c-1.771,-0.39 -2.893,-0.747 -3.367,-1.07c-0.656,-0.448 -0.985,-1.07 -0.985,-1.867c0,-0.719 0.284,-1.323 0.852,-1.813c0.568,-0.489 1.448,-0.734 2.641,-0.734c1.135,-0 1.979,0.185 2.531,0.555c0.552,0.369 0.932,0.916 1.14,1.64l-2.07,0.383c-0.088,-0.323 -0.256,-0.57 -0.504,-0.742c-0.247,-0.172 -0.6,-0.258 -1.058,-0.258c-0.578,0 -0.993,0.081 -1.243,0.242c-0.166,0.115 -0.25,0.263 -0.25,0.446c0,0.156 0.073,0.289 0.219,0.398c0.198,0.146 0.882,0.352 2.051,0.617c1.169,0.266 1.986,0.591 2.449,0.977c0.459,0.39 0.688,0.935 0.688,1.633c-0,0.76 -0.318,1.414 -0.953,1.96c-0.636,0.547 -1.576,0.821 -2.821,0.821c-1.13,-0 -2.024,-0.229 -2.683,-0.688c-0.659,-0.458 -1.09,-1.08 -1.293,-1.867Z" style="fill-rule:nonzero;"/>
            <path d="M117.947,13.752l1.219,0l-0,-0.625c-0,-0.698 0.074,-1.218 0.222,-1.562c0.149,-0.344 0.422,-0.624 0.821,-0.84c0.398,-0.216 0.902,-0.324 1.511,-0.324c0.625,-0 1.237,0.094 1.836,0.281l-0.297,1.531c-0.348,-0.083 -0.684,-0.125 -1.007,-0.125c-0.318,0 -0.546,0.075 -0.684,0.223c-0.138,0.148 -0.207,0.434 -0.207,0.855l0,0.586l1.641,0l-0,1.727l-1.641,-0l0,6.57l-2.195,0l-0,-6.57l-1.219,-0l-0,-1.727Z" style="fill-rule:nonzero;"/>
            <path d="M129.697,22.049l-0,-1.242c-0.302,0.443 -0.699,0.792 -1.191,1.047c-0.493,0.255 -1.012,0.383 -1.559,0.383c-0.557,-0 -1.057,-0.123 -1.5,-0.367c-0.443,-0.245 -0.763,-0.589 -0.961,-1.032c-0.198,-0.442 -0.297,-1.054 -0.297,-1.836l0,-5.25l2.195,0l0,3.813c0,1.167 0.041,1.881 0.122,2.144c0.08,0.263 0.227,0.472 0.441,0.625c0.214,0.154 0.484,0.231 0.812,0.231c0.375,-0 0.711,-0.103 1.008,-0.309c0.297,-0.205 0.5,-0.461 0.61,-0.765c0.109,-0.305 0.164,-1.051 0.164,-2.239l-0,-3.5l2.195,0l0,8.297l-2.039,0Zm-4.359,-9.765l-0,-1.883l1.882,-0l0,1.883l-1.882,-0Zm3.359,-0l-0,-1.883l1.891,-0l-0,1.883l-1.891,-0Z" style="fill-rule:nonzero;"/>
            <path d="M136.111,22.049l-2.195,0l-0,-8.297l2.039,0l-0,1.18c0.349,-0.557 0.663,-0.924 0.941,-1.101c0.279,-0.178 0.595,-0.266 0.949,-0.266c0.5,-0 0.982,0.138 1.446,0.414l-0.68,1.914c-0.37,-0.24 -0.714,-0.359 -1.031,-0.359c-0.308,-0 -0.568,0.084 -0.781,0.254c-0.214,0.169 -0.382,0.475 -0.504,0.918c-0.123,0.442 -0.184,1.369 -0.184,2.781l0,2.562Z" style="fill-rule:nonzero;"/>
            <path d="M150.025,17.838l0,-1.929l4.984,-0l0,4.562c-0.484,0.469 -1.186,0.882 -2.105,1.238c-0.919,0.357 -1.85,0.536 -2.793,0.536c-1.198,-0 -2.242,-0.252 -3.133,-0.754c-0.89,-0.503 -1.56,-1.222 -2.008,-2.157c-0.448,-0.934 -0.671,-1.951 -0.671,-3.05c-0,-1.193 0.25,-2.253 0.75,-3.18c0.5,-0.927 1.231,-1.638 2.195,-2.133c0.734,-0.38 1.648,-0.57 2.742,-0.57c1.422,-0 2.533,0.298 3.332,0.894c0.8,0.597 1.314,1.421 1.543,2.473l-2.297,0.43c-0.161,-0.563 -0.465,-1.007 -0.91,-1.332c-0.445,-0.326 -1.001,-0.489 -1.668,-0.489c-1.01,0 -1.814,0.321 -2.41,0.961c-0.596,0.641 -0.895,1.591 -0.895,2.852c0,1.359 0.302,2.379 0.907,3.058c0.604,0.68 1.395,1.02 2.375,1.02c0.484,0 0.97,-0.095 1.457,-0.285c0.487,-0.19 0.905,-0.421 1.254,-0.692l-0,-1.453l-2.649,0Z" style="fill-rule:nonzero;"/>
            <path d="M161.931,19.409l2.188,0.367c-0.281,0.802 -0.725,1.413 -1.332,1.832c-0.607,0.419 -1.366,0.629 -2.278,0.629c-1.442,-0 -2.51,-0.472 -3.203,-1.414c-0.547,-0.755 -0.82,-1.709 -0.82,-2.86c0,-1.375 0.359,-2.451 1.078,-3.23c0.719,-0.779 1.628,-1.168 2.727,-1.168c1.234,-0 2.208,0.407 2.922,1.223c0.713,0.815 1.054,2.063 1.023,3.746l-5.5,-0c0.016,0.651 0.193,1.157 0.531,1.519c0.339,0.362 0.761,0.543 1.266,0.543c0.344,0 0.633,-0.094 0.867,-0.281c0.234,-0.188 0.412,-0.49 0.531,-0.906Zm0.125,-2.219c-0.015,-0.636 -0.179,-1.119 -0.492,-1.449c-0.312,-0.331 -0.693,-0.496 -1.14,-0.496c-0.48,-0 -0.875,0.174 -1.188,0.523c-0.312,0.349 -0.466,0.823 -0.461,1.422l3.281,-0Z" style="fill-rule:nonzero;"/>
            <path d="M165.064,13.752l1.219,0l-0,-0.625c-0,-0.698 0.074,-1.218 0.223,-1.562c0.148,-0.344 0.421,-0.624 0.82,-0.84c0.398,-0.216 0.902,-0.324 1.512,-0.324c0.625,-0 1.237,0.094 1.836,0.281l-0.297,1.531c-0.349,-0.083 -0.685,-0.125 -1.008,-0.125c-0.318,0 -0.546,0.075 -0.684,0.223c-0.138,0.148 -0.207,0.434 -0.207,0.855l0,0.586l1.641,0l-0,1.727l-1.641,-0l0,6.57l-2.195,0l-0,-6.57l-1.219,-0l0,-1.727Z" style="fill-rule:nonzero;"/>
            <path d="M172.994,16.284l-1.992,-0.36c0.224,-0.802 0.609,-1.396 1.156,-1.781c0.547,-0.385 1.359,-0.578 2.437,-0.578c0.98,-0 1.709,0.116 2.188,0.348c0.479,0.231 0.816,0.526 1.012,0.882c0.195,0.357 0.293,1.012 0.293,1.965l-0.024,2.563c0,0.729 0.035,1.267 0.106,1.613c0.07,0.346 0.201,0.717 0.394,1.113l-2.172,0c-0.057,-0.146 -0.127,-0.362 -0.211,-0.648c-0.036,-0.13 -0.062,-0.216 -0.078,-0.258c-0.375,0.365 -0.776,0.638 -1.203,0.82c-0.427,0.183 -0.883,0.274 -1.367,0.274c-0.854,-0 -1.527,-0.232 -2.02,-0.696c-0.492,-0.463 -0.738,-1.049 -0.738,-1.757c0,-0.469 0.112,-0.887 0.336,-1.254c0.224,-0.367 0.538,-0.649 0.941,-0.844c0.404,-0.195 0.986,-0.366 1.747,-0.512c1.026,-0.192 1.737,-0.372 2.132,-0.539l0,-0.219c0,-0.421 -0.104,-0.722 -0.312,-0.902c-0.208,-0.18 -0.602,-0.269 -1.18,-0.269c-0.39,-0 -0.695,0.076 -0.914,0.23c-0.219,0.154 -0.396,0.423 -0.531,0.809Zm2.937,1.781c-0.281,0.094 -0.726,0.206 -1.336,0.336c-0.609,0.13 -1.007,0.258 -1.195,0.383c-0.286,0.203 -0.43,0.461 -0.43,0.773c0,0.307 0.115,0.573 0.344,0.797c0.229,0.224 0.521,0.336 0.875,0.336c0.396,-0 0.774,-0.13 1.133,-0.391c0.266,-0.198 0.44,-0.44 0.523,-0.726c0.058,-0.188 0.086,-0.545 0.086,-1.071l0,-0.437Zm-3.882,-5.781l-0,-1.883l1.882,-0l0,1.883l-1.882,-0Zm3.359,-0l-0,-1.883l1.891,-0l-0,1.883l-1.891,-0Z" style="fill-rule:nonzero;"/>
            <path d="M180.189,22.049l0,-7.437c0,-1.042 0.093,-1.834 0.278,-2.375c0.184,-0.542 0.542,-0.983 1.074,-1.324c0.531,-0.342 1.221,-0.512 2.07,-0.512c1.063,-0 1.857,0.226 2.383,0.68c0.526,0.453 0.789,1.015 0.789,1.687c-0,0.453 -0.142,0.939 -0.426,1.457c-0.284,0.518 -0.446,0.835 -0.488,0.949c-0.042,0.115 -0.063,0.214 -0.063,0.297c0,0.172 0.065,0.352 0.196,0.539c0.083,0.12 0.395,0.453 0.937,1c0.542,0.547 0.906,1.011 1.094,1.391c0.187,0.38 0.281,0.773 0.281,1.18c0,0.755 -0.262,1.386 -0.785,1.894c-0.523,0.508 -1.186,0.762 -1.988,0.762c-0.552,-0 -1.055,-0.142 -1.508,-0.426c-0.453,-0.284 -0.794,-0.634 -1.024,-1.051l1.532,-0.898c0.109,0.203 0.231,0.357 0.367,0.461c0.135,0.104 0.284,0.156 0.445,0.156c0.214,-0 0.395,-0.077 0.543,-0.231c0.149,-0.153 0.223,-0.345 0.223,-0.574c-0,-0.213 -0.078,-0.429 -0.235,-0.648c-0.088,-0.13 -0.447,-0.492 -1.078,-1.086c-0.88,-0.844 -1.32,-1.508 -1.32,-1.992c0,-0.308 0.169,-0.813 0.508,-1.516c0.265,-0.542 0.422,-0.885 0.469,-1.031c0.046,-0.146 0.07,-0.297 0.07,-0.453c-0,-0.229 -0.086,-0.425 -0.258,-0.586c-0.172,-0.162 -0.401,-0.242 -0.687,-0.242c-0.261,-0 -0.486,0.067 -0.676,0.203c-0.19,0.135 -0.319,0.31 -0.387,0.523c-0.094,0.287 -0.141,0.875 -0.141,1.766l0,7.437l-2.195,0Z" style="fill-rule:nonzero;"/>
            <path d="M189.861,13.752l2.023,0l0,1.133c0.724,-0.88 1.586,-1.32 2.586,-1.32c0.532,-0 0.993,0.109 1.383,0.328c0.391,0.219 0.711,0.55 0.961,0.992c0.365,-0.442 0.758,-0.773 1.18,-0.992c0.422,-0.219 0.872,-0.328 1.351,-0.328c0.61,-0 1.125,0.124 1.547,0.371c0.422,0.247 0.737,0.611 0.946,1.09c0.151,0.354 0.226,0.927 0.226,1.719l0,5.304l-2.195,0l-0,-4.742c-0,-0.823 -0.076,-1.354 -0.227,-1.594c-0.203,-0.312 -0.515,-0.468 -0.937,-0.468c-0.308,-0 -0.597,0.093 -0.867,0.281c-0.271,0.187 -0.467,0.462 -0.586,0.824c-0.12,0.362 -0.18,0.934 -0.18,1.715l-0,3.984l-2.195,0l-0,-4.547c-0,-0.807 -0.039,-1.328 -0.118,-1.562c-0.078,-0.234 -0.199,-0.409 -0.363,-0.524c-0.164,-0.114 -0.387,-0.171 -0.668,-0.171c-0.338,-0 -0.643,0.091 -0.914,0.273c-0.271,0.182 -0.465,0.445 -0.582,0.789c-0.117,0.344 -0.176,0.914 -0.176,1.711l0,4.031l-2.195,0l0,-8.297Z" style="fill-rule:nonzero;"/>
            <path d="M209.056,19.409l2.188,0.367c-0.281,0.802 -0.725,1.413 -1.332,1.832c-0.607,0.419 -1.366,0.629 -2.278,0.629c-1.442,-0 -2.51,-0.472 -3.203,-1.414c-0.547,-0.755 -0.82,-1.709 -0.82,-2.86c0,-1.375 0.359,-2.451 1.078,-3.23c0.719,-0.779 1.628,-1.168 2.727,-1.168c1.234,-0 2.208,0.407 2.922,1.223c0.713,0.815 1.054,2.063 1.023,3.746l-5.5,-0c0.016,0.651 0.193,1.157 0.531,1.519c0.339,0.362 0.761,0.543 1.266,0.543c0.344,0 0.633,-0.094 0.867,-0.281c0.234,-0.188 0.412,-0.49 0.531,-0.906Zm0.125,-2.219c-0.015,-0.636 -0.179,-1.119 -0.492,-1.449c-0.312,-0.331 -0.693,-0.496 -1.14,-0.496c-0.48,-0 -0.875,0.174 -1.188,0.523c-0.312,0.349 -0.466,0.823 -0.461,1.422l3.281,-0Z" style="fill-rule:nonzero;"/>
            <path d="M220.759,22.049l-2.039,0l0,-1.218c-0.338,0.473 -0.738,0.826 -1.199,1.058c-0.461,0.232 -0.926,0.348 -1.394,0.348c-0.953,-0 -1.77,-0.384 -2.45,-1.153c-0.679,-0.768 -1.019,-1.839 -1.019,-3.214c-0,-1.407 0.331,-2.476 0.992,-3.207c0.662,-0.732 1.497,-1.098 2.508,-1.098c0.927,-0 1.729,0.385 2.406,1.156l0,-4.125l2.195,0l0,11.453Zm-5.859,-4.328c0,0.886 0.122,1.526 0.367,1.922c0.354,0.573 0.849,0.859 1.485,0.859c0.505,0 0.935,-0.214 1.289,-0.644c0.354,-0.43 0.531,-1.072 0.531,-1.926c-0,-0.953 -0.172,-1.639 -0.516,-2.059c-0.343,-0.419 -0.784,-0.628 -1.32,-0.628c-0.521,-0 -0.957,0.207 -1.309,0.621c-0.351,0.414 -0.527,1.032 -0.527,1.855Z" style="fill-rule:nonzero;"/>
            <path d="M222.924,12.627l-0,-2.031l2.195,0l-0,2.031l-2.195,0Zm-0,9.422l-0,-8.297l2.195,0l-0,8.297l-2.195,0Z" style="fill-rule:nonzero;"/>
            <path d="M226.486,22.049l0,-1.711l3.109,-3.57c0.511,-0.583 0.888,-0.997 1.133,-1.242c-0.255,0.015 -0.591,0.026 -1.008,0.031l-2.929,0.016l-0,-1.821l6.859,0l0,1.555l-3.172,3.656l-1.117,1.211c0.609,-0.036 0.987,-0.054 1.133,-0.054l3.398,-0l0,1.929l-7.406,0Z" style="fill-rule:nonzero;"/>
            <path d="M235.369,12.627l-0,-2.031l2.195,0l0,2.031l-2.195,0Zm-0,9.422l-0,-8.297l2.195,0l0,8.297l-2.195,0Z" style="fill-rule:nonzero;"/>
            <path d="M247.361,22.049l-2.195,0l-0,-4.234c-0,-0.896 -0.047,-1.475 -0.141,-1.738c-0.094,-0.263 -0.246,-0.468 -0.457,-0.614c-0.211,-0.145 -0.465,-0.218 -0.762,-0.218c-0.38,-0 -0.721,0.104 -1.023,0.312c-0.302,0.208 -0.509,0.484 -0.621,0.828c-0.112,0.344 -0.168,0.979 -0.168,1.906l-0,3.758l-2.195,0l-0,-8.297l2.039,0l-0,1.219c0.724,-0.937 1.635,-1.406 2.734,-1.406c0.484,-0 0.927,0.087 1.328,0.262c0.401,0.174 0.705,0.397 0.91,0.668c0.206,0.27 0.349,0.578 0.43,0.921c0.081,0.344 0.121,0.836 0.121,1.477l0,5.156Z" style="fill-rule:nonzero;"/>
        </g>
        <g>
            <path d="M66.439,39.332l0,-11.453l3.945,-0c0.891,-0 1.571,0.055 2.04,0.164c0.656,0.151 1.216,0.424 1.679,0.82c0.604,0.511 1.056,1.163 1.356,1.957c0.299,0.795 0.449,1.702 0.449,2.723c-0,0.87 -0.102,1.641 -0.305,2.312c-0.203,0.672 -0.463,1.228 -0.781,1.668c-0.318,0.44 -0.665,0.787 -1.043,1.039c-0.378,0.253 -0.833,0.444 -1.367,0.575c-0.534,0.13 -1.147,0.195 -1.84,0.195l-4.133,-0Zm1.516,-1.352l2.445,0c0.755,0 1.348,-0.07 1.777,-0.211c0.43,-0.14 0.773,-0.338 1.028,-0.593c0.359,-0.36 0.639,-0.843 0.84,-1.449c0.2,-0.607 0.3,-1.343 0.3,-2.208c0,-1.197 -0.196,-2.118 -0.589,-2.761c-0.394,-0.643 -0.872,-1.074 -1.434,-1.293c-0.406,-0.156 -1.06,-0.235 -1.961,-0.235l-2.406,0l-0,8.75Z" style="fill-rule:nonzero;"/>
            <path d="M77.799,39.332l-0,-8.297l1.265,0l0,1.258c0.323,-0.589 0.621,-0.977 0.895,-1.164c0.273,-0.188 0.574,-0.281 0.902,-0.281c0.474,-0 0.956,0.151 1.445,0.453l-0.484,1.304c-0.344,-0.203 -0.688,-0.304 -1.031,-0.304c-0.308,-0 -0.584,0.092 -0.828,0.277c-0.245,0.185 -0.42,0.441 -0.524,0.77c-0.156,0.5 -0.234,1.046 -0.234,1.64l-0,4.344l-1.406,-0Z" style="fill-rule:nonzero;"/>
            <rect x="82.658" y="37.73" width="1.602" height="1.602" style="fill-rule:nonzero;"/>
            <path d="M91.15,39.332l0,-8.297l1.258,0l-0,1.164c0.26,-0.406 0.607,-0.733 1.039,-0.98c0.432,-0.248 0.924,-0.371 1.477,-0.371c0.614,-0 1.118,0.127 1.511,0.382c0.393,0.256 0.671,0.612 0.832,1.071c0.657,-0.969 1.511,-1.453 2.563,-1.453c0.823,-0 1.456,0.227 1.898,0.683c0.443,0.456 0.664,1.158 0.664,2.106l0,5.695l-1.398,-0l-0,-5.227c-0,-0.562 -0.046,-0.967 -0.137,-1.214c-0.091,-0.248 -0.256,-0.447 -0.496,-0.598c-0.24,-0.151 -0.521,-0.227 -0.844,-0.227c-0.583,0 -1.067,0.194 -1.453,0.582c-0.385,0.388 -0.578,1.009 -0.578,1.864l0,4.82l-1.406,-0l-0,-5.391c-0,-0.625 -0.115,-1.093 -0.344,-1.406c-0.229,-0.312 -0.604,-0.469 -1.125,-0.469c-0.396,0 -0.762,0.105 -1.098,0.313c-0.336,0.208 -0.579,0.513 -0.73,0.914c-0.151,0.401 -0.227,0.979 -0.227,1.734l0,4.305l-1.406,-0Z" style="fill-rule:nonzero;"/>
            <path d="M110.158,36.66l1.453,0.18c-0.229,0.849 -0.654,1.508 -1.273,1.976c-0.62,0.469 -1.412,0.703 -2.375,0.703c-1.214,0 -2.176,-0.373 -2.887,-1.121c-0.711,-0.747 -1.067,-1.795 -1.067,-3.144c0,-1.396 0.36,-2.479 1.079,-3.25c0.718,-0.771 1.651,-1.156 2.796,-1.156c1.11,-0 2.016,0.377 2.719,1.132c0.703,0.756 1.055,1.818 1.055,3.188c-0,0.083 -0.003,0.208 -0.008,0.375l-6.187,-0c0.052,0.911 0.309,1.609 0.773,2.094c0.464,0.484 1.042,0.726 1.734,0.726c0.516,0 0.956,-0.135 1.321,-0.406c0.364,-0.271 0.653,-0.703 0.867,-1.297Zm-4.617,-2.273l4.633,-0c-0.063,-0.698 -0.24,-1.222 -0.532,-1.571c-0.448,-0.541 -1.028,-0.812 -1.742,-0.812c-0.646,-0 -1.189,0.216 -1.629,0.648c-0.44,0.433 -0.683,1.011 -0.73,1.735Z" style="fill-rule:nonzero;"/>
            <path d="M118.759,39.332l0,-1.047c-0.526,0.823 -1.299,1.234 -2.32,1.234c-0.661,0 -1.269,-0.182 -1.824,-0.546c-0.555,-0.365 -0.984,-0.874 -1.289,-1.528c-0.305,-0.653 -0.457,-1.405 -0.457,-2.254c-0,-0.828 0.138,-1.579 0.414,-2.254c0.276,-0.674 0.69,-1.191 1.242,-1.55c0.552,-0.36 1.169,-0.539 1.852,-0.539c0.5,-0 0.945,0.105 1.336,0.316c0.39,0.211 0.708,0.486 0.953,0.824l-0,-4.109l1.398,-0l0,11.453l-1.305,-0Zm-4.445,-4.141c0,1.063 0.224,1.857 0.672,2.383c0.448,0.526 0.977,0.789 1.586,0.789c0.615,0 1.137,-0.251 1.566,-0.754c0.43,-0.502 0.645,-1.269 0.645,-2.3c-0,-1.136 -0.219,-1.969 -0.656,-2.5c-0.438,-0.532 -0.977,-0.797 -1.618,-0.797c-0.625,-0 -1.147,0.255 -1.566,0.765c-0.419,0.511 -0.629,1.315 -0.629,2.414Z" style="fill-rule:nonzero;"/>
            <rect x="122.674" y="37.73" width="1.602" height="1.602" style="fill-rule:nonzero;"/>
            <rect x="131.603" y="27.879" width="1.516" height="11.453" style="fill-rule:nonzero;"/>
            <rect x="136.009" y="37.73" width="1.602" height="1.602" style="fill-rule:nonzero;"/>
            <path d="M144.666,39.332l-0,-11.453l1.554,-0l6.016,8.992l0,-8.992l1.453,-0l0,11.453l-1.555,-0l-6.015,-9l-0,9l-1.453,-0Z" style="fill-rule:nonzero;"/>
            <path d="M161.736,36.66l1.453,0.18c-0.229,0.849 -0.653,1.508 -1.273,1.976c-0.62,0.469 -1.412,0.703 -2.375,0.703c-1.214,0 -2.176,-0.373 -2.887,-1.121c-0.711,-0.747 -1.066,-1.795 -1.066,-3.144c-0,-1.396 0.359,-2.479 1.078,-3.25c0.718,-0.771 1.651,-1.156 2.797,-1.156c1.109,-0 2.015,0.377 2.718,1.132c0.703,0.756 1.055,1.818 1.055,3.188c0,0.083 -0.003,0.208 -0.008,0.375l-6.187,-0c0.052,0.911 0.31,1.609 0.773,2.094c0.464,0.484 1.042,0.726 1.735,0.726c0.515,0 0.955,-0.135 1.32,-0.406c0.364,-0.271 0.653,-0.703 0.867,-1.297Zm-4.617,-2.273l4.633,-0c-0.063,-0.698 -0.24,-1.222 -0.532,-1.571c-0.448,-0.541 -1.028,-0.812 -1.742,-0.812c-0.646,-0 -1.189,0.216 -1.629,0.648c-0.44,0.433 -0.683,1.011 -0.73,1.735Z" style="fill-rule:nonzero;"/>
            <path d="M165.095,39.332l0,-7.805c0,-0.953 0.116,-1.686 0.348,-2.199c0.232,-0.513 0.619,-0.915 1.16,-1.207c0.542,-0.292 1.151,-0.437 1.828,-0.437c0.901,-0 1.61,0.225 2.125,0.675c0.516,0.451 0.774,0.973 0.774,1.567c-0,0.265 -0.047,0.539 -0.141,0.82c-0.094,0.281 -0.26,0.632 -0.5,1.051c-0.239,0.419 -0.39,0.711 -0.453,0.875c-0.062,0.164 -0.094,0.308 -0.094,0.433c0,0.167 0.058,0.331 0.172,0.493c0.11,0.166 0.425,0.419 0.945,0.757c0.709,0.464 1.18,0.836 1.415,1.118c0.333,0.401 0.5,0.875 0.5,1.421c-0,0.724 -0.267,1.344 -0.801,1.86c-0.534,0.515 -1.218,0.773 -2.051,0.773c-0.656,0 -1.232,-0.175 -1.727,-0.527c-0.494,-0.352 -0.864,-0.803 -1.109,-1.356l1.211,-0.562c0.26,0.484 0.521,0.82 0.781,1.008c0.261,0.187 0.534,0.281 0.821,0.281c0.395,0 0.734,-0.135 1.015,-0.406c0.281,-0.271 0.422,-0.589 0.422,-0.953c0,-0.292 -0.083,-0.542 -0.25,-0.75c-0.109,-0.136 -0.401,-0.365 -0.875,-0.688c-0.865,-0.594 -1.398,-1.039 -1.602,-1.336c-0.208,-0.297 -0.312,-0.601 -0.312,-0.914c-0,-0.203 0.035,-0.409 0.105,-0.617c0.071,-0.208 0.24,-0.542 0.508,-1c0.268,-0.458 0.444,-0.802 0.528,-1.031c0.083,-0.229 0.125,-0.433 0.125,-0.61c-0,-0.323 -0.142,-0.608 -0.426,-0.855c-0.284,-0.248 -0.663,-0.371 -1.137,-0.371c-0.557,-0 -1.013,0.172 -1.367,0.515c-0.354,0.344 -0.531,1.089 -0.531,2.235l-0,7.742l-1.407,-0Z" style="fill-rule:nonzero;"/>
            <path d="M180.408,36.66l1.453,0.18c-0.229,0.849 -0.654,1.508 -1.273,1.976c-0.62,0.469 -1.412,0.703 -2.375,0.703c-1.214,0 -2.176,-0.373 -2.887,-1.121c-0.711,-0.747 -1.067,-1.795 -1.067,-3.144c0,-1.396 0.36,-2.479 1.079,-3.25c0.718,-0.771 1.651,-1.156 2.796,-1.156c1.11,-0 2.016,0.377 2.719,1.132c0.703,0.756 1.055,1.818 1.055,3.188c-0,0.083 -0.003,0.208 -0.008,0.375l-6.187,-0c0.052,0.911 0.309,1.609 0.773,2.094c0.464,0.484 1.042,0.726 1.734,0.726c0.516,0 0.956,-0.135 1.321,-0.406c0.364,-0.271 0.653,-0.703 0.867,-1.297Zm-4.617,-2.273l4.633,-0c-0.063,-0.698 -0.24,-1.222 -0.532,-1.571c-0.448,-0.541 -1.028,-0.812 -1.742,-0.812c-0.646,-0 -1.189,0.216 -1.629,0.648c-0.44,0.433 -0.683,1.011 -0.73,1.735Z" style="fill-rule:nonzero;"/>
            <rect x="183.595" y="27.879" width="1.406" height="11.453" style="fill-rule:nonzero;"/>
            <path d="M192.861,36.66l1.453,0.18c-0.229,0.849 -0.653,1.508 -1.273,1.976c-0.62,0.469 -1.412,0.703 -2.375,0.703c-1.214,0 -2.176,-0.373 -2.887,-1.121c-0.711,-0.747 -1.066,-1.795 -1.066,-3.144c-0,-1.396 0.359,-2.479 1.078,-3.25c0.718,-0.771 1.651,-1.156 2.797,-1.156c1.109,-0 2.015,0.377 2.718,1.132c0.703,0.756 1.055,1.818 1.055,3.188c0,0.083 -0.003,0.208 -0.008,0.375l-6.187,-0c0.052,0.911 0.31,1.609 0.773,2.094c0.464,0.484 1.042,0.726 1.735,0.726c0.515,0 0.955,-0.135 1.32,-0.406c0.364,-0.271 0.653,-0.703 0.867,-1.297Zm-4.617,-2.273l4.633,-0c-0.063,-0.698 -0.24,-1.222 -0.532,-1.571c-0.448,-0.541 -1.028,-0.812 -1.742,-0.812c-0.646,-0 -1.189,0.216 -1.629,0.648c-0.44,0.433 -0.683,1.011 -0.73,1.735Z" style="fill-rule:nonzero;"/>
            <path d="M196.064,39.332l0,-8.297l1.266,0l-0,1.258c0.323,-0.589 0.621,-0.977 0.894,-1.164c0.274,-0.188 0.575,-0.281 0.903,-0.281c0.474,-0 0.955,0.151 1.445,0.453l-0.484,1.304c-0.344,-0.203 -0.688,-0.304 -1.032,-0.304c-0.307,-0 -0.583,0.092 -0.828,0.277c-0.245,0.185 -0.419,0.441 -0.523,0.77c-0.156,0.5 -0.235,1.046 -0.235,1.64l0,4.344l-1.406,-0Z" style="fill-rule:nonzero;"/>
            <path d="M211.291,39.332l-0,-1.219c-0.646,0.938 -1.524,1.406 -2.633,1.406c-0.49,0 -0.947,-0.093 -1.371,-0.281c-0.425,-0.187 -0.74,-0.423 -0.945,-0.707c-0.206,-0.284 -0.351,-0.631 -0.434,-1.043c-0.057,-0.276 -0.086,-0.713 -0.086,-1.312l-0,-5.141l1.406,0l0,4.602c0,0.734 0.029,1.229 0.086,1.484c0.089,0.37 0.276,0.66 0.563,0.871c0.286,0.211 0.64,0.317 1.062,0.317c0.422,-0 0.818,-0.109 1.188,-0.325c0.369,-0.216 0.631,-0.51 0.785,-0.882c0.153,-0.373 0.23,-0.913 0.23,-1.622l0,-4.445l1.407,0l-0,8.297l-1.258,-0Z" style="fill-rule:nonzero;"/>
            <rect x="215.15" y="37.73" width="1.602" height="1.602" style="fill-rule:nonzero;"/>
            <path d="M223.759,39.332l0,-11.453l1.516,-0l0,5.68l5.688,-5.68l2.054,-0l-4.804,4.64l5.015,6.813l-2,-0l-4.078,-5.797l-1.875,1.828l0,3.969l-1.516,-0Z" style="fill-rule:nonzero;"/>
            <path d="M233.791,35.184c-0,-1.537 0.427,-2.675 1.281,-3.415c0.714,-0.614 1.583,-0.921 2.609,-0.921c1.141,-0 2.073,0.373 2.797,1.121c0.724,0.747 1.086,1.78 1.086,3.097c0,1.068 -0.16,1.908 -0.48,2.52c-0.321,0.612 -0.787,1.087 -1.399,1.426c-0.612,0.338 -1.28,0.507 -2.004,0.507c-1.161,0 -2.1,-0.372 -2.816,-1.117c-0.716,-0.745 -1.074,-1.817 -1.074,-3.218Zm1.445,-0c0,1.062 0.232,1.858 0.695,2.386c0.464,0.529 1.047,0.793 1.75,0.793c0.698,0 1.279,-0.265 1.743,-0.797c0.463,-0.531 0.695,-1.341 0.695,-2.429c-0,-1.026 -0.233,-1.804 -0.699,-2.332c-0.467,-0.529 -1.046,-0.793 -1.739,-0.793c-0.703,-0 -1.286,0.263 -1.75,0.789c-0.463,0.526 -0.695,1.32 -0.695,2.383Z" style="fill-rule:nonzero;"/>
            <rect x="243.181" y="27.879" width="1.406" height="11.453" style="fill-rule:nonzero;"/>
            <rect x="246.736" y="27.879" width="1.406" height="11.453" style="fill-rule:nonzero;"/>
            <path d="M256.002,36.66l1.453,0.18c-0.229,0.849 -0.654,1.508 -1.274,1.976c-0.619,0.469 -1.411,0.703 -2.375,0.703c-1.213,0 -2.175,-0.373 -2.886,-1.121c-0.711,-0.747 -1.067,-1.795 -1.067,-3.144c0,-1.396 0.36,-2.479 1.078,-3.25c0.719,-0.771 1.651,-1.156 2.797,-1.156c1.11,-0 2.016,0.377 2.719,1.132c0.703,0.756 1.055,1.818 1.055,3.188c-0,0.083 -0.003,0.208 -0.008,0.375l-6.188,-0c0.052,0.911 0.31,1.609 0.774,2.094c0.463,0.484 1.041,0.726 1.734,0.726c0.516,0 0.956,-0.135 1.32,-0.406c0.365,-0.271 0.654,-0.703 0.868,-1.297Zm-4.618,-2.273l4.633,-0c-0.062,-0.698 -0.239,-1.222 -0.531,-1.571c-0.448,-0.541 -1.029,-0.812 -1.742,-0.812c-0.646,-0 -1.189,0.216 -1.629,0.648c-0.44,0.433 -0.684,1.011 -0.731,1.735Z" style="fill-rule:nonzero;"/>
            <path d="M258.963,40.019l1.367,0.204c0.057,0.421 0.216,0.729 0.476,0.921c0.349,0.261 0.826,0.391 1.43,0.391c0.651,0 1.154,-0.13 1.508,-0.391c0.354,-0.26 0.594,-0.625 0.719,-1.093c0.073,-0.287 0.106,-0.888 0.101,-1.805c-0.614,0.724 -1.38,1.086 -2.297,1.086c-1.14,-0 -2.023,-0.411 -2.648,-1.234c-0.625,-0.823 -0.938,-1.81 -0.938,-2.961c0,-0.792 0.144,-1.522 0.43,-2.192c0.286,-0.669 0.702,-1.186 1.246,-1.551c0.544,-0.364 1.184,-0.546 1.918,-0.546c0.979,-0 1.787,0.395 2.422,1.187l-0,-1l1.297,0l-0,7.172c-0,1.292 -0.132,2.207 -0.395,2.746c-0.263,0.539 -0.679,0.965 -1.25,1.277c-0.57,0.313 -1.272,0.469 -2.105,0.469c-0.99,0 -1.789,-0.222 -2.399,-0.668c-0.609,-0.445 -0.903,-1.116 -0.882,-2.012Zm1.164,-4.984c-0,1.089 0.216,1.883 0.648,2.383c0.432,0.5 0.974,0.75 1.625,0.75c0.646,-0 1.188,-0.249 1.625,-0.746c0.438,-0.498 0.656,-1.278 0.656,-2.34c0,-1.016 -0.225,-1.781 -0.675,-2.297c-0.451,-0.516 -0.994,-0.773 -1.629,-0.773c-0.625,-0 -1.157,0.254 -1.594,0.761c-0.438,0.508 -0.656,1.262 -0.656,2.262Z" style="fill-rule:nonzero;"/>
            <path d="M273.799,36.66l1.453,0.18c-0.23,0.849 -0.654,1.508 -1.274,1.976c-0.62,0.469 -1.411,0.703 -2.375,0.703c-1.213,0 -2.176,-0.373 -2.886,-1.121c-0.711,-0.747 -1.067,-1.795 -1.067,-3.144c0,-1.396 0.359,-2.479 1.078,-3.25c0.719,-0.771 1.651,-1.156 2.797,-1.156c1.109,-0 2.016,0.377 2.719,1.132c0.703,0.756 1.055,1.818 1.055,3.188c-0,0.083 -0.003,0.208 -0.008,0.375l-6.188,-0c0.052,0.911 0.31,1.609 0.774,2.094c0.463,0.484 1.041,0.726 1.734,0.726c0.516,0 0.956,-0.135 1.32,-0.406c0.365,-0.271 0.654,-0.703 0.868,-1.297Zm-4.618,-2.273l4.633,-0c-0.062,-0.698 -0.239,-1.222 -0.531,-1.571c-0.448,-0.541 -1.029,-0.812 -1.742,-0.812c-0.646,-0 -1.189,0.216 -1.629,0.648c-0.44,0.433 -0.684,1.011 -0.731,1.735Z" style="fill-rule:nonzero;"/>
            <path d="M277.017,39.332l0,-8.297l1.266,0l-0,1.18c0.609,-0.912 1.489,-1.367 2.641,-1.367c0.5,-0 0.959,0.089 1.378,0.269c0.42,0.18 0.734,0.415 0.942,0.707c0.208,0.292 0.354,0.638 0.437,1.039c0.052,0.261 0.078,0.716 0.078,1.367l0,5.102l-1.406,-0l0,-5.047c0,-0.573 -0.054,-1.001 -0.164,-1.285c-0.109,-0.284 -0.303,-0.51 -0.582,-0.68c-0.279,-0.169 -0.605,-0.254 -0.98,-0.254c-0.599,0 -1.116,0.19 -1.551,0.571c-0.435,0.38 -0.652,1.101 -0.652,2.164l-0,4.531l-1.407,-0Z" style="fill-rule:nonzero;"/>
        </g>
    </g>
    <g>
        <path d="M57,5l0,40l-57,0l0,-40l57,0Zm-2,2l-53,0c0,0 -0,36 0,36l53,-0l0,-36Z"/>
        <g>
            <path d="M12.836,44l0,-6.664l2.345,0l4.319,-21.205l4.319,21.205l2.345,0l-0,6.664" style="fill:none;stroke:#000;stroke-width:2px;"/>
            <path d="M30.836,44l0,-6.664l2.345,0l4.319,-21.205l4.319,21.205l2.345,0l-0,6.664" style="fill:none;stroke:#000;stroke-width:2px;"/>
        </g>
    </g>
</svg>
