<svg id="Ebene_1" data-name="Ebene 1" xmlns="http://www.w3.org/2000/svg" viewBox="0 0 381.53 62.06"><defs><style>.cls-1{fill:#4d5357;}.cls-2{fill:#ce5c2f;stroke:#fff;stroke-width:2.06px;}</style></defs><title>dr_kauffold_logo</title><path class="cls-1" d="M89.08,51.07a12.94,12.94,0,0,1-.55,4,8.14,8.14,0,0,1-1.63,3A7.11,7.11,0,0,1,84.19,60a10,10,0,0,1-3.82.67H72.18V59.52h.32a5.1,5.1,0,0,0,.87-.07,1.76,1.76,0,0,0,.7-.27,1.39,1.39,0,0,0,.47-.58,2.68,2.68,0,0,0,.17-1V44.48a2.2,2.2,0,0,0-.17-.95,1.37,1.37,0,0,0-.48-.56,1.73,1.73,0,0,0-.7-.25,6.25,6.25,0,0,0-.87-.06h-.34V41.54h8.19a10.09,10.09,0,0,1,3.69.63A7.34,7.34,0,0,1,86.77,44a8.11,8.11,0,0,1,1.74,3A12.92,12.92,0,0,1,89.08,51.07Zm-9.34,8.19a6.75,6.75,0,0,0,2.8-.54,5.23,5.23,0,0,0,2-1.59,7.22,7.22,0,0,0,1.2-2.61,14.58,14.58,0,0,0,.4-3.48A10,10,0,0,0,84.54,45a5.58,5.58,0,0,0-4.77-2.11H77.42V59.26Z" transform="translate(-28.73 -4.64)"/><path class="cls-1" d="M99.22,60.64H91.5V59.52h.08a5.1,5.1,0,0,0,.87-.07,1.72,1.72,0,0,0,.69-.27,1.39,1.39,0,0,0,.47-.58,2.51,2.51,0,0,0,.18-1V49.24a2.23,2.23,0,0,0-.18-1,1.34,1.34,0,0,0-.48-.55,1.7,1.7,0,0,0-.69-.26,5.1,5.1,0,0,0-.87-.07h-.08V46.3H95.6l.52,2.61h.13c.17-.4.35-.77.54-1.13a3.79,3.79,0,0,1,.67-.93,2.72,2.72,0,0,1,1-.62A3.89,3.89,0,0,1,99.92,46a3.83,3.83,0,0,1,2.17.51A1.65,1.65,0,0,1,102.8,48a2.06,2.06,0,0,1-.14.77,1.48,1.48,0,0,1-.43.61,2,2,0,0,1-.78.39,4,4,0,0,1-1.14.14,3.07,3.07,0,0,0-.32-1.6,1.2,1.2,0,0,0-1.09-.49,1.5,1.5,0,0,0-.87.28,2.6,2.6,0,0,0-.69.75,4.63,4.63,0,0,0-.49,1.06,8.94,8.94,0,0,0-.33,1.23,10.78,10.78,0,0,0-.18,1.27c0,.41,0,.79,0,1.13V57.7a2.35,2.35,0,0,0,.17.95,1.32,1.32,0,0,0,.48.54,1.77,1.77,0,0,0,.7.24,6.36,6.36,0,0,0,.87.06h.74Z" transform="translate(-28.73 -4.64)"/><path class="cls-1" d="M104.88,59a2.55,2.55,0,0,1,.13-.87,1.39,1.39,0,0,1,.36-.56,1.25,1.25,0,0,1,.54-.3,2.39,2.39,0,0,1,.66-.09,2.35,2.35,0,0,1,.64.09,1.25,1.25,0,0,1,.54.3,1.46,1.46,0,0,1,.36.56,2.73,2.73,0,0,1,0,1.74,1.46,1.46,0,0,1-.36.56,1.39,1.39,0,0,1-.54.31,2.35,2.35,0,0,1-.64.09,2.39,2.39,0,0,1-.66-.09,1.39,1.39,0,0,1-.54-.31,1.35,1.35,0,0,1-.36-.56A2.59,2.59,0,0,1,104.88,59Z" transform="translate(-28.73 -4.64)"/><path class="cls-1" d="M124.8,59.52v1.12h-7.2V59.52H118a5.1,5.1,0,0,0,.87-.07,1.61,1.61,0,0,0,.65-.27,1.28,1.28,0,0,0,.42-.58,2.7,2.7,0,0,0,.15-1V49.24a2.59,2.59,0,0,0-.15-1,1.4,1.4,0,0,0-.44-.55,1.42,1.42,0,0,0-.65-.26,4.57,4.57,0,0,0-.83-.07h-.08V46.3h4.16l.36,2.17h.13a5.77,5.77,0,0,1,.87-1.22,3.79,3.79,0,0,1,.94-.75,3.69,3.69,0,0,1,1.06-.36,6.83,6.83,0,0,1,1.19-.1,5.74,5.74,0,0,1,1.24.13,4.24,4.24,0,0,1,1.09.42,3.46,3.46,0,0,1,.87.75,3.71,3.71,0,0,1,.64,1.13h.23a5,5,0,0,1,.87-1.22,3.68,3.68,0,0,1,2.11-1.11,7,7,0,0,1,1.21-.1,5.12,5.12,0,0,1,1.82.31,3.34,3.34,0,0,1,1.38.94,4.32,4.32,0,0,1,.87,1.62,8.61,8.61,0,0,1,.3,2.37V57.6a2.71,2.71,0,0,0,.16,1,1.3,1.3,0,0,0,.43.58,1.55,1.55,0,0,0,.65.27,4.65,4.65,0,0,0,.83.07h.08v1.12h-4.65V51.43a8.06,8.06,0,0,0-.15-1.55,3.26,3.26,0,0,0-.49-1.15,2.08,2.08,0,0,0-.87-.71,3.07,3.07,0,0,0-1.3-.25,3,3,0,0,0-1.41.32,2.64,2.64,0,0,0-.92.87,3.69,3.69,0,0,0-.51,1.27,7.2,7.2,0,0,0-.14,1.53v5.87a2.64,2.64,0,0,0,.15,1,1.32,1.32,0,0,0,.44.58,1.39,1.39,0,0,0,.65.27,4.54,4.54,0,0,0,.82.07h.08v1.12h-4.65V51.43a6.74,6.74,0,0,0-.15-1.55,3.23,3.23,0,0,0-.48-1.15,2.08,2.08,0,0,0-.87-.71,3.12,3.12,0,0,0-1.31-.25,2.91,2.91,0,0,0-1.47.36,2.65,2.65,0,0,0-1,1,4,4,0,0,0-.52,1.38,8.21,8.21,0,0,0-.16,1.64v5.64a2.2,2.2,0,0,0,.17,1,1.32,1.32,0,0,0,.48.54,1.72,1.72,0,0,0,.7.24,5,5,0,0,0,.87.07Z" transform="translate(-28.73 -4.64)"/><path class="cls-1" d="M149.81,60.9a6.51,6.51,0,0,1-2.61-.49A5.09,5.09,0,0,1,145.25,59a6.57,6.57,0,0,1-1.23-2.3,10.24,10.24,0,0,1-.42-3.11,8.82,8.82,0,0,1,1.53-5.64,5.36,5.36,0,0,1,4.35-1.9,6.34,6.34,0,0,1,2.32.41,4.52,4.52,0,0,1,1.74,1.21,5.47,5.47,0,0,1,1.11,2,9,9,0,0,1,.38,2.77v1.23H146.2a11.11,11.11,0,0,0,.29,2.51,5,5,0,0,0,.77,1.74,3.1,3.1,0,0,0,1.24,1,4.07,4.07,0,0,0,1.69.32,4.83,4.83,0,0,0,2.36-.57,4.3,4.3,0,0,0,.87-.59,3.41,3.41,0,0,0,.61-.7,1,1,0,0,1,.35.33,1.05,1.05,0,0,1,.16.59,1.63,1.63,0,0,1-.28.87,3,3,0,0,1-.87.87,5.71,5.71,0,0,1-1.47.66A7.5,7.5,0,0,1,149.81,60.9Zm-.33-13.42a2.57,2.57,0,0,0-2.29,1.21,7.15,7.15,0,0,0-.95,3.53h6.15a10.33,10.33,0,0,0-.15-1.93,5,5,0,0,0-.5-1.51,2.51,2.51,0,0,0-.87-1A2.59,2.59,0,0,0,149.48,47.48Z" transform="translate(-28.73 -4.64)"/><path class="cls-1" d="M170,57.7a2.2,2.2,0,0,0,.18.95,1.3,1.3,0,0,0,.48.56,1.69,1.69,0,0,0,.69.25,6.36,6.36,0,0,0,.87.06h.22v1.12h-4.53l-.29-2.4h-.1a6.41,6.41,0,0,1-.69,1.11,3.94,3.94,0,0,1-.87.86,3.87,3.87,0,0,1-1.12.54,4.81,4.81,0,0,1-1.41.2,6,6,0,0,1-2.34-.44,4.2,4.2,0,0,1-1.74-1.35,6.31,6.31,0,0,1-1-2.3,14.31,14.31,0,0,1-.36-3.32,14.51,14.51,0,0,1,.36-3.35,6.32,6.32,0,0,1,1-2.32,4.2,4.2,0,0,1,1.74-1.35,5.86,5.86,0,0,1,2.34-.43,5.11,5.11,0,0,1,1.4.17,4.11,4.11,0,0,1,2,1.23,5.31,5.31,0,0,1,.68.95h.15a7.9,7.9,0,0,0-.08-1.22l-.05-1v-3a2.08,2.08,0,0,0-.17-.95,1.35,1.35,0,0,0-.48-.55,1.75,1.75,0,0,0-.7-.26,6.15,6.15,0,0,0-.87-.06h-.22V40.32H170Zm-6.18,1.5a3.85,3.85,0,0,0,1.74-.35,2.64,2.64,0,0,0,1.12-1.05,4.94,4.94,0,0,0,.6-1.74,15.26,15.26,0,0,0,.18-2.52,14.59,14.59,0,0,0-.18-2.47,5.24,5.24,0,0,0-.6-1.8,2.81,2.81,0,0,0-1.13-1.11,3.85,3.85,0,0,0-1.74-.38,2.7,2.7,0,0,0-2.53,1.49,6.08,6.08,0,0,0-.58,1.81,14.67,14.67,0,0,0-.18,2.47,9.19,9.19,0,0,0,.77,4.27A2.68,2.68,0,0,0,163.79,59.2Z" transform="translate(-28.73 -4.64)"/><path class="cls-1" d="M174.52,59a2.55,2.55,0,0,1,.13-.87,1.5,1.5,0,0,1,.36-.56,1.25,1.25,0,0,1,.54-.3,2.44,2.44,0,0,1,.66-.09,2.3,2.3,0,0,1,.64.09,1.25,1.25,0,0,1,.54.3,1.61,1.61,0,0,1,.37.56,2.87,2.87,0,0,1,0,1.74,1.61,1.61,0,0,1-.37.56,1.39,1.39,0,0,1-.54.31,2.3,2.3,0,0,1-.64.09,2.39,2.39,0,0,1-.66-.09,1.39,1.39,0,0,1-.54-.31,1.46,1.46,0,0,1-.36-.56A2.59,2.59,0,0,1,174.52,59Z" transform="translate(-28.73 -4.64)"/><path class="cls-1" d="M191.91,54.26l-1,2.81a6.13,6.13,0,0,0-.18.61,3.33,3.33,0,0,0-.07.54,1.13,1.13,0,0,0,.44,1,2.38,2.38,0,0,0,1.33.31H193v1.12H186.5V59.52H187a2.44,2.44,0,0,0,.66-.09,1.06,1.06,0,0,0,.5-.32,2.76,2.76,0,0,0,.43-.64c.14-.27.28-.62.45-1L195,41.54h2.08l6.09,16.52a5.42,5.42,0,0,0,.32.69,1.49,1.49,0,0,0,.39.44,1.17,1.17,0,0,0,.51.22,2.58,2.58,0,0,0,.68.07h.35v1.13h-7.35V59.52h.61c1.08,0,1.61-.43,1.61-1.28a1.82,1.82,0,0,0-.06-.46c0-.16-.09-.34-.16-.54l-1.07-3Zm4.89-6c-.28-.79-.54-1.53-.77-2.22a19.11,19.11,0,0,1-.56-2c-.07.32-.14.63-.22.93s-.17.6-.27.92l-.32,1c-.12.35-.26.72-.44,1.13l-1.81,4.92h6Z" transform="translate(-28.73 -4.64)"/><path class="cls-1" d="M213.31,59.52v1.12h-7.2V59.52h.22a4.91,4.91,0,0,0,.86-.07,1.76,1.76,0,0,0,.7-.27,1.39,1.39,0,0,0,.47-.58,2.34,2.34,0,0,0,.17-1V49.24a2.08,2.08,0,0,0-.17-1,1.41,1.41,0,0,0-.48-.55,1.76,1.76,0,0,0-.69-.26,5.1,5.1,0,0,0-.87-.07h-.08V46.3h4.35l.35,2.17h.13a6.15,6.15,0,0,1,.87-1.22,4.19,4.19,0,0,1,1-.75,3.94,3.94,0,0,1,1.1-.36,7.29,7.29,0,0,1,1.23-.1,5.23,5.23,0,0,1,1.88.31,3.44,3.44,0,0,1,1.41.94,4.18,4.18,0,0,1,.87,1.62,7.91,7.91,0,0,1,.3,2.37V57.6a2.91,2.91,0,0,0,.15,1,1.3,1.3,0,0,0,.43.58,1.55,1.55,0,0,0,.65.27,4.57,4.57,0,0,0,.83.07h.09v1.12H217.2V51.43a6.74,6.74,0,0,0-.15-1.55,3,3,0,0,0-.51-1.15,2.08,2.08,0,0,0-.87-.71,3.37,3.37,0,0,0-1.37-.25,3.15,3.15,0,0,0-1.54.36,2.79,2.79,0,0,0-1,1,4.23,4.23,0,0,0-.54,1.38,7.54,7.54,0,0,0-.16,1.64v5.64a2.06,2.06,0,0,0,.17,1,1.25,1.25,0,0,0,.48.54,1.73,1.73,0,0,0,.69.24,5.1,5.1,0,0,0,.87.07Z" transform="translate(-28.73 -4.64)"/><path class="cls-1" d="M236.15,57.7a2.06,2.06,0,0,0,.17.95,1.37,1.37,0,0,0,.48.56,1.74,1.74,0,0,0,.69.25,6.36,6.36,0,0,0,.87.06h.2v1.12H234l-.28-2.4h-.11a7,7,0,0,1-.68,1.11,4.17,4.17,0,0,1-.87.86,4,4,0,0,1-1.12.54,4.85,4.85,0,0,1-1.41.2,6,6,0,0,1-2.34-.44,4.2,4.2,0,0,1-1.74-1.35,6.15,6.15,0,0,1-1-2.3,13.3,13.3,0,0,1-.36-3.32,13.49,13.49,0,0,1,.36-3.35,6.16,6.16,0,0,1,1-2.32,4.2,4.2,0,0,1,1.74-1.35,5.86,5.86,0,0,1,2.34-.43,5.11,5.11,0,0,1,1.4.17,4.08,4.08,0,0,1,2,1.23,4.85,4.85,0,0,1,.68.95h.16a9.37,9.37,0,0,0-.08-1.22l-.05-1v-3a2.23,2.23,0,0,0-.18-.95,1.28,1.28,0,0,0-.48-.55,1.7,1.7,0,0,0-.69-.26,6.36,6.36,0,0,0-.87-.06h-.23V40.32h4.92ZM230,59.19a3.85,3.85,0,0,0,1.74-.35,2.64,2.64,0,0,0,1.12-1.05,4.94,4.94,0,0,0,.6-1.74,15.18,15.18,0,0,0,.18-2.52,15.7,15.7,0,0,0-.18-2.47,5.24,5.24,0,0,0-.6-1.8,2.78,2.78,0,0,0-1.13-1.1,3.76,3.76,0,0,0-1.74-.39,2.7,2.7,0,0,0-2.53,1.49,5.81,5.81,0,0,0-.58,1.81,14.71,14.71,0,0,0-.18,2.48,9.18,9.18,0,0,0,.77,4.26A2.68,2.68,0,0,0,230,59.2Z" transform="translate(-28.73 -4.64)"/><path class="cls-1" d="M247.65,60.64h-7.72V59.52H240a5.1,5.1,0,0,0,.87-.07,1.72,1.72,0,0,0,.69-.27,1.39,1.39,0,0,0,.47-.58,2.51,2.51,0,0,0,.18-1V49.24a2.23,2.23,0,0,0-.18-1,1.34,1.34,0,0,0-.48-.55,1.7,1.7,0,0,0-.69-.26,5.1,5.1,0,0,0-.87-.07h-.08V46.3H244l.52,2.61h.1c.17-.4.35-.77.54-1.13a3.79,3.79,0,0,1,.67-.93,2.72,2.72,0,0,1,1-.62,4,4,0,0,1,1.48-.23,3.82,3.82,0,0,1,2.17.51,1.69,1.69,0,0,1,.72,1.44,2.28,2.28,0,0,1-.14.77,1.41,1.41,0,0,1-.44.61,2.08,2.08,0,0,1-.77.39,4.07,4.07,0,0,1-1.15.14,3.17,3.17,0,0,0-.31-1.6,1.21,1.21,0,0,0-1.1-.49,1.53,1.53,0,0,0-.87.28,2.56,2.56,0,0,0-.68.75,4.67,4.67,0,0,0-.5,1.06,8.94,8.94,0,0,0-.33,1.23,10.76,10.76,0,0,0-.17,1.27c0,.41-.06.79-.06,1.13V57.7a2.2,2.2,0,0,0,.18.95,1.25,1.25,0,0,0,.48.54,1.73,1.73,0,0,0,.69.24,6.36,6.36,0,0,0,.87.06h.75Z" transform="translate(-28.73 -4.64)"/><path class="cls-1" d="M259.33,60.9a6.48,6.48,0,0,1-2.61-.49,5.05,5.05,0,0,1-2-1.43,6.38,6.38,0,0,1-1.22-2.3,10.25,10.25,0,0,1-.43-3.11,8.76,8.76,0,0,1,1.54-5.64A5.33,5.33,0,0,1,259,46a6.34,6.34,0,0,1,2.32.41,4.68,4.68,0,0,1,1.74,1.21,5.45,5.45,0,0,1,1.1,2,9,9,0,0,1,.38,2.77v1.23h-8.83a10.57,10.57,0,0,0,.3,2.51,4.78,4.78,0,0,0,.77,1.74,3,3,0,0,0,1.23,1,4.1,4.1,0,0,0,1.69.32,5.11,5.11,0,0,0,1.29-.15,5.17,5.17,0,0,0,1.07-.42,4,4,0,0,0,.87-.59,3.13,3.13,0,0,0,.61-.7.86.86,0,0,1,.35.33,1.15,1.15,0,0,1,.17.59,1.74,1.74,0,0,1-.29.87,2.78,2.78,0,0,1-.87.87,5.56,5.56,0,0,1-1.47.66A7.47,7.47,0,0,1,259.33,60.9ZM259,47.48a2.58,2.58,0,0,0-2.3,1.21,7.26,7.26,0,0,0-.95,3.53h6.16a11.26,11.26,0,0,0-.16-1.93,5,5,0,0,0-.49-1.51,2.51,2.51,0,0,0-.87-1A2.63,2.63,0,0,0,259,47.48Z" transform="translate(-28.73 -4.64)"/><path class="cls-1" d="M273.13,47.37a3.09,3.09,0,0,0-1.24.22,1.78,1.78,0,0,0-.75.61,2.24,2.24,0,0,0-.35.93,6.41,6.41,0,0,0-.1,1.16,3.06,3.06,0,0,1-1.7-.38,1.43,1.43,0,0,1-.58-1.3,1.91,1.91,0,0,1,.38-1.18,2.88,2.88,0,0,1,1-.79,5.92,5.92,0,0,1,1.54-.45,11.69,11.69,0,0,1,1.87-.15,8.14,8.14,0,0,1,2.14.25,3.62,3.62,0,0,1,1.53.79,3.4,3.4,0,0,1,.92,1.43,6.62,6.62,0,0,1,.3,2.17v7a4.08,4.08,0,0,0,.1.93,1.29,1.29,0,0,0,.28.59,1.09,1.09,0,0,0,.52.32,2.77,2.77,0,0,0,.76.08h.08v1.13h-3.62l-.41-2.3h-.23c-.28.38-.55.72-.81,1a4.19,4.19,0,0,1-.87.81,3.51,3.51,0,0,1-1.06.53,4.94,4.94,0,0,1-1.43.2,5.13,5.13,0,0,1-1.65-.26,3.44,3.44,0,0,1-1.33-.78,3.7,3.7,0,0,1-.87-1.33,5.3,5.3,0,0,1-.33-1.93,3.52,3.52,0,0,1,1.51-3.16,8.73,8.73,0,0,1,4.58-1.13l2.22-.07V50.68a11.73,11.73,0,0,0-.08-1.33,2.76,2.76,0,0,0-.34-1.05,1.74,1.74,0,0,0-.75-.67A2.92,2.92,0,0,0,273.13,47.37Zm-3.27,9.39a2.86,2.86,0,0,0,.53,1.88,2.06,2.06,0,0,0,1.64.62A3.9,3.9,0,0,0,273.5,59a3.25,3.25,0,0,0,1.12-.75,3.29,3.29,0,0,0,.71-1.17,4.52,4.52,0,0,0,.25-1.54V53.37l-1.73.08a8.16,8.16,0,0,0-1.91.28,3.22,3.22,0,0,0-1.23.64,2.3,2.3,0,0,0-.67,1A4.63,4.63,0,0,0,269.86,56.76Z" transform="translate(-28.73 -4.64)"/><path class="cls-1" d="M286.64,60.9a8.6,8.6,0,0,1-1.83-.17,4.37,4.37,0,0,1-1.39-.54,2.68,2.68,0,0,1-.87-.87,2.34,2.34,0,0,1-.31-1.24,2,2,0,0,1,.17-.86,1.59,1.59,0,0,1,1-.87,1.89,1.89,0,0,1,.53-.08,5.87,5.87,0,0,0,.15,1.32,2.94,2.94,0,0,0,.49,1.08,2.29,2.29,0,0,0,.87.73,3.18,3.18,0,0,0,1.36.27,4.19,4.19,0,0,0,1.27-.18A2.63,2.63,0,0,0,289,59a2.1,2.1,0,0,0,.57-.78,2.53,2.53,0,0,0,.2-1,2.16,2.16,0,0,0-.15-.87,1.9,1.9,0,0,0-.52-.67,5.56,5.56,0,0,0-1-.64c-.43-.22-1-.46-1.61-.75s-1.24-.57-1.8-.87a6,6,0,0,1-1.26-.92,3.43,3.43,0,0,1-.75-1.13,4.31,4.31,0,0,1-.25-1.51,3.49,3.49,0,0,1,.36-1.62,3.23,3.23,0,0,1,1-1.18,4.76,4.76,0,0,1,1.59-.72,8,8,0,0,1,2.07-.26,6.83,6.83,0,0,1,1.68.2,4.2,4.2,0,0,1,1.23.53,2.36,2.36,0,0,1,.75.79,1.94,1.94,0,0,1,.25.94,1.48,1.48,0,0,1-.51,1.17,2.11,2.11,0,0,1-1.43.43,3.5,3.5,0,0,0-.56-2.08,2,2,0,0,0-1.74-.75,3.54,3.54,0,0,0-1.16.16,2,2,0,0,0-.79.44,1.75,1.75,0,0,0-.46.68,2.34,2.34,0,0,0-.14.87,1.89,1.89,0,0,0,.18.87,2,2,0,0,0,.58.68,4.73,4.73,0,0,0,1,.61c.42.2.93.42,1.52.66s1.23.55,1.82.87a5.63,5.63,0,0,1,1.24.94,3.29,3.29,0,0,1,.72,1.15,4.59,4.59,0,0,1,.24,1.48,4.09,4.09,0,0,1-.39,1.82,3.51,3.51,0,0,1-1.07,1.32,4.67,4.67,0,0,1-1.67.79A8,8,0,0,1,286.64,60.9Z" transform="translate(-28.73 -4.64)"/><path class="cls-1" d="M311.83,45.79q.44-.49.72-.87a6.36,6.36,0,0,0,.46-.69,3.76,3.76,0,0,0,.23-.55,1.62,1.62,0,0,0,.07-.44.46.46,0,0,0-.32-.46,3.32,3.32,0,0,0-1-.12V41.57h5.92v1.09a2.32,2.32,0,0,0-.87.17,4.18,4.18,0,0,0-.87.5,8.07,8.07,0,0,0-.87.78c-.3.31-.63.66-1,1l-3.88,4.35,5.64,7.83a7.8,7.8,0,0,0,1.49,1.6,2.47,2.47,0,0,0,1.46.54h.05V60.6h-.29a18.27,18.27,0,0,1-2.21-.11,4.85,4.85,0,0,1-1.45-.38,3.38,3.38,0,0,1-1-.74,9.65,9.65,0,0,1-.93-1.18l-4.61-6.61-2.27,1.84v4.13a2.32,2.32,0,0,0,.17,1,1.44,1.44,0,0,0,.47.59,1.61,1.61,0,0,0,.7.26,4.26,4.26,0,0,0,.87.07h.35v1.13h-7.82V59.52h.34a6.36,6.36,0,0,0,.87-.06,1.91,1.91,0,0,0,.69-.25,1.17,1.17,0,0,0,.48-.53,2.23,2.23,0,0,0,.18-1V44.48a2.2,2.2,0,0,0-.18-.95A1.3,1.3,0,0,0,303,43a1.74,1.74,0,0,0-.69-.25,6.36,6.36,0,0,0-.87-.06h-.34V41.54h7.82v1.12h-.35a6.36,6.36,0,0,0-.87.06,1.76,1.76,0,0,0-.7.27,1.47,1.47,0,0,0-.47.58,2.34,2.34,0,0,0-.17,1v7.55Z" transform="translate(-28.73 -4.64)"/><path class="cls-1" d="M325.94,47.37a3.09,3.09,0,0,0-1.24.22,1.78,1.78,0,0,0-.75.61,2.41,2.41,0,0,0-.36.93,7.46,7.46,0,0,0-.09,1.16,3.06,3.06,0,0,1-1.7-.38,1.43,1.43,0,0,1-.58-1.3,1.91,1.91,0,0,1,.38-1.18,2.88,2.88,0,0,1,1-.79,5.92,5.92,0,0,1,1.54-.45,11.69,11.69,0,0,1,1.87-.15,8.14,8.14,0,0,1,2.14.25,3.62,3.62,0,0,1,1.53.79,3.4,3.4,0,0,1,.92,1.43,6.62,6.62,0,0,1,.3,2.17v7a4.08,4.08,0,0,0,.1.93,1.29,1.29,0,0,0,.28.59,1.09,1.09,0,0,0,.52.32,2.77,2.77,0,0,0,.76.08h.08v1.13h-3.62l-.41-2.3h-.23c-.28.38-.55.72-.81,1a4.45,4.45,0,0,1-.87.81,3.51,3.51,0,0,1-1.06.53,4.94,4.94,0,0,1-1.43.2,5.24,5.24,0,0,1-1.66-.26,3.48,3.48,0,0,1-1.32-.78,3.7,3.7,0,0,1-.87-1.33,5.37,5.37,0,0,1-.31-1.9,3.59,3.59,0,0,1,1.51-3.17,8.66,8.66,0,0,1,4.59-1.12l2.21-.08V50.7a9.89,9.89,0,0,0-.08-1.33,2.75,2.75,0,0,0-.33-1,1.76,1.76,0,0,0-.75-.68A3.07,3.07,0,0,0,325.94,47.37Zm-3.24,9.39a2.86,2.86,0,0,0,.53,1.88,2,2,0,0,0,1.63.62,3.86,3.86,0,0,0,1.47-.26,3.19,3.19,0,0,0,1.13-.75,3.44,3.44,0,0,0,.71-1.17,4.52,4.52,0,0,0,.25-1.54V53.37l-1.74.08a8.15,8.15,0,0,0-1.9.28,3.19,3.19,0,0,0-1.24.64,2.3,2.3,0,0,0-.67,1,4.32,4.32,0,0,0-.17,1.38Z" transform="translate(-28.73 -4.64)"/><path class="cls-1" d="M347.92,57.73a2.23,2.23,0,0,0,.18,1,1.21,1.21,0,0,0,.47.53,2,2,0,0,0,.7.25,6.36,6.36,0,0,0,.87.06h.08v1.12H346l-.35-2.16h-.12a4.73,4.73,0,0,1-.86,1.22,4.1,4.1,0,0,1-2.2,1.11,8.66,8.66,0,0,1-1.25.09,5.48,5.48,0,0,1-1.88-.3,3.44,3.44,0,0,1-1.38-.94,4.4,4.4,0,0,1-.87-1.64,8.17,8.17,0,0,1-.29-2.36V49.24a2.23,2.23,0,0,0-.18-1,1.34,1.34,0,0,0-.48-.55,1.7,1.7,0,0,0-.69-.26,5.1,5.1,0,0,0-.87-.07h-.08V46.3h4.79v9.24a8.05,8.05,0,0,0,.14,1.55,3.2,3.2,0,0,0,.46,1.15,2,2,0,0,0,.87.71,3.32,3.32,0,0,0,1.36.25,3.35,3.35,0,0,0,1.52-.32,2.8,2.8,0,0,0,1-.86,3.92,3.92,0,0,0,.61-1.37,7.26,7.26,0,0,0,.2-1.74V49.4a2.47,2.47,0,0,0-.17-1,1.36,1.36,0,0,0-.47-.59,1.76,1.76,0,0,0-.7-.27,5.1,5.1,0,0,0-.87-.07h-.08V46.3H348Z" transform="translate(-28.73 -4.64)"/><path class="cls-1" d="M359.8,59.52v1.12h-8.27V59.52h.36a5.1,5.1,0,0,0,.87-.07,1.78,1.78,0,0,0,.69-.27,1.39,1.39,0,0,0,.47-.58,2.34,2.34,0,0,0,.17-1v-10h-2.5V46.3H354V45a6.33,6.33,0,0,1,.33-2.11,4.29,4.29,0,0,1,.94-1.54,4,4,0,0,1,1.49-1,5.73,5.73,0,0,1,2-.32,10,10,0,0,1,1.74.14,4.16,4.16,0,0,1,1.16.38,1.58,1.58,0,0,1,.63.6,1.42,1.42,0,0,1,.19.75,1.23,1.23,0,0,1-.16.65,1.27,1.27,0,0,1-.46.46,2,2,0,0,1-.7.29,3.57,3.57,0,0,1-.87.1,4.15,4.15,0,0,0-.08-.79,1.91,1.91,0,0,0-.29-.69,1.59,1.59,0,0,0-.54-.49,1.75,1.75,0,0,0-.87-.18,1.92,1.92,0,0,0-1,.23,1.56,1.56,0,0,0-.61.66,3.33,3.33,0,0,0-.33,1.07,10.66,10.66,0,0,0-.1,1.49V46.3h3.77v1.27h-3.77v10a2.43,2.43,0,0,0,.18,1,1.42,1.42,0,0,0,.46.59,1.76,1.76,0,0,0,.7.27,6.38,6.38,0,0,0,.87.07Z" transform="translate(-28.73 -4.64)"/><path class="cls-1" d="M369.67,59.52v1.12h-8.26V59.52h.35a5,5,0,0,0,.87-.07,1.76,1.76,0,0,0,.7-.27,1.47,1.47,0,0,0,.47-.58,2.34,2.34,0,0,0,.17-1v-10h-2.44V46.3H364V45a6.33,6.33,0,0,1,.33-2.11,4.29,4.29,0,0,1,.94-1.54,4,4,0,0,1,1.49-1,5.73,5.73,0,0,1,2-.32,10.13,10.13,0,0,1,1.74.14,4.38,4.38,0,0,1,1.16.38,1.58,1.58,0,0,1,.63.6,1.42,1.42,0,0,1,.19.75,1.23,1.23,0,0,1-.16.65,1.35,1.35,0,0,1-.46.46,2,2,0,0,1-.7.29,3.63,3.63,0,0,1-.87.1,3.48,3.48,0,0,0-.09-.79,1.9,1.9,0,0,0-.28-.69,1.59,1.59,0,0,0-.54-.49,1.75,1.75,0,0,0-.87-.18,1.92,1.92,0,0,0-1,.23,1.5,1.5,0,0,0-.61.66,3.11,3.11,0,0,0-.34,1.07,10.64,10.64,0,0,0-.09,1.49V46.3h3.77v1.27h-3.76v10a2.27,2.27,0,0,0,.17,1,1.36,1.36,0,0,0,.47.59,1.76,1.76,0,0,0,.7.27,6.25,6.25,0,0,0,.87.07Z" transform="translate(-28.73 -4.64)"/><path class="cls-1" d="M384.52,53.45q0,3.78-1.6,5.62a5.87,5.87,0,0,1-4.68,1.84,6.85,6.85,0,0,1-2.61-.46,5,5,0,0,1-2-1.38,6.43,6.43,0,0,1-1.22-2.33,11.44,11.44,0,0,1-.43-3.29q0-3.75,1.59-5.58a5.93,5.93,0,0,1,4.7-1.83,7.08,7.08,0,0,1,2.61.46,5,5,0,0,1,1.95,1.37,6.14,6.14,0,0,1,1.23,2.31A11.3,11.3,0,0,1,384.52,53.45Zm-9.9,0a16.29,16.29,0,0,0,.19,2.61,5.77,5.77,0,0,0,.64,1.9,2.89,2.89,0,0,0,1.14,1.16,3.47,3.47,0,0,0,1.74.39,3.36,3.36,0,0,0,1.73-.39A2.93,2.93,0,0,0,381.19,58a5.79,5.79,0,0,0,.61-1.9,18,18,0,0,0,0-5.22,5.7,5.7,0,0,0-.62-1.88,3.06,3.06,0,0,0-1.13-1.13,4.17,4.17,0,0,0-3.48,0A3,3,0,0,0,375.45,49a5.72,5.72,0,0,0-.63,1.88A15.22,15.22,0,0,0,374.62,53.45Z" transform="translate(-28.73 -4.64)"/><path class="cls-1" d="M386.69,59.52a5.1,5.1,0,0,0,.87-.07,1.66,1.66,0,0,0,.69-.27,1.39,1.39,0,0,0,.47-.58,2.51,2.51,0,0,0,.18-1V43.26a2.23,2.23,0,0,0-.18-.95,1.32,1.32,0,0,0-.47-.55,1.8,1.8,0,0,0-.7-.26,6.36,6.36,0,0,0-.87-.06h-.31V40.32h5.05V57.61a2.63,2.63,0,0,0,.17,1,1.36,1.36,0,0,0,.47.59,1.76,1.76,0,0,0,.7.27,6.38,6.38,0,0,0,.87.07H394v1.12h-7.6V59.52Z" transform="translate(-28.73 -4.64)"/><path class="cls-1" d="M407.83,57.7a2.06,2.06,0,0,0,.17.95,1.3,1.3,0,0,0,.48.56,1.74,1.74,0,0,0,.69.25,6.36,6.36,0,0,0,.87.06h.22v1.12h-4.53l-.29-2.4h-.1a6.41,6.41,0,0,1-.69,1.11,3.94,3.94,0,0,1-.87.86,3.87,3.87,0,0,1-1.12.54,4.81,4.81,0,0,1-1.41.2,6.08,6.08,0,0,1-2.34-.44,4.33,4.33,0,0,1-1.74-1.35,6.48,6.48,0,0,1-1-2.3,13.78,13.78,0,0,1-.35-3.32,14,14,0,0,1,.35-3.35,6.32,6.32,0,0,1,1-2.32,4.2,4.2,0,0,1,1.74-1.35,5.89,5.89,0,0,1,2.34-.43,5.07,5.07,0,0,1,1.4.17,4.18,4.18,0,0,1,2,1.17,4.87,4.87,0,0,1,.67,1h.2a9.65,9.65,0,0,0-.08-1.23l-.05-1V43.26a2.23,2.23,0,0,0-.18-.95,1.28,1.28,0,0,0-.48-.55,1.76,1.76,0,0,0-.69-.26,6.36,6.36,0,0,0-.87-.06h-.26V40.32h4.92Zm-6.16,1.49a3.88,3.88,0,0,0,1.74-.35,2.64,2.64,0,0,0,1.12-1.05,4.94,4.94,0,0,0,.6-1.74,15.18,15.18,0,0,0,.17-2.52,15.7,15.7,0,0,0-.17-2.47,5.24,5.24,0,0,0-.6-1.8,2.85,2.85,0,0,0-1.13-1.1,3.76,3.76,0,0,0-1.74-.39,2.7,2.7,0,0,0-2.53,1.49,5.81,5.81,0,0,0-.58,1.81,14.71,14.71,0,0,0-.18,2.48,9.18,9.18,0,0,0,.77,4.26,2.69,2.69,0,0,0,2.53,1.39Z" transform="translate(-28.73 -4.64)"/><path class="cls-2" d="M73.55,35.36h26S96.08,7.18,68.86,7.18H54.47A32.85,32.85,0,0,1,73.55,35.36Z" transform="translate(-28.73 -4.64)"/><path class="cls-2" d="M56.36,37H29.9s3.57,28.69,31.23,28.69H75.76A33.42,33.42,0,0,1,56.36,37Z" transform="translate(-28.73 -4.64)"/><path class="cls-2" d="M74,8.28a32,32,0,0,0-12.84-2.6S31.64,5.35,29.9,36.91H56.33A33.43,33.43,0,0,1,74,8.28Z" transform="translate(-28.73 -4.64)"/></svg>