<?xml version="1.0" encoding="UTF-8" standalone="no"?>
<!DOCTYPE svg PUBLIC "-//W3C//DTD SVG 1.1//EN" "http://www.w3.org/Graphics/SVG/1.1/DTD/svg11.dtd">
<svg width="100%" height="100%" viewBox="0 0 456 222" version="1.1" xmlns="http://www.w3.org/2000/svg" xmlns:xlink="http://www.w3.org/1999/xlink" xml:space="preserve" xmlns:serif="http://www.serif.com/" style="fill-rule:evenodd;clip-rule:evenodd;stroke-linejoin:round;stroke-miterlimit:2;">
    <g>
        <path d="M75.601,165.409L75.607,178.355L75.873,183.41C75.873,183.6 75.614,186.125 74.607,186.125C74.296,186.125 74.201,185.37 74.201,185.307L74.201,173.959L74.429,164.781C74.239,163.792 73.764,162.612 73.524,161.597L74.803,158.216C75.595,159.066 76.367,160.221 76.367,161.115C76.367,162.276 75.601,164.597 75.601,165.409ZM82.555,185.814L82.194,158.844C81.998,157.449 82.048,155.92 81.447,154.671C80.769,153.262 80.383,152.964 80.383,151.861C80.383,151.747 80.37,151.391 80.433,150.624C80.49,149.85 80.794,148.48 80.794,148.353C80.794,148.169 80.68,148.226 80.68,148.226C80.364,148.429 79.889,148.626 79.553,148.626C78.407,148.626 78.445,147.275 78.445,146.679C78.445,146.571 78.489,146.323 78.445,145.556L78.844,142.397C78.85,141.528 78.85,141.243 78.85,141.116C78.85,140.735 78.628,139.41 78.28,139.112C77.615,138.528 76.646,138.198 75.93,137.919C75.544,137.786 70.959,136.593 70.243,136.593C70.11,136.593 70.11,136.644 70.047,136.708L70.047,137.5C70.047,138.243 69.306,138.591 68.78,138.591C68.457,138.591 66.253,138.49 65.943,138.49C65.392,140.437 65.582,140.983 63.897,140.983C63.789,140.983 62.795,140.894 62.681,140.894C62.567,140.894 62.542,140.932 62.459,140.932L59.065,200.834C58.9,202.959 58.786,204.272 58.786,210.875L58.799,217.217C58.799,219.45 59.628,222 62.744,222C63.074,222 63.808,221.841 64.15,221.816C62.098,220.084 61.414,219.266 61.414,217.617L61.408,210.063L64.847,149.939L64.847,145.651C64.847,144.002 65.537,143.945 66.589,141.972C66.855,143.05 68.571,142.429 68.463,143.78L67.735,147.77L67.564,154.785L67.564,205.762L68.235,218.385C68.235,218.486 68.229,218.569 68.185,218.645C66.747,217.243 65.335,215.67 65.164,214.306L64.986,207.075C64.929,206.542 64.885,203.46 64.03,203.46C63.251,203.46 63.143,206.06 63.086,206.853C63.017,207.716 62.839,214.458 62.947,216.85C62.966,217.205 63.048,217.579 63.067,217.89C63.181,220.103 65.949,220.541 67.323,221.011C67.735,221.011 67.786,221.061 67.9,221.061C68.014,221.061 68.919,220.922 69.458,220.827C69.413,220.465 69.363,219.97 69.363,219.856C69.363,219.71 69.356,218.518 70.021,218.518C71.187,218.518 71.605,219.748 72.802,219.748C73.036,219.748 73.929,219.552 73.929,218.955C73.929,218.841 73.429,217.42 73.429,217.306C73.429,216.475 75.063,215.86 75.601,215.86C76.659,215.86 76.804,218.321 76.868,218.879L79.078,218.841C81.529,218.968 83.188,217.528 83.188,215.302L83.188,212.873L82.96,209.701L82.555,185.814Z" style="fill:#f7921d;fill-rule:nonzero;"/>
        <path d="M61.82,138.293C61.82,138.997 62.149,139.759 63.156,139.759C63.606,139.759 64.264,139.657 64.264,138.972C64.264,138.395 63.878,137.145 62.909,137.145C62.124,137.145 61.82,137.64 61.82,138.293Z" style="fill:#f7921d;fill-rule:nonzero;"/>
        <path d="M131.467,77.028C131.467,77.224 131.448,77.453 131.366,77.637C130.055,76.584 129.029,75.626 129.029,74.535C129.029,73.19 129.529,72.207 129.529,70.488C129.529,69.708 129.276,65.306 127.762,65.306C127.23,65.306 127.224,65.959 127.224,66.372L127.674,72.905L127.674,77.25L127.49,81.315C126.863,84.658 126.413,88.033 125.761,91.356C125.242,93.982 124.355,96.741 123.215,99.399C123.019,99.862 123.019,100.401 122.974,100.864L122.93,101.949C122.696,103.148 122.487,104.581 121.568,105.767C121.03,106.459 120.327,107.131 119.694,107.689C119.206,108.12 118.452,108.425 118.161,108.983C117.629,110.017 117.16,111.457 116.286,112.554C115.127,113.981 111.15,118.37 110.643,118.37C110.586,118.37 109.655,118.377 109.655,117.964C109.655,117.85 110.086,117.076 110.263,116.626C110.523,115.966 110.409,115.066 110.871,114.558C114.709,110.359 116.388,106.598 118.554,102.608C119.054,101.682 120.067,101.378 120.644,100.712C121.005,100.3 120.897,100.154 120.897,99.716C120.897,99.361 120.625,98.505 120.625,98.352C120.625,97.991 122.822,92.295 123.5,89.84C123.766,88.87 125.818,75.848 125.818,73.717L125.818,66.537C125.818,63.72 122.797,49.988 122.797,49.969C122.797,49.804 122.905,49.607 123.114,49.607C126.369,49.607 126.565,57.542 126.692,57.86C126.812,58.158 127.357,58.424 127.61,58.285C127.94,57.917 127.895,57.517 127.895,57.187L127.629,54.225C127.629,54.162 127.686,53.591 127.946,53.591C129.833,53.591 130.834,61.462 130.834,61.906L130.834,62.686L131.201,66.08L131.467,72.321L131.467,77.028ZM128.301,102.507C127.927,102.887 127.433,103.205 127.237,103.604C126.654,104.809 126.331,106.192 125.362,107.353C123.297,109.846 120.865,112.446 118.414,115.009L118.37,114.964C119.276,111.812 121.049,108.482 123.012,105.513C123.291,105.101 124.298,105.285 124.672,104.765C125.318,103.82 126.508,99.64 127.813,99.64C128.503,99.64 129.029,100.388 129.029,100.909C129.029,101.372 128.693,102.12 128.301,102.507ZM142.114,60.631C141.506,58.5 140.746,56.363 139.853,54.25C137.231,48.085 133.234,41.723 127.933,35.602C118.459,24.655 107.66,16.631 97.616,10.358C97.039,10.003 90.199,5.683 88.983,5.683C88.869,5.683 88.147,5.772 88.04,5.772C87.761,5.772 83.119,3.451 80.617,2.753C80.085,2.607 79.072,2.563 78.958,2.563C77.957,2.563 77.241,3.419 76.272,3.419C75.462,3.419 74.784,2.804 73.796,2.315C73.688,2.949 73.682,4.066 72.789,4.326L71.529,4.142C70.705,4.053 70.534,5.163 70.534,5.569C70.534,5.74 70.547,6.273 70.946,6.273L71.833,6.273C72.586,6.273 72.745,6.914 72.745,7.427C72.745,7.529 72.656,8.113 72.548,8.544L75.563,8.036C80.155,10.098 84.936,12.388 89.433,15.591C93.303,18.344 97.153,22.168 100.903,25.98C103.683,28.809 106.577,31.905 109.009,34.708C113.778,40.207 115.558,45.865 117.863,51.428C118.307,50.724 118.731,50.051 118.731,49.449C118.731,48.764 117.692,47.14 117.692,46.487C117.692,46.144 117.92,46.036 118.3,46.036C118.554,46.036 119.003,46.144 119.124,46.461C121.112,51.707 121.72,57.067 122.404,62.281C122.537,63.359 122.746,65.369 122.746,65.484L122.746,69.6L122.658,73.717C121.929,82.933 120.935,92.257 116.28,101.34C114.475,104.866 111.992,108.336 109.009,111.78C108.167,112.77 106.305,114.641 106.305,114.755C106.305,114.863 107.527,114.996 107.527,115.681C107.527,116.404 105.127,118.891 104.741,119.227C103.867,120.001 102.72,120.362 101.853,120.977C101.758,121.034 101.745,121.161 101.745,121.269C101.745,121.383 101.878,121.815 101.878,121.922C101.878,122.056 101.669,122.525 101.46,122.607C100.13,123.14 97.464,123.933 97.362,123.933C97.312,123.933 97.286,123.927 97.274,123.908C97.267,122.918 97.223,122.81 97.267,122.734L97.204,122.671C95.215,123.927 90.022,127.009 87.4,127.009C86.127,127.009 84.246,125.709 82.048,125.709L81.485,125.709C81.377,125.709 81.51,125.608 81.396,125.608C81.364,125.608 80.421,125.944 80.421,126.077C80.421,128.322 84.727,131.208 86.304,130.999C87.571,130.821 86.919,130.948 88.084,130.948C88.16,130.948 89.376,132.223 90.434,132.648C92.201,133.352 94.246,133.587 96.051,133.796C96.723,133.885 97.255,133.885 97.362,133.885C97.521,133.885 98.129,133.758 98.306,133.676L98.35,133.72C98.198,134.132 97.711,134.627 97.419,135.058L102.106,135.655C102.828,135.693 103.214,135.705 103.322,135.705C103.683,135.705 104.228,135.731 104.589,135.483L104.633,135.534C104.506,135.991 104.05,136.486 104.05,136.644L104.05,136.834L108.104,136.834C108.933,136.834 114.703,135.915 115.457,135.445C115.792,135.249 116.008,134.811 116.312,134.665C121.841,131.836 128.237,125.76 133.006,120.077C134.254,118.58 135.54,117.115 136.433,115.586C142.24,105.634 143.456,95.536 144.343,85.622L144.565,77.973C144.565,77.928 144.66,77.903 144.66,77.789L144.66,74.947C144.66,72.137 142.373,61.545 142.114,60.631Z" style="fill:#f7921d;fill-rule:nonzero;"/>
        <path d="M15.428,117.698C12.996,117.698 11.919,114.114 11.514,112.605C11.337,112.541 11.052,112.446 10.931,112.446C10.798,112.446 10.659,112.465 10.64,112.744L11.723,116.163C11.717,116.188 11.691,116.214 11.666,116.239C11.305,116.087 10.824,115.776 10.64,115.415C8.727,111.704 7.866,107.816 7.138,104.023C6.701,101.714 6.479,99.412 6.251,97.109L6.118,92.993L6.118,88.971L6.302,86.035C6.929,83.992 7.22,81.95 7.885,79.901C8.607,81.423 9.506,83.237 9.506,84.804L9.05,94.553L9.057,97.521C9.057,102.989 11.508,110.537 14.947,115.364C15.384,115.979 16.118,116.455 16.631,116.766C16.41,117.4 15.89,117.698 15.428,117.698ZM8.746,115.383C4.687,111.596 3.794,107.676 3.274,103.82L3.325,103.769C3.813,104.042 4.307,104.353 4.737,104.638C4.959,104.784 5.345,104.854 5.421,105.133C6.029,107.169 6.561,109.268 7.188,111.374C7.549,112.592 8.784,114.983 8.784,115.319C8.784,115.37 8.765,115.377 8.746,115.383ZM3.046,93.227C3.046,91.997 3.756,88.692 4.585,87.931C4.63,95.79 4.706,95.885 4.687,95.917C4.674,95.929 4.642,95.936 4.592,96.57L5.212,101.067C5.212,101.131 5.193,101.15 5.168,101.169C4.022,100.204 3.046,97.28 3.046,95.929L3.046,93.227ZM51.021,130.637C57.925,130.01 65.075,125.855 71.953,122.1C72.878,121.605 73.954,120.838 74.866,120.02L74.866,119.461C74.866,119.17 74.683,118.193 74.056,118.193C73.942,118.193 73.327,118.44 72.96,118.535C71.617,118.897 69.705,118.516 68.717,120.248C67.969,121.555 66.405,122.037 65.322,122.385C61.167,123.711 56.886,124.434 52.776,124.973L49.774,125.113L46.189,124.929C41.325,124.434 36.41,123.083 31.616,121.009C29.691,120.184 27.683,119.328 25.796,118.047C23.592,116.556 22.35,114.235 21.679,112.478C20.222,108.621 19.868,104.752 19.469,100.997C19.374,100.052 19.222,98.302 19.222,98.187L19.222,89.111C19.222,80.288 23.807,65.985 28.924,58.183C32.23,53.147 35.625,47.819 40.977,42.871C46.037,38.197 51.338,34.137 56.519,30.262C56.715,30.541 56.842,31.378 57.323,31.378C58.02,31.378 58.336,30.135 58.336,29.837C58.336,28.854 57.298,29.025 57.298,28.302C57.298,27.959 57.614,27.446 58.083,27.446C58.811,27.446 58.311,28.435 59.736,28.435C60.68,28.435 61.877,28.004 62.808,27.3C61.794,26.83 56.766,24.82 55.075,24.82L52.288,24.82C52.18,24.82 51.598,24.902 51.275,24.946C50.635,23.323 49.894,23.189 48.735,23.189C45.6,23.189 40.812,24.972 37.994,25.98C36.163,26.64 31.325,28.727 31.325,29.704C31.325,29.818 31.863,31.194 31.863,31.308C31.863,31.511 29.52,33.357 28.943,33.814C26.581,35.717 23.959,38.222 21.749,40.531C16.441,46.049 11.856,51.745 8.651,57.32C3.452,66.378 0.944,75.62 0.203,84.664L0,88.559L0,96.481L0.247,99.056C0.557,106.941 3.566,114.964 11.463,122.696C19.019,130.105 27.278,134.627 35.251,136.264C35.106,136.086 32.952,134.38 32.952,133.822C32.952,133.549 33.497,133.441 33.719,133.441C34.586,133.441 37.424,134.665 37.728,134.729C39.602,135.122 41.559,135.16 43.383,135.382L45.53,135.483C45.22,134.703 44.694,133.6 44.694,132.896C44.694,131.456 50.869,130.663 51.021,130.637Z" style="fill:#f7921d;fill-rule:nonzero;"/>
        <path d="M30.47,30.477C30.47,30.344 30.413,30.262 30.292,30.141L23.402,34.6C23.693,34.695 24.187,34.86 24.478,34.86C25.295,34.86 30.47,32.888 30.47,30.477Z" style="fill:#f7921d;fill-rule:nonzero;"/>
        <path d="M62.041,76.546C62.041,77.415 62.776,77.884 63.599,77.884C63.872,77.884 64.48,77.808 64.48,77.231C64.48,77.078 64.087,74.985 63.232,74.985C62.624,74.985 62.041,76.216 62.041,76.546Z" style="fill:#f7921d;fill-rule:nonzero;"/>
        <path d="M61.085,82.724C60.984,82.724 60.471,82.635 60.173,82.54C58.159,84.905 57.19,87.468 57.025,89.821C56.981,90.544 56.981,90.665 56.981,90.773C56.981,90.887 57,91.597 57.07,92.187C57.31,94.001 57.918,95.783 59.191,97.636L58.558,99.538C60.002,101.391 61.991,103.033 63.707,103.198C64.353,103.262 64.258,103.649 64.258,104.01C64.258,104.156 64.353,105.431 63.713,105.431C61.75,105.431 58.989,102.9 58.241,102.9L57.918,102.9C57.975,103.179 57.931,103.509 57.931,103.623C57.931,105.634 59.35,105.723 61.256,106.573C62.567,107.15 63.992,107.752 65.221,108.748C64.752,110.207 67.007,111.514 68.14,111.45C68.774,111.412 69.052,111.514 69.812,111.45C73.106,111.165 76.595,110.366 79.889,109.37L83.784,109.275C83.461,108.311 82.498,107.251 81.497,107.004C82.194,106.782 82.973,106.763 83.53,106.173C86.665,102.849 88.337,99.006 88.736,95.53L88.692,89.777C88.515,88.679 87.831,85.648 87.831,85.457C87.831,85.235 88.692,84.525 88.692,83.447C88.692,83.326 88.635,81.867 88.103,81.867C87.28,81.867 88.603,83.808 86.456,83.808C85.652,83.808 84.803,83.402 84.803,82.318C84.803,81.601 85.196,80.732 86.209,80.732C86.311,80.732 86.963,80.865 87.356,80.96C87.704,80.491 87.97,79.838 87.97,79.375C87.97,78.442 85.893,79 85.893,78.195C85.893,77.909 86.564,77.059 86.931,76.869L86.931,76.672L84.905,76.298C84.265,76.254 83.967,76.254 83.86,76.254C80.49,76.254 81.314,79.146 77.393,79.146C76.443,79.146 75.462,78.747 75.462,77.522C75.462,77.408 75.595,77.002 75.595,76.888C75.595,76.723 75.506,76.742 75.481,76.755C75.088,76.844 74.683,76.952 74.322,76.977C73.695,77.034 73.429,77.021 72.751,76.977L70.775,76.704C69.869,78.525 67.862,78.791 66.443,78.791C65.829,78.791 65.62,78.829 64.834,78.544C64.929,80.643 62.877,82.724 61.085,82.724Z" style="fill:#f7921d;fill-rule:nonzero;"/>
        <path d="M220.729,98.257L209.386,98.257C209.386,94.756 208.652,91.927 207.176,89.758C205.447,87.24 202.907,85.984 199.557,85.984C194.592,85.984 191.032,88.863 188.866,94.61C187.372,98.574 186.612,103.547 186.612,109.528C186.612,128.17 192.255,137.494 203.541,137.494C208.392,137.494 213.294,135.541 218.259,131.64L218.259,139.968C213.934,142.6 208.493,143.913 201.938,143.913C193.046,143.913 186.365,140.545 181.893,133.809C178.119,128.088 176.225,120.527 176.225,111.133C176.225,102.285 177.979,95.232 181.507,89.973C185.662,83.757 191.938,80.649 200.336,80.649C206.283,80.649 211.096,82.083 214.757,84.944C218.741,88.064 220.729,92.504 220.729,98.257Z" style="fill:#fff;fill-rule:nonzero;"/>
        <path d="M252.58,121.796C252.58,109.541 249.603,103.414 243.624,103.414C237.709,103.414 234.745,109.541 234.745,121.796C234.745,134.056 237.709,140.183 243.624,140.183C249.603,140.183 252.58,134.056 252.58,121.796ZM262.327,121.796C262.327,136.543 256.095,143.913 243.624,143.913C231.211,143.913 225.011,136.543 225.011,121.796C225.011,107.055 231.211,99.684 243.624,99.684C256.095,99.684 262.327,107.055 262.327,121.796Z" style="fill:#fff;fill-rule:nonzero;"/>
        <path d="M307.11,142.917L298.154,142.917L298.154,116.468C298.154,109.7 296.394,106.319 292.885,106.319C289.167,106.319 286.229,108.691 284.075,113.429C282.372,117.159 281.529,121.168 281.529,125.443L281.529,142.917L272.561,142.917L272.561,100.642L281.529,100.642L281.529,110.696L281.7,110.696C285.063,103.357 290.016,99.684 296.52,99.684C299.896,99.684 302.543,100.915 304.475,103.37C306.229,105.628 307.11,108.501 307.11,112.002L307.11,142.917Z" style="fill:#fff;fill-rule:nonzero;"/>
        <path d="M343.393,105.279L331.879,105.279L331.879,129.604C331.879,132.813 332.158,134.995 332.703,136.149C333.564,137.938 335.413,138.839 338.244,138.839C339.866,138.839 341.259,138.591 342.443,138.103L342.443,143.26C340.854,143.697 338.776,143.913 336.205,143.913C331.936,143.913 328.763,143.203 326.686,141.788C324.172,140.082 322.918,137.202 322.918,133.162L322.918,105.279L316.16,105.279L316.16,100.642L322.918,100.642L322.918,90.709L331.879,85.292L331.879,100.642L343.393,100.642L343.393,105.279Z" style="fill:#fff;fill-rule:nonzero;"/>
        <path d="M360.721,142.917L351.766,142.917L351.766,100.642L360.721,100.642L360.721,142.917ZM361.063,90.538L351.418,90.538L351.418,81.645L361.063,81.645L361.063,90.538Z" style="fill:#fff;fill-rule:nonzero;"/>
        <rect x="374.87" y="81.645" width="8.955" height="61.272" style="fill:#fff;fill-rule:nonzero;"/>
        <path d="M406.872,142.917L397.904,142.917L397.904,100.642L406.872,100.642L406.872,142.917ZM407.214,90.538L397.556,90.538L397.556,81.645L407.214,81.645L407.214,90.538Z" style="fill:#fff;fill-rule:nonzero;"/>
        <path d="M441.345,128.088L441.345,123.102C432.104,123.705 427.494,126.667 427.494,131.989C427.494,133.688 427.924,135.141 428.792,136.327C429.742,137.653 431.028,138.319 432.636,138.319C433.764,138.319 434.891,138.014 436.012,137.412C439.565,135.534 441.345,132.42 441.345,128.088ZM450.3,142.917L441.345,142.917L441.345,137.063L441.174,137.063C438.514,141.623 434.543,143.913 429.261,143.913C426.145,143.913 423.472,142.943 421.255,141.008C418.918,138.978 417.747,136.422 417.747,133.333C417.747,124.802 425.613,120.153 441.345,119.373L441.345,115.643C441.345,112.148 441.098,109.573 440.604,107.924C439.736,104.917 438.007,103.414 435.41,103.414C432.845,103.414 431.028,104.372 429.951,106.275C429.21,107.638 428.741,109.763 428.564,112.649L419.178,112.649C419.786,104.004 425.188,99.684 435.41,99.684C441.034,99.684 444.98,100.985 447.235,103.585C449.274,105.989 450.3,110.004 450.3,115.643L450.3,142.917Z" style="fill:#fff;fill-rule:nonzero;"/>
    </g>
</svg>
