<svg width="180" height="180" viewBox="0 0 180 180" xmlns="http://www.w3.org/2000/svg"><g transform="translate(0 26)" fill="none"><path d="M100.183622,70.786112 L84.6748731,70.786112 L84.6748731,12.3964254 L104.283271,12.3964254 C123.17573,12.3964254 135.295472,22.3343099 135.295472,41.1491356 L135.295472,41.5024905 C135.295472,58.5417522 125.493039,70.786112 100.183622,70.786112 L100.183622,70.786112 Z M116.759656,76.4661588 C132.444962,72.2065632 143.494769,60.4939936 143.494769,41.3266921 L143.494769,40.9698213 C143.494769,30.3217111 139.930087,21.4482859 133.869775,15.2355699 C127.274496,8.66949899 117.115418,4.76589511 104.63815,4.76589511 L76.2972532,4.76589511 L76.2972532,101.462057 L46.6992721,4.0556695 L37.9658902,4.0556695 L0,129 L8.3767371,129 L42.2438614,15.5915616 L75.930015,129 L84.6748731,129 L84.6748731,78.4192793 L101.786758,78.4192793 C103.925743,78.4192793 106.064729,78.4192793 108.202831,78.2417229 L136.901256,129 L146.704572,129 L116.759656,76.4661588 Z" fill="#3C3C3C"/><path d="M159.303664,0 L153.280429,4.35276883 L154.433345,5.94638149 C154.534866,6.08702023 164.670108,20.2730735 169.704626,42.2206271 C172.679607,55.1945503 173.326688,68.3099913 171.628211,81.2039262 C169.500702,97.343979 163.664617,113.208907 154.279741,128.356578 L153.881605,129 L162.573496,129 C171.37397,113.934955 176.899315,98.1983593 179.012699,82.1681806 C180.827703,68.3996485 180.137366,54.4043364 176.965523,40.5698799 C171.562886,17.0181658 160.915628,2.21418107 160.464526,1.59449166 L159.303664,0 Z" fill="#FF8A00"/></g></svg>