<svg xmlns="http://www.w3.org/2000/svg" viewBox="0 0 1275.59 708.66"><path fill="#06a7cb" d="M59.44 216.39c1.84-19.13 2.34-37.09 5.47-54.58 11.33-63.3 50.76-100.58 111.52-116.89 31.76-8.53 64.17-10.16 96.84-6.95 2.72.27 5.41.86 8.43 1.36v94.78c-15.37 0-30.58-1.41-45.42.31-25.33 2.94-46.59 13.55-57.47 38.67-5.79 13.37-6.18 27.52-6 42.63h95.32v88.98H172.7v360.06H60.97V305.01H5.99v-88.62h53.45zM261.58 600.6c9.22-8.21 18.21-16.22 25.92-23.08 7.69 6.87 16.14 15.06 25.25 22.43 47.04 38.08 99.82 50.44 158.24 33.03 24.84-7.4 44.81-22.13 54.71-47.34 12.55-31.95 2.42-62.47-27.42-84.12-22.09-16.03-47.48-25.39-72.24-36.14-28.88-12.55-57.91-24.92-85.92-39.22-21.68-11.08-39.72-27.38-50.63-49.88-23.94-49.38-6.6-109.11 42.69-134.46 61.8-31.77 125.39-31.49 187.36 1.33 21.87 11.58 33.6 30.55 32.09 56.4-.51 8.76-.08 17.57-.08 26.67h-36.58c0-5.51-.23-10.69.04-15.85.92-17.26-7.08-29.48-21.21-38.4-14.72-9.29-31.04-14.15-48.1-15.72-29.48-2.71-58.38-.27-86.18 11.3-48.84 20.33-55.34 82.32-16.53 114.49 17.54 14.54 37.65 24.33 58.38 33.12 28.8 12.22 57.9 23.78 86.37 36.72 23.29 10.59 44.73 24.4 60.61 45.12 29.95 39.08 27.13 96.01-6.19 132.24-25.58 27.81-58.16 41.48-94.86 45.45-66.82 7.21-125.26-11.24-173.39-59.23-3.21-3.2-6.03-6.79-8.98-10.24-.85-1.02-1.57-2.17-3.35-4.62z"/><path fill="#78c864" d="M976.21 662.64c-2.75.42-5.07.95-7.05 1.57h-76.73c-.53-.15-1.02-.19-1.58-.34-8.69-2.24-15.5-5.5-20.44-10-4.94-4.49-7.41-9.81-7.41-16.4 0-6.59 5.99-26.81 17.97-61.55 1.8-5.39 4.34-7.19 7.64-7.19h85.81c7.19 0 11.23.75 12.13 4.04 11.38 38.04 17.07 60.65 17.07 69.64 0 10.5-9.14 17.24-27.41 20.23zm-178.36 0c17.97-5.39 30.85-16.92 38.64-34.59 28.75-65.89 56.76-136.28 84.02-211.17 3.89-9.88 5.84-16.69 5.84-20.44 0-3.74.15-5.62.45-5.62 10.78-3.59 17.07-6.51 18.87-8.76 1.8-2.25 2.99-3.97 3.59-5.17 1.19-2.7 2.25-4.05 3.14-4.05 1.49 0 2.99 2.1 4.49 6.29 22.16 69.8 48.82 149.76 79.97 239.92 5.69 16.48 11.97 27.63 18.87 33.47 6.72 5.69 15.1 9.43 25.09 11.28 7.01-2.02 12.09-4.88 15.9-8.59 5.09-4.94 7.3-12.8 7.3-23.59V442.05c0-14.38-1.54-25-5.28-31.9-3.75-6.89-10.61-11.23-20.95-13.03-10.33-1.8-15.42-4.79-15.42-8.99 0-3.3 4.38-4.95 13.07-4.95l44.05.45 49.88-2.69c33.84 0 61.56 7.19 83.12 21.57 5.5 3.67 10.29 7.65 14.38 11.95v-368H649.13v617.76H793.6c1.31-.53 2.69-1.06 4.25-1.58zm460.5-129.39c-17.67 19.47-42.98 29.2-75.93 29.2-6 0-10.86-.9-14.6-2.69-3.75-1.8-5.62-3.74-5.62-5.84 0-1.2.82-2.32 2.47-3.38 1.64-1.04 3.21-1.57 4.72-1.57l6.74.9c4.49.6 9.13 1.06 13.93 1.34 36.24 0 54.36-26.8 54.36-80.42 0-26.35-6.74-45.83-20.22-58.41-13.48-12.57-30.4-18.86-53.46-18.86-19.17 0-27.41 6.29-27.41 18.86V626.7c0 19.99 5.3 32.47 21.19 37.51h102.36V522.26c-2.59 3.81-5.37 7.51-8.53 10.99zm-287.08 13.03c4.2 0 6.29-.07 6.29-1.57 0-.59-.3-1.75-.9-4.16l-35.49-107.2c-1.8-5.4-3.07-8-3.82-8s-2.02 2.59-3.82 7.68l-40.44 107.84c-.6 1.8-.9 2.34-.9 2.93 0 2.09 3.14 2.48 9.43 2.48h69.65z"/></svg>