<?xml version="1.0" encoding="utf-8"?>
<!-- Generator: Adobe Illustrator 25.0.0, SVG Export Plug-In . SVG Version: 6.00 Build 0)  -->
<svg version="1.1" id="Ebene_1" xmlns="http://www.w3.org/2000/svg" xmlns:xlink="http://www.w3.org/1999/xlink" x="0px" y="0px"
	 viewBox="0 0 264.3 95.4" style="enable-background:new 0 0 264.3 95.4;" xml:space="preserve">
<style type="text/css">
	.st0{fill:#1C181D;}
	.st1{fill:#003761;}
	.st2{fill:none;}
	.st3{fill:#F9B122;}
	.st4{fill:#9A0054;}
	.st5{fill:#76B82A;}
</style>
<path class="st0" d="M50.9,93.6c3.8,0,5.2-2.3,5.2-5.2c0-3.1-1.6-5.1-5.3-5.1h-1.8v10.2H50.9z M47.2,81.8h3.6c4.8,0,7.2,2.6,7.2,6.6
	s-2.6,6.7-7.2,6.7h-3.6V81.8z"/>
<path class="st0" d="M65.6,88.3c1.3,0.1,2.4-0.8,2.6-2.1c0-0.1,0-0.2,0-0.3c0.1-1.3-1-2.4-2.3-2.5c-0.1,0-0.3,0-0.4,0h-1.7v5
	L65.6,88.3z M67.3,89.3c0.7,0.6,1.3,1.3,1.7,2.1l2.3,3.8h-2l-2.2-3.5c-0.4-0.7-0.9-1.3-1.6-1.8h-2v5.3h-1.8V81.8h3.5
	c3.4,0,4.6,1.9,4.6,3.8c0,1.6-1,3.1-2.6,3.5L67.3,89.3z"/>
<path class="st0" d="M73.8,94.1c0-0.7,0.5-1.2,1.2-1.2c0.7,0,1.2,0.5,1.2,1.2c0,0,0,0,0,0c0,0.7-0.5,1.2-1.2,1.2
	C74.4,95.3,73.9,94.7,73.8,94.1C73.8,94.1,73.8,94.1,73.8,94.1"/>
<path class="st0" d="M90.4,93.6c3.8,0,5.2-2.3,5.2-5.2c0-3.1-1.6-5.1-5.3-5.1h-1.8v10.2H90.4z M86.7,81.8h3.6c4.8,0,7.2,2.6,7.2,6.6
	s-2.6,6.7-7.2,6.7h-3.6V81.8z"/>
<polygon class="st0" points="101.3,81.8 101.3,95.1 108.6,95.1 108.6,93.6 103.1,93.6 103.1,89.1 108.1,89.1 108.1,87.7 103.1,87.7 
	103.1,83.3 108.2,83.3 108.8,81.8 "/>
<path class="st0" d="M122.8,94.6c-1.3,0.5-2.7,0.8-4.1,0.8c-3.5,0.2-6.6-2.5-6.8-6c0-0.2,0-0.5,0-0.7c-0.2-3.7,2.6-6.9,6.3-7.1
	c0.2,0,0.4,0,0.7,0c1.2,0,2.4,0.2,3.5,0.7v1.6c-1-0.5-2.2-0.8-3.3-0.8c-2.8-0.2-5.1,1.9-5.3,4.7c0,0.2,0,0.4,0,0.7
	c0,3.4,2.1,5.3,4.9,5.3c0.8,0,1.6-0.1,2.3-0.3v-4.6h1.8L122.8,94.6z"/>
<polygon class="st0" points="127.4,81.8 127.4,95.1 134.7,95.1 134.7,93.6 129.2,93.6 129.2,89.1 134.2,89.1 134.2,87.7 129.2,87.7 
	129.2,83.3 134.3,83.3 134.9,81.8 "/>
<path class="st0" d="M148.8,92.3c0-0.7,0-2,0-2.9v-7.6h1.8v13.3H149l-6-7.7c-0.9-1.1-1.6-2-2.2-3l0,0c0,0.8,0,2,0,2.9v7.7H139V81.8
	h1.7l5.9,7.5C147.5,90.5,148.2,91.4,148.8,92.3L148.8,92.3z"/>
<polygon class="st0" points="164.3,81.8 164.3,87.6 157.3,87.6 157.3,81.8 155.4,81.8 155.4,95.1 157.3,95.1 157.3,89.2 164.3,89.2 
	164.3,95.1 166.2,95.1 166.2,81.8 "/>
<path class="st0" d="M177.2,90.4l-1.3-3.6c-0.3-0.7-0.6-1.6-0.9-2.4H175c-0.3,0.8-0.6,1.7-0.9,2.4l-1.3,3.6H177.2z M174.4,81.7h1.3
	l5.3,13.4h-2l-1.2-3.2h-5.6l-1.2,3.2h-1.9L174.4,81.7z"/>
<path class="st0" d="M187.6,88.3c1.3,0.1,2.4-0.8,2.6-2.1c0-0.1,0-0.2,0-0.4c0-1.4-0.9-2.5-2.7-2.5h-1.7v5L187.6,88.3z M189.4,89.3
	c0.7,0.6,1.3,1.3,1.7,2.1l2.3,3.8h-2.1l-2.2-3.5c-0.4-0.7-0.9-1.3-1.6-1.8h-1.9v5.3h-1.8V81.8h3.5c3.4,0,4.6,1.9,4.6,3.8
	c0,1.6-1,3.1-2.6,3.5V89.3z"/>
<path class="st0" d="M200.2,93.6c3.8,0,5.2-2.3,5.2-5.2c0-3.1-1.6-5.1-5.3-5.1h-1.8v10.2H200.2z M196.5,81.8h3.5
	c4.9,0,7.2,2.6,7.2,6.6s-2.6,6.7-7.2,6.7h-3.6L196.5,81.8z"/>
<polygon class="st0" points="209.1,81.8 209.1,83.3 213.3,83.3 213.3,95.1 215.1,95.1 215.1,83.3 218.9,83.3 219.6,81.8 "/>
<polygon class="st0" points="12.6,50.4 12.6,58 3.6,58 3.6,50.4 0,50.4 0,68.7 3.6,68.7 3.6,60.9 12.6,60.9 12.6,68.7 16.2,68.7 
	16.2,50.4 "/>
<path class="st0" d="M33,62l-1.5-4c-0.3-0.8-0.7-2.1-1.1-3.1h-0.1c-0.4,1-0.8,2.3-1.1,3.1l-1.5,4L33,62z M29,50.2h2.9l7.5,18.5h-3.9
	l-1.5-4h-7.3l-1.5,4h-3.8L29,50.2z"/>
<path class="st0" d="M60.3,61.7c0,5.1-3.4,7.4-8,7.4s-7.9-2.2-7.9-7.3V50.4H48v11.2c0,3.1,1.6,4.6,4.3,4.6s4.3-1.5,4.3-4.6V50.4h3.6
	L60.3,61.7z"/>
<polygon class="st0" points="71.2,53.3 65.6,53.3 65.6,50.4 80.9,50.4 79.9,53.3 74.8,53.3 74.8,68.7 71.2,68.7 "/>
<path class="st0" d="M93.8,62l-1.5-4c-0.3-0.8-0.7-2.1-1.1-3.1h-0.1c-0.3,1-0.8,2.3-1.1,3.1l-1.5,4L93.8,62z M89.8,50.3h2.9
	l7.5,18.5h-3.8l-1.5-4h-7.3l-1.5,4h-3.8L89.8,50.3z"/>
<path class="st0" d="M111.3,59.1c1.6,0.2,3-1,3.2-2.6c0-0.1,0-0.3,0-0.4c0-1.7-1-3-3.3-3H109v6L111.3,59.1z M114.4,60.8
	c0.9,0.8,1.7,1.7,2.2,2.7l3.2,5.2H116l-2.8-4.5c-0.8-1.3-1.5-2.1-2-2.2H109v6.8h-3.6V50.4h6c5,0,6.7,2.7,6.7,5.4
	C118.1,58,116.6,60.1,114.4,60.8L114.4,60.8z"/>
<polygon class="st0" points="132.7,53.3 124.8,53.3 123.8,50.4 138.2,50.4 129.1,65.8 138.2,65.8 138.2,68.7 123.6,68.7 "/>
<polygon class="st0" points="147.2,53.3 141.6,53.3 141.6,50.4 157,50.4 155.9,53.3 150.8,53.3 150.8,68.7 147.2,68.7 "/>
<path class="st0" d="M167.2,59.8c2.4,0,3.4-1.4,3.4-3.3s-0.9-3.3-3.3-3.3h-1.8v6.6L167.2,59.8z M161.9,50.4h5.4
	c4.4,0,6.8,2.3,6.8,6.1c0,3.5-2.4,6.1-7,6.1h-1.6v6.2h-3.6L161.9,50.4z"/>
<path class="st0" d="M186.5,59.1c1.6,0.2,3-1,3.2-2.6c0-0.1,0-0.3,0-0.4c0-1.7-1-3-3.3-3h-2.2v6L186.5,59.1z M189.7,60.8
	c0.9,0.8,1.7,1.7,2.2,2.7l3.2,5.2h-3.9l-2.8-4.5c-0.8-1.3-1.5-2.1-2-2.2h-2.2v6.8h-3.6V50.4h6c5,0,6.6,2.7,6.6,5.4
	C193.3,58,191.8,60.1,189.7,60.8L189.7,60.8z"/>
<path class="st0" d="M209.6,62l-1.5-4c-0.3-0.8-0.7-2.1-1.1-3.1H207c-0.4,1-0.8,2.3-1.1,3.1l-1.5,4L209.6,62z M205.6,50.3h2.9
	l7.5,18.5h-3.8l-1.5-4h-7.3l-1.5,4h-3.8L205.6,50.3z"/>
<polygon class="st0" points="223.1,50.4 227.7,56.9 232.4,50.4 236.3,50.4 229.7,59.4 236.5,68.7 232.6,68.7 227.7,61.8 222.6,68.7 
	218.7,68.7 225.7,59.4 219.1,50.4 "/>
<rect x="241.8" y="50.4" class="st0" width="3.6" height="18.4"/>
<path class="st0" d="M253,65.1c1.3,0.8,2.8,1.2,4.3,1.2c1.6,0,3.3-0.7,3.3-2.4c0-3.8-8.1-2.8-8.1-8.7c0-2.9,2.2-5.1,6.1-5.1
	c1.6,0,3.2,0.3,4.8,0.9v3c-1.4-0.7-2.9-1.1-4.5-1.1c-1.4,0-2.8,0.5-2.8,2.1c0,3.5,8.1,2.4,8.1,8.6c0,3.5-2.9,5.5-6.8,5.5
	c-2,0-4-0.5-5.7-1.4L253,65.1z"/>
<path class="st1" d="M82.4,0c-8.1-0.4-15,5.8-15.5,13.9c-0.4,7.2,4.5,13.5,11.5,15.1v-2.9c-0.2-1-0.6-1.9-1.2-2.7
	c-0.9-1.9-1.4-4-1.6-6.1c-0.1-0.5-0.2-1-0.4-1.5C74.8,15,74.3,14,73.9,13c-0.1-0.3-0.5-1.1-0.6-1.4c-0.5-1.2-0.7-1.6-0.9-2.1
	c-0.1-0.2-0.1-0.5-0.1-0.8c0.1-0.4,0.4-0.6,0.8-0.5c0,0,0,0,0.1,0c0.3,0.1,0.5,0.3,0.6,0.6c0.2,0.4,0.4,0.9,1,1.9
	c0.1,0.2,0.5,0.9,0.6,1.2c0.5,0.9,0.8,1.5,1.2,2.2c0.2,0.3,0.3,0.5,0.6,0.7c0.2,0.1,0.6,0,0.6-0.3s-0.6-3-0.8-4.2
	c-0.2-0.8-0.2-1.4-0.3-2c-0.2-0.9-0.4-1.8-0.5-2.5c-0.1-0.3,0-0.7,0.1-1c0.3-0.3,0.7-0.4,1.1-0.2c0.3,0.2,0.4,0.5,0.5,0.8
	c0.1,0.6,0.3,1.5,0.6,2.7c0.1,0.6,0.3,1.2,0.4,1.8c0.3,1.4,0.7,2.7,1.1,4c0.1,0.2,0.7,0.1,0.7-0.2s0-2.2,0-3.7
	c0-0.9,0.1-1.9,0.1-2.7c0-1.3,0-2.2,0-2.6c0-0.4,0.1-0.7,0.3-1c0.3-0.3,0.8-0.3,1.1,0c0.3,0.2,0.3,0.6,0.4,1.2s0,1.1,0.1,2.6
	c0,0.8,0.1,1.9,0.2,2.6c0.1,1.4,0.1,2.1,0.1,2.5c0,0.4,0,0.8,0.1,1.2c0.1,0.2,0.4,0.2,0.6,0c0,0,0,0,0,0c0.2-0.3,0.3-0.6,0.4-1
	c0.2-0.9,0.4-1.3,0.5-2C84.8,9.7,85,9,85.2,8.3c0.2-1.2,0.4-1.9,0.7-2.9c0-0.3,0.2-0.6,0.5-0.7c0.4-0.2,0.8-0.1,1.1,0.3
	c0.2,0.2,0.2,0.6,0.1,0.8c-0.2,0.9-0.3,1.8-0.5,3c-0.4,2.1-0.8,3.8-1,5.3c-0.2,1.2-0.1,2.5,0.3,3.7c0.6,1.5,2,0.1,2.5-0.3
	c0.5-0.5,1-0.9,1.4-1.5c0.3-0.3,0.7-0.6,1.1-0.8c0.9-0.4,1.7-0.2,2,0.3c0.1,0.2,0.1,0.6-0.1,0.8c-0.2,0.3-0.4,0.5-0.7,0.8
	c-0.3,0.3-0.9,0.8-1.5,1.2c-0.5,0.4-1,0.9-1.4,1.4c-0.5,0.6-1.1,1.3-1.5,2c-0.4,0.5-2.4,2.9-2.7,3.2c-0.5,0.5-0.8,1.2-0.8,1.9
	c0,0.4,0,1.3,0,2.4c8-1.6,13.1-9.4,11.5-17.3C94.9,5.2,89.2,0.3,82.4,0"/>
<path class="st2" d="M159.2,15.6L159.2,15.6"/>
<path class="st3" d="M115.6,0c-8.1,0-14.7,6.6-14.7,14.7s6.6,14.7,14.7,14.7c8.1,0,14.7-6.6,14.7-14.7C130.3,6.6,123.7,0,115.6,0z
	 M118.5,17c-0.2,2.1-0.7,4.2-1.4,6.2c-0.2,0.6-0.3,1.1-0.2,1.7c0,0.3,0,0.7-0.1,1c-0.2,0.5-0.8,0.9-1.4,0.9l0,0.1
	c-0.3,0-0.5,0-0.8-0.1c-0.9-0.2-1.3-1.1-1.1-2c0,0,0,0,0,0c0.2-0.5,0.5-0.9,1-1.2c0.3-0.2,0.6-0.5,0.8-0.8c0.9-1.9,1.5-3.9,1.8-5.9
	c0.8-4.3,0-8.7-2.2-12.5c-0.1-0.3-0.3-0.5-0.4-0.8c0-0.1,0.2-0.2,0.3-0.2c0.2,0.2,0.4,0.4,0.5,0.7C118.1,7.7,119.3,12.4,118.5,17z"
	/>
<path class="st4" d="M149.5,0c-8.1,0-14.7,6.6-14.7,14.7c0,0,0,0,0,0c0,6.5,4.2,12,10,13.9l0,0c0.6-1.2,1-2.4,1.4-3.6
	c-2,0-3.9-0.8-5.4-2.2c4.6,0.3,2.8-3.4,1.9-4.8l-0.2-0.2l0-0.1c-2.2-3.4-4-9.3,0-12.8c2.9-2.6,8.8-3.5,11.5,0.6
	c0.4,0.2,0.8,0.4,1.2,0.6c0.2-0.1,0.4-0.1,0.6-0.1c2.4,0.1,3.8,3,2.3,4.3c0.1,0.4,0.1,0.9,0.1,1.3c0,0.7-0.2,1.4-0.5,2.1
	c-0.1,0.2-0.2,0.5-0.3,0.7c0.4-0.1,0.7-0.2,0.7-0.2c-0.2,0.2-0.5,0.4-0.7,0.5c-0.1,0.6,0.1,1.3,0.6,1.8c0.4,0.5,1,0.9,1,1.2
	c0,1.1-1.8,0.7-1,1.6c0.1,0.1,0.3,0.3,0.2,0.6c-0.2,0.5-0.9,0.4-1,0.4c1.1,0.3,0.5,1,0.3,1.1c-0.5,0.2-0.8,0.7-0.7,1.2
	c0.3,1.7-1.7,1.2-2.1,1.1c-0.9-0.2-1.2-0.5-2-0.1c-0.5,0.2-0.8,1-0.7,1.9c0,0.9,0.1,1.9,0.4,2.8c0.1,0.2,0.2,0.5,0.2,0.7
	c6.6-1.4,11.6-7.3,11.6-14.4C164.2,6.6,157.6,0,149.5,0z"/>
<path class="st5" d="M193.8,4.3c-2.7-2.7-6.3-4.3-10.4-4.3c-8.1,0-14.7,6.6-14.7,14.7c0,8.1,6.6,14.7,14.7,14.7s14.7-6.6,14.7-14.7
	C198.1,10.7,196.5,7,193.8,4.3z M184.2,7.1l-0.7-0.5l0.8,0.3l-0.5-0.7l0.6,0.6L184.3,6l0.3,0.8l0.3-0.8l-0.1,0.9l0.6-0.6L184.9,7
	l0.8-0.3l-0.7,0.5l0.8,0.1l-0.8,0.1l0.7,0.4l-0.8-0.3l0.5,0.7l-0.6-0.6l0.1,0.9l-0.3-0.8l-0.3,0.8l0.1-0.9l-0.6,0.6l0.5-0.7
	l-0.8,0.3l0.7-0.5l-0.8-0.1L184.2,7.1z M182.5,8.7c0.4,0,0.7,0.3,0.7,0.7s-0.3,0.7-0.7,0.7c-0.4,0-0.7-0.3-0.7-0.7
	S182.1,8.7,182.5,8.7z M179.6,3.2l0.8,0.3L180,2.7l0.6,0.6l-0.1-0.8l0.3,0.8l0.3-0.8l-0.1,0.8l0.6-0.6L181,3.5l0.8-0.3l-0.7,0.4
	l0.9,0.1l-0.9,0.1l0.7,0.5L181,3.9l0.5,0.7L180.9,4l0.1,0.9l-0.3-0.8l-0.3,0.8l0.1-0.9L180,4.7l0.5-0.7l-0.8,0.3l0.7-0.4l-0.9-0.1
	l0.9-0.1L179.6,3.2z M177.4,9.1l0.9,0.1l-0.6-0.6l0.8,0.4l-0.3-0.8l0.5,0.7l0.1-0.8l0.1,0.8l0.5-0.7L179.2,9l0.8-0.4l-0.6,0.6
	l0.9-0.1l-0.8,0.3l0.8,0.3l-0.9-0.1l0.6,0.6l-0.8-0.4l0.3,0.8L179,10l-0.1,0.9l-0.1-0.9l-0.5,0.7l0.3-0.8l-0.8,0.4l0.6-0.6l-0.9,0.1
	l0.8-0.3L177.4,9.1z M180.4,13.1L180.4,13.1c0,0.5-0.4,0.8-0.8,0.8s-0.8-0.4-0.8-0.8c0-0.4,0.4-0.8,0.8-0.8
	C180.1,12.3,180.4,12.7,180.4,13.1z M176.9,16.2l-0.2,0.8l0.7-0.4l-0.6,0.6l0.9-0.1l-0.8,0.3l0.8,0.3l-0.9-0.1l0.6,0.6l-0.8-0.4
	l0.3,0.8l-0.5-0.7l-0.1,0.8l-0.1-0.8l-0.5,0.7l0.3-0.8l-0.8,0.4l0.6-0.6l-0.9,0.1l0.8-0.3l-0.8-0.3l0.9,0.1l-0.6-0.6l0.8,0.4
	l-0.2-0.8l0.5,0.7l0.1-0.9l0.1,0.9L176.9,16.2z M174.5,13.9c0-0.5,0.4-0.8,0.8-0.8c0.4,0,0.8,0.4,0.8,0.8s-0.4,0.8-0.8,0.8
	C174.8,14.7,174.5,14.4,174.5,13.9z M172.3,17.7c0,0.5-0.4,0.8-0.8,0.8c-0.5,0-0.8-0.4-0.8-0.8c0-0.4,0.4-0.8,0.8-0.8
	C172,16.9,172.3,17.2,172.3,17.7L172.3,17.7z M173.7,12.3l-0.9-0.1l0.6,0.6l-0.8-0.4l0.3,0.8l-0.5-0.7l-0.1,0.8l-0.1-0.8l-0.5,0.7
	l0.3-0.8l-0.8,0.4l0.6-0.6l-0.9,0.1l0.8-0.3l-0.8-0.3l0.9,0.1l-0.6-0.6l0.8,0.4l-0.3-0.8l0.5,0.7l0.1-0.9l0.1,0.9l0.5-0.7l-0.2,0.8
	l0.7-0.4l-0.6,0.6l0.9-0.1l-0.8,0.3L173.7,12.3z M174.7,4.9c0.4,0,0.8,0.3,0.8,0.7s-0.3,0.8-0.7,0.8h0c-0.4,0-0.7-0.3-0.7-0.7
	C174,5.3,174.3,4.9,174.7,4.9z M174.2,9.7l0.8-0.3l-0.8-0.3l0.8,0.1l-0.6-0.6l0.7,0.5l-0.3-0.8l0.4,0.7l0.1-0.8l0.1,0.8l0.4-0.7
	l-0.3,0.8l0.7-0.5l-0.6,0.6l0.8-0.1l-0.8,0.3l0.8,0.3l-0.8-0.1l0.6,0.6l-0.7-0.5l0.3,0.8l-0.4-0.7l-0.1,0.9l-0.1-0.9l-0.4,0.7
	l0.3-0.8l-0.7,0.5l0.6-0.6L174.2,9.7z M174.5,20.3c0-0.5,0.4-0.8,0.8-0.8c0.4,0,0.8,0.4,0.8,0.8c0,0.4-0.4,0.8-0.8,0.8
	C174.8,21.1,174.5,20.7,174.5,20.3z M178.5,24.1l-0.9-0.1l0.6,0.6l-0.8-0.4l0.2,0.8l-0.5-0.7l-0.1,0.9l-0.1-0.9l-0.5,0.7l0.2-0.8
	l-0.8,0.4l0.6-0.6l-0.9,0.1l0.8-0.3l-0.8-0.3l0.9,0.1l-0.6-0.6l0.8,0.4l-0.2-0.8l0.5,0.7l0.1-0.9l0.1,0.9l0.5-0.7l-0.2,0.8l0.8-0.4
	l-0.6,0.6l0.9-0.1l-0.8,0.3L178.5,24.1z M179.7,23.8c0-0.4,0.3-0.7,0.7-0.7s0.7,0.3,0.7,0.7c0,0.4-0.3,0.7-0.7,0.7
	S179.7,24.2,179.7,23.8z M182.6,27.7l-0.8-0.3l0.5,0.7l-0.6-0.6l0.1,0.9l-0.3-0.8l-0.3,0.8l0.1-0.9l-0.6,0.6l0.5-0.7l-0.8,0.3
	l0.7-0.5l-0.9-0.1l0.9-0.1l-0.7-0.5l0.8,0.3l-0.5-0.7l0.6,0.6l-0.1-0.9l0.3,0.8l0.3-0.8l-0.1,0.9l0.6-0.6l-0.5,0.7l0.8-0.3l-0.7,0.5
	l0.9,0.1l-0.9,0.1L182.6,27.7z M184.9,25.1l-0.9-0.1l0.6,0.6l-0.8-0.4l0.3,0.8l-0.5-0.7l-0.1,0.9l-0.1-0.9l-0.5,0.7l0.3-0.8
	l-0.8,0.4l0.6-0.6l-0.9,0.1l0.8-0.3l-0.8-0.3l0.9,0.1l-0.6-0.6l0.8,0.4l-0.2-0.8l0.5,0.7l0.1-0.8l0.1,0.8l0.5-0.7l-0.2,0.8l0.8-0.4
	l-0.6,0.6l0.9-0.1l-0.8,0.3L184.9,25.1z M187.2,27.2c0-0.1,0-0.2,0-0.2c-0.1-0.9-0.3-1.8-0.8-2.7c-0.2-0.5-0.5-0.9-0.9-1.2
	c-0.5-0.2-1-0.4-1.5-0.4c-0.8-0.2-1.6-0.2-2.4-0.4c-0.6-0.1-1.1-0.4-1.6-0.7c-1.9-1.1-2-4-0.6-5.8c0.6-0.8,1.3-1.5,2-2.2
	c1.1-1.2,2.1-2.4,3.1-3.6c1.3-1.3,2.4-2.9,3.3-4.5c0.4-0.8,0.5-1.7,0.5-2.6c5,1.9,8.2,6.6,8.2,12h0
	C196.7,20.7,192.8,25.7,187.2,27.2z M188.5,15.7c0-0.1-0.2-0.1-0.2,0c0.1,1.7,1.5,2.9,1.9,4.4c0.2,0.8,0,1.6-0.5,2.2
	c-0.5,0.7-1.2,1.2-2.1,1.3c-0.1,0-0.1,0.1,0,0.1l0,0c1.7-0.2,2.9-1.6,2.8-3.3c-0.2-0.8-0.5-1.6-1-2.3
	C189,17.4,188.7,16.6,188.5,15.7z M186.7,22c-1-0.5-1.7-1.5-2.7-2c-0.7-0.3-1.4-0.2-2.1,0.1c-0.6,0.3-0.3,0.8,0.1,1
	c0.6,0.3,1.3,0.4,2,0.5c0.6,0.2,1.2,0.4,1.8,0.7c0.4,0.2,0.8,0.4,1.3,0.5l0,0c0.2,0,0.4,0,0.5-0.1C187.7,22.6,186.8,22,186.7,22z"/>
</svg>
