<?xml version="1.0" encoding="utf-8"?>
<!-- Generator: $$$/GeneralStr/196=Adobe Illustrator 27.6.0, SVG Export Plug-In . SVG Version: 6.00 Build 0)  -->
<svg version="1.1" id="Ebene_1" xmlns="http://www.w3.org/2000/svg" xmlns:xlink="http://www.w3.org/1999/xlink" x="0px" y="0px"
	 width="235px" height="70px" viewBox="0 0 235 70" style="enable-background:new 0 0 235 70;" xml:space="preserve">
<style type="text/css">
	.st0{opacity:0.5;fill:#0071B6;}
	.st1{fill:#204E6D;}
</style>
<rect y="25.99" class="st0" width="235" height="1"/>
<path class="st1" d="M12.88,17.25l-1.64-4.56H4.97l-1.61,4.56H0.53L6.67,0.77h2.92l6.14,16.49H12.88z M10.54,10.38L9,5.91
	C8.89,5.61,8.73,5.14,8.53,4.5C8.33,3.85,8.2,3.38,8.12,3.08C7.92,4,7.62,5.01,7.23,6.1l-1.48,4.28H10.54z M30.85,17.25h-2.7v-7.4
	h-7.57v7.4H17.9V0.83h2.68v6.72h7.57V0.83h2.7V17.25z M42.27,17.25L37.51,3.54h-0.09c0.13,2.04,0.19,3.95,0.19,5.73v7.98h-2.44V0.83
	h3.79l4.56,13.06h0.07l4.69-13.06h3.8v16.42H49.5V9.13c0-0.82,0.02-1.88,0.06-3.19s0.08-2.1,0.11-2.38h-0.09l-4.93,13.69H42.27z
	 M66.59,17.25l-1.64-4.56h-6.28l-1.61,4.56h-2.83l6.14-16.49h2.92l6.14,16.49H66.59z M64.24,10.38L62.7,5.91
	c-0.11-0.3-0.27-0.77-0.47-1.42c-0.2-0.64-0.34-1.12-0.41-1.42c-0.2,0.92-0.5,1.93-0.89,3.02l-1.48,4.28H64.24z M84.96,8.89
	c0,2.71-0.75,4.78-2.26,6.22s-3.67,2.15-6.5,2.15h-4.59V0.83h5.08c2.61,0,4.65,0.7,6.1,2.11C84.23,4.35,84.96,6.33,84.96,8.89z
	 M82.13,8.98c0-3.93-1.84-5.9-5.51-5.9h-2.32V15h1.91C80.15,15,82.13,12.99,82.13,8.98z M104.65,17.25l-1.64-4.56h-6.28l-1.61,4.56
	h-2.83l6.14-16.49h2.92l6.14,16.49H104.65z M102.3,10.38l-1.54-4.47c-0.11-0.3-0.27-0.77-0.47-1.42c-0.2-0.64-0.33-1.12-0.41-1.42
	C99.68,4,99.39,5.01,99,6.1l-1.48,4.28H102.3z M109.67,17.25V0.83h2.68v14.12h6.95v2.3H109.67z M134.67,17.25h-3.11l-5.15-7.43
	l-1.58,1.29v6.14h-2.68V0.83h2.68v7.84c0.73-0.9,1.46-1.76,2.19-2.59l4.44-5.25h3.05c-2.87,3.37-4.92,5.77-6.17,7.2L134.67,17.25z
	 M149.78,17.25h-2.7v-7.4h-7.57v7.4h-2.68V0.83h2.68v6.72h7.57V0.83h2.7V17.25z M164.29,17.25l-1.64-4.56h-6.28l-1.61,4.56h-2.83
	l6.14-16.49H161l6.14,16.49H164.29z M161.95,10.38l-1.54-4.47c-0.11-0.3-0.27-0.77-0.47-1.42c-0.2-0.64-0.34-1.12-0.41-1.42
	c-0.2,0.92-0.5,1.93-0.89,3.02l-1.48,4.28H161.95z M169.31,17.25V0.83H172v14.12h6.95v2.3H169.31z M181.78,17.25V0.83h2.68v16.42
	H181.78z M188.8,17.25V0.83h2.68v14.12h6.95v2.3H188.8z"/>
<path class="st1" d="M2.9,46.9H1.57V35.47h6.37v1.18H2.9v4.18h4.73v1.18H2.9V46.9z M14.9,46.9l-0.26-1.22h-0.06
	c-0.43,0.54-0.85,0.9-1.28,1.09c-0.42,0.19-0.95,0.29-1.59,0.29c-0.85,0-1.51-0.22-2-0.66c-0.48-0.44-0.72-1.06-0.72-1.87
	c0-1.73,1.38-2.64,4.15-2.72l1.45-0.05v-0.53c0-0.67-0.14-1.17-0.43-1.49s-0.75-0.48-1.39-0.48c-0.71,0-1.52,0.22-2.42,0.66
	l-0.4-0.99c0.42-0.23,0.88-0.41,1.39-0.54c0.5-0.13,1.01-0.2,1.51-0.2c1.02,0,1.78,0.23,2.27,0.68s0.74,1.18,0.74,2.18v5.84H14.9z
	 M11.97,45.98c0.81,0,1.44-0.22,1.9-0.66s0.69-1.06,0.69-1.86v-0.77l-1.3,0.05c-1.03,0.04-1.77,0.2-2.23,0.48
	c-0.46,0.28-0.68,0.73-0.68,1.32c0,0.47,0.14,0.83,0.43,1.07C11.06,45.86,11.46,45.98,11.97,45.98z M21.95,47.05
	c-1.24,0-2.2-0.38-2.88-1.14s-1.02-1.84-1.02-3.24c0-1.43,0.34-2.54,1.04-3.32c0.69-0.78,1.67-1.17,2.95-1.17
	c0.41,0,0.82,0.04,1.23,0.13c0.41,0.09,0.73,0.19,0.97,0.31l-0.4,1.1c-0.29-0.11-0.6-0.21-0.94-0.29c-0.34-0.08-0.64-0.11-0.9-0.11
	c-1.74,0-2.61,1.11-2.61,3.33c0,1.05,0.21,1.86,0.64,2.42c0.42,0.56,1.05,0.84,1.89,0.84c0.71,0,1.45-0.15,2.2-0.46v1.15
	C23.54,46.9,22.82,47.05,21.95,47.05z M32.01,46.9v-5.54c0-0.7-0.16-1.22-0.48-1.56c-0.32-0.34-0.82-0.52-1.49-0.52
	c-0.9,0-1.56,0.25-1.97,0.73s-0.62,1.29-0.62,2.41v4.48h-1.3V34.74h1.3v3.68c0,0.44-0.02,0.81-0.06,1.1h0.08
	c0.25-0.41,0.62-0.74,1.09-0.97c0.47-0.24,1.01-0.36,1.61-0.36c1.05,0,1.83,0.25,2.36,0.75s0.79,1.29,0.79,2.37v5.59H32.01z
	 M41.23,46.9l-0.26-1.22h-0.06c-0.43,0.54-0.85,0.9-1.28,1.09c-0.42,0.19-0.96,0.29-1.59,0.29c-0.85,0-1.51-0.22-2-0.66
	c-0.48-0.44-0.72-1.06-0.72-1.87c0-1.73,1.38-2.64,4.15-2.72l1.45-0.05v-0.53c0-0.67-0.14-1.17-0.43-1.49s-0.75-0.48-1.39-0.48
	c-0.71,0-1.52,0.22-2.42,0.66l-0.4-0.99c0.42-0.23,0.88-0.41,1.39-0.54c0.5-0.13,1.01-0.2,1.51-0.2c1.02,0,1.78,0.23,2.27,0.68
	s0.74,1.18,0.74,2.18v5.84H41.23z M38.3,45.98c0.81,0,1.44-0.22,1.9-0.66s0.69-1.06,0.69-1.86v-0.77l-1.3,0.05
	c-1.03,0.04-1.78,0.2-2.23,0.48c-0.46,0.28-0.68,0.73-0.68,1.32c0,0.47,0.14,0.83,0.43,1.07C37.4,45.86,37.79,45.98,38.3,45.98z
	 M48.77,38.18c0.38,0,0.72,0.03,1.02,0.09l-0.18,1.2c-0.35-0.08-0.67-0.12-0.94-0.12c-0.69,0-1.29,0.28-1.78,0.84
	s-0.74,1.26-0.74,2.1v4.59h-1.3v-8.56h1.07l0.15,1.59h0.06c0.32-0.56,0.7-0.99,1.15-1.29C47.74,38.33,48.24,38.18,48.77,38.18z
	 M56.88,46.9h-6.21v-0.88l4.67-6.67h-4.38v-1.01h5.8v1.01l-4.61,6.55h4.73V46.9z M61.65,45.98c0.23,0,0.45-0.02,0.66-0.05
	c0.21-0.03,0.38-0.07,0.51-0.11v0.99c-0.14,0.07-0.35,0.12-0.62,0.17c-0.27,0.04-0.52,0.07-0.74,0.07c-1.66,0-2.48-0.87-2.48-2.62
	v-5.09h-1.23v-0.62l1.23-0.54l0.55-1.83h0.75v1.98h2.48v1.01h-2.48v5.04c0,0.52,0.12,0.91,0.37,1.19
	C60.88,45.84,61.22,45.98,61.65,45.98z M72.55,39.34h-2.18v7.55h-1.3v-7.55h-1.53v-0.59l1.53-0.47v-0.48c0-2.1,0.92-3.16,2.76-3.16
	c0.45,0,0.98,0.09,1.59,0.27l-0.34,1.04c-0.5-0.16-0.93-0.24-1.28-0.24c-0.49,0-0.85,0.16-1.09,0.49s-0.35,0.85-0.35,1.57v0.55h2.18
	V39.34z M75.33,38.33v5.55c0,0.7,0.16,1.22,0.48,1.56c0.32,0.34,0.81,0.52,1.49,0.52c0.9,0,1.55-0.25,1.96-0.73s0.62-1.29,0.62-2.4
	v-4.5h1.3v8.56h-1.07l-0.19-1.15h-0.07c-0.27,0.42-0.63,0.75-1.11,0.97c-0.47,0.22-1.01,0.34-1.61,0.34c-1.04,0-1.82-0.25-2.34-0.74
	c-0.52-0.5-0.78-1.29-0.78-2.38v-5.6H75.33z M75.41,36.01c0-0.27,0.07-0.47,0.21-0.59c0.14-0.12,0.3-0.18,0.5-0.18
	c0.2,0,0.37,0.06,0.51,0.18c0.14,0.12,0.21,0.32,0.21,0.59c0,0.26-0.07,0.45-0.21,0.58c-0.14,0.13-0.31,0.19-0.51,0.19
	c-0.19,0-0.36-0.06-0.5-0.19C75.47,36.47,75.41,36.27,75.41,36.01z M78.38,36.01c0-0.27,0.07-0.47,0.21-0.59
	c0.14-0.12,0.3-0.18,0.5-0.18c0.19,0,0.36,0.06,0.5,0.18c0.14,0.12,0.21,0.32,0.21,0.59c0,0.26-0.07,0.45-0.21,0.58
	c-0.14,0.13-0.31,0.19-0.5,0.19c-0.19,0-0.36-0.06-0.5-0.19C78.45,36.47,78.38,36.27,78.38,36.01z M87.84,38.18
	c0.38,0,0.72,0.03,1.02,0.09l-0.18,1.2c-0.35-0.08-0.67-0.12-0.94-0.12c-0.69,0-1.29,0.28-1.78,0.84s-0.74,1.26-0.74,2.1v4.59h-1.3
	v-8.56H85l0.15,1.59h0.06c0.32-0.56,0.7-0.99,1.15-1.29C86.81,38.33,87.3,38.18,87.84,38.18z M99.84,40.91h3.88v5.55
	c-0.6,0.19-1.22,0.34-1.84,0.44s-1.35,0.15-2.17,0.15c-1.73,0-3.08-0.51-4.04-1.54c-0.96-1.03-1.45-2.47-1.45-4.32
	c0-1.19,0.24-2.23,0.71-3.12s1.16-1.58,2.06-2.05c0.9-0.47,1.95-0.71,3.15-0.71c1.22,0,2.35,0.22,3.41,0.67l-0.52,1.17
	c-1.03-0.44-2.02-0.66-2.98-0.66c-1.39,0-2.48,0.41-3.26,1.24s-1.17,1.98-1.17,3.45c0,1.54,0.38,2.71,1.13,3.51
	c0.75,0.8,1.86,1.2,3.32,1.2c0.79,0,1.56-0.09,2.32-0.27V42.1h-2.55V40.91z M109.88,47.05c-1.27,0-2.26-0.39-3-1.16
	c-0.73-0.77-1.1-1.84-1.1-3.21c0-1.38,0.34-2.48,1.02-3.29s1.59-1.22,2.74-1.22c1.07,0,1.92,0.35,2.55,1.06s0.94,1.64,0.94,2.79
	v0.82h-5.9c0.03,1,0.28,1.77,0.76,2.29c0.48,0.52,1.16,0.78,2.04,0.78c0.92,0,1.83-0.19,2.73-0.58v1.16
	c-0.46,0.2-0.89,0.34-1.3,0.43C110.95,47.01,110.46,47.05,109.88,47.05z M109.53,39.26c-0.69,0-1.24,0.22-1.64,0.67
	c-0.41,0.45-0.65,1.07-0.72,1.86h4.48c0-0.82-0.18-1.44-0.55-1.88C110.73,39.48,110.21,39.26,109.53,39.26z M119.1,39.34h-2.18v7.55
	h-1.3v-7.55h-1.53v-0.59l1.53-0.47v-0.48c0-2.1,0.92-3.16,2.76-3.16c0.45,0,0.98,0.09,1.59,0.27l-0.34,1.04
	c-0.5-0.16-0.93-0.24-1.28-0.24c-0.49,0-0.85,0.16-1.09,0.49s-0.35,0.85-0.35,1.57v0.55h2.18V39.34z M125.93,46.9l-0.26-1.22h-0.06
	c-0.43,0.54-0.85,0.9-1.28,1.09c-0.42,0.19-0.96,0.29-1.59,0.29c-0.85,0-1.51-0.22-2-0.66c-0.48-0.44-0.72-1.06-0.72-1.87
	c0-1.73,1.38-2.64,4.15-2.72l1.45-0.05v-0.53c0-0.67-0.14-1.17-0.43-1.49s-0.75-0.48-1.39-0.48c-0.71,0-1.52,0.22-2.42,0.66
	l-0.4-0.99c0.42-0.23,0.88-0.41,1.39-0.54c0.5-0.13,1.01-0.2,1.51-0.2c1.02,0,1.78,0.23,2.27,0.68s0.74,1.18,0.74,2.18v5.84H125.93z
	 M123,45.98c0.81,0,1.44-0.22,1.9-0.66s0.69-1.06,0.69-1.86v-0.77l-1.3,0.05c-1.03,0.04-1.78,0.2-2.23,0.48
	c-0.46,0.28-0.68,0.73-0.68,1.32c0,0.47,0.14,0.83,0.43,1.07C122.09,45.86,122.49,45.98,123,45.98z M121.47,36.01
	c0-0.27,0.07-0.47,0.21-0.59c0.14-0.12,0.3-0.18,0.5-0.18c0.2,0,0.37,0.06,0.51,0.18c0.14,0.12,0.21,0.32,0.21,0.59
	c0,0.26-0.07,0.45-0.21,0.58c-0.14,0.13-0.31,0.19-0.51,0.19c-0.19,0-0.36-0.06-0.5-0.19C121.54,36.47,121.47,36.27,121.47,36.01z
	 M124.45,36.01c0-0.27,0.07-0.47,0.21-0.59c0.14-0.12,0.3-0.18,0.5-0.18c0.19,0,0.36,0.06,0.5,0.18c0.14,0.12,0.21,0.32,0.21,0.59
	c0,0.26-0.07,0.45-0.21,0.58c-0.14,0.13-0.31,0.19-0.5,0.19c-0.19,0-0.36-0.06-0.5-0.19C124.51,36.47,124.45,36.27,124.45,36.01z
	 M136.38,37.01c0,0.7-0.37,1.35-1.12,1.95c-0.46,0.36-0.76,0.63-0.91,0.81c-0.15,0.17-0.22,0.35-0.22,0.52
	c0,0.17,0.04,0.3,0.11,0.41s0.2,0.24,0.38,0.39c0.18,0.15,0.48,0.36,0.89,0.62c0.73,0.5,1.23,0.95,1.49,1.36s0.4,0.88,0.4,1.4
	c0,0.83-0.25,1.47-0.76,1.92c-0.51,0.45-1.22,0.67-2.16,0.67c-0.98,0-1.75-0.18-2.3-0.54v-1.2c0.33,0.2,0.7,0.37,1.1,0.49
	s0.8,0.18,1.17,0.18c1.12,0,1.68-0.47,1.68-1.42c0-0.39-0.11-0.73-0.32-1c-0.22-0.28-0.61-0.6-1.18-0.96
	c-0.66-0.43-1.12-0.8-1.37-1.12s-0.38-0.7-0.38-1.14c0-0.33,0.09-0.63,0.27-0.91s0.45-0.55,0.82-0.83c0.39-0.3,0.67-0.56,0.84-0.8
	c0.17-0.23,0.25-0.49,0.25-0.77c0-0.42-0.18-0.74-0.53-0.96c-0.35-0.22-0.86-0.33-1.52-0.33c-1.44,0-2.16,0.58-2.16,1.74v9.41h-1.3
	v-9.39c0-0.93,0.29-1.63,0.86-2.12c0.57-0.49,1.44-0.73,2.59-0.73c1.07,0,1.9,0.2,2.49,0.61S136.38,36.26,136.38,37.01z
	 M142.94,47.05c-1.24,0-2.2-0.38-2.88-1.14s-1.02-1.84-1.02-3.24c0-1.43,0.34-2.54,1.04-3.32c0.69-0.78,1.67-1.17,2.95-1.17
	c0.41,0,0.82,0.04,1.23,0.13c0.41,0.09,0.73,0.19,0.97,0.31l-0.4,1.1c-0.29-0.11-0.6-0.21-0.94-0.29c-0.34-0.08-0.64-0.11-0.9-0.11
	c-1.74,0-2.61,1.11-2.61,3.33c0,1.05,0.21,1.86,0.64,2.42c0.42,0.56,1.05,0.84,1.89,0.84c0.71,0,1.45-0.15,2.2-0.46v1.15
	C144.53,46.9,143.81,47.05,142.94,47.05z M152.99,46.9v-5.54c0-0.7-0.16-1.22-0.48-1.56c-0.32-0.34-0.82-0.52-1.49-0.52
	c-0.9,0-1.56,0.25-1.97,0.73s-0.62,1.29-0.62,2.41v4.48h-1.3V34.74h1.3v3.68c0,0.44-0.02,0.81-0.06,1.1h0.08
	c0.25-0.41,0.62-0.74,1.09-0.97c0.47-0.24,1.01-0.36,1.61-0.36c1.05,0,1.83,0.25,2.36,0.75s0.79,1.29,0.79,2.37v5.59H152.99z
	 M156.84,36.01c0-0.3,0.07-0.51,0.22-0.65c0.15-0.14,0.33-0.21,0.55-0.21c0.21,0,0.39,0.07,0.54,0.21c0.15,0.14,0.23,0.36,0.23,0.65
	s-0.08,0.51-0.23,0.65c-0.15,0.14-0.33,0.21-0.54,0.21c-0.22,0-0.4-0.07-0.55-0.21C156.92,36.52,156.84,36.31,156.84,36.01z
	 M158.25,46.9h-1.3v-8.56h1.3V46.9z M164.91,38.18c0.38,0,0.72,0.03,1.02,0.09l-0.18,1.2c-0.35-0.08-0.67-0.12-0.94-0.12
	c-0.69,0-1.29,0.28-1.78,0.84s-0.74,1.26-0.74,2.1v4.59H161v-8.56h1.07l0.15,1.59h0.06c0.32-0.56,0.7-0.99,1.15-1.29
	C163.88,38.33,164.37,38.18,164.91,38.18z M168.75,38.33v5.55c0,0.7,0.16,1.22,0.48,1.56c0.32,0.34,0.81,0.52,1.49,0.52
	c0.9,0,1.55-0.25,1.96-0.73s0.62-1.29,0.62-2.4v-4.5h1.3v8.56h-1.07l-0.19-1.15h-0.07c-0.27,0.42-0.63,0.75-1.11,0.97
	c-0.47,0.22-1.01,0.34-1.61,0.34c-1.04,0-1.82-0.25-2.34-0.74c-0.52-0.5-0.78-1.29-0.78-2.38v-5.6H168.75z M181.26,38.18
	c0.38,0,0.72,0.03,1.02,0.09l-0.18,1.2c-0.35-0.08-0.67-0.12-0.94-0.12c-0.69,0-1.29,0.28-1.78,0.84s-0.74,1.26-0.74,2.1v4.59h-1.3
	v-8.56h1.07l0.15,1.59h0.06c0.32-0.56,0.7-0.99,1.15-1.29C180.23,38.33,180.72,38.18,181.26,38.18z M190.89,38.33v0.82l-1.59,0.19
	c0.15,0.18,0.28,0.42,0.39,0.71c0.11,0.29,0.17,0.63,0.17,1c0,0.84-0.29,1.51-0.86,2.01c-0.57,0.5-1.36,0.75-2.36,0.75
	c-0.26,0-0.5-0.02-0.72-0.06c-0.55,0.29-0.83,0.66-0.83,1.1c0,0.23,0.1,0.41,0.29,0.52c0.19,0.11,0.52,0.17,0.99,0.17h1.52
	c0.93,0,1.64,0.2,2.14,0.59c0.5,0.39,0.75,0.96,0.75,1.7c0,0.95-0.38,1.67-1.14,2.17c-0.76,0.5-1.87,0.75-3.33,0.75
	c-1.12,0-1.98-0.21-2.59-0.62c-0.61-0.42-0.91-1.01-0.91-1.77c0-0.52,0.17-0.97,0.5-1.35c0.33-0.38,0.8-0.64,1.41-0.77
	c-0.22-0.1-0.4-0.25-0.55-0.46s-0.22-0.45-0.22-0.73c0-0.31,0.08-0.59,0.25-0.82c0.17-0.23,0.43-0.46,0.79-0.68
	c-0.44-0.18-0.8-0.49-1.08-0.93c-0.28-0.44-0.42-0.94-0.42-1.5c0-0.94,0.28-1.66,0.84-2.17s1.36-0.76,2.39-0.76
	c0.45,0,0.85,0.05,1.21,0.16H190.89z M184.06,48.33c0,0.46,0.2,0.81,0.59,1.05c0.39,0.24,0.95,0.36,1.68,0.36
	c1.09,0,1.89-0.16,2.42-0.49c0.52-0.33,0.79-0.77,0.79-1.32c0-0.46-0.14-0.79-0.43-0.96c-0.29-0.18-0.83-0.27-1.62-0.27h-1.55
	c-0.59,0-1.05,0.14-1.38,0.42S184.06,47.81,184.06,48.33z M184.77,41.08c0,0.6,0.17,1.05,0.51,1.36c0.34,0.31,0.81,0.46,1.41,0.46
	c1.27,0,1.9-0.61,1.9-1.84c0-1.29-0.64-1.93-1.92-1.93c-0.61,0-1.08,0.16-1.41,0.49S184.77,40.43,184.77,41.08z M192.54,36.01
	c0-0.3,0.07-0.51,0.22-0.65c0.15-0.14,0.33-0.21,0.55-0.21c0.21,0,0.39,0.07,0.54,0.21c0.15,0.14,0.23,0.36,0.23,0.65
	s-0.08,0.51-0.23,0.65c-0.15,0.14-0.33,0.21-0.54,0.21c-0.22,0-0.4-0.07-0.55-0.21C192.61,36.52,192.54,36.31,192.54,36.01z
	 M193.95,46.9h-1.3v-8.56h1.3V46.9z M200.31,47.05c-1.27,0-2.26-0.39-3-1.16c-0.73-0.77-1.1-1.84-1.1-3.21
	c0-1.38,0.34-2.48,1.02-3.29s1.59-1.22,2.74-1.22c1.07,0,1.92,0.35,2.55,1.06s0.94,1.64,0.94,2.79v0.82h-5.9
	c0.03,1,0.28,1.77,0.76,2.29c0.48,0.52,1.16,0.78,2.04,0.78c0.92,0,1.83-0.19,2.73-0.58v1.16c-0.46,0.2-0.89,0.34-1.3,0.43
	C201.38,47.01,200.89,47.05,200.31,47.05z M199.96,39.26c-0.69,0-1.24,0.22-1.64,0.67c-0.41,0.45-0.65,1.07-0.72,1.86h4.48
	c0-0.82-0.18-1.44-0.55-1.88C201.16,39.48,200.64,39.26,199.96,39.26z M8.09,54.67h1.43L5.41,66.1H4.09L0,54.67h1.41l2.62,7.39
	c0.3,0.85,0.54,1.67,0.72,2.48c0.19-0.84,0.43-1.68,0.73-2.52L8.09,54.67z M14.52,66.25c-1.27,0-2.26-0.39-3-1.16
	c-0.73-0.77-1.1-1.84-1.1-3.21c0-1.38,0.34-2.48,1.02-3.29s1.59-1.22,2.74-1.22c1.07,0,1.92,0.35,2.55,1.06s0.94,1.64,0.94,2.79
	v0.82h-5.9c0.03,1,0.28,1.77,0.76,2.29c0.48,0.52,1.16,0.78,2.04,0.78c0.92,0,1.83-0.19,2.73-0.58v1.16
	c-0.46,0.2-0.89,0.34-1.3,0.43C15.59,66.21,15.09,66.25,14.52,66.25z M14.16,58.46c-0.69,0-1.24,0.22-1.64,0.67
	c-0.41,0.45-0.65,1.07-0.72,1.86h4.48c0-0.82-0.18-1.44-0.55-1.88C15.36,58.68,14.84,58.46,14.16,58.46z M25.73,66.1v-5.54
	c0-0.7-0.16-1.22-0.48-1.56c-0.32-0.34-0.82-0.52-1.49-0.52c-0.9,0-1.55,0.24-1.97,0.73c-0.42,0.48-0.62,1.28-0.62,2.4v4.49h-1.3
	v-8.56h1.05l0.21,1.17h0.06c0.27-0.42,0.64-0.75,1.12-0.98c0.48-0.23,1.01-0.35,1.6-0.35c1.03,0,1.81,0.25,2.33,0.75
	c0.52,0.5,0.78,1.29,0.78,2.39v5.59H25.73z M33.31,66.25c-1.27,0-2.26-0.39-3-1.16c-0.73-0.77-1.1-1.84-1.1-3.21
	c0-1.38,0.34-2.48,1.02-3.29s1.59-1.22,2.74-1.22c1.07,0,1.92,0.35,2.55,1.06s0.94,1.64,0.94,2.79v0.82h-5.9
	c0.03,1,0.28,1.77,0.76,2.29c0.48,0.52,1.16,0.78,2.04,0.78c0.92,0,1.83-0.19,2.73-0.58v1.16c-0.46,0.2-0.89,0.34-1.3,0.43
	C34.38,66.21,33.89,66.25,33.31,66.25z M32.96,58.46c-0.69,0-1.24,0.22-1.64,0.67c-0.41,0.45-0.65,1.07-0.72,1.86h4.48
	c0-0.82-0.18-1.44-0.55-1.88C34.16,58.68,33.64,58.46,32.96,58.46z M44.53,66.1v-5.54c0-0.7-0.16-1.22-0.48-1.56
	c-0.32-0.34-0.82-0.52-1.49-0.52c-0.9,0-1.55,0.24-1.97,0.73c-0.42,0.48-0.62,1.28-0.62,2.4v4.49h-1.3v-8.56h1.05l0.21,1.17H40
	c0.27-0.42,0.64-0.75,1.12-0.98c0.48-0.23,1.01-0.35,1.6-0.35c1.03,0,1.81,0.25,2.33,0.75c0.52,0.5,0.78,1.29,0.78,2.39v5.59H44.53z
	 M61.09,66.1h-1.56l-4.16-5.54l-1.2,1.06v4.48h-1.33V54.67h1.33v5.66l5.18-5.66h1.57l-4.59,4.96L61.09,66.1z M69.86,61.81
	c0,1.4-0.35,2.49-1.05,3.27s-1.67,1.18-2.91,1.18c-0.77,0-1.45-0.18-2.04-0.54s-1.05-0.88-1.38-1.55c-0.32-0.67-0.48-1.46-0.48-2.36
	c0-1.4,0.35-2.48,1.05-3.26c0.7-0.78,1.67-1.17,2.91-1.17c1.2,0,2.15,0.4,2.86,1.2C69.51,59.37,69.86,60.45,69.86,61.81z
	 M63.34,61.81c0,1.09,0.22,1.93,0.66,2.5s1.08,0.86,1.93,0.86c0.85,0,1.49-0.29,1.93-0.86c0.44-0.57,0.66-1.41,0.66-2.5
	c0-1.09-0.22-1.92-0.66-2.48c-0.44-0.57-1.09-0.85-1.95-0.85c-0.85,0-1.49,0.28-1.92,0.84C63.55,59.87,63.34,60.7,63.34,61.81z
	 M83.05,66.1v-5.57c0-0.68-0.15-1.19-0.44-1.54c-0.29-0.34-0.75-0.51-1.36-0.51c-0.81,0-1.4,0.23-1.79,0.7
	c-0.39,0.46-0.58,1.18-0.58,2.14v4.78h-1.3v-5.57c0-0.68-0.15-1.19-0.44-1.54c-0.29-0.34-0.75-0.51-1.37-0.51
	c-0.81,0-1.41,0.24-1.79,0.73c-0.38,0.49-0.57,1.29-0.57,2.39v4.49h-1.3v-8.56h1.05l0.21,1.17h0.06c0.24-0.42,0.59-0.74,1.04-0.98
	s0.94-0.35,1.5-0.35c1.34,0,2.21,0.48,2.62,1.45h0.06c0.25-0.45,0.62-0.8,1.11-1.06s1.04-0.39,1.66-0.39c0.97,0,1.69,0.25,2.18,0.75
	c0.48,0.5,0.72,1.29,0.72,2.39v5.59H83.05z M91,66.25c-0.56,0-1.07-0.1-1.53-0.31c-0.46-0.21-0.85-0.52-1.16-0.95h-0.09
	c0.06,0.5,0.09,0.97,0.09,1.42v3.52h-1.3V57.53h1.05l0.18,1.17h0.06c0.33-0.47,0.72-0.81,1.16-1.02c0.44-0.21,0.95-0.31,1.52-0.31
	c1.13,0,2.01,0.39,2.63,1.16s0.93,1.86,0.93,3.27c0,1.41-0.31,2.5-0.94,3.28C92.99,65.86,92.11,66.25,91,66.25z M90.81,58.48
	c-0.88,0-1.51,0.24-1.9,0.73s-0.59,1.25-0.6,2.31v0.29c0,1.2,0.2,2.06,0.6,2.58c0.4,0.52,1.04,0.78,1.93,0.78
	c0.74,0,1.32-0.3,1.74-0.9c0.42-0.6,0.63-1.42,0.63-2.48c0-1.07-0.21-1.89-0.63-2.46C92.16,58.76,91.57,58.48,90.81,58.48z
	 M100.44,66.25c-1.27,0-2.26-0.39-3-1.16c-0.73-0.77-1.1-1.84-1.1-3.21c0-1.38,0.34-2.48,1.02-3.29s1.59-1.22,2.74-1.22
	c1.07,0,1.92,0.35,2.55,1.06s0.94,1.64,0.94,2.79v0.82h-5.9c0.03,1,0.28,1.77,0.76,2.29c0.48,0.52,1.16,0.78,2.04,0.78
	c0.92,0,1.83-0.19,2.73-0.58v1.16c-0.46,0.2-0.89,0.34-1.3,0.43C101.51,66.21,101.02,66.25,100.44,66.25z M100.09,58.46
	c-0.69,0-1.24,0.22-1.64,0.67c-0.41,0.45-0.65,1.07-0.72,1.86h4.48c0-0.82-0.18-1.44-0.55-1.88
	C101.28,58.68,100.76,58.46,100.09,58.46z M108.56,65.18c0.23,0,0.45-0.02,0.66-0.05c0.21-0.03,0.38-0.07,0.51-0.11v0.99
	c-0.14,0.07-0.35,0.12-0.62,0.17c-0.27,0.04-0.52,0.07-0.74,0.07c-1.66,0-2.48-0.87-2.48-2.62v-5.09h-1.23v-0.62l1.23-0.54
	l0.55-1.83h0.75v1.98h2.48v1.01h-2.48v5.04c0,0.52,0.12,0.91,0.37,1.19C107.8,65.04,108.13,65.18,108.56,65.18z M115.06,66.25
	c-1.27,0-2.26-0.39-3-1.16c-0.73-0.77-1.1-1.84-1.1-3.21c0-1.38,0.34-2.48,1.02-3.29s1.59-1.22,2.74-1.22
	c1.07,0,1.92,0.35,2.55,1.06s0.94,1.64,0.94,2.79v0.82h-5.9c0.03,1,0.28,1.77,0.76,2.29c0.48,0.52,1.16,0.78,2.04,0.78
	c0.92,0,1.83-0.19,2.73-0.58v1.16c-0.46,0.2-0.89,0.34-1.3,0.43C116.13,66.21,115.64,66.25,115.06,66.25z M114.71,58.46
	c-0.69,0-1.24,0.22-1.64,0.67c-0.41,0.45-0.65,1.07-0.72,1.86h4.48c0-0.82-0.18-1.44-0.55-1.88
	C115.91,58.68,115.39,58.46,114.71,58.46z M126.28,66.1v-5.54c0-0.7-0.16-1.22-0.48-1.56c-0.32-0.34-0.82-0.52-1.49-0.52
	c-0.9,0-1.55,0.24-1.97,0.73c-0.42,0.48-0.62,1.28-0.62,2.4v4.49h-1.3v-8.56h1.05l0.21,1.17h0.06c0.27-0.42,0.64-0.75,1.12-0.98
	c0.48-0.23,1.01-0.35,1.6-0.35c1.03,0,1.81,0.25,2.33,0.75c0.52,0.5,0.78,1.29,0.78,2.39v5.59H126.28z M135.72,66.1h-6.21v-0.88
	l4.67-6.67h-4.38v-1.01h5.8v1.01l-4.61,6.55h4.73V66.1z M137.01,62.4v-1.19h3.84v1.19H137.01z M149.99,66.1h-7.85v-1.04l6.06-9.19
	h-5.88v-1.2h7.49v1.04l-6.06,9.18h6.23V66.1z M155.62,66.25c-1.27,0-2.26-0.39-3-1.16c-0.73-0.77-1.1-1.84-1.1-3.21
	c0-1.38,0.34-2.48,1.02-3.29s1.59-1.22,2.74-1.22c1.07,0,1.92,0.35,2.55,1.06s0.94,1.64,0.94,2.79v0.82h-5.9
	c0.03,1,0.28,1.77,0.76,2.29c0.48,0.52,1.16,0.78,2.04,0.78c0.92,0,1.83-0.19,2.73-0.58v1.16c-0.46,0.2-0.89,0.34-1.3,0.43
	C156.7,66.21,156.2,66.25,155.62,66.25z M155.27,58.46c-0.69,0-1.24,0.22-1.64,0.67c-0.41,0.45-0.65,1.07-0.72,1.86h4.48
	c0-0.82-0.18-1.44-0.55-1.88C156.47,58.68,155.95,58.46,155.27,58.46z M166.84,66.1v-5.54c0-0.7-0.16-1.22-0.48-1.56
	c-0.32-0.34-0.82-0.52-1.49-0.52c-0.9,0-1.55,0.24-1.97,0.73c-0.42,0.48-0.62,1.28-0.62,2.4v4.49h-1.3v-8.56h1.05l0.21,1.17h0.06
	c0.27-0.42,0.64-0.75,1.12-0.98c0.48-0.23,1.01-0.35,1.6-0.35c1.03,0,1.81,0.25,2.33,0.75c0.52,0.5,0.78,1.29,0.78,2.39v5.59H166.84
	z M174.71,57.38c0.38,0,0.72,0.03,1.02,0.09l-0.18,1.2c-0.35-0.08-0.67-0.12-0.94-0.12c-0.69,0-1.29,0.28-1.78,0.84
	s-0.74,1.26-0.74,2.1v4.59h-1.3v-8.56h1.07l0.15,1.59h0.06c0.32-0.56,0.7-0.99,1.15-1.29C173.68,57.53,174.17,57.38,174.71,57.38z
	 M178.55,57.53v5.55c0,0.7,0.16,1.22,0.48,1.56c0.32,0.34,0.81,0.52,1.49,0.52c0.9,0,1.55-0.25,1.96-0.73s0.62-1.29,0.62-2.4v-4.5
	h1.3v8.56h-1.07l-0.19-1.15h-0.07c-0.27,0.42-0.63,0.75-1.11,0.97c-0.47,0.22-1.01,0.34-1.61,0.34c-1.04,0-1.82-0.25-2.34-0.74
	c-0.52-0.5-0.78-1.29-0.78-2.38v-5.6H178.55z M198.07,66.1v-5.57c0-0.68-0.15-1.19-0.44-1.54c-0.29-0.34-0.75-0.51-1.36-0.51
	c-0.81,0-1.4,0.23-1.79,0.7c-0.39,0.46-0.58,1.18-0.58,2.14v4.78h-1.3v-5.57c0-0.68-0.15-1.19-0.44-1.54
	c-0.29-0.34-0.75-0.51-1.37-0.51c-0.81,0-1.41,0.24-1.79,0.73c-0.38,0.49-0.57,1.29-0.57,2.39v4.49h-1.3v-8.56h1.05l0.21,1.17h0.06
	c0.24-0.42,0.59-0.74,1.04-0.98s0.94-0.35,1.5-0.35c1.34,0,2.21,0.48,2.62,1.45h0.06c0.25-0.45,0.62-0.8,1.11-1.06
	s1.04-0.39,1.66-0.39c0.97,0,1.69,0.25,2.18,0.75c0.48,0.5,0.72,1.29,0.72,2.39v5.59H198.07z"/>
</svg>
